<svg width="16" height="16" viewBox="0 0 16 16" fill="none" xmlns="http://www.w3.org/2000/svg">
<g clip-path="url(#clip0_1583_57975)">
<path d="M1.09094 14.2411H3.63637V8.05931L0 5.33203V13.1502C0 13.753 0.488187 14.2412 1.09094 14.2412V14.2411Z" fill="#4285F4"/>
<path d="M12.3638 14.2411H14.9092C15.512 14.2411 16.0001 13.7529 16.0001 13.1502V5.33203L12.3638 8.05931V14.2411Z" fill="#34A853"/>
<path d="M12.3638 3.33212V8.0594L16.0001 5.33212V3.87759C16.0001 2.5294 14.4611 1.7594 13.382 2.5685L12.3638 3.33212Z" fill="#FBBC04"/>
<path fill-rule="evenodd" clip-rule="evenodd" d="M3.63623 8.05907V3.33179L7.99986 6.60454L12.3635 3.33179V8.05907L7.99986 11.3318L3.63623 8.05907Z" fill="#EA4335"/>
<path d="M0 3.87686V5.33139L3.63637 8.05867V3.33139L2.61819 2.56776C1.53906 1.75867 0 2.52867 0 3.8768V3.87686Z" fill="#C5221F"/>
</g>
<defs>
<clipPath id="clip0_1583_57975">
<rect width="16" height="16" fill="white"/>
</clipPath>
</defs>
</svg>
