<svg width="16" height="16" viewBox="0 0 16 16" fill="none" xmlns="http://www.w3.org/2000/svg">
<g clip-path="url(#clip0_1583_57917)">
<path d="M15.8439 8.18429C15.8439 7.64047 15.7998 7.09371 15.7058 6.55872H8.15991V9.63937H12.4811C12.3018 10.6329 11.7256 11.5119 10.8819 12.0704V14.0693H13.4599C14.9738 12.6759 15.8439 10.6182 15.8439 8.18429Z" fill="#4285F4"/>
<path d="M8.15999 16.0006C10.3176 16.0006 12.1372 15.2922 13.4629 14.0693L10.885 12.0704C10.1677 12.5584 9.24174 12.8347 8.16293 12.8347C6.07584 12.8347 4.30623 11.4266 3.67128 9.53357H1.01099V11.5942C2.36906 14.2956 5.13518 16.0006 8.15999 16.0006Z" fill="#34A853"/>
<path d="M3.66827 9.53343C3.33316 8.53986 3.33316 7.46399 3.66827 6.47042V4.40979H1.01091C-0.123755 6.67031 -0.123755 9.33354 1.01091 11.5941L3.66827 9.53343Z" fill="#FBBC04"/>
<path d="M8.15999 3.16644C9.30053 3.1488 10.4029 3.57798 11.2289 4.36578L13.5129 2.08174C12.0667 0.72367 10.1471 -0.0229773 8.15999 0.000539111C5.13518 0.000539111 2.36906 1.70548 1.01099 4.40987L3.66834 6.4705C4.30035 4.57449 6.0729 3.16644 8.15999 3.16644Z" fill="#EA4335"/>
</g>
<defs>
<clipPath id="clip0_1583_57917">
<rect width="16" height="16" fill="white"/>
</clipPath>
</defs>
</svg>
