<svg width="385" height="40" viewBox="0 0 385 40" fill="none" xmlns="http://www.w3.org/2000/svg">
<path d="M10.72 1.2H17.76L28.04 31H22.12L20 24.6H8.48L6.32 31H0.44L10.72 1.2ZM18.44 19.8L13.48 4.96H15L10.04 19.8H18.44ZM37.4859 31.48C35.8059 31.48 34.3393 31.12 33.0859 30.4C31.8593 29.6533 30.9126 28.6 30.2459 27.24C29.6059 25.88 29.2859 24.32 29.2859 22.56V9.24H34.5259V22.12C34.5259 23.48 34.9259 24.5867 35.7259 25.44C36.5259 26.2667 37.5926 26.68 38.9259 26.68C40.2326 26.68 41.2859 26.2533 42.0859 25.4C42.9126 24.5467 43.3259 23.4133 43.3259 22V9.24H48.5659V31H43.6059V26.72L44.0459 27.48C43.5393 28.7867 42.7126 29.7867 41.5659 30.48C40.4193 31.1467 39.0593 31.48 37.4859 31.48ZM62.5569 31.24C60.1035 31.24 58.1969 30.5733 56.8369 29.24C55.5035 27.88 54.8369 25.9733 54.8369 23.52V13.92H51.0769V9.24H51.4769C52.5435 9.24 53.3702 8.96 53.9569 8.4C54.5435 7.84 54.8369 7.02667 54.8369 5.96V3.6H60.0769V9.24H65.0769V13.92H60.0769V23.24C60.0769 24.36 60.3702 25.2133 60.9569 25.8C61.5435 26.36 62.4769 26.64 63.7569 26.64C64.1835 26.64 64.6502 26.6 65.1569 26.52V31.04C64.3835 31.1733 63.5169 31.24 62.5569 31.24ZM78.1791 31.48C76.0991 31.48 74.1657 30.9867 72.3791 30C70.6191 29.0133 69.2324 27.6533 68.2191 25.92C67.2057 24.1867 66.6991 22.2533 66.6991 20.12C66.6991 17.96 67.2057 16.0267 68.2191 14.32C69.2324 12.5867 70.6191 11.2267 72.3791 10.24C74.1391 9.25333 76.0724 8.76 78.1791 8.76C80.3124 8.76 82.2457 9.25333 83.9791 10.24C85.7391 11.2267 87.1257 12.5867 88.1391 14.32C89.1791 16.0533 89.6991 17.9867 89.6991 20.12C89.6991 22.28 89.1791 24.2267 88.1391 25.96C87.1257 27.6667 85.7391 29.0133 83.9791 30C82.2191 30.9867 80.2857 31.48 78.1791 31.48ZM78.2191 26.68C79.3657 26.68 80.3924 26.4 81.2991 25.84C82.2057 25.28 82.9124 24.5067 83.4191 23.52C83.9524 22.5067 84.2191 21.3733 84.2191 20.12C84.2191 18.8667 83.9524 17.7467 83.4191 16.76C82.9124 15.7733 82.2057 15 81.2991 14.44C80.3924 13.8533 79.3524 13.56 78.1791 13.56C77.0324 13.56 75.9924 13.8533 75.0591 14.44C74.1524 15 73.4324 15.7733 72.8991 16.76C72.3924 17.7467 72.1391 18.8667 72.1391 20.12C72.1391 21.3733 72.3924 22.5067 72.8991 23.52C73.4324 24.5067 74.1524 25.28 75.0591 25.84C75.9924 26.4 77.0457 26.68 78.2191 26.68ZM92.8728 9.24H97.7928V14.28L97.2328 13.44C97.6328 11.92 98.4195 10.76 99.5928 9.96C100.766 9.16 102.193 8.76 103.873 8.76C105.686 8.76 107.259 9.22666 108.593 10.16C109.953 11.0933 110.833 12.32 111.233 13.84L109.753 13.96C110.419 12.2533 111.406 10.96 112.713 10.08C114.019 9.2 115.566 8.76 117.353 8.76C118.899 8.76 120.273 9.12 121.473 9.84C122.699 10.5333 123.659 11.5067 124.353 12.76C125.046 13.9867 125.393 15.4 125.393 17V31H120.153V18.24C120.153 17.3067 119.979 16.4933 119.633 15.8C119.286 15.08 118.793 14.5333 118.153 14.16C117.539 13.76 116.806 13.56 115.953 13.56C114.699 13.56 113.686 13.9867 112.913 14.84C112.139 15.6667 111.753 16.8 111.753 18.24V31H106.513V18.24C106.513 17.3067 106.339 16.4933 105.993 15.8C105.646 15.08 105.153 14.5333 104.513 14.16C103.899 13.76 103.166 13.56 102.313 13.56C101.033 13.56 100.006 13.9867 99.2328 14.84C98.4861 15.6667 98.1128 16.8 98.1128 18.24V31H92.8728V9.24ZM135.626 31.48C134.106 31.48 132.786 31.2267 131.666 30.72C130.546 30.2133 129.679 29.4933 129.066 28.56C128.453 27.6 128.146 26.4933 128.146 25.24C128.146 23.4 128.773 21.8933 130.026 20.72C131.279 19.52 133.159 18.7067 135.666 18.28L142.786 17.12V21.12L136.666 22.16C135.626 22.3467 134.853 22.68 134.346 23.16C133.839 23.64 133.586 24.2667 133.586 25.04C133.586 25.7867 133.866 26.3867 134.426 26.84C134.986 27.2667 135.706 27.48 136.586 27.48C137.653 27.48 138.613 27.2533 139.466 26.8C140.319 26.32 140.973 25.6667 141.426 24.84C141.906 24.0133 142.146 23.1067 142.146 22.12V16.52C142.146 15.5867 141.773 14.8133 141.026 14.2C140.306 13.56 139.346 13.24 138.146 13.24C137.026 13.24 136.039 13.5333 135.186 14.12C134.333 14.7067 133.693 15.5067 133.266 16.52L128.986 14.44C129.626 12.7333 130.799 11.36 132.506 10.32C134.213 9.28 136.159 8.76 138.346 8.76C140.106 8.76 141.666 9.09333 143.026 9.76C144.413 10.4 145.479 11.3067 146.226 12.48C146.999 13.6533 147.386 15 147.386 16.52V31H142.426V27.28L143.546 27.2C142.693 28.6133 141.599 29.68 140.266 30.4C138.959 31.12 137.413 31.48 135.626 31.48ZM160.958 31.24C158.505 31.24 156.598 30.5733 155.238 29.24C153.905 27.88 153.238 25.9733 153.238 23.52V13.92H149.478V9.24H149.878C150.945 9.24 151.772 8.96 152.358 8.4C152.945 7.84 153.238 7.02667 153.238 5.96V3.6H158.478V9.24H163.478V13.92H158.478V23.24C158.478 24.36 158.772 25.2133 159.358 25.8C159.945 26.36 160.878 26.64 162.158 26.64C162.585 26.64 163.052 26.6 163.558 26.52V31.04C162.785 31.1733 161.918 31.24 160.958 31.24ZM166.762 9.24H172.002V31H166.762V9.24ZM169.362 6.24C168.429 6.24 167.695 5.97333 167.162 5.44C166.629 4.90666 166.362 4.17333 166.362 3.24C166.362 2.28 166.629 1.53333 167.162 0.999998C167.695 0.466665 168.429 0.199998 169.362 0.199998C170.322 0.199998 171.069 0.466665 171.602 0.999998C172.135 1.53333 172.402 2.28 172.402 3.24C172.402 4.2 172.135 4.94667 171.602 5.48C171.069 5.98667 170.322 6.24 169.362 6.24ZM186.64 31.48C184.56 31.48 182.627 30.9867 180.84 30C179.08 29.0133 177.693 27.6533 176.68 25.92C175.667 24.1867 175.16 22.2533 175.16 20.12C175.16 17.96 175.667 16.0267 176.68 14.32C177.693 12.5867 179.08 11.2267 180.84 10.24C182.6 9.25333 184.533 8.76 186.64 8.76C188.773 8.76 190.707 9.25333 192.44 10.24C194.2 11.2267 195.587 12.5867 196.6 14.32C197.64 16.0533 198.16 17.9867 198.16 20.12C198.16 22.28 197.64 24.2267 196.6 25.96C195.587 27.6667 194.2 29.0133 192.44 30C190.68 30.9867 188.747 31.48 186.64 31.48ZM186.68 26.68C187.827 26.68 188.853 26.4 189.76 25.84C190.667 25.28 191.373 24.5067 191.88 23.52C192.413 22.5067 192.68 21.3733 192.68 20.12C192.68 18.8667 192.413 17.7467 191.88 16.76C191.373 15.7733 190.667 15 189.76 14.44C188.853 13.8533 187.813 13.56 186.64 13.56C185.493 13.56 184.453 13.8533 183.52 14.44C182.613 15 181.893 15.7733 181.36 16.76C180.853 17.7467 180.6 18.8667 180.6 20.12C180.6 21.3733 180.853 22.5067 181.36 23.52C181.893 24.5067 182.613 25.28 183.52 25.84C184.453 26.4 185.507 26.68 186.68 26.68ZM201.334 9.24H206.254V13.52L205.854 12.76C206.36 11.4533 207.174 10.4667 208.294 9.8C209.44 9.10666 210.814 8.76 212.414 8.76C213.987 8.76 215.4 9.10666 216.654 9.8C217.907 10.4933 218.88 11.4667 219.574 12.72C220.267 13.9733 220.614 15.4 220.614 17V31H215.374V18.24C215.374 17.3067 215.187 16.4933 214.814 15.8C214.44 15.08 213.92 14.5333 213.254 14.16C212.587 13.76 211.827 13.56 210.974 13.56C209.667 13.56 208.6 13.9867 207.774 14.84C206.974 15.6933 206.574 16.8267 206.574 18.24V31H201.334V9.24ZM241.634 31.48C239.287 31.48 237.261 31.04 235.554 30.16C233.847 29.28 232.501 28.1733 231.514 26.84C230.554 25.48 229.941 24.0667 229.674 22.6L234.794 21.24C235.061 22.3333 235.501 23.2667 236.114 24.04C236.754 24.7867 237.541 25.3733 238.474 25.8C239.434 26.2 240.514 26.4 241.714 26.4C242.621 26.4 243.421 26.24 244.114 25.92C244.834 25.6 245.394 25.1733 245.794 24.64C246.194 24.08 246.394 23.4933 246.394 22.88C246.394 22 246.074 21.24 245.434 20.6C244.821 19.96 243.981 19.52 242.914 19.28L238.434 18.4C236.061 17.9467 234.194 16.92 232.834 15.32C231.474 13.72 230.794 11.7733 230.794 9.48C230.794 7.88 231.247 6.41333 232.154 5.08C233.087 3.72 234.314 2.65333 235.834 1.88C237.354 1.10667 238.994 0.719999 240.754 0.719999C242.967 0.719999 244.847 1.09333 246.394 1.84C247.941 2.58667 249.141 3.53333 249.994 4.68C250.874 5.82667 251.461 7.01333 251.754 8.24L246.674 9.84C246.301 8.88 245.834 8.10667 245.274 7.52C244.714 6.90667 244.061 6.46667 243.314 6.2C242.594 5.93333 241.741 5.8 240.754 5.8C239.927 5.8 239.181 5.97333 238.514 6.32C237.874 6.66667 237.367 7.12 236.994 7.68C236.647 8.21333 236.474 8.76 236.474 9.32C236.474 10.2 236.767 10.96 237.354 11.6C237.941 12.24 238.754 12.6667 239.794 12.88L244.034 13.8C246.647 14.36 248.647 15.4267 250.034 17C251.447 18.5467 252.154 20.4 252.154 22.56C252.154 24.1067 251.727 25.5733 250.874 26.96C250.021 28.32 248.794 29.4133 247.194 30.24C245.594 31.0667 243.741 31.48 241.634 31.48ZM265.933 31.48C263.747 31.48 261.8 30.9867 260.093 30C258.387 28.9867 257.067 27.6133 256.133 25.88C255.2 24.12 254.733 22.1867 254.733 20.08C254.733 17.9467 255.2 16.0267 256.133 14.32C257.067 12.5867 258.36 11.2267 260.013 10.24C261.667 9.25333 263.507 8.76 265.533 8.76C267.72 8.76 269.6 9.24 271.173 10.2C272.773 11.1333 274 12.4133 274.853 14.04C275.707 15.6667 276.133 17.4533 276.133 19.4C276.133 20.3067 276.04 21.04 275.853 21.6H259.053V17.6H272.893L270.413 19.48C270.653 18.28 270.587 17.2 270.213 16.24C269.867 15.2533 269.28 14.48 268.453 13.92C267.627 13.36 266.653 13.08 265.533 13.08C264.44 13.08 263.453 13.36 262.573 13.92C261.72 14.48 261.08 15.2933 260.653 16.36C260.227 17.4267 260.067 18.68 260.173 20.12C260.067 21.4533 260.24 22.6267 260.693 23.64C261.173 24.6533 261.867 25.4533 262.773 26.04C263.707 26.6 264.773 26.88 265.973 26.88C267.12 26.88 268.12 26.64 268.973 26.16C269.827 25.6533 270.507 24.96 271.013 24.08L275.253 26.16C274.587 27.7333 273.413 29.0133 271.733 30C270.053 30.9867 268.12 31.48 265.933 31.48ZM289.226 31.24C286.772 31.24 284.866 30.5733 283.506 29.24C282.172 27.88 281.506 25.9733 281.506 23.52V13.92H277.746V9.24H278.146C279.212 9.24 280.039 8.96 280.626 8.4C281.212 7.84 281.506 7.02667 281.506 5.96V3.6H286.746V9.24H291.746V13.92H286.746V23.24C286.746 24.36 287.039 25.2133 287.626 25.8C288.212 26.36 289.146 26.64 290.426 26.64C290.852 26.64 291.319 26.6 291.826 26.52V31.04C291.052 31.1733 290.186 31.24 289.226 31.24ZM304.949 31.24C302.496 31.24 300.589 30.5733 299.229 29.24C297.896 27.88 297.229 25.9733 297.229 23.52V13.92H293.469V9.24H293.869C294.936 9.24 295.762 8.96 296.349 8.4C296.936 7.84 297.229 7.02667 297.229 5.96V3.6H302.469V9.24H307.469V13.92H302.469V23.24C302.469 24.36 302.762 25.2133 303.349 25.8C303.936 26.36 304.869 26.64 306.149 26.64C306.576 26.64 307.042 26.6 307.549 26.52V31.04C306.776 31.1733 305.909 31.24 304.949 31.24ZM310.753 9.24H315.993V31H310.753V9.24ZM313.353 6.24C312.419 6.24 311.686 5.97333 311.153 5.44C310.619 4.90666 310.353 4.17333 310.353 3.24C310.353 2.28 310.619 1.53333 311.153 0.999998C311.686 0.466665 312.419 0.199998 313.353 0.199998C314.313 0.199998 315.059 0.466665 315.593 0.999998C316.126 1.53333 316.393 2.28 316.393 3.24C316.393 4.2 316.126 4.94667 315.593 5.48C315.059 5.98667 314.313 6.24 313.353 6.24ZM320.031 9.24H324.951V13.52L324.551 12.76C325.057 11.4533 325.871 10.4667 326.991 9.8C328.137 9.10666 329.511 8.76 331.111 8.76C332.684 8.76 334.097 9.10666 335.351 9.8C336.604 10.4933 337.577 11.4667 338.271 12.72C338.964 13.9733 339.311 15.4 339.311 17V31H334.071V18.24C334.071 17.3067 333.884 16.4933 333.511 15.8C333.137 15.08 332.617 14.5333 331.951 14.16C331.284 13.76 330.524 13.56 329.671 13.56C328.364 13.56 327.297 13.9867 326.471 14.84C325.671 15.6933 325.271 16.8267 325.271 18.24V31H320.031V9.24ZM353.502 39.8C351.048 39.8 348.902 39.2267 347.062 38.08C345.222 36.9333 343.942 35.3867 343.222 33.44L348.102 31.6C348.422 32.64 349.062 33.4667 350.022 34.08C350.982 34.6933 352.142 35 353.502 35C354.568 35 355.502 34.8 356.302 34.4C357.128 34 357.768 33.4133 358.222 32.64C358.675 31.8667 358.902 30.96 358.902 29.92V24.96L359.902 26.16C359.155 27.4667 358.155 28.4533 356.902 29.12C355.648 29.7867 354.222 30.12 352.622 30.12C350.622 30.12 348.808 29.6533 347.182 28.72C345.582 27.7867 344.328 26.5067 343.422 24.88C342.515 23.2533 342.062 21.4267 342.062 19.4C342.062 17.4 342.502 15.5867 343.382 13.96C344.288 12.3333 345.528 11.0667 347.102 10.16C348.702 9.22666 350.502 8.76 352.502 8.76C354.128 8.76 355.555 9.09333 356.782 9.76C358.008 10.4267 359.048 11.4133 359.902 12.72L359.182 14.04V9.24H364.142V29.92C364.142 31.8133 363.688 33.5067 362.782 35C361.875 36.4933 360.608 37.6667 358.982 38.52C357.382 39.3733 355.555 39.8 353.502 39.8ZM353.262 25.28C354.355 25.28 355.328 25.04 356.182 24.56C357.035 24.0533 357.702 23.36 358.182 22.48C358.662 21.6 358.902 20.5867 358.902 19.44C358.902 18.32 358.648 17.32 358.142 16.44C357.662 15.5333 356.995 14.8267 356.142 14.32C355.315 13.8133 354.355 13.56 353.262 13.56C352.168 13.56 351.182 13.8133 350.302 14.32C349.422 14.8267 348.728 15.5333 348.222 16.44C347.742 17.3467 347.502 18.3467 347.502 19.44C347.502 20.56 347.742 21.56 348.222 22.44C348.728 23.32 349.422 24.0133 350.302 24.52C351.182 25.0267 352.168 25.28 353.262 25.28ZM376.796 31.44C374.503 31.52 372.476 31.04 370.716 30C368.956 28.9333 367.73 27.4667 367.036 25.6L370.916 23.6C371.53 24.8 372.343 25.7333 373.356 26.4C374.37 27.04 375.476 27.3467 376.676 27.32C377.636 27.2933 378.383 27.0667 378.916 26.64C379.476 26.2133 379.743 25.64 379.716 24.92C379.69 24.3067 379.436 23.8133 378.956 23.44C378.476 23.04 377.863 22.7733 377.116 22.64L373.556 22.04C371.743 21.5867 370.343 20.8 369.356 19.68C368.37 18.5333 367.85 17.2 367.796 15.68C367.77 14.3733 368.076 13.2133 368.716 12.2C369.356 11.16 370.276 10.3467 371.476 9.76C372.676 9.14667 374.05 8.81333 375.596 8.76C377.65 8.70667 379.476 9.16 381.076 10.12C382.676 11.0533 383.836 12.3867 384.556 14.12L380.676 16.12C380.25 15.16 379.583 14.4 378.676 13.84C377.796 13.28 376.796 13.0133 375.676 13.04C374.823 13.0667 374.143 13.2933 373.636 13.72C373.13 14.12 372.89 14.64 372.916 15.28C372.943 15.8667 373.183 16.3467 373.636 16.72C374.116 17.0933 374.756 17.3733 375.556 17.56L379.036 18.2C380.85 18.68 382.25 19.48 383.236 20.6C384.25 21.6933 384.783 23.0133 384.836 24.56C384.863 25.8667 384.556 27.04 383.916 28.08C383.276 29.0933 382.33 29.8933 381.076 30.48C379.85 31.0667 378.423 31.3867 376.796 31.44Z" fill="#17191C"/>
</svg>
