<svg width="296" height="84" viewBox="0 0 296 84" fill="none" xmlns="http://www.w3.org/2000/svg">
<g clip-path="url(#clip0_1702_49416)">
<path d="M38 14C39.1046 14 40 13.1046 40 12C40 10.8954 39.1046 10 38 10C36.8954 10 36 10.8954 36 12C36 13.1046 36.8954 14 38 14Z" stroke="white" stroke-width="1.33" stroke-linecap="round" stroke-linejoin="round"/>
<path d="M42.9337 14C42.8449 14.2011 42.8184 14.4241 42.8577 14.6404C42.8969 14.8567 43 15.0562 43.1537 15.2134L43.1937 15.2534C43.3176 15.3772 43.416 15.5242 43.4831 15.6861C43.5502 15.848 43.5847 16.0215 43.5847 16.1967C43.5847 16.3719 43.5502 16.5454 43.4831 16.7073C43.416 16.8691 43.3176 17.0162 43.1937 17.14C43.0698 17.264 42.9228 17.3623 42.7609 17.4294C42.599 17.4965 42.4255 17.5311 42.2503 17.5311C42.0751 17.5311 41.9016 17.4965 41.7397 17.4294C41.5779 17.3623 41.4308 17.264 41.307 17.14L41.267 17.1C41.1099 16.9463 40.9103 16.8432 40.6941 16.804C40.4778 16.7648 40.2547 16.7913 40.0537 16.88C39.8565 16.9645 39.6883 17.1048 39.5699 17.2837C39.4514 17.4626 39.3878 17.6722 39.387 17.8867V18C39.387 18.3536 39.2465 18.6928 38.9965 18.9428C38.7464 19.1929 38.4073 19.3334 38.0537 19.3334C37.7 19.3334 37.3609 19.1929 37.1108 18.9428C36.8608 18.6928 36.7203 18.3536 36.7203 18V17.94C36.7152 17.7194 36.6437 17.5053 36.5153 17.3258C36.3869 17.1463 36.2075 17.0095 36.0003 16.9334C35.7992 16.8446 35.5762 16.8181 35.3599 16.8573C35.1437 16.8966 34.9441 16.9997 34.787 17.1534L34.747 17.1934C34.6232 17.3173 34.4761 17.4157 34.3142 17.4828C34.1524 17.5499 33.9789 17.5844 33.8037 17.5844C33.6284 17.5844 33.4549 17.5499 33.2931 17.4828C33.1312 17.4157 32.9842 17.3173 32.8603 17.1934C32.7364 17.0695 32.638 16.9225 32.5709 16.7606C32.5038 16.5987 32.4693 16.4252 32.4693 16.25C32.4693 16.0748 32.5038 15.9013 32.5709 15.7394C32.638 15.5776 32.7364 15.4305 32.8603 15.3067L32.9003 15.2667C33.054 15.1096 33.1571 14.91 33.1963 14.6937C33.2355 14.4775 33.2091 14.2544 33.1203 14.0534C33.0358 13.8562 32.8955 13.688 32.7166 13.5696C32.5378 13.4511 32.3282 13.3875 32.1137 13.3867H32.0003C31.6467 13.3867 31.3076 13.2462 31.0575 12.9962C30.8075 12.7461 30.667 12.407 30.667 12.0534C30.667 11.6997 30.8075 11.3606 31.0575 11.1105C31.3076 10.8605 31.6467 10.72 32.0003 10.72H32.0603C32.281 10.7149 32.495 10.6434 32.6745 10.515C32.8541 10.3866 32.9908 10.2072 33.067 10C33.1557 9.79894 33.1822 9.57589 33.143 9.35963C33.1038 9.14336 33.0007 8.94381 32.847 8.78669L32.807 8.74669C32.683 8.62286 32.5847 8.4758 32.5176 8.31394C32.4505 8.15208 32.4159 7.97857 32.4159 7.80335C32.4159 7.62813 32.4505 7.45463 32.5176 7.29277C32.5847 7.1309 32.683 6.98385 32.807 6.86002C32.9308 6.73605 33.0779 6.63771 33.2397 6.57061C33.4016 6.50351 33.5751 6.46897 33.7503 6.46897C33.9255 6.46897 34.099 6.50351 34.2609 6.57061C34.4228 6.63771 34.5698 6.73605 34.6937 6.86002L34.7337 6.90002C34.8908 7.05371 35.0903 7.15681 35.3066 7.19602C35.5229 7.23524 35.7459 7.20876 35.947 7.12002H36.0003C36.1975 7.03551 36.3657 6.89519 36.4841 6.71633C36.6026 6.53747 36.6661 6.32788 36.667 6.11335V6.00002C36.667 5.6464 36.8075 5.30726 37.0575 5.05721C37.3076 4.80716 37.6467 4.66669 38.0003 4.66669C38.3539 4.66669 38.6931 4.80716 38.9431 5.05721C39.1932 5.30726 39.3337 5.6464 39.3337 6.00002V6.06002C39.3345 6.27454 39.3981 6.48414 39.5165 6.663C39.635 6.84186 39.8031 6.98218 40.0003 7.06669C40.2014 7.15543 40.4245 7.1819 40.6407 7.14269C40.857 7.10348 41.0565 7.00038 41.2137 6.84669L41.2537 6.80669C41.3775 6.68272 41.5245 6.58437 41.6864 6.51727C41.8483 6.45017 42.0218 6.41564 42.197 6.41564C42.3722 6.41564 42.5457 6.45017 42.7076 6.51727C42.8694 6.58437 43.0165 6.68272 43.1403 6.80669C43.2643 6.93052 43.3626 7.07757 43.4297 7.23943C43.4968 7.4013 43.5314 7.5748 43.5314 7.75002C43.5314 7.92524 43.4968 8.09874 43.4297 8.26061C43.3626 8.42247 43.2643 8.56952 43.1403 8.69335L43.1003 8.73335C42.9466 8.89047 42.8435 9.09003 42.8043 9.30629C42.7651 9.52256 42.7916 9.74561 42.8803 9.94669V10C42.9648 10.1972 43.1052 10.3654 43.284 10.4838C43.4629 10.6023 43.6725 10.6658 43.887 10.6667H44.0003C44.3539 10.6667 44.6931 10.8072 44.9431 11.0572C45.1932 11.3073 45.3337 11.6464 45.3337 12C45.3337 12.3536 45.1932 12.6928 44.9431 12.9428C44.6931 13.1929 44.3539 13.3334 44.0003 13.3334H43.9403C43.7258 13.3342 43.5162 13.3978 43.3373 13.5162C43.1585 13.6347 43.0182 13.8028 42.9337 14V14Z" stroke="white" stroke-width="1.33" stroke-linecap="round" stroke-linejoin="round"/>
</g>
<path d="M53.0341 6.36364V18H51.2784V6.36364H53.0341ZM56.9934 12.8182V18H55.2945V9.27273H56.9252V10.6932H57.0332C57.2339 10.2311 57.5483 9.85985 57.9764 9.57955C58.4082 9.29924 58.9517 9.15909 59.607 9.15909C60.2017 9.15909 60.7226 9.28409 61.1695 9.53409C61.6165 9.7803 61.9631 10.1477 62.2093 10.6364C62.4555 11.125 62.5786 11.7292 62.5786 12.4489V18H60.8798V12.6534C60.8798 12.0208 60.715 11.5265 60.3855 11.1705C60.0559 10.8106 59.6033 10.6307 59.0275 10.6307C58.6336 10.6307 58.2832 10.7159 57.9764 10.8864C57.6733 11.0568 57.4328 11.3068 57.2548 11.6364C57.0805 11.9621 56.9934 12.3561 56.9934 12.8182ZM68.7709 9.27273V10.6364H64.0039V9.27273H68.7709ZM65.2823 7.18182H66.9811V15.4375C66.9811 15.767 67.0304 16.0152 67.1289 16.1818C67.2273 16.3447 67.3542 16.4564 67.5095 16.517C67.6686 16.5739 67.841 16.6023 68.0266 16.6023C68.163 16.6023 68.2823 16.5928 68.3845 16.5739C68.4868 16.5549 68.5664 16.5398 68.6232 16.5284L68.93 17.9318C68.8315 17.9697 68.6914 18.0076 68.5095 18.0455C68.3277 18.0871 68.1005 18.1098 67.8277 18.1136C67.3808 18.1212 66.9641 18.0417 66.5777 17.875C66.1914 17.7083 65.8789 17.4508 65.6402 17.1023C65.4016 16.7538 65.2823 16.3163 65.2823 15.7898V7.18182ZM74.1578 18.1761C73.2979 18.1761 72.5574 17.9924 71.9362 17.625C71.3188 17.2538 70.8415 16.733 70.5044 16.0625C70.171 15.3883 70.0044 14.5985 70.0044 13.6932C70.0044 12.7992 70.171 12.0114 70.5044 11.3295C70.8415 10.6477 71.3112 10.1155 71.9135 9.73295C72.5195 9.35038 73.2279 9.15909 74.0385 9.15909C74.5309 9.15909 75.0082 9.24053 75.4703 9.40341C75.9324 9.56629 76.3472 9.82197 76.7146 10.1705C77.082 10.5189 77.3718 10.9716 77.5839 11.5284C77.796 12.0814 77.9021 12.7538 77.9021 13.5455V14.1477H70.9646V12.875H76.2373C76.2373 12.428 76.1464 12.0322 75.9646 11.6875C75.7828 11.339 75.5271 11.0644 75.1976 10.8636C74.8718 10.6629 74.4892 10.5625 74.0498 10.5625C73.5726 10.5625 73.1559 10.6799 72.7998 10.9148C72.4476 11.1458 72.1748 11.4489 71.9816 11.8239C71.7923 12.1951 71.6976 12.5985 71.6976 13.0341V14.0284C71.6976 14.6117 71.7998 15.108 72.0044 15.517C72.2127 15.9261 72.5025 16.2386 72.8737 16.4545C73.2449 16.6667 73.6786 16.7727 74.1748 16.7727C74.4968 16.7727 74.7904 16.7273 75.0555 16.6364C75.3207 16.5417 75.5498 16.4015 75.743 16.2159C75.9362 16.0303 76.0839 15.8011 76.1862 15.5284L77.7941 15.8182C77.6654 16.2917 77.4343 16.7064 77.101 17.0625C76.7714 17.4148 76.3566 17.6894 75.8566 17.8864C75.3604 18.0795 74.7941 18.1761 74.1578 18.1761ZM83.2861 21.4545C82.593 21.4545 81.9964 21.3636 81.4964 21.1818C81.0002 21 80.5948 20.7595 80.2805 20.4602C79.9661 20.161 79.7312 19.8333 79.5759 19.4773L81.0361 18.875C81.1384 19.0417 81.2748 19.2178 81.4452 19.4034C81.6195 19.5928 81.8543 19.7538 82.1498 19.8864C82.449 20.0189 82.8335 20.0852 83.3032 20.0852C83.9471 20.0852 84.4793 19.928 84.8998 19.6136C85.3202 19.303 85.5305 18.8068 85.5305 18.125V16.4091H85.4225C85.3202 16.5947 85.1725 16.8011 84.9793 17.0284C84.7899 17.2557 84.5286 17.4527 84.1952 17.6193C83.8619 17.786 83.4282 17.8693 82.8941 17.8693C82.2047 17.8693 81.5835 17.7083 81.0305 17.3864C80.4812 17.0606 80.0456 16.5814 79.7236 15.9489C79.4055 15.3125 79.2464 14.5303 79.2464 13.6023C79.2464 12.6742 79.4036 11.8788 79.718 11.2159C80.0361 10.553 80.4717 10.0455 81.0248 9.69318C81.5778 9.33712 82.2047 9.15909 82.9055 9.15909C83.4471 9.15909 83.8846 9.25 84.218 9.43182C84.5513 9.60985 84.8108 9.81818 84.9964 10.0568C85.1858 10.2955 85.3316 10.5057 85.4339 10.6875H85.5589V9.27273H87.2236V18.1932C87.2236 18.9432 87.0494 19.5587 86.7009 20.0398C86.3524 20.5208 85.8808 20.8769 85.2861 21.108C84.6952 21.339 84.0286 21.4545 83.2861 21.4545ZM83.2691 16.4602C83.7577 16.4602 84.1706 16.3466 84.5077 16.1193C84.8486 15.8883 85.1062 15.5587 85.2805 15.1307C85.4585 14.6989 85.5475 14.1818 85.5475 13.5795C85.5475 12.9924 85.4604 12.4754 85.2861 12.0284C85.1119 11.5814 84.8562 11.233 84.5191 10.983C84.182 10.7292 83.7653 10.6023 83.2691 10.6023C82.7577 10.6023 82.3316 10.7348 81.9907 11C81.6498 11.2614 81.3922 11.6174 81.218 12.0682C81.0475 12.5189 80.9623 13.0227 80.9623 13.5795C80.9623 14.1515 81.0494 14.6534 81.2236 15.0852C81.3979 15.517 81.6555 15.8542 81.9964 16.0966C82.3411 16.339 82.7653 16.4602 83.2691 16.4602ZM89.342 18V9.27273H90.9841V10.6591H91.075C91.2341 10.1894 91.5144 9.82008 91.9159 9.55114C92.3212 9.27841 92.7795 9.14205 93.2909 9.14205C93.397 9.14205 93.522 9.14583 93.6659 9.15341C93.8136 9.16098 93.9292 9.17045 94.0125 9.18182V10.8068C93.9443 10.7879 93.8231 10.767 93.6489 10.7443C93.4746 10.7178 93.3004 10.7045 93.1261 10.7045C92.7246 10.7045 92.3667 10.7898 92.0523 10.9602C91.7417 11.1269 91.4955 11.3598 91.3136 11.6591C91.1318 11.9545 91.0409 12.2917 91.0409 12.6705V18H89.342ZM97.7843 18.1932C97.2313 18.1932 96.7313 18.0909 96.2843 17.8864C95.8373 17.678 95.4832 17.3769 95.2218 16.983C94.9642 16.589 94.8355 16.1061 94.8355 15.5341C94.8355 15.0417 94.9302 14.6364 95.1195 14.3182C95.3089 14 95.5646 13.7481 95.8866 13.5625C96.2086 13.3769 96.5684 13.2367 96.9661 13.142C97.3639 13.0473 97.7692 12.9754 98.182 12.9261C98.7048 12.8655 99.129 12.8163 99.4548 12.7784C99.7805 12.7367 100.017 12.6705 100.165 12.5795C100.313 12.4886 100.387 12.3409 100.387 12.1364V12.0966C100.387 11.6004 100.246 11.2159 99.9661 10.9432C99.6896 10.6705 99.2767 10.5341 98.7275 10.5341C98.1555 10.5341 97.7048 10.661 97.3752 10.9148C97.0495 11.1648 96.8241 11.4432 96.6991 11.75L95.1025 11.3864C95.2919 10.8561 95.5684 10.428 95.932 10.1023C96.2995 9.77273 96.7218 9.53409 97.1991 9.38636C97.6764 9.23485 98.1783 9.15909 98.7048 9.15909C99.0533 9.15909 99.4226 9.20076 99.8127 9.28409C100.207 9.36364 100.574 9.51136 100.915 9.72727C101.26 9.94318 101.542 10.2519 101.762 10.6534C101.981 11.0511 102.091 11.5682 102.091 12.2045V18H100.432V16.8068H100.364C100.254 17.0265 100.089 17.2424 99.8695 17.4545C99.6498 17.6667 99.3677 17.8428 99.023 17.983C98.6783 18.1231 98.2654 18.1932 97.7843 18.1932ZM98.1536 16.8295C98.6233 16.8295 99.0248 16.7367 99.3582 16.5511C99.6953 16.3655 99.951 16.1231 100.125 15.8239C100.303 15.5208 100.392 15.197 100.392 14.8523V13.7273C100.332 13.7879 100.214 13.8447 100.04 13.8977C99.8695 13.947 99.6745 13.9905 99.4548 14.0284C99.2351 14.0625 99.0211 14.0947 98.8127 14.125C98.6044 14.1515 98.4302 14.1742 98.29 14.1932C97.9605 14.2348 97.6593 14.3049 97.3866 14.4034C97.1177 14.5019 96.9017 14.6439 96.7389 14.8295C96.5798 15.0114 96.5002 15.2538 96.5002 15.5568C96.5002 15.9773 96.6555 16.2955 96.9661 16.5114C97.2767 16.7235 97.6726 16.8295 98.1536 16.8295ZM108.268 9.27273V10.6364H103.501V9.27273H108.268ZM104.779 7.18182H106.478V15.4375C106.478 15.767 106.527 16.0152 106.626 16.1818C106.724 16.3447 106.851 16.4564 107.006 16.517C107.166 16.5739 107.338 16.6023 107.523 16.6023C107.66 16.6023 107.779 16.5928 107.881 16.5739C107.984 16.5549 108.063 16.5398 108.12 16.5284L108.427 17.9318C108.328 17.9697 108.188 18.0076 108.006 18.0455C107.825 18.0871 107.597 18.1098 107.325 18.1136C106.878 18.1212 106.461 18.0417 106.075 17.875C105.688 17.7083 105.376 17.4508 105.137 17.1023C104.898 16.7538 104.779 16.3163 104.779 15.7898V7.18182ZM109.987 18V9.27273H111.686V18H109.987ZM110.845 7.92614C110.55 7.92614 110.296 7.82765 110.084 7.63068C109.875 7.42992 109.771 7.19129 109.771 6.91477C109.771 6.63447 109.875 6.39583 110.084 6.19886C110.296 5.99811 110.55 5.89773 110.845 5.89773C111.14 5.89773 111.392 5.99811 111.601 6.19886C111.813 6.39583 111.919 6.63447 111.919 6.91477C111.919 7.19129 111.813 7.42992 111.601 7.63068C111.392 7.82765 111.14 7.92614 110.845 7.92614ZM117.488 18.1761C116.669 18.1761 115.955 17.9886 115.346 17.6136C114.736 17.2386 114.262 16.714 113.925 16.0398C113.588 15.3655 113.419 14.5777 113.419 13.6761C113.419 12.7708 113.588 11.9792 113.925 11.3011C114.262 10.6231 114.736 10.0966 115.346 9.72159C115.955 9.34659 116.669 9.15909 117.488 9.15909C118.306 9.15909 119.02 9.34659 119.63 9.72159C120.239 10.0966 120.713 10.6231 121.05 11.3011C121.387 11.9792 121.556 12.7708 121.556 13.6761C121.556 14.5777 121.387 15.3655 121.05 16.0398C120.713 16.714 120.239 17.2386 119.63 17.6136C119.02 17.9886 118.306 18.1761 117.488 18.1761ZM117.493 16.75C118.024 16.75 118.463 16.6098 118.811 16.3295C119.16 16.0492 119.417 15.6761 119.584 15.2102C119.755 14.7443 119.84 14.2311 119.84 13.6705C119.84 13.1136 119.755 12.6023 119.584 12.1364C119.417 11.6667 119.16 11.2898 118.811 11.0057C118.463 10.7216 118.024 10.5795 117.493 10.5795C116.959 10.5795 116.516 10.7216 116.164 11.0057C115.815 11.2898 115.556 11.6667 115.385 12.1364C115.219 12.6023 115.135 13.1136 115.135 13.6705C115.135 14.2311 115.219 14.7443 115.385 15.2102C115.556 15.6761 115.815 16.0492 116.164 16.3295C116.516 16.6098 116.959 16.75 117.493 16.75ZM124.991 12.8182V18H123.292V9.27273H124.923V10.6932H125.031C125.231 10.2311 125.546 9.85985 125.974 9.57955C126.406 9.29924 126.949 9.15909 127.605 9.15909C128.199 9.15909 128.72 9.28409 129.167 9.53409C129.614 9.7803 129.961 10.1477 130.207 10.6364C130.453 11.125 130.576 11.7292 130.576 12.4489V18H128.877V12.6534C128.877 12.0208 128.713 11.5265 128.383 11.1705C128.053 10.8106 127.601 10.6307 127.025 10.6307C126.631 10.6307 126.281 10.7159 125.974 10.8864C125.671 11.0568 125.43 11.3068 125.252 11.6364C125.078 11.9621 124.991 12.3561 124.991 12.8182ZM139.234 11.4034L137.695 11.6761C137.63 11.4792 137.528 11.2917 137.388 11.1136C137.251 10.9356 137.066 10.7898 136.831 10.6761C136.596 10.5625 136.302 10.5057 135.95 10.5057C135.469 10.5057 135.068 10.6136 134.746 10.8295C134.424 11.0417 134.263 11.3163 134.263 11.6534C134.263 11.9451 134.371 12.1799 134.587 12.358C134.802 12.536 135.151 12.6818 135.632 12.7955L137.018 13.1136C137.821 13.2992 138.42 13.5852 138.814 13.9716C139.208 14.358 139.405 14.8598 139.405 15.4773C139.405 16 139.253 16.4659 138.95 16.875C138.651 17.2803 138.232 17.5985 137.695 17.8295C137.16 18.0606 136.541 18.1761 135.837 18.1761C134.859 18.1761 134.062 17.9678 133.445 17.5511C132.827 17.1307 132.448 16.5341 132.308 15.7614L133.95 15.5114C134.052 15.9394 134.263 16.2633 134.581 16.483C134.899 16.6989 135.314 16.8068 135.825 16.8068C136.382 16.8068 136.827 16.6913 137.16 16.4602C137.494 16.2254 137.66 15.9394 137.66 15.6023C137.66 15.3295 137.558 15.1004 137.354 14.9148C137.153 14.7292 136.844 14.589 136.427 14.4943L134.95 14.1705C134.136 13.9848 133.534 13.6894 133.143 13.2841C132.757 12.8788 132.564 12.3655 132.564 11.7443C132.564 11.2292 132.708 10.7784 132.996 10.392C133.284 10.0057 133.681 9.70455 134.189 9.48864C134.696 9.26894 135.278 9.15909 135.933 9.15909C136.876 9.15909 137.619 9.36364 138.16 9.77273C138.702 10.178 139.06 10.7216 139.234 11.4034Z" fill="white"/>
<path d="M40.7727 42H39.3636C39.2803 41.5947 39.1345 41.2386 38.9261 40.9318C38.7216 40.625 38.4716 40.3674 38.1761 40.1591C37.8845 39.947 37.5606 39.7879 37.2045 39.6818C36.8485 39.5758 36.4773 39.5227 36.0909 39.5227C35.3864 39.5227 34.7481 39.7008 34.1761 40.0568C33.608 40.4129 33.1553 40.9375 32.8182 41.6307C32.4848 42.3239 32.3182 43.1742 32.3182 44.1818C32.3182 45.1894 32.4848 46.0398 32.8182 46.733C33.1553 47.4261 33.608 47.9508 34.1761 48.3068C34.7481 48.6629 35.3864 48.8409 36.0909 48.8409C36.4773 48.8409 36.8485 48.7879 37.2045 48.6818C37.5606 48.5758 37.8845 48.4186 38.1761 48.2102C38.4716 47.9981 38.7216 47.7386 38.9261 47.4318C39.1345 47.1212 39.2803 46.7652 39.3636 46.3636H40.7727C40.6667 46.9583 40.4735 47.4905 40.1932 47.9602C39.9129 48.4299 39.5644 48.8295 39.1477 49.1591C38.7311 49.4848 38.2633 49.733 37.7443 49.9034C37.2292 50.0739 36.678 50.1591 36.0909 50.1591C35.0985 50.1591 34.2159 49.9167 33.4432 49.4318C32.6705 48.947 32.0625 48.2576 31.6193 47.3636C31.1761 46.4697 30.9545 45.4091 30.9545 44.1818C30.9545 42.9545 31.1761 41.8939 31.6193 41C32.0625 40.1061 32.6705 39.4167 33.4432 38.9318C34.2159 38.447 35.0985 38.2045 36.0909 38.2045C36.678 38.2045 37.2292 38.2898 37.7443 38.4602C38.2633 38.6307 38.7311 38.8807 39.1477 39.2102C39.5644 39.536 39.9129 39.9337 40.1932 40.4034C40.4735 40.8693 40.6667 41.4015 40.7727 42ZM46.2534 50.1818C45.4655 50.1818 44.7742 49.9943 44.1795 49.6193C43.5886 49.2443 43.1265 48.7197 42.7931 48.0455C42.4636 47.3712 42.2988 46.5833 42.2988 45.6818C42.2988 44.7727 42.4636 43.9792 42.7931 43.3011C43.1265 42.6231 43.5886 42.0966 44.1795 41.7216C44.7742 41.3466 45.4655 41.1591 46.2534 41.1591C47.0412 41.1591 47.7306 41.3466 48.3215 41.7216C48.9162 42.0966 49.3784 42.6231 49.7079 43.3011C50.0412 43.9792 50.2079 44.7727 50.2079 45.6818C50.2079 46.5833 50.0412 47.3712 49.7079 48.0455C49.3784 48.7197 48.9162 49.2443 48.3215 49.6193C47.7306 49.9943 47.0412 50.1818 46.2534 50.1818ZM46.2534 48.9773C46.8518 48.9773 47.3443 48.8239 47.7306 48.517C48.117 48.2102 48.403 47.8068 48.5886 47.3068C48.7742 46.8068 48.867 46.2652 48.867 45.6818C48.867 45.0985 48.7742 44.5549 48.5886 44.0511C48.403 43.5473 48.117 43.1402 47.7306 42.8295C47.3443 42.5189 46.8518 42.3636 46.2534 42.3636C45.6549 42.3636 45.1624 42.5189 44.7761 42.8295C44.3897 43.1402 44.1037 43.5473 43.9181 44.0511C43.7325 44.5549 43.6397 45.0985 43.6397 45.6818C43.6397 46.2652 43.7325 46.8068 43.9181 47.3068C44.1037 47.8068 44.3897 48.2102 44.7761 48.517C45.1624 48.8239 45.6549 48.9773 46.2534 48.9773ZM53.4357 44.75V50H52.0948V41.2727H53.3902V42.6364H53.5039C53.7084 42.1932 54.019 41.8371 54.4357 41.5682C54.8523 41.2955 55.3902 41.1591 56.0493 41.1591C56.6402 41.1591 57.1573 41.2803 57.6005 41.5227C58.0436 41.7614 58.3883 42.125 58.6345 42.6136C58.8808 43.0985 59.0039 43.7121 59.0039 44.4545V50H57.663V44.5455C57.663 43.8598 57.4849 43.3258 57.1289 42.9432C56.7728 42.5568 56.2842 42.3636 55.663 42.3636C55.2349 42.3636 54.8523 42.4564 54.5152 42.642C54.1819 42.8277 53.9186 43.0985 53.7255 43.4545C53.5323 43.8106 53.4357 44.2424 53.4357 44.75ZM62.6351 44.75V50H61.2941V41.2727H62.5896V42.6364H62.7032C62.9078 42.1932 63.2184 41.8371 63.6351 41.5682C64.0517 41.2955 64.5896 41.1591 65.2487 41.1591C65.8396 41.1591 66.3566 41.2803 66.7998 41.5227C67.243 41.7614 67.5877 42.125 67.8339 42.6136C68.0801 43.0985 68.2032 43.7121 68.2032 44.4545V50H66.8623V44.5455C66.8623 43.8598 66.6843 43.3258 66.3282 42.9432C65.9722 42.5568 65.4835 42.3636 64.8623 42.3636C64.4343 42.3636 64.0517 42.4564 63.7146 42.642C63.3813 42.8277 63.118 43.0985 62.9248 43.4545C62.7316 43.8106 62.6351 44.2424 62.6351 44.75ZM74.1526 50.1818C73.3117 50.1818 72.5863 49.9962 71.9765 49.625C71.3704 49.25 70.9026 48.7273 70.5731 48.0568C70.2473 47.3826 70.0844 46.5985 70.0844 45.7045C70.0844 44.8106 70.2473 44.0227 70.5731 43.3409C70.9026 42.6553 71.3609 42.1212 71.9481 41.7386C72.539 41.3523 73.2284 41.1591 74.0163 41.1591C74.4708 41.1591 74.9197 41.2348 75.3628 41.3864C75.806 41.5379 76.2094 41.7841 76.5731 42.125C76.9367 42.4621 77.2265 42.9091 77.4424 43.4659C77.6583 44.0227 77.7663 44.7083 77.7663 45.5227V46.0909H71.039V44.9318H76.4026C76.4026 44.4394 76.3041 44 76.1072 43.6136C75.914 43.2273 75.6375 42.9223 75.2776 42.6989C74.9216 42.4754 74.5011 42.3636 74.0163 42.3636C73.4822 42.3636 73.02 42.4962 72.6299 42.7614C72.2435 43.0227 71.9462 43.3636 71.7378 43.7841C71.5295 44.2045 71.4253 44.6553 71.4253 45.1364V45.9091C71.4253 46.5682 71.539 47.1269 71.7663 47.5852C71.9973 48.0398 72.3174 48.3864 72.7265 48.625C73.1356 48.8598 73.6109 48.9773 74.1526 48.9773C74.5049 48.9773 74.8231 48.928 75.1072 48.8295C75.395 48.7273 75.6431 48.5758 75.8515 48.375C76.0598 48.1705 76.2208 47.9167 76.3344 47.6136L77.6299 47.9773C77.4935 48.4167 77.2644 48.803 76.9424 49.1364C76.6204 49.4659 76.2227 49.7235 75.7492 49.9091C75.2757 50.0909 74.7435 50.1818 74.1526 50.1818ZM83.1915 50.1818C82.3733 50.1818 81.6688 49.9886 81.0778 49.6023C80.4869 49.2159 80.0324 48.6837 79.7142 48.0057C79.396 47.3277 79.2369 46.553 79.2369 45.6818C79.2369 44.7955 79.3998 44.0133 79.7256 43.3352C80.0551 42.6534 80.5134 42.1212 81.1006 41.7386C81.6915 41.3523 82.3809 41.1591 83.1688 41.1591C83.7824 41.1591 84.3354 41.2727 84.8278 41.5C85.3203 41.7273 85.7237 42.0455 86.0381 42.4545C86.3525 42.8636 86.5475 43.3409 86.6233 43.8864H85.2824C85.1801 43.4886 84.9528 43.1364 84.6006 42.8295C84.2521 42.5189 83.7824 42.3636 83.1915 42.3636C82.6688 42.3636 82.2104 42.5 81.8165 42.7727C81.4263 43.0417 81.1214 43.4223 80.9017 43.9148C80.6858 44.4034 80.5778 44.9773 80.5778 45.6364C80.5778 46.3106 80.6839 46.8977 80.896 47.3977C81.1119 47.8977 81.415 48.286 81.8051 48.5625C82.1991 48.839 82.6612 48.9773 83.1915 48.9773C83.54 48.9773 83.8563 48.9167 84.1403 48.7955C84.4244 48.6742 84.665 48.5 84.8619 48.2727C85.0589 48.0455 85.1991 47.7727 85.2824 47.4545H86.6233C86.5475 47.9697 86.36 48.4337 86.0608 48.8466C85.7653 49.2557 85.3733 49.5814 84.8847 49.8239C84.3998 50.0625 83.8354 50.1818 83.1915 50.1818ZM92.219 41.2727V42.4091H87.6963V41.2727H92.219ZM89.0144 39.1818H90.3553V47.5C90.3553 47.8788 90.4103 48.1629 90.5201 48.3523C90.6338 48.5379 90.7777 48.6629 90.9519 48.7273C91.13 48.7879 91.3175 48.8182 91.5144 48.8182C91.6622 48.8182 91.7834 48.8106 91.8781 48.7955C91.9728 48.7765 92.0485 48.7614 92.1053 48.75L92.3781 49.9545C92.2872 49.9886 92.1603 50.0227 91.9974 50.0568C91.8345 50.0947 91.6281 50.1136 91.3781 50.1136C90.9993 50.1136 90.6281 50.0322 90.2644 49.8693C89.9046 49.7064 89.6053 49.4583 89.3667 49.125C89.1319 48.7917 89.0144 48.3712 89.0144 47.8636V39.1818ZM102.211 41.2727V42.4091H97.6888V41.2727H102.211ZM99.0069 39.1818H100.348V47.5C100.348 47.8788 100.403 48.1629 100.513 48.3523C100.626 48.5379 100.77 48.6629 100.944 48.7273C101.122 48.7879 101.31 48.8182 101.507 48.8182C101.655 48.8182 101.776 48.8106 101.871 48.7955C101.965 48.7765 102.041 48.7614 102.098 48.75L102.371 49.9545C102.28 49.9886 102.153 50.0227 101.99 50.0568C101.827 50.0947 101.621 50.1136 101.371 50.1136C100.992 50.1136 100.621 50.0322 100.257 49.8693C99.8971 49.7064 99.5978 49.4583 99.3592 49.125C99.1244 48.7917 99.0069 48.3712 99.0069 47.8636V39.1818ZM107.52 50.1818C106.732 50.1818 106.041 49.9943 105.446 49.6193C104.855 49.2443 104.393 48.7197 104.06 48.0455C103.73 47.3712 103.566 46.5833 103.566 45.6818C103.566 44.7727 103.73 43.9792 104.06 43.3011C104.393 42.6231 104.855 42.0966 105.446 41.7216C106.041 41.3466 106.732 41.1591 107.52 41.1591C108.308 41.1591 108.997 41.3466 109.588 41.7216C110.183 42.0966 110.645 42.6231 110.975 43.3011C111.308 43.9792 111.475 44.7727 111.475 45.6818C111.475 46.5833 111.308 47.3712 110.975 48.0455C110.645 48.7197 110.183 49.2443 109.588 49.6193C108.997 49.9943 108.308 50.1818 107.52 50.1818ZM107.52 48.9773C108.119 48.9773 108.611 48.8239 108.997 48.517C109.384 48.2102 109.67 47.8068 109.855 47.3068C110.041 46.8068 110.134 46.2652 110.134 45.6818C110.134 45.0985 110.041 44.5549 109.855 44.0511C109.67 43.5473 109.384 43.1402 108.997 42.8295C108.611 42.5189 108.119 42.3636 107.52 42.3636C106.922 42.3636 106.429 42.5189 106.043 42.8295C105.657 43.1402 105.371 43.5473 105.185 44.0511C104.999 44.5549 104.907 45.0985 104.907 45.6818C104.907 46.2652 104.999 46.8068 105.185 47.3068C105.371 47.8068 105.657 48.2102 106.043 48.517C106.429 48.8239 106.922 48.9773 107.52 48.9773ZM124.247 41.2727C124.179 40.697 123.902 40.25 123.418 39.9318C122.933 39.6136 122.338 39.4545 121.633 39.4545C121.118 39.4545 120.668 39.5379 120.281 39.7045C119.899 39.8712 119.599 40.1004 119.383 40.392C119.171 40.6837 119.065 41.0152 119.065 41.3864C119.065 41.697 119.139 41.964 119.287 42.1875C119.438 42.4072 119.632 42.5909 119.866 42.7386C120.101 42.8826 120.347 43.0019 120.605 43.0966C120.863 43.1875 121.099 43.2614 121.315 43.3182L122.497 43.6364C122.8 43.7159 123.137 43.8258 123.508 43.9659C123.883 44.1061 124.241 44.2973 124.582 44.5398C124.927 44.7784 125.211 45.0852 125.435 45.4602C125.658 45.8352 125.77 46.2955 125.77 46.8409C125.77 47.4697 125.605 48.0379 125.276 48.5455C124.95 49.053 124.472 49.4564 123.844 49.7557C123.219 50.0549 122.459 50.2045 121.565 50.2045C120.732 50.2045 120.01 50.0701 119.401 49.8011C118.794 49.5322 118.317 49.1572 117.969 48.6761C117.624 48.1951 117.429 47.6364 117.383 47H118.838C118.876 47.4394 119.024 47.803 119.281 48.0909C119.543 48.375 119.872 48.5871 120.27 48.7273C120.671 48.8636 121.103 48.9318 121.565 48.9318C122.103 48.9318 122.586 48.8447 123.014 48.6705C123.442 48.4924 123.781 48.2462 124.031 47.9318C124.281 47.6136 124.406 47.2424 124.406 46.8182C124.406 46.4318 124.298 46.1174 124.082 45.875C123.866 45.6326 123.582 45.4356 123.23 45.2841C122.878 45.1326 122.497 45 122.088 44.8864L120.656 44.4773C119.747 44.2159 119.027 43.8428 118.497 43.358C117.967 42.8731 117.702 42.2386 117.702 41.4545C117.702 40.803 117.878 40.2348 118.23 39.75C118.586 39.2614 119.063 38.8826 119.662 38.6136C120.264 38.3409 120.936 38.2045 121.679 38.2045C122.429 38.2045 123.096 38.339 123.679 38.608C124.262 38.8731 124.724 39.2367 125.065 39.6989C125.41 40.161 125.592 40.6856 125.611 41.2727H124.247ZM129.086 44.75V50H127.745V38.3636H129.086V42.6364H129.199C129.404 42.1856 129.711 41.8277 130.12 41.5625C130.533 41.2936 131.082 41.1591 131.768 41.1591C132.362 41.1591 132.883 41.2784 133.33 41.517C133.777 41.7519 134.124 42.1136 134.37 42.6023C134.62 43.0871 134.745 43.7045 134.745 44.4545V50H133.404V44.5455C133.404 43.8523 133.224 43.3163 132.864 42.9375C132.508 42.5549 132.014 42.3636 131.381 42.3636C130.942 42.3636 130.548 42.4564 130.199 42.642C129.855 42.8277 129.582 43.0985 129.381 43.4545C129.184 43.8106 129.086 44.2424 129.086 44.75ZM140.583 50.1818C139.795 50.1818 139.104 49.9943 138.509 49.6193C137.919 49.2443 137.456 48.7197 137.123 48.0455C136.794 47.3712 136.629 46.5833 136.629 45.6818C136.629 44.7727 136.794 43.9792 137.123 43.3011C137.456 42.6231 137.919 42.0966 138.509 41.7216C139.104 41.3466 139.795 41.1591 140.583 41.1591C141.371 41.1591 142.061 41.3466 142.652 41.7216C143.246 42.0966 143.708 42.6231 144.038 43.3011C144.371 43.9792 144.538 44.7727 144.538 45.6818C144.538 46.5833 144.371 47.3712 144.038 48.0455C143.708 48.7197 143.246 49.2443 142.652 49.6193C142.061 49.9943 141.371 50.1818 140.583 50.1818ZM140.583 48.9773C141.182 48.9773 141.674 48.8239 142.061 48.517C142.447 48.2102 142.733 47.8068 142.919 47.3068C143.104 46.8068 143.197 46.2652 143.197 45.6818C143.197 45.0985 143.104 44.5549 142.919 44.0511C142.733 43.5473 142.447 43.1402 142.061 42.8295C141.674 42.5189 141.182 42.3636 140.583 42.3636C139.985 42.3636 139.492 42.5189 139.106 42.8295C138.72 43.1402 138.434 43.5473 138.248 44.0511C138.063 44.5549 137.97 45.0985 137.97 45.6818C137.97 46.2652 138.063 46.8068 138.248 47.3068C138.434 47.8068 138.72 48.2102 139.106 48.517C139.492 48.8239 139.985 48.9773 140.583 48.9773ZM146.425 53.2727V41.2727H147.72V42.6591H147.879C147.978 42.5076 148.114 42.3144 148.288 42.0795C148.466 41.8409 148.72 41.6288 149.05 41.4432C149.383 41.2538 149.834 41.1591 150.402 41.1591C151.137 41.1591 151.785 41.3428 152.345 41.7102C152.906 42.0777 153.343 42.5985 153.658 43.2727C153.972 43.947 154.129 44.7424 154.129 45.6591C154.129 46.5833 153.972 47.3845 153.658 48.0625C153.343 48.7367 152.908 49.2595 152.351 49.6307C151.794 49.9981 151.152 50.1818 150.425 50.1818C149.864 50.1818 149.415 50.089 149.078 49.9034C148.741 49.714 148.482 49.5 148.3 49.2614C148.118 49.0189 147.978 48.8182 147.879 48.6591H147.766V53.2727H146.425ZM147.743 45.6364C147.743 46.2955 147.84 46.8769 148.033 47.3807C148.226 47.8807 148.508 48.2727 148.879 48.5568C149.251 48.8371 149.705 48.9773 150.243 48.9773C150.804 48.9773 151.271 48.8295 151.646 48.5341C152.025 48.2348 152.309 47.8333 152.499 47.3295C152.692 46.822 152.788 46.2576 152.788 45.6364C152.788 45.0227 152.694 44.4697 152.504 43.9773C152.319 43.4811 152.037 43.089 151.658 42.8011C151.283 42.5095 150.811 42.3636 150.243 42.3636C149.698 42.3636 149.239 42.5019 148.868 42.7784C148.497 43.0511 148.216 43.4337 148.027 43.9261C147.838 44.4148 147.743 44.9848 147.743 45.6364ZM156.015 50V41.2727H157.356V50H156.015ZM156.697 39.8182C156.435 39.8182 156.21 39.7292 156.02 39.5511C155.835 39.3731 155.742 39.1591 155.742 38.9091C155.742 38.6591 155.835 38.4451 156.02 38.267C156.21 38.089 156.435 38 156.697 38C156.958 38 157.181 38.089 157.367 38.267C157.556 38.4451 157.651 38.6591 157.651 38.9091C157.651 39.1591 157.556 39.3731 157.367 39.5511C157.181 39.7292 156.958 39.8182 156.697 39.8182ZM163.538 41.2727V42.4091H158.833V41.2727H163.538ZM160.243 50V40.0682C160.243 39.5682 160.36 39.1515 160.595 38.8182C160.83 38.4848 161.135 38.2348 161.51 38.0682C161.885 37.9015 162.28 37.8182 162.697 37.8182C163.027 37.8182 163.296 37.8447 163.504 37.8977C163.712 37.9508 163.868 38 163.97 38.0455L163.583 39.2045C163.515 39.1818 163.421 39.1534 163.299 39.1193C163.182 39.0852 163.027 39.0682 162.833 39.0682C162.39 39.0682 162.07 39.1799 161.873 39.4034C161.68 39.6269 161.583 39.9545 161.583 40.3864V50H160.243ZM166.121 53.2727C165.894 53.2727 165.691 53.2538 165.513 53.2159C165.335 53.1818 165.212 53.1477 165.144 53.1136L165.485 51.9318C165.81 52.0152 166.098 52.0455 166.348 52.0227C166.598 52 166.82 51.8883 167.013 51.6875C167.21 51.4905 167.39 51.1705 167.553 50.7273L167.803 50.0455L164.575 41.2727H166.03L168.439 48.2273H168.53L170.939 41.2727H172.394L168.689 51.2727C168.522 51.7235 168.316 52.0966 168.07 52.392C167.824 52.6913 167.538 52.9129 167.212 53.0568C166.89 53.2008 166.526 53.2727 166.121 53.2727Z" fill="#C8CBD0"/>
<path d="M40.7727 68H39.3636C39.2803 67.5947 39.1345 67.2386 38.9261 66.9318C38.7216 66.625 38.4716 66.3674 38.1761 66.1591C37.8845 65.947 37.5606 65.7879 37.2045 65.6818C36.8485 65.5758 36.4773 65.5227 36.0909 65.5227C35.3864 65.5227 34.7481 65.7008 34.1761 66.0568C33.608 66.4129 33.1553 66.9375 32.8182 67.6307C32.4848 68.3239 32.3182 69.1742 32.3182 70.1818C32.3182 71.1894 32.4848 72.0398 32.8182 72.733C33.1553 73.4261 33.608 73.9508 34.1761 74.3068C34.7481 74.6629 35.3864 74.8409 36.0909 74.8409C36.4773 74.8409 36.8485 74.7879 37.2045 74.6818C37.5606 74.5758 37.8845 74.4186 38.1761 74.2102C38.4716 73.9981 38.7216 73.7386 38.9261 73.4318C39.1345 73.1212 39.2803 72.7652 39.3636 72.3636H40.7727C40.6667 72.9583 40.4735 73.4905 40.1932 73.9602C39.9129 74.4299 39.5644 74.8295 39.1477 75.1591C38.7311 75.4848 38.2633 75.733 37.7443 75.9034C37.2292 76.0739 36.678 76.1591 36.0909 76.1591C35.0985 76.1591 34.2159 75.9167 33.4432 75.4318C32.6705 74.947 32.0625 74.2576 31.6193 73.3636C31.1761 72.4697 30.9545 71.4091 30.9545 70.1818C30.9545 68.9545 31.1761 67.8939 31.6193 67C32.0625 66.1061 32.6705 65.4167 33.4432 64.9318C34.2159 64.447 35.0985 64.2045 36.0909 64.2045C36.678 64.2045 37.2292 64.2898 37.7443 64.4602C38.2633 64.6307 38.7311 64.8807 39.1477 65.2102C39.5644 65.536 39.9129 65.9337 40.1932 66.4034C40.4735 66.8693 40.6667 67.4015 40.7727 68ZM46.2534 76.1818C45.4655 76.1818 44.7742 75.9943 44.1795 75.6193C43.5886 75.2443 43.1265 74.7197 42.7931 74.0455C42.4636 73.3712 42.2988 72.5833 42.2988 71.6818C42.2988 70.7727 42.4636 69.9792 42.7931 69.3011C43.1265 68.6231 43.5886 68.0966 44.1795 67.7216C44.7742 67.3466 45.4655 67.1591 46.2534 67.1591C47.0412 67.1591 47.7306 67.3466 48.3215 67.7216C48.9162 68.0966 49.3784 68.6231 49.7079 69.3011C50.0412 69.9792 50.2079 70.7727 50.2079 71.6818C50.2079 72.5833 50.0412 73.3712 49.7079 74.0455C49.3784 74.7197 48.9162 75.2443 48.3215 75.6193C47.7306 75.9943 47.0412 76.1818 46.2534 76.1818ZM46.2534 74.9773C46.8518 74.9773 47.3443 74.8239 47.7306 74.517C48.117 74.2102 48.403 73.8068 48.5886 73.3068C48.7742 72.8068 48.867 72.2652 48.867 71.6818C48.867 71.0985 48.7742 70.5549 48.5886 70.0511C48.403 69.5473 48.117 69.1402 47.7306 68.8295C47.3443 68.5189 46.8518 68.3636 46.2534 68.3636C45.6549 68.3636 45.1624 68.5189 44.7761 68.8295C44.3897 69.1402 44.1037 69.5473 43.9181 70.0511C43.7325 70.5549 43.6397 71.0985 43.6397 71.6818C43.6397 72.2652 43.7325 72.8068 43.9181 73.3068C44.1037 73.8068 44.3897 74.2102 44.7761 74.517C45.1624 74.8239 45.6549 74.9773 46.2534 74.9773ZM53.4357 70.75V76H52.0948V67.2727H53.3902V68.6364H53.5039C53.7084 68.1932 54.019 67.8371 54.4357 67.5682C54.8523 67.2955 55.3902 67.1591 56.0493 67.1591C56.6402 67.1591 57.1573 67.2803 57.6005 67.5227C58.0436 67.7614 58.3883 68.125 58.6345 68.6136C58.8808 69.0985 59.0039 69.7121 59.0039 70.4545V76H57.663V70.5455C57.663 69.8598 57.4849 69.3258 57.1289 68.9432C56.7728 68.5568 56.2842 68.3636 55.663 68.3636C55.2349 68.3636 54.8523 68.4564 54.5152 68.642C54.1819 68.8277 53.9186 69.0985 53.7255 69.4545C53.5323 69.8106 53.4357 70.2424 53.4357 70.75ZM62.6351 70.75V76H61.2941V67.2727H62.5896V68.6364H62.7032C62.9078 68.1932 63.2184 67.8371 63.6351 67.5682C64.0517 67.2955 64.5896 67.1591 65.2487 67.1591C65.8396 67.1591 66.3566 67.2803 66.7998 67.5227C67.243 67.7614 67.5877 68.125 67.8339 68.6136C68.0801 69.0985 68.2032 69.7121 68.2032 70.4545V76H66.8623V70.5455C66.8623 69.8598 66.6843 69.3258 66.3282 68.9432C65.9722 68.5568 65.4835 68.3636 64.8623 68.3636C64.4343 68.3636 64.0517 68.4564 63.7146 68.642C63.3813 68.8277 63.118 69.0985 62.9248 69.4545C62.7316 69.8106 62.6351 70.2424 62.6351 70.75ZM74.1526 76.1818C73.3117 76.1818 72.5863 75.9962 71.9765 75.625C71.3704 75.25 70.9026 74.7273 70.5731 74.0568C70.2473 73.3826 70.0844 72.5985 70.0844 71.7045C70.0844 70.8106 70.2473 70.0227 70.5731 69.3409C70.9026 68.6553 71.3609 68.1212 71.9481 67.7386C72.539 67.3523 73.2284 67.1591 74.0163 67.1591C74.4708 67.1591 74.9197 67.2348 75.3628 67.3864C75.806 67.5379 76.2094 67.7841 76.5731 68.125C76.9367 68.4621 77.2265 68.9091 77.4424 69.4659C77.6583 70.0227 77.7663 70.7083 77.7663 71.5227V72.0909H71.039V70.9318H76.4026C76.4026 70.4394 76.3041 70 76.1072 69.6136C75.914 69.2273 75.6375 68.9223 75.2776 68.6989C74.9216 68.4754 74.5011 68.3636 74.0163 68.3636C73.4822 68.3636 73.02 68.4962 72.6299 68.7614C72.2435 69.0227 71.9462 69.3636 71.7378 69.7841C71.5295 70.2045 71.4253 70.6553 71.4253 71.1364V71.9091C71.4253 72.5682 71.539 73.1269 71.7663 73.5852C71.9973 74.0398 72.3174 74.3864 72.7265 74.625C73.1356 74.8598 73.6109 74.9773 74.1526 74.9773C74.5049 74.9773 74.8231 74.928 75.1072 74.8295C75.395 74.7273 75.6431 74.5758 75.8515 74.375C76.0598 74.1705 76.2208 73.9167 76.3344 73.6136L77.6299 73.9773C77.4935 74.4167 77.2644 74.803 76.9424 75.1364C76.6204 75.4659 76.2227 75.7235 75.7492 75.9091C75.2757 76.0909 74.7435 76.1818 74.1526 76.1818ZM83.1915 76.1818C82.3733 76.1818 81.6688 75.9886 81.0778 75.6023C80.4869 75.2159 80.0324 74.6837 79.7142 74.0057C79.396 73.3277 79.2369 72.553 79.2369 71.6818C79.2369 70.7955 79.3998 70.0133 79.7256 69.3352C80.0551 68.6534 80.5134 68.1212 81.1006 67.7386C81.6915 67.3523 82.3809 67.1591 83.1688 67.1591C83.7824 67.1591 84.3354 67.2727 84.8278 67.5C85.3203 67.7273 85.7237 68.0455 86.0381 68.4545C86.3525 68.8636 86.5475 69.3409 86.6233 69.8864H85.2824C85.1801 69.4886 84.9528 69.1364 84.6006 68.8295C84.2521 68.5189 83.7824 68.3636 83.1915 68.3636C82.6688 68.3636 82.2104 68.5 81.8165 68.7727C81.4263 69.0417 81.1214 69.4223 80.9017 69.9148C80.6858 70.4034 80.5778 70.9773 80.5778 71.6364C80.5778 72.3106 80.6839 72.8977 80.896 73.3977C81.1119 73.8977 81.415 74.286 81.8051 74.5625C82.1991 74.839 82.6612 74.9773 83.1915 74.9773C83.54 74.9773 83.8563 74.9167 84.1403 74.7955C84.4244 74.6742 84.665 74.5 84.8619 74.2727C85.0589 74.0455 85.1991 73.7727 85.2824 73.4545H86.6233C86.5475 73.9697 86.36 74.4337 86.0608 74.8466C85.7653 75.2557 85.3733 75.5814 84.8847 75.8239C84.3998 76.0625 83.8354 76.1818 83.1915 76.1818ZM92.219 67.2727V68.4091H87.6963V67.2727H92.219ZM89.0144 65.1818H90.3553V73.5C90.3553 73.8788 90.4103 74.1629 90.5201 74.3523C90.6338 74.5379 90.7777 74.6629 90.9519 74.7273C91.13 74.7879 91.3175 74.8182 91.5144 74.8182C91.6622 74.8182 91.7834 74.8106 91.8781 74.7955C91.9728 74.7765 92.0485 74.7614 92.1053 74.75L92.3781 75.9545C92.2872 75.9886 92.1603 76.0227 91.9974 76.0568C91.8345 76.0947 91.6281 76.1136 91.3781 76.1136C90.9993 76.1136 90.6281 76.0322 90.2644 75.8693C89.9046 75.7064 89.6053 75.4583 89.3667 75.125C89.1319 74.7917 89.0144 74.3712 89.0144 73.8636V65.1818ZM102.075 76.1818C101.234 76.1818 100.509 75.9962 99.899 75.625C99.2929 75.25 98.8251 74.7273 98.4956 74.0568C98.1698 73.3826 98.0069 72.5985 98.0069 71.7045C98.0069 70.8106 98.1698 70.0227 98.4956 69.3409C98.8251 68.6553 99.2834 68.1212 99.8706 67.7386C100.461 67.3523 101.151 67.1591 101.939 67.1591C102.393 67.1591 102.842 67.2348 103.285 67.3864C103.729 67.5379 104.132 67.7841 104.496 68.125C104.859 68.4621 105.149 68.9091 105.365 69.4659C105.581 70.0227 105.689 70.7083 105.689 71.5227V72.0909H98.9615V70.9318H104.325C104.325 70.4394 104.227 70 104.03 69.6136C103.836 69.2273 103.56 68.9223 103.2 68.6989C102.844 68.4754 102.424 68.3636 101.939 68.3636C101.405 68.3636 100.943 68.4962 100.552 68.7614C100.166 69.0227 99.8687 69.3636 99.6603 69.7841C99.452 70.2045 99.3478 70.6553 99.3478 71.1364V71.9091C99.3478 72.5682 99.4615 73.1269 99.6888 73.5852C99.9198 74.0398 100.24 74.3864 100.649 74.625C101.058 74.8598 101.533 74.9773 102.075 74.9773C102.427 74.9773 102.746 74.928 103.03 74.8295C103.318 74.7273 103.566 74.5758 103.774 74.375C103.982 74.1705 104.143 73.9167 104.257 73.6136L105.552 73.9773C105.416 74.4167 105.187 74.803 104.865 75.1364C104.543 75.4659 104.145 75.7235 103.672 75.9091C103.198 76.0909 102.666 76.1818 102.075 76.1818ZM107.569 76V67.2727H108.864V68.6364H108.978C109.159 68.1705 109.453 67.8087 109.858 67.5511C110.264 67.2898 110.75 67.1591 111.319 67.1591C111.894 67.1591 112.373 67.2898 112.756 67.5511C113.142 67.8087 113.444 68.1705 113.659 68.6364H113.75C113.974 68.1856 114.309 67.8277 114.756 67.5625C115.203 67.2936 115.739 67.1591 116.364 67.1591C117.144 67.1591 117.783 67.4034 118.279 67.892C118.775 68.3769 119.023 69.1326 119.023 70.1591V76H117.682V70.1591C117.682 69.5152 117.506 69.0549 117.154 68.7784C116.801 68.5019 116.387 68.3636 115.909 68.3636C115.296 68.3636 114.82 68.5492 114.483 68.9205C114.146 69.2879 113.978 69.7538 113.978 70.3182V76H112.614V70.0227C112.614 69.5265 112.453 69.1269 112.131 68.8239C111.809 68.517 111.394 68.3636 110.887 68.3636C110.538 68.3636 110.212 68.4564 109.909 68.642C109.61 68.8277 109.368 69.0852 109.182 69.4148C109 69.7405 108.909 70.1174 108.909 70.5455V76H107.569ZM123.883 76.2045C123.33 76.2045 122.828 76.1004 122.377 75.892C121.927 75.6799 121.569 75.375 121.303 74.9773C121.038 74.5758 120.906 74.0909 120.906 73.5227C120.906 73.0227 121.004 72.6174 121.201 72.3068C121.398 71.9924 121.661 71.7462 121.991 71.5682C122.32 71.3902 122.684 71.2576 123.082 71.1705C123.483 71.0795 123.887 71.0076 124.292 70.9545C124.822 70.8864 125.252 70.8352 125.582 70.8011C125.915 70.7633 126.158 70.7008 126.309 70.6136C126.464 70.5265 126.542 70.375 126.542 70.1591V70.1136C126.542 69.553 126.389 69.1174 126.082 68.8068C125.779 68.4962 125.319 68.3409 124.701 68.3409C124.061 68.3409 123.559 68.4811 123.195 68.7614C122.832 69.0417 122.576 69.3409 122.428 69.6591L121.156 69.2045C121.383 68.6742 121.686 68.2614 122.065 67.9659C122.447 67.6667 122.864 67.4583 123.315 67.3409C123.769 67.2197 124.216 67.1591 124.656 67.1591C124.936 67.1591 125.258 67.1932 125.622 67.2614C125.989 67.3258 126.343 67.4602 126.684 67.6648C127.029 67.8693 127.315 68.178 127.542 68.5909C127.769 69.0038 127.883 69.5568 127.883 70.25V76H126.542V74.8182H126.474C126.383 75.0076 126.231 75.2102 126.019 75.4261C125.807 75.642 125.525 75.8258 125.173 75.9773C124.82 76.1288 124.391 76.2045 123.883 76.2045ZM124.088 75C124.618 75 125.065 74.8958 125.428 74.6875C125.796 74.4792 126.072 74.2102 126.258 73.8807C126.447 73.5511 126.542 73.2045 126.542 72.8409V71.6136C126.485 71.6818 126.36 71.7443 126.167 71.8011C125.978 71.8542 125.758 71.9015 125.508 71.9432C125.262 71.9811 125.021 72.0152 124.786 72.0455C124.555 72.072 124.368 72.0947 124.224 72.1136C123.875 72.1591 123.55 72.233 123.247 72.3352C122.947 72.4337 122.705 72.5833 122.519 72.7841C122.338 72.9811 122.247 73.25 122.247 73.5909C122.247 74.0568 122.419 74.4091 122.764 74.6477C123.112 74.8826 123.553 75 124.088 75ZM130.17 76V67.2727H131.511V76H130.17ZM130.852 65.8182C130.591 65.8182 130.365 65.7292 130.176 65.5511C129.99 65.3731 129.898 65.1591 129.898 64.9091C129.898 64.6591 129.99 64.4451 130.176 64.267C130.365 64.089 130.591 64 130.852 64C131.114 64 131.337 64.089 131.523 64.267C131.712 64.4451 131.807 64.6591 131.807 64.9091C131.807 65.1591 131.712 65.3731 131.523 65.5511C131.337 65.7292 131.114 65.8182 130.852 65.8182ZM135.148 64.3636V76H133.807V64.3636H135.148Z" fill="#C8CBD0"/>
<defs>
<clipPath id="clip0_1702_49416">
<rect width="16" height="16" fill="white" transform="translate(30 4)"/>
</clipPath>
</defs>
</svg>
