<svg width="296" height="84" viewBox="0 0 296 84" fill="none" xmlns="http://www.w3.org/2000/svg">
<path d="M32 10L38 5.33334L44 10V17.3333C44 17.687 43.8595 18.0261 43.6095 18.2762C43.3594 18.5262 43.0203 18.6667 42.6667 18.6667H33.3333C32.9797 18.6667 32.6406 18.5262 32.3905 18.2762C32.1405 18.0261 32 17.687 32 17.3333V10Z" stroke="white" stroke-width="1.33" stroke-linecap="round" stroke-linejoin="round"/>
<path d="M36 18.6667V12H40V18.6667" stroke="white" stroke-width="1.33" stroke-linecap="round" stroke-linejoin="round"/>
<path d="M51.2784 18V6.36364H53.0341V11.4205H58.8352V6.36364H60.5966V18H58.8352V12.9261H53.0341V18H51.2784ZM66.5332 18.1761C65.715 18.1761 65.001 17.9886 64.3911 17.6136C63.7813 17.2386 63.3078 16.714 62.9707 16.0398C62.6336 15.3655 62.465 14.5777 62.465 13.6761C62.465 12.7708 62.6336 11.9792 62.9707 11.3011C63.3078 10.6231 63.7813 10.0966 64.3911 9.72159C65.001 9.34659 65.715 9.15909 66.5332 9.15909C67.3514 9.15909 68.0654 9.34659 68.6752 9.72159C69.2851 10.0966 69.7586 10.6231 70.0957 11.3011C70.4328 11.9792 70.6014 12.7708 70.6014 13.6761C70.6014 14.5777 70.4328 15.3655 70.0957 16.0398C69.7586 16.714 69.2851 17.2386 68.6752 17.6136C68.0654 17.9886 67.3514 18.1761 66.5332 18.1761ZM66.5389 16.75C67.0692 16.75 67.5086 16.6098 67.857 16.3295C68.2055 16.0492 68.4631 15.6761 68.6298 15.2102C68.8002 14.7443 68.8855 14.2311 68.8855 13.6705C68.8855 13.1136 68.8002 12.6023 68.6298 12.1364C68.4631 11.6667 68.2055 11.2898 67.857 11.0057C67.5086 10.7216 67.0692 10.5795 66.5389 10.5795C66.0048 10.5795 65.5616 10.7216 65.2093 11.0057C64.8608 11.2898 64.6014 11.6667 64.4309 12.1364C64.2642 12.6023 64.1809 13.1136 64.1809 13.6705C64.1809 14.2311 64.2642 14.7443 64.4309 15.2102C64.6014 15.6761 64.8608 16.0492 65.2093 16.3295C65.5616 16.6098 66.0048 16.75 66.5389 16.75ZM72.3377 18V9.27273H73.9684V10.6932H74.0763C74.2581 10.2121 74.5555 9.83712 74.9684 9.56818C75.3812 9.29545 75.8755 9.15909 76.4513 9.15909C77.0346 9.15909 77.5233 9.29545 77.9172 9.56818C78.3149 9.84091 78.6085 10.2159 78.7979 10.6932H78.8888C79.0971 10.2273 79.4286 9.85606 79.8831 9.57955C80.3377 9.29924 80.8793 9.15909 81.5081 9.15909C82.2998 9.15909 82.9456 9.4072 83.4456 9.90341C83.9494 10.3996 84.2013 11.1477 84.2013 12.1477V18H82.5024V12.3068C82.5024 11.7159 82.3415 11.2879 82.0195 11.0227C81.6975 10.7576 81.313 10.625 80.8661 10.625C80.313 10.625 79.8831 10.7955 79.5763 11.1364C79.2695 11.4735 79.1161 11.9072 79.1161 12.4375V18H77.4229V12.1989C77.4229 11.7254 77.2752 11.3447 76.9797 11.0568C76.6843 10.7689 76.2998 10.625 75.8263 10.625C75.5043 10.625 75.207 10.7102 74.9343 10.8807C74.6653 11.0473 74.4475 11.2803 74.2809 11.5795C74.118 11.8788 74.0365 12.2254 74.0365 12.6193V18H72.3377ZM90.0797 18.1761C89.2198 18.1761 88.4793 17.9924 87.8581 17.625C87.2406 17.2538 86.7634 16.733 86.4263 16.0625C86.0929 15.3883 85.9263 14.5985 85.9263 13.6932C85.9263 12.7992 86.0929 12.0114 86.4263 11.3295C86.7634 10.6477 87.2331 10.1155 87.8353 9.73295C88.4414 9.35038 89.1497 9.15909 89.9603 9.15909C90.4528 9.15909 90.93 9.24053 91.3922 9.40341C91.8543 9.56629 92.2691 9.82197 92.6365 10.1705C93.0039 10.5189 93.2937 10.9716 93.5058 11.5284C93.7179 12.0814 93.824 12.7538 93.824 13.5455V14.1477H86.8865V12.875H92.1592C92.1592 12.428 92.0683 12.0322 91.8865 11.6875C91.7047 11.339 91.449 11.0644 91.1194 10.8636C90.7937 10.6629 90.4111 10.5625 89.9717 10.5625C89.4944 10.5625 89.0778 10.6799 88.7217 10.9148C88.3694 11.1458 88.0967 11.4489 87.9035 11.8239C87.7141 12.1951 87.6194 12.5985 87.6194 13.0341V14.0284C87.6194 14.6117 87.7217 15.108 87.9263 15.517C88.1346 15.9261 88.4244 16.2386 88.7956 16.4545C89.1668 16.6667 89.6005 16.7727 90.0967 16.7727C90.4187 16.7727 90.7122 16.7273 90.9774 16.6364C91.2425 16.5417 91.4717 16.4015 91.6649 16.2159C91.8581 16.0303 92.0058 15.8011 92.1081 15.5284L93.716 15.8182C93.5872 16.2917 93.3562 16.7064 93.0228 17.0625C92.6933 17.4148 92.2785 17.6894 91.7785 17.8864C91.2823 18.0795 90.716 18.1761 90.0797 18.1761Z" fill="white"/>
<path d="M31.4091 50V38.3636H35.3409C36.2538 38.3636 37 38.5284 37.5795 38.858C38.1629 39.1837 38.5947 39.625 38.875 40.1818C39.1553 40.7386 39.2955 41.3598 39.2955 42.0455C39.2955 42.7311 39.1553 43.3542 38.875 43.9148C38.5985 44.4754 38.1705 44.9223 37.5909 45.2557C37.0114 45.5852 36.2689 45.75 35.3636 45.75H32.5455V44.5H35.3182C35.9432 44.5 36.4451 44.392 36.8239 44.1761C37.2027 43.9602 37.4773 43.6686 37.6477 43.3011C37.822 42.9299 37.9091 42.5114 37.9091 42.0455C37.9091 41.5795 37.822 41.1629 37.6477 40.7955C37.4773 40.428 37.2008 40.1402 36.8182 39.9318C36.4356 39.7197 35.928 39.6136 35.2955 39.6136H32.8182V50H31.4091ZM44.7889 50.1818C43.948 50.1818 43.2226 49.9962 42.6127 49.625C42.0067 49.25 41.5389 48.7273 41.2093 48.0568C40.8836 47.3826 40.7207 46.5985 40.7207 45.7045C40.7207 44.8106 40.8836 44.0227 41.2093 43.3409C41.5389 42.6553 41.9972 42.1212 42.5843 41.7386C43.1752 41.3523 43.8646 41.1591 44.6525 41.1591C45.107 41.1591 45.5559 41.2348 45.9991 41.3864C46.4423 41.5379 46.8457 41.7841 47.2093 42.125C47.573 42.4621 47.8627 42.9091 48.0786 43.4659C48.2945 44.0227 48.4025 44.7083 48.4025 45.5227V46.0909H41.6752V44.9318H47.0389C47.0389 44.4394 46.9404 44 46.7434 43.6136C46.5502 43.2273 46.2737 42.9223 45.9139 42.6989C45.5578 42.4754 45.1373 42.3636 44.6525 42.3636C44.1184 42.3636 43.6563 42.4962 43.2661 42.7614C42.8798 43.0227 42.5824 43.3636 42.3741 43.7841C42.1658 44.2045 42.0616 44.6553 42.0616 45.1364V45.9091C42.0616 46.5682 42.1752 47.1269 42.4025 47.5852C42.6336 48.0398 42.9536 48.3864 43.3627 48.625C43.7718 48.8598 44.2472 48.9773 44.7889 48.9773C45.1411 48.9773 45.4593 48.928 45.7434 48.8295C46.0313 48.7273 46.2794 48.5758 46.4877 48.375C46.6961 48.1705 46.857 47.9167 46.9707 47.6136L48.2661 47.9773C48.1298 48.4167 47.9006 48.803 47.5786 49.1364C47.2567 49.4659 46.8589 49.7235 46.3855 49.9091C45.912 50.0909 45.3798 50.1818 44.7889 50.1818ZM50.2823 50V41.2727H51.5777V42.5909H51.6686C51.8277 42.1591 52.1156 41.8087 52.5323 41.5398C52.9489 41.2708 53.4186 41.1364 53.9414 41.1364C54.0398 41.1364 54.163 41.1383 54.3107 41.142C54.4584 41.1458 54.5702 41.1515 54.6459 41.1591V42.5227C54.6005 42.5114 54.4963 42.4943 54.3334 42.4716C54.1743 42.4451 54.0058 42.4318 53.8277 42.4318C53.4035 42.4318 53.0247 42.5208 52.6914 42.6989C52.3618 42.8731 52.1005 43.1155 51.9073 43.4261C51.7179 43.733 51.6232 44.0833 51.6232 44.4773V50H50.2823ZM60.5086 41.2727V42.4091H55.8041V41.2727H60.5086ZM57.2132 50V40.0682C57.2132 39.5682 57.3306 39.1515 57.5655 38.8182C57.8003 38.4848 58.1052 38.2348 58.4802 38.0682C58.8552 37.9015 59.2511 37.8182 59.6677 37.8182C59.9973 37.8182 60.2662 37.8447 60.4745 37.8977C60.6829 37.9508 60.8382 38 60.9405 38.0455L60.5541 39.2045C60.4859 39.1818 60.3912 39.1534 60.27 39.1193C60.1526 39.0852 59.9973 39.0682 59.8041 39.0682C59.3609 39.0682 59.0408 39.1799 58.8439 39.4034C58.6507 39.6269 58.5541 39.9545 58.5541 40.3864V50H57.2132ZM65.414 50.1818C64.6261 50.1818 63.9348 49.9943 63.3401 49.6193C62.7492 49.2443 62.2871 48.7197 61.9538 48.0455C61.6242 47.3712 61.4594 46.5833 61.4594 45.6818C61.4594 44.7727 61.6242 43.9792 61.9538 43.3011C62.2871 42.6231 62.7492 42.0966 63.3401 41.7216C63.9348 41.3466 64.6261 41.1591 65.414 41.1591C66.2019 41.1591 66.8913 41.3466 67.4822 41.7216C68.0769 42.0966 68.539 42.6231 68.8685 43.3011C69.2019 43.9792 69.3685 44.7727 69.3685 45.6818C69.3685 46.5833 69.2019 47.3712 68.8685 48.0455C68.539 48.7197 68.0769 49.2443 67.4822 49.6193C66.8913 49.9943 66.2019 50.1818 65.414 50.1818ZM65.414 48.9773C66.0125 48.9773 66.5049 48.8239 66.8913 48.517C67.2776 48.2102 67.5636 47.8068 67.7492 47.3068C67.9348 46.8068 68.0276 46.2652 68.0276 45.6818C68.0276 45.0985 67.9348 44.5549 67.7492 44.0511C67.5636 43.5473 67.2776 43.1402 66.8913 42.8295C66.5049 42.5189 66.0125 42.3636 65.414 42.3636C64.8155 42.3636 64.3231 42.5189 63.9367 42.8295C63.5503 43.1402 63.2644 43.5473 63.0788 44.0511C62.8931 44.5549 62.8003 45.0985 62.8003 45.6818C62.8003 46.2652 62.8931 46.8068 63.0788 47.3068C63.2644 47.8068 63.5503 48.2102 63.9367 48.517C64.3231 48.8239 64.8155 48.9773 65.414 48.9773ZM71.2554 50V41.2727H72.5509V42.5909H72.6418C72.8009 42.1591 73.0887 41.8087 73.5054 41.5398C73.9221 41.2708 74.3918 41.1364 74.9145 41.1364C75.013 41.1364 75.1361 41.1383 75.2838 41.142C75.4315 41.1458 75.5433 41.1515 75.619 41.1591V42.5227C75.5736 42.5114 75.4694 42.4943 75.3065 42.4716C75.1474 42.4451 74.9789 42.4318 74.8009 42.4318C74.3766 42.4318 73.9978 42.5208 73.6645 42.6989C73.3349 42.8731 73.0736 43.1155 72.8804 43.4261C72.691 43.733 72.5963 44.0833 72.5963 44.4773V50H71.2554ZM77.0485 50V41.2727H78.344V42.6364H78.4576C78.6394 42.1705 78.933 41.8087 79.3383 41.5511C79.7436 41.2898 80.2303 41.1591 80.7985 41.1591C81.3743 41.1591 81.8534 41.2898 82.236 41.5511C82.6224 41.8087 82.9235 42.1705 83.1394 42.6364H83.2303C83.4538 42.1856 83.7891 41.8277 84.236 41.5625C84.683 41.2936 85.219 41.1591 85.844 41.1591C86.6243 41.1591 87.2625 41.4034 87.7588 41.892C88.255 42.3769 88.5031 43.1326 88.5031 44.1591V50H87.1622V44.1591C87.1622 43.5152 86.986 43.0549 86.6338 42.7784C86.2815 42.5019 85.8667 42.3636 85.3894 42.3636C84.7758 42.3636 84.3004 42.5492 83.9633 42.9205C83.6262 43.2879 83.4576 43.7538 83.4576 44.3182V50H82.094V44.0227C82.094 43.5265 81.933 43.1269 81.611 42.8239C81.2891 42.517 80.8743 42.3636 80.3667 42.3636C80.0182 42.3636 79.6925 42.4564 79.3894 42.642C79.0902 42.8277 78.8478 43.0852 78.6622 43.4148C78.4803 43.7405 78.3894 44.1174 78.3894 44.5455V50H77.0485ZM93.363 50.2045C92.8099 50.2045 92.308 50.1004 91.8573 49.892C91.4065 49.6799 91.0486 49.375 90.7834 48.9773C90.5183 48.5758 90.3857 48.0909 90.3857 47.5227C90.3857 47.0227 90.4842 46.6174 90.6811 46.3068C90.8781 45.9924 91.1414 45.7462 91.4709 45.5682C91.8005 45.3902 92.1641 45.2576 92.5618 45.1705C92.9633 45.0795 93.3667 45.0076 93.772 44.9545C94.3023 44.8864 94.7323 44.8352 95.0618 44.8011C95.3952 44.7633 95.6376 44.7008 95.7891 44.6136C95.9444 44.5265 96.022 44.375 96.022 44.1591V44.1136C96.022 43.553 95.8686 43.1174 95.5618 42.8068C95.2588 42.4962 94.7986 42.3409 94.1811 42.3409C93.541 42.3409 93.0391 42.4811 92.6755 42.7614C92.3118 43.0417 92.0561 43.3409 91.9084 43.6591L90.6357 43.2045C90.863 42.6742 91.166 42.2614 91.5448 41.9659C91.9273 41.6667 92.344 41.4583 92.7948 41.3409C93.2493 41.2197 93.6963 41.1591 94.1357 41.1591C94.416 41.1591 94.738 41.1932 95.1016 41.2614C95.469 41.3258 95.8232 41.4602 96.1641 41.6648C96.5088 41.8693 96.7948 42.178 97.022 42.5909C97.2493 43.0038 97.363 43.5568 97.363 44.25V50H96.022V48.8182H95.9539C95.863 49.0076 95.7114 49.2102 95.4993 49.4261C95.2872 49.642 95.005 49.8258 94.6527 49.9773C94.3005 50.1288 93.8705 50.2045 93.363 50.2045ZM93.5675 49C94.0978 49 94.5448 48.8958 94.9084 48.6875C95.2758 48.4792 95.5523 48.2102 95.738 47.8807C95.9273 47.5511 96.022 47.2045 96.022 46.8409V45.6136C95.9652 45.6818 95.8402 45.7443 95.647 45.8011C95.4577 45.8542 95.238 45.9015 94.988 45.9432C94.7417 45.9811 94.5012 46.0152 94.2664 46.0455C94.0353 46.072 93.8478 46.0947 93.7039 46.1136C93.3554 46.1591 93.0296 46.233 92.7266 46.3352C92.4273 46.4337 92.1849 46.5833 91.9993 46.7841C91.8175 46.9811 91.7266 47.25 91.7266 47.5909C91.7266 48.0568 91.8989 48.4091 92.2436 48.6477C92.5921 48.8826 93.0334 49 93.5675 49ZM100.991 44.75V50H99.6504V41.2727H100.946V42.6364H101.059C101.264 42.1932 101.575 41.8371 101.991 41.5682C102.408 41.2955 102.946 41.1591 103.605 41.1591C104.196 41.1591 104.713 41.2803 105.156 41.5227C105.599 41.7614 105.944 42.125 106.19 42.6136C106.436 43.0985 106.559 43.7121 106.559 44.4545V50H105.219V44.5455C105.219 43.8598 105.041 43.3258 104.684 42.9432C104.328 42.5568 103.84 42.3636 103.219 42.3636C102.791 42.3636 102.408 42.4564 102.071 42.642C101.738 42.8277 101.474 43.0985 101.281 43.4545C101.088 43.8106 100.991 44.2424 100.991 44.75ZM112.395 50.1818C111.577 50.1818 110.872 49.9886 110.282 49.6023C109.691 49.2159 109.236 48.6837 108.918 48.0057C108.6 47.3277 108.441 46.553 108.441 45.6818C108.441 44.7955 108.604 44.0133 108.929 43.3352C109.259 42.6534 109.717 42.1212 110.304 41.7386C110.895 41.3523 111.585 41.1591 112.372 41.1591C112.986 41.1591 113.539 41.2727 114.032 41.5C114.524 41.7273 114.927 42.0455 115.242 42.4545C115.556 42.8636 115.751 43.3409 115.827 43.8864H114.486C114.384 43.4886 114.157 43.1364 113.804 42.8295C113.456 42.5189 112.986 42.3636 112.395 42.3636C111.872 42.3636 111.414 42.5 111.02 42.7727C110.63 43.0417 110.325 43.4223 110.105 43.9148C109.89 44.4034 109.782 44.9773 109.782 45.6364C109.782 46.3106 109.888 46.8977 110.1 47.3977C110.316 47.8977 110.619 48.286 111.009 48.5625C111.403 48.839 111.865 48.9773 112.395 48.9773C112.744 48.9773 113.06 48.9167 113.344 48.7955C113.628 48.6742 113.869 48.5 114.066 48.2727C114.263 48.0455 114.403 47.7727 114.486 47.4545H115.827C115.751 47.9697 115.564 48.4337 115.265 48.8466C114.969 49.2557 114.577 49.5814 114.088 49.8239C113.604 50.0625 113.039 50.1818 112.395 50.1818ZM121.286 50.1818C120.445 50.1818 119.72 49.9962 119.11 49.625C118.504 49.25 118.036 48.7273 117.707 48.0568C117.381 47.3826 117.218 46.5985 117.218 45.7045C117.218 44.8106 117.381 44.0227 117.707 43.3409C118.036 42.6553 118.495 42.1212 119.082 41.7386C119.673 41.3523 120.362 41.1591 121.15 41.1591C121.605 41.1591 122.053 41.2348 122.497 41.3864C122.94 41.5379 123.343 41.7841 123.707 42.125C124.07 42.4621 124.36 42.9091 124.576 43.4659C124.792 44.0227 124.9 44.7083 124.9 45.5227V46.0909H118.173V44.9318H123.536C123.536 44.4394 123.438 44 123.241 43.6136C123.048 43.2273 122.771 42.9223 122.411 42.6989C122.055 42.4754 121.635 42.3636 121.15 42.3636C120.616 42.3636 120.154 42.4962 119.764 42.7614C119.377 43.0227 119.08 43.3636 118.872 43.7841C118.663 44.2045 118.559 44.6553 118.559 45.1364V45.9091C118.559 46.5682 118.673 47.1269 118.9 47.5852C119.131 48.0398 119.451 48.3864 119.86 48.625C120.269 48.8598 120.745 48.9773 121.286 48.9773C121.639 48.9773 121.957 48.928 122.241 48.8295C122.529 48.7273 122.777 48.5758 122.985 48.375C123.194 48.1705 123.355 47.9167 123.468 47.6136L124.764 47.9773C124.627 48.4167 124.398 48.803 124.076 49.1364C123.754 49.4659 123.356 49.7235 122.883 49.9091C122.409 50.0909 121.877 50.1818 121.286 50.1818ZM137.302 43.2273L136.097 43.5682C136.021 43.3674 135.91 43.1723 135.762 42.983C135.618 42.7898 135.421 42.6307 135.171 42.5057C134.921 42.3807 134.601 42.3182 134.211 42.3182C133.677 42.3182 133.232 42.4413 132.875 42.6875C132.523 42.9299 132.347 43.2386 132.347 43.6136C132.347 43.947 132.468 44.2102 132.711 44.4034C132.953 44.5966 133.332 44.7576 133.847 44.8864L135.143 45.2045C135.923 45.3939 136.504 45.6837 136.887 46.0739C137.269 46.4602 137.461 46.9583 137.461 47.5682C137.461 48.0682 137.317 48.5152 137.029 48.9091C136.745 49.303 136.347 49.6136 135.836 49.8409C135.324 50.0682 134.73 50.1818 134.052 50.1818C133.161 50.1818 132.425 49.9886 131.841 49.6023C131.258 49.2159 130.889 48.6515 130.733 47.9091L132.006 47.5909C132.127 48.0606 132.357 48.4129 132.694 48.6477C133.035 48.8826 133.48 49 134.029 49C134.654 49 135.15 48.8674 135.518 48.6023C135.889 48.3333 136.074 48.0114 136.074 47.6364C136.074 47.3333 135.968 47.0795 135.756 46.875C135.544 46.6667 135.218 46.5114 134.779 46.4091L133.324 46.0682C132.525 45.8788 131.938 45.5852 131.563 45.1875C131.192 44.786 131.006 44.2841 131.006 43.6818C131.006 43.1894 131.144 42.7538 131.421 42.375C131.701 41.9962 132.082 41.6989 132.563 41.483C133.048 41.267 133.597 41.1591 134.211 41.1591C135.074 41.1591 135.752 41.3485 136.245 41.7273C136.741 42.1061 137.093 42.6061 137.302 43.2273ZM143.115 41.2727V42.4091H138.592V41.2727H143.115ZM139.91 39.1818H141.251V47.5C141.251 47.8788 141.306 48.1629 141.416 48.3523C141.529 48.5379 141.673 48.6629 141.848 48.7273C142.026 48.7879 142.213 48.8182 142.41 48.8182C142.558 48.8182 142.679 48.8106 142.774 48.7955C142.868 48.7765 142.944 48.7614 143.001 48.75L143.274 49.9545C143.183 49.9886 143.056 50.0227 142.893 50.0568C142.73 50.0947 142.524 50.1136 142.274 50.1136C141.895 50.1136 141.524 50.0322 141.16 49.8693C140.8 49.7064 140.501 49.4583 140.262 49.125C140.027 48.7917 139.91 48.3712 139.91 47.8636V39.1818ZM147.54 50.2045C146.987 50.2045 146.485 50.1004 146.034 49.892C145.583 49.6799 145.225 49.375 144.96 48.9773C144.695 48.5758 144.563 48.0909 144.563 47.5227C144.563 47.0227 144.661 46.6174 144.858 46.3068C145.055 45.9924 145.318 45.7462 145.648 45.5682C145.977 45.3902 146.341 45.2576 146.739 45.1705C147.14 45.0795 147.544 45.0076 147.949 44.9545C148.479 44.8864 148.909 44.8352 149.239 44.8011C149.572 44.7633 149.814 44.7008 149.966 44.6136C150.121 44.5265 150.199 44.375 150.199 44.1591V44.1136C150.199 43.553 150.046 43.1174 149.739 42.8068C149.436 42.4962 148.975 42.3409 148.358 42.3409C147.718 42.3409 147.216 42.4811 146.852 42.7614C146.489 43.0417 146.233 43.3409 146.085 43.6591L144.813 43.2045C145.04 42.6742 145.343 42.2614 145.722 41.9659C146.104 41.6667 146.521 41.4583 146.972 41.3409C147.426 41.2197 147.873 41.1591 148.313 41.1591C148.593 41.1591 148.915 41.1932 149.278 41.2614C149.646 41.3258 150 41.4602 150.341 41.6648C150.686 41.8693 150.972 42.178 151.199 42.5909C151.426 43.0038 151.54 43.5568 151.54 44.25V50H150.199V48.8182H150.131C150.04 49.0076 149.888 49.2102 149.676 49.4261C149.464 49.642 149.182 49.8258 148.83 49.9773C148.477 50.1288 148.047 50.2045 147.54 50.2045ZM147.744 49C148.275 49 148.722 48.8958 149.085 48.6875C149.453 48.4792 149.729 48.2102 149.915 47.8807C150.104 47.5511 150.199 47.2045 150.199 46.8409V45.6136C150.142 45.6818 150.017 45.7443 149.824 45.8011C149.635 45.8542 149.415 45.9015 149.165 45.9432C148.919 45.9811 148.678 46.0152 148.443 46.0455C148.212 46.072 148.025 46.0947 147.881 46.1136C147.532 46.1591 147.206 46.233 146.903 46.3352C146.604 46.4337 146.362 46.5833 146.176 46.7841C145.994 46.9811 145.903 47.25 145.903 47.5909C145.903 48.0568 146.076 48.4091 146.421 48.6477C146.769 48.8826 147.21 49 147.744 49ZM157.623 41.2727V42.4091H153.1V41.2727H157.623ZM154.418 39.1818H155.759V47.5C155.759 47.8788 155.814 48.1629 155.924 48.3523C156.037 48.5379 156.181 48.6629 156.356 48.7273C156.534 48.7879 156.721 48.8182 156.918 48.8182C157.066 48.8182 157.187 48.8106 157.282 48.7955C157.377 48.7765 157.452 48.7614 157.509 48.75L157.782 49.9545C157.691 49.9886 157.564 50.0227 157.401 50.0568C157.238 50.0947 157.032 50.1136 156.782 50.1136C156.403 50.1136 156.032 50.0322 155.668 49.8693C155.308 49.7064 155.009 49.4583 154.77 49.125C154.536 48.7917 154.418 48.3712 154.418 47.8636V39.1818ZM159.48 50V41.2727H160.821V50H159.48ZM160.162 39.8182C159.9 39.8182 159.675 39.7292 159.485 39.5511C159.3 39.3731 159.207 39.1591 159.207 38.9091C159.207 38.6591 159.3 38.4451 159.485 38.267C159.675 38.089 159.9 38 160.162 38C160.423 38 160.646 38.089 160.832 38.267C161.021 38.4451 161.116 38.6591 161.116 38.9091C161.116 39.1591 161.021 39.3731 160.832 39.5511C160.646 39.7292 160.423 39.8182 160.162 39.8182ZM169.298 43.2273L168.094 43.5682C168.018 43.3674 167.906 43.1723 167.759 42.983C167.615 42.7898 167.418 42.6307 167.168 42.5057C166.918 42.3807 166.598 42.3182 166.208 42.3182C165.673 42.3182 165.228 42.4413 164.872 42.6875C164.52 42.9299 164.344 43.2386 164.344 43.6136C164.344 43.947 164.465 44.2102 164.708 44.4034C164.95 44.5966 165.329 44.7576 165.844 44.8864L167.139 45.2045C167.92 45.3939 168.501 45.6837 168.884 46.0739C169.266 46.4602 169.458 46.9583 169.458 47.5682C169.458 48.0682 169.314 48.5152 169.026 48.9091C168.742 49.303 168.344 49.6136 167.833 49.8409C167.321 50.0682 166.726 50.1818 166.048 50.1818C165.158 50.1818 164.422 49.9886 163.838 49.6023C163.255 49.2159 162.886 48.6515 162.73 47.9091L164.003 47.5909C164.124 48.0606 164.353 48.4129 164.691 48.6477C165.031 48.8826 165.476 49 166.026 49C166.651 49 167.147 48.8674 167.514 48.6023C167.886 48.3333 168.071 48.0114 168.071 47.6364C168.071 47.3333 167.965 47.0795 167.753 46.875C167.541 46.6667 167.215 46.5114 166.776 46.4091L165.321 46.0682C164.522 45.8788 163.935 45.5852 163.56 45.1875C163.189 44.786 163.003 44.2841 163.003 43.6818C163.003 43.1894 163.141 42.7538 163.418 42.375C163.698 41.9962 164.079 41.6989 164.56 41.483C165.045 41.267 165.594 41.1591 166.208 41.1591C167.071 41.1591 167.749 41.3485 168.242 41.7273C168.738 42.1061 169.09 42.6061 169.298 43.2273ZM175.111 41.2727V42.4091H170.589V41.2727H175.111ZM171.907 39.1818H173.248V47.5C173.248 47.8788 173.303 48.1629 173.413 48.3523C173.526 48.5379 173.67 48.6629 173.844 48.7273C174.022 48.7879 174.21 48.8182 174.407 48.8182C174.555 48.8182 174.676 48.8106 174.771 48.7955C174.865 48.7765 174.941 48.7614 174.998 48.75L175.271 49.9545C175.18 49.9886 175.053 50.0227 174.89 50.0568C174.727 50.0947 174.521 50.1136 174.271 50.1136C173.892 50.1136 173.521 50.0322 173.157 49.8693C172.797 49.7064 172.498 49.4583 172.259 49.125C172.024 48.7917 171.907 48.3712 171.907 47.8636V39.1818ZM176.969 50V41.2727H178.309V50H176.969ZM177.65 39.8182C177.389 39.8182 177.164 39.7292 176.974 39.5511C176.789 39.3731 176.696 39.1591 176.696 38.9091C176.696 38.6591 176.789 38.4451 176.974 38.267C177.164 38.089 177.389 38 177.65 38C177.912 38 178.135 38.089 178.321 38.267C178.51 38.4451 178.605 38.6591 178.605 38.9091C178.605 39.1591 178.51 39.3731 178.321 39.5511C178.135 39.7292 177.912 39.8182 177.65 39.8182ZM184.151 50.1818C183.333 50.1818 182.628 49.9886 182.037 49.6023C181.446 49.2159 180.992 48.6837 180.674 48.0057C180.355 47.3277 180.196 46.553 180.196 45.6818C180.196 44.7955 180.359 44.0133 180.685 43.3352C181.014 42.6534 181.473 42.1212 182.06 41.7386C182.651 41.3523 183.34 41.1591 184.128 41.1591C184.742 41.1591 185.295 41.2727 185.787 41.5C186.28 41.7273 186.683 42.0455 186.997 42.4545C187.312 42.8636 187.507 43.3409 187.583 43.8864H186.242C186.139 43.4886 185.912 43.1364 185.56 42.8295C185.211 42.5189 184.742 42.3636 184.151 42.3636C183.628 42.3636 183.17 42.5 182.776 42.7727C182.386 43.0417 182.081 43.4223 181.861 43.9148C181.645 44.4034 181.537 44.9773 181.537 45.6364C181.537 46.3106 181.643 46.8977 181.855 47.3977C182.071 47.8977 182.374 48.286 182.764 48.5625C183.158 48.839 183.621 48.9773 184.151 48.9773C184.499 48.9773 184.816 48.9167 185.1 48.7955C185.384 48.6742 185.624 48.5 185.821 48.2727C186.018 48.0455 186.158 47.7727 186.242 47.4545H187.583C187.507 47.9697 187.319 48.4337 187.02 48.8466C186.725 49.2557 186.333 49.5814 185.844 49.8239C185.359 50.0625 184.795 50.1818 184.151 50.1818ZM195.565 43.2273L194.36 43.5682C194.284 43.3674 194.173 43.1723 194.025 42.983C193.881 42.7898 193.684 42.6307 193.434 42.5057C193.184 42.3807 192.864 42.3182 192.474 42.3182C191.94 42.3182 191.495 42.4413 191.139 42.6875C190.786 42.9299 190.61 43.2386 190.61 43.6136C190.61 43.947 190.731 44.2102 190.974 44.4034C191.216 44.5966 191.595 44.7576 192.11 44.8864L193.406 45.2045C194.186 45.3939 194.767 45.6837 195.15 46.0739C195.533 46.4602 195.724 46.9583 195.724 47.5682C195.724 48.0682 195.58 48.5152 195.292 48.9091C195.008 49.303 194.61 49.6136 194.099 49.8409C193.587 50.0682 192.993 50.1818 192.315 50.1818C191.425 50.1818 190.688 49.9886 190.104 49.6023C189.521 49.2159 189.152 48.6515 188.997 47.9091L190.269 47.5909C190.39 48.0606 190.62 48.4129 190.957 48.6477C191.298 48.8826 191.743 49 192.292 49C192.917 49 193.413 48.8674 193.781 48.6023C194.152 48.3333 194.337 48.0114 194.337 47.6364C194.337 47.3333 194.231 47.0795 194.019 46.875C193.807 46.6667 193.481 46.5114 193.042 46.4091L191.587 46.0682C190.788 45.8788 190.201 45.5852 189.826 45.1875C189.455 44.786 189.269 44.2841 189.269 43.6818C189.269 43.1894 189.408 42.7538 189.684 42.375C189.964 41.9962 190.345 41.6989 190.826 41.483C191.311 41.267 191.86 41.1591 192.474 41.1591C193.337 41.1591 194.015 41.3485 194.508 41.7273C195.004 42.1061 195.356 42.6061 195.565 43.2273Z" fill="#C8CBD0"/>
<path d="M30.7727 65.6136V64.3636H39.5V65.6136H35.8409V76H34.4318V65.6136H30.7727ZM41.3329 76V67.2727H42.6738V76H41.3329ZM42.0147 65.8182C41.7534 65.8182 41.528 65.7292 41.3386 65.5511C41.153 65.3731 41.0602 65.1591 41.0602 64.9091C41.0602 64.6591 41.153 64.4451 41.3386 64.267C41.528 64.089 41.7534 64 42.0147 64C42.2761 64 42.4996 64.089 42.6852 64.267C42.8746 64.4451 42.9693 64.6591 42.9693 64.9091C42.9693 65.1591 42.8746 65.3731 42.6852 65.5511C42.4996 65.7292 42.2761 65.8182 42.0147 65.8182ZM48.5152 76.1818C47.697 76.1818 46.9925 75.9886 46.4016 75.6023C45.8107 75.2159 45.3561 74.6837 45.038 74.0057C44.7198 73.3277 44.5607 72.553 44.5607 71.6818C44.5607 70.7955 44.7236 70.0133 45.0493 69.3352C45.3789 68.6534 45.8372 68.1212 46.4243 67.7386C47.0152 67.3523 47.7046 67.1591 48.4925 67.1591C49.1061 67.1591 49.6592 67.2727 50.1516 67.5C50.644 67.7273 51.0474 68.0455 51.3618 68.4545C51.6762 68.8636 51.8713 69.3409 51.947 69.8864H50.6061C50.5039 69.4886 50.2766 69.1364 49.9243 68.8295C49.5758 68.5189 49.1061 68.3636 48.5152 68.3636C47.9925 68.3636 47.5342 68.5 47.1402 68.7727C46.7501 69.0417 46.4452 69.4223 46.2255 69.9148C46.0095 70.4034 45.9016 70.9773 45.9016 71.6364C45.9016 72.3106 46.0077 72.8977 46.2198 73.3977C46.4357 73.8977 46.7387 74.286 47.1289 74.5625C47.5228 74.839 47.9849 74.9773 48.5152 74.9773C48.8637 74.9773 49.18 74.9167 49.4641 74.7955C49.7482 74.6742 49.9887 74.5 50.1857 74.2727C50.3827 74.0455 50.5228 73.7727 50.6061 73.4545H51.947C51.8713 73.9697 51.6838 74.4337 51.3845 74.8466C51.0891 75.2557 50.697 75.5814 50.2084 75.8239C49.7236 76.0625 49.1592 76.1818 48.5152 76.1818ZM54.9973 72.8182L54.9745 71.1591H55.2473L59.0655 67.2727H60.7245L56.6564 71.3864H56.5427L54.9973 72.8182ZM53.7473 76V64.3636H55.0882V76H53.7473ZM59.2927 76L55.8836 71.6818L56.8382 70.75L60.9973 76H59.2927ZM65.5901 76.1818C64.7492 76.1818 64.0238 75.9962 63.414 75.625C62.8079 75.25 62.3401 74.7273 62.0106 74.0568C61.6848 73.3826 61.5219 72.5985 61.5219 71.7045C61.5219 70.8106 61.6848 70.0227 62.0106 69.3409C62.3401 68.6553 62.7984 68.1212 63.3856 67.7386C63.9765 67.3523 64.6659 67.1591 65.4538 67.1591C65.9083 67.1591 66.3572 67.2348 66.8003 67.3864C67.2435 67.5379 67.6469 67.7841 68.0106 68.125C68.3742 68.4621 68.664 68.9091 68.8799 69.4659C69.0958 70.0227 69.2038 70.7083 69.2038 71.5227V72.0909H62.4765V70.9318H67.8401C67.8401 70.4394 67.7416 70 67.5447 69.6136C67.3515 69.2273 67.075 68.9223 66.7151 68.6989C66.3591 68.4754 65.9386 68.3636 65.4538 68.3636C64.9197 68.3636 64.4575 68.4962 64.0674 68.7614C63.681 69.0227 63.3837 69.3636 63.1753 69.7841C62.967 70.2045 62.8628 70.6553 62.8628 71.1364V71.9091C62.8628 72.5682 62.9765 73.1269 63.2038 73.5852C63.4348 74.0398 63.7549 74.3864 64.164 74.625C64.5731 74.8598 65.0484 74.9773 65.5901 74.9773C65.9424 74.9773 66.2606 74.928 66.5447 74.8295C66.8325 74.7273 67.0806 74.5758 67.289 74.375C67.4973 74.1705 67.6583 73.9167 67.7719 73.6136L69.0674 73.9773C68.931 74.4167 68.7019 74.803 68.3799 75.1364C68.0579 75.4659 67.6602 75.7235 67.1867 75.9091C66.7132 76.0909 66.181 76.1818 65.5901 76.1818ZM74.879 67.2727V68.4091H70.3563V67.2727H74.879ZM71.6744 65.1818H73.0153V73.5C73.0153 73.8788 73.0703 74.1629 73.1801 74.3523C73.2938 74.5379 73.4377 74.6629 73.6119 74.7273C73.79 74.7879 73.9775 74.8182 74.1744 74.8182C74.3222 74.8182 74.4434 74.8106 74.5381 74.7955C74.6328 74.7765 74.7085 74.7614 74.7653 74.75L75.0381 75.9545C74.9472 75.9886 74.8203 76.0227 74.6574 76.0568C74.4945 76.0947 74.2881 76.1136 74.0381 76.1136C73.6593 76.1136 73.2881 76.0322 72.9244 75.8693C72.5646 75.7064 72.2653 75.4583 72.0267 75.125C71.7919 74.7917 71.6744 74.3712 71.6744 73.8636V65.1818ZM82.7616 69.2273L81.557 69.5682C81.4813 69.3674 81.3695 69.1723 81.2218 68.983C81.0779 68.7898 80.8809 68.6307 80.6309 68.5057C80.3809 68.3807 80.0608 68.3182 79.6707 68.3182C79.1366 68.3182 78.6915 68.4413 78.3355 68.6875C77.9832 68.9299 77.807 69.2386 77.807 69.6136C77.807 69.947 77.9283 70.2102 78.1707 70.4034C78.4131 70.5966 78.7919 70.7576 79.307 70.8864L80.6025 71.2045C81.3828 71.3939 81.9642 71.6837 82.3468 72.0739C82.7294 72.4602 82.9207 72.9583 82.9207 73.5682C82.9207 74.0682 82.7767 74.5152 82.4889 74.9091C82.2048 75.303 81.807 75.6136 81.2957 75.8409C80.7843 76.0682 80.1896 76.1818 79.5116 76.1818C78.6214 76.1818 77.8847 75.9886 77.3014 75.6023C76.718 75.2159 76.3487 74.6515 76.1934 73.9091L77.4661 73.5909C77.5873 74.0606 77.8165 74.4129 78.1536 74.6477C78.4945 74.8826 78.9396 75 79.4889 75C80.1139 75 80.6101 74.8674 80.9775 74.6023C81.3487 74.3333 81.5343 74.0114 81.5343 73.6364C81.5343 73.3333 81.4283 73.0795 81.2161 72.875C81.004 72.6667 80.6783 72.5114 80.2389 72.4091L78.7843 72.0682C77.9851 71.8788 77.398 71.5852 77.023 71.1875C76.6517 70.786 76.4661 70.2841 76.4661 69.6818C76.4661 69.1894 76.6044 68.7538 76.8809 68.375C77.1612 67.9962 77.5419 67.6989 78.023 67.483C78.5078 67.267 79.057 67.1591 79.6707 67.1591C80.5343 67.1591 81.2123 67.3485 81.7048 67.7273C82.201 68.1061 82.5533 68.6061 82.7616 69.2273Z" fill="#C8CBD0"/>
</svg>
