<svg width="296" height="84" viewBox="0 0 296 84" fill="none" xmlns="http://www.w3.org/2000/svg">
<path d="M43.3337 18V16.6667C43.3337 15.9594 43.0527 15.2811 42.5526 14.781C42.0525 14.281 41.3742 14 40.667 14H35.3337C34.6264 14 33.9481 14.281 33.448 14.781C32.9479 15.2811 32.667 15.9594 32.667 16.6667V18" stroke="white" stroke-width="1.33" stroke-linecap="round" stroke-linejoin="round"/>
<path d="M37.9997 11.3333C39.4724 11.3333 40.6663 10.1394 40.6663 8.66667C40.6663 7.19391 39.4724 6 37.9997 6C36.5269 6 35.333 7.19391 35.333 8.66667C35.333 10.1394 36.5269 11.3333 37.9997 11.3333Z" stroke="white" stroke-width="1.33" stroke-linecap="round" stroke-linejoin="round"/>
<path d="M51.2784 6.36364H53.4091L57.1136 15.4091H57.25L60.9545 6.36364H63.0852V18H61.4148V9.57955H61.3068L57.875 17.983H56.4886L53.0568 9.57386H52.9489V18H51.2784V6.36364ZM66.4153 21.2727C66.1615 21.2727 65.9304 21.2519 65.7221 21.2102C65.5138 21.1723 65.3585 21.1307 65.2562 21.0852L65.6653 19.6932C65.9759 19.7765 66.2524 19.8125 66.4948 19.8011C66.7373 19.7898 66.9513 19.6989 67.1369 19.5284C67.3263 19.358 67.4929 19.0795 67.6369 18.6932L67.8471 18.1136L64.6539 9.27273H66.4721L68.6823 16.0455H68.7732L70.9835 9.27273H72.8073L69.2107 19.1648C69.0441 19.6193 68.832 20.0038 68.5744 20.3182C68.3168 20.6364 68.01 20.875 67.6539 21.0341C67.2979 21.1932 66.885 21.2727 66.4153 21.2727ZM80.8581 18.1932C80.305 18.1932 79.805 18.0909 79.3581 17.8864C78.9111 17.678 78.5569 17.3769 78.2956 16.983C78.038 16.589 77.9092 16.1061 77.9092 15.5341C77.9092 15.0417 78.0039 14.6364 78.1933 14.3182C78.3827 14 78.6384 13.7481 78.9603 13.5625C79.2823 13.3769 79.6422 13.2367 80.0399 13.142C80.4376 13.0473 80.8429 12.9754 81.2558 12.9261C81.7785 12.8655 82.2028 12.8163 82.5285 12.7784C82.8543 12.7367 83.091 12.6705 83.2388 12.5795C83.3865 12.4886 83.4603 12.3409 83.4603 12.1364V12.0966C83.4603 11.6004 83.3202 11.2159 83.0399 10.9432C82.7634 10.6705 82.3505 10.5341 81.8013 10.5341C81.2293 10.5341 80.7785 10.661 80.449 10.9148C80.1232 11.1648 79.8978 11.4432 79.7728 11.75L78.1763 11.3864C78.3656 10.8561 78.6422 10.428 79.0058 10.1023C79.3732 9.77273 79.7956 9.53409 80.2728 9.38636C80.7501 9.23485 81.252 9.15909 81.7785 9.15909C82.127 9.15909 82.4963 9.20076 82.8865 9.28409C83.2804 9.36364 83.6478 9.51136 83.9888 9.72727C84.3334 9.94318 84.6156 10.2519 84.8353 10.6534C85.055 11.0511 85.1649 11.5682 85.1649 12.2045V18H83.5058V16.8068H83.4376C83.3278 17.0265 83.163 17.2424 82.9433 17.4545C82.7236 17.6667 82.4414 17.8428 82.0967 17.983C81.752 18.1231 81.3391 18.1932 80.8581 18.1932ZM81.2274 16.8295C81.6971 16.8295 82.0986 16.7367 82.4319 16.5511C82.7691 16.3655 83.0247 16.1231 83.199 15.8239C83.377 15.5208 83.466 15.197 83.466 14.8523V13.7273C83.4054 13.7879 83.288 13.8447 83.1138 13.8977C82.9433 13.947 82.7482 13.9905 82.5285 14.0284C82.3088 14.0625 82.0948 14.0947 81.8865 14.125C81.6781 14.1515 81.5039 14.1742 81.3638 14.1932C81.0342 14.2348 80.7331 14.3049 80.4603 14.4034C80.1914 14.5019 79.9755 14.6439 79.8126 14.8295C79.6535 15.0114 79.574 15.2538 79.574 15.5568C79.574 15.9773 79.7293 16.2955 80.0399 16.5114C80.3505 16.7235 80.7463 16.8295 81.2274 16.8295ZM90.9438 18.1761C90.0991 18.1761 89.3718 17.9848 88.762 17.6023C88.1559 17.2159 87.69 16.6837 87.3643 16.0057C87.0385 15.3277 86.8756 14.5511 86.8756 13.6761C86.8756 12.7898 87.0423 12.0076 87.3756 11.3295C87.709 10.6477 88.1787 10.1155 88.7847 9.73295C89.3908 9.35038 90.1048 9.15909 90.9268 9.15909C91.5896 9.15909 92.1805 9.2822 92.6995 9.52841C93.2184 9.77083 93.637 10.1117 93.9552 10.5511C94.2771 10.9905 94.4684 11.5038 94.529 12.0909H92.8756C92.7847 11.6818 92.5764 11.3295 92.2506 11.0341C91.9287 10.7386 91.4968 10.5909 90.9552 10.5909C90.4817 10.5909 90.0669 10.7159 89.7109 10.9659C89.3586 11.2121 89.084 11.5644 88.887 12.0227C88.69 12.4773 88.5915 13.0152 88.5915 13.6364C88.5915 14.2727 88.6881 14.822 88.8813 15.2841C89.0745 15.7462 89.3472 16.1042 89.6995 16.358C90.0555 16.6117 90.4741 16.7386 90.9552 16.7386C91.2771 16.7386 91.5688 16.6799 91.8302 16.5625C92.0953 16.4413 92.3169 16.2689 92.4949 16.0455C92.6768 15.822 92.8037 15.553 92.8756 15.2386H94.529C94.4684 15.803 94.2847 16.3068 93.9779 16.75C93.6711 17.1932 93.2601 17.5417 92.7449 17.7955C92.2336 18.0492 91.6332 18.1761 90.9438 18.1761ZM99.8619 18.1761C99.0172 18.1761 98.29 17.9848 97.6801 17.6023C97.0741 17.2159 96.6081 16.6837 96.2824 16.0057C95.9566 15.3277 95.7938 14.5511 95.7938 13.6761C95.7938 12.7898 95.9604 12.0076 96.2938 11.3295C96.6271 10.6477 97.0968 10.1155 97.7028 9.73295C98.3089 9.35038 99.0229 9.15909 99.8449 9.15909C100.508 9.15909 101.099 9.2822 101.618 9.52841C102.137 9.77083 102.555 10.1117 102.873 10.5511C103.195 10.9905 103.387 11.5038 103.447 12.0909H101.794C101.703 11.6818 101.495 11.3295 101.169 11.0341C100.847 10.7386 100.415 10.5909 99.8733 10.5909C99.3998 10.5909 98.985 10.7159 98.629 10.9659C98.2767 11.2121 98.0021 11.5644 97.8051 12.0227C97.6081 12.4773 97.5097 13.0152 97.5097 13.6364C97.5097 14.2727 97.6063 14.822 97.7994 15.2841C97.9926 15.7462 98.2653 16.1042 98.6176 16.358C98.9737 16.6117 99.3922 16.7386 99.8733 16.7386C100.195 16.7386 100.487 16.6799 100.748 16.5625C101.013 16.4413 101.235 16.2689 101.413 16.0455C101.595 15.822 101.722 15.553 101.794 15.2386H103.447C103.387 15.803 103.203 16.3068 102.896 16.75C102.589 17.1932 102.178 17.5417 101.663 17.7955C101.152 18.0492 100.551 18.1761 99.8619 18.1761ZM108.78 18.1761C107.962 18.1761 107.248 17.9886 106.638 17.6136C106.028 17.2386 105.555 16.714 105.218 16.0398C104.88 15.3655 104.712 14.5777 104.712 13.6761C104.712 12.7708 104.88 11.9792 105.218 11.3011C105.555 10.6231 106.028 10.0966 106.638 9.72159C107.248 9.34659 107.962 9.15909 108.78 9.15909C109.598 9.15909 110.312 9.34659 110.922 9.72159C111.532 10.0966 112.005 10.6231 112.343 11.3011C112.68 11.9792 112.848 12.7708 112.848 13.6761C112.848 14.5777 112.68 15.3655 112.343 16.0398C112.005 16.714 111.532 17.2386 110.922 17.6136C110.312 17.9886 109.598 18.1761 108.78 18.1761ZM108.786 16.75C109.316 16.75 109.755 16.6098 110.104 16.3295C110.452 16.0492 110.71 15.6761 110.877 15.2102C111.047 14.7443 111.132 14.2311 111.132 13.6705C111.132 13.1136 111.047 12.6023 110.877 12.1364C110.71 11.6667 110.452 11.2898 110.104 11.0057C109.755 10.7216 109.316 10.5795 108.786 10.5795C108.252 10.5795 107.808 10.7216 107.456 11.0057C107.108 11.2898 106.848 11.6667 106.678 12.1364C106.511 12.6023 106.428 13.1136 106.428 13.6705C106.428 14.2311 106.511 14.7443 106.678 15.2102C106.848 15.6761 107.108 16.0492 107.456 16.3295C107.808 16.6098 108.252 16.75 108.786 16.75ZM120.113 14.3807V9.27273H121.818V18H120.147V16.4886H120.056C119.855 16.9545 119.533 17.3428 119.09 17.6534C118.651 17.9602 118.103 18.1136 117.448 18.1136C116.888 18.1136 116.391 17.9905 115.96 17.7443C115.532 17.4943 115.194 17.125 114.948 16.6364C114.706 16.1477 114.585 15.5436 114.585 14.8239V9.27273H116.283V14.6193C116.283 15.214 116.448 15.6875 116.778 16.0398C117.107 16.392 117.535 16.5682 118.062 16.5682C118.38 16.5682 118.696 16.4886 119.011 16.3295C119.329 16.1705 119.592 15.9299 119.8 15.608C120.013 15.286 120.117 14.8769 120.113 14.3807ZM125.639 12.8182V18H123.94V9.27273H125.571V10.6932H125.679C125.88 10.2311 126.194 9.85985 126.622 9.57955C127.054 9.29924 127.597 9.15909 128.253 9.15909C128.847 9.15909 129.368 9.28409 129.815 9.53409C130.262 9.7803 130.609 10.1477 130.855 10.6364C131.101 11.125 131.224 11.7292 131.224 12.4489V18H129.525V12.6534C129.525 12.0208 129.361 11.5265 129.031 11.1705C128.702 10.8106 128.249 10.6307 127.673 10.6307C127.279 10.6307 126.929 10.7159 126.622 10.8864C126.319 11.0568 126.078 11.3068 125.9 11.6364C125.726 11.9621 125.639 12.3561 125.639 12.8182ZM137.417 9.27273V10.6364H132.649V9.27273H137.417ZM133.928 7.18182H135.627V15.4375C135.627 15.767 135.676 16.0152 135.774 16.1818C135.873 16.3447 136 16.4564 136.155 16.517C136.314 16.5739 136.487 16.6023 136.672 16.6023C136.809 16.6023 136.928 16.5928 137.03 16.5739C137.132 16.5549 137.212 16.5398 137.269 16.5284L137.576 17.9318C137.477 17.9697 137.337 18.0076 137.155 18.0455C136.973 18.0871 136.746 18.1098 136.473 18.1136C136.026 18.1212 135.61 18.0417 135.223 17.875C134.837 17.7083 134.524 17.4508 134.286 17.1023C134.047 16.7538 133.928 16.3163 133.928 15.7898V7.18182Z" fill="white"/>
<path d="M31.4091 50V38.3636H35.3409C36.2538 38.3636 37 38.5284 37.5795 38.858C38.1629 39.1837 38.5947 39.625 38.875 40.1818C39.1553 40.7386 39.2955 41.3598 39.2955 42.0455C39.2955 42.7311 39.1553 43.3542 38.875 43.9148C38.5985 44.4754 38.1705 44.9223 37.5909 45.2557C37.0114 45.5852 36.2689 45.75 35.3636 45.75H32.5455V44.5H35.3182C35.9432 44.5 36.4451 44.392 36.8239 44.1761C37.2027 43.9602 37.4773 43.6686 37.6477 43.3011C37.822 42.9299 37.9091 42.5114 37.9091 42.0455C37.9091 41.5795 37.822 41.1629 37.6477 40.7955C37.4773 40.428 37.2008 40.1402 36.8182 39.9318C36.4356 39.7197 35.928 39.6136 35.2955 39.6136H32.8182V50H31.4091ZM41.2235 50V41.2727H42.519V42.5909H42.6099C42.769 42.1591 43.0569 41.8087 43.4735 41.5398C43.8902 41.2708 44.3599 41.1364 44.8826 41.1364C44.9811 41.1364 45.1042 41.1383 45.2519 41.142C45.3997 41.1458 45.5114 41.1515 45.5872 41.1591V42.5227C45.5417 42.5114 45.4375 42.4943 45.2747 42.4716C45.1156 42.4451 44.947 42.4318 44.769 42.4318C44.3447 42.4318 43.9659 42.5208 43.6326 42.6989C43.3031 42.8731 43.0417 43.1155 42.8485 43.4261C42.6591 43.733 42.5644 44.0833 42.5644 44.4773V50H41.2235ZM50.2965 50.1818C49.5086 50.1818 48.8173 49.9943 48.2226 49.6193C47.6317 49.2443 47.1696 48.7197 46.8363 48.0455C46.5067 47.3712 46.3419 46.5833 46.3419 45.6818C46.3419 44.7727 46.5067 43.9792 46.8363 43.3011C47.1696 42.6231 47.6317 42.0966 48.2226 41.7216C48.8173 41.3466 49.5086 41.1591 50.2965 41.1591C51.0844 41.1591 51.7738 41.3466 52.3647 41.7216C52.9594 42.0966 53.4215 42.6231 53.751 43.3011C54.0844 43.9792 54.251 44.7727 54.251 45.6818C54.251 46.5833 54.0844 47.3712 53.751 48.0455C53.4215 48.7197 52.9594 49.2443 52.3647 49.6193C51.7738 49.9943 51.0844 50.1818 50.2965 50.1818ZM50.2965 48.9773C50.895 48.9773 51.3874 48.8239 51.7738 48.517C52.1601 48.2102 52.4461 47.8068 52.6317 47.3068C52.8173 46.8068 52.9101 46.2652 52.9101 45.6818C52.9101 45.0985 52.8173 44.5549 52.6317 44.0511C52.4461 43.5473 52.1601 43.1402 51.7738 42.8295C51.3874 42.5189 50.895 42.3636 50.2965 42.3636C49.698 42.3636 49.2056 42.5189 48.8192 42.8295C48.4328 43.1402 48.1469 43.5473 47.9613 44.0511C47.7756 44.5549 47.6828 45.0985 47.6828 45.6818C47.6828 46.2652 47.7756 46.8068 47.9613 47.3068C48.1469 47.8068 48.4328 48.2102 48.8192 48.517C49.2056 48.8239 49.698 48.9773 50.2965 48.9773ZM60.0243 41.2727V42.4091H55.3197V41.2727H60.0243ZM56.7288 50V40.0682C56.7288 39.5682 56.8462 39.1515 57.0811 38.8182C57.3159 38.4848 57.6209 38.2348 57.9959 38.0682C58.3709 37.9015 58.7667 37.8182 59.1834 37.8182C59.5129 37.8182 59.7818 37.8447 59.9902 37.8977C60.1985 37.9508 60.3538 38 60.4561 38.0455L60.0697 39.2045C60.0015 39.1818 59.9068 39.1534 59.7856 39.1193C59.6682 39.0852 59.5129 39.0682 59.3197 39.0682C58.8765 39.0682 58.5565 39.1799 58.3595 39.4034C58.1663 39.6269 58.0697 39.9545 58.0697 40.3864V50H56.7288ZM61.7435 50V41.2727H63.0844V50H61.7435ZM62.4253 39.8182C62.164 39.8182 61.9386 39.7292 61.7492 39.5511C61.5636 39.3731 61.4708 39.1591 61.4708 38.9091C61.4708 38.6591 61.5636 38.4451 61.7492 38.267C61.9386 38.089 62.164 38 62.4253 38C62.6867 38 62.9102 38.089 63.0958 38.267C63.2852 38.4451 63.3799 38.6591 63.3799 38.9091C63.3799 39.1591 63.2852 39.3731 63.0958 39.5511C62.9102 39.7292 62.6867 39.8182 62.4253 39.8182ZM66.7213 38.3636V50H65.3804V38.3636H66.7213ZM72.6764 50.1818C71.8355 50.1818 71.1101 49.9962 70.5002 49.625C69.8942 49.25 69.4264 48.7273 69.0968 48.0568C68.7711 47.3826 68.6082 46.5985 68.6082 45.7045C68.6082 44.8106 68.7711 44.0227 69.0968 43.3409C69.4264 42.6553 69.8847 42.1212 70.4718 41.7386C71.0627 41.3523 71.7521 41.1591 72.54 41.1591C72.9945 41.1591 73.4434 41.2348 73.8866 41.3864C74.3298 41.5379 74.7332 41.7841 75.0968 42.125C75.4605 42.4621 75.7502 42.9091 75.9661 43.4659C76.182 44.0227 76.29 44.7083 76.29 45.5227V46.0909H69.5627V44.9318H74.9264C74.9264 44.4394 74.8279 44 74.6309 43.6136C74.4377 43.2273 74.1612 42.9223 73.8014 42.6989C73.4453 42.4754 73.0248 42.3636 72.54 42.3636C72.0059 42.3636 71.5438 42.4962 71.1536 42.7614C70.7673 43.0227 70.4699 43.3636 70.2616 43.7841C70.0533 44.2045 69.9491 44.6553 69.9491 45.1364V45.9091C69.9491 46.5682 70.0627 47.1269 70.29 47.5852C70.5211 48.0398 70.8411 48.3864 71.2502 48.625C71.6593 48.8598 72.1347 48.9773 72.6764 48.9773C73.0286 48.9773 73.3468 48.928 73.6309 48.8295C73.9188 48.7273 74.1669 48.5758 74.3752 48.375C74.5836 48.1705 74.7445 47.9167 74.8582 47.6136L76.1536 47.9773C76.0173 48.4167 75.7881 48.803 75.4661 49.1364C75.1442 49.4659 74.7464 49.7235 74.273 49.9091C73.7995 50.0909 73.2673 50.1818 72.6764 50.1818Z" fill="#C8CBD0"/>
<path d="M31.4091 76V64.3636H35.4773C36.2879 64.3636 36.9564 64.5038 37.483 64.7841C38.0095 65.0606 38.4015 65.4337 38.6591 65.9034C38.9167 66.3693 39.0455 66.8864 39.0455 67.4545C39.0455 67.9545 38.9564 68.3674 38.7784 68.6932C38.6042 69.0189 38.3731 69.2765 38.0852 69.4659C37.8011 69.6553 37.4924 69.7955 37.1591 69.8864V70C37.5152 70.0227 37.8731 70.1477 38.233 70.375C38.5928 70.6023 38.8939 70.928 39.1364 71.3523C39.3788 71.7765 39.5 72.2955 39.5 72.9091C39.5 73.4924 39.3674 74.017 39.1023 74.483C38.8371 74.9489 38.4186 75.3182 37.8466 75.5909C37.2746 75.8636 36.5303 76 35.6136 76H31.4091ZM32.8182 74.75H35.6136C36.5341 74.75 37.1875 74.572 37.5739 74.2159C37.964 73.8561 38.1591 73.4205 38.1591 72.9091C38.1591 72.5152 38.0587 72.1515 37.858 71.8182C37.6572 71.4811 37.3712 71.2121 37 71.0114C36.6288 70.8068 36.1894 70.7045 35.6818 70.7045H32.8182V74.75ZM32.8182 69.4773H35.4318C35.8561 69.4773 36.2386 69.3939 36.5795 69.2273C36.9242 69.0606 37.197 68.8258 37.3977 68.5227C37.6023 68.2197 37.7045 67.8636 37.7045 67.4545C37.7045 66.9432 37.5265 66.5095 37.1705 66.1534C36.8144 65.7936 36.25 65.6136 35.4773 65.6136H32.8182V69.4773ZM41.4735 76V67.2727H42.8144V76H41.4735ZM42.1553 65.8182C41.894 65.8182 41.6686 65.7292 41.4792 65.5511C41.2936 65.3731 41.2008 65.1591 41.2008 64.9091C41.2008 64.6591 41.2936 64.4451 41.4792 64.267C41.6686 64.089 41.894 64 42.1553 64C42.4167 64 42.6402 64.089 42.8258 64.267C43.0152 64.4451 43.1099 64.6591 43.1099 64.9091C43.1099 65.1591 43.0152 65.3731 42.8258 65.5511C42.6402 65.7292 42.4167 65.8182 42.1553 65.8182ZM46.4513 64.3636V76H45.1104V64.3636H46.4513ZM50.0882 64.3636V76H48.7473V64.3636H50.0882ZM52.3841 76V67.2727H53.7251V76H52.3841ZM53.066 65.8182C52.8046 65.8182 52.5792 65.7292 52.3898 65.5511C52.2042 65.3731 52.1114 65.1591 52.1114 64.9091C52.1114 64.6591 52.2042 64.4451 52.3898 64.267C52.5792 64.089 52.8046 64 53.066 64C53.3273 64 53.5508 64.089 53.7364 64.267C53.9258 64.4451 54.0205 64.6591 54.0205 64.9091C54.0205 65.1591 53.9258 65.3731 53.7364 65.5511C53.5508 65.7292 53.3273 65.8182 53.066 65.8182ZM57.3619 70.75V76H56.021V67.2727H57.3165V68.6364H57.4301C57.6347 68.1932 57.9453 67.8371 58.3619 67.5682C58.7786 67.2955 59.3165 67.1591 59.9756 67.1591C60.5665 67.1591 61.0835 67.2803 61.5267 67.5227C61.9699 67.7614 62.3146 68.125 62.5608 68.6136C62.807 69.0985 62.9301 69.7121 62.9301 70.4545V76H61.5892V70.5455C61.5892 69.8598 61.4112 69.3258 61.0551 68.9432C60.6991 68.5568 60.2104 68.3636 59.5892 68.3636C59.1612 68.3636 58.7786 68.4564 58.4415 68.642C58.1081 68.8277 57.8449 69.0985 57.6517 69.4545C57.4585 69.8106 57.3619 70.2424 57.3619 70.75ZM68.7431 79.4545C68.0954 79.4545 67.5386 79.3712 67.0727 79.2045C66.6068 79.0417 66.2185 78.8258 65.9079 78.5568C65.6011 78.2917 65.3568 78.0076 65.1749 77.7045L66.2431 76.9545C66.3643 77.1136 66.5177 77.2955 66.7034 77.5C66.889 77.7083 67.1427 77.8883 67.4647 78.0398C67.7905 78.1951 68.2166 78.2727 68.7431 78.2727C69.4477 78.2727 70.0291 78.1023 70.4874 77.7614C70.9458 77.4205 71.1749 76.8864 71.1749 76.1591V74.3864H71.0613C70.9628 74.5455 70.8227 74.7424 70.6409 74.9773C70.4628 75.2083 70.2052 75.4148 69.8681 75.5966C69.5348 75.7746 69.084 75.8636 68.5159 75.8636C67.8113 75.8636 67.1787 75.697 66.6181 75.3636C66.0613 75.0303 65.62 74.5455 65.2943 73.9091C64.9723 73.2727 64.8113 72.5 64.8113 71.5909C64.8113 70.697 64.9685 69.9186 65.2829 69.2557C65.5973 68.589 66.0348 68.0739 66.5954 67.7102C67.156 67.3428 67.8037 67.1591 68.5386 67.1591C69.1068 67.1591 69.5575 67.2538 69.8909 67.4432C70.228 67.6288 70.4856 67.8409 70.6636 68.0795C70.8454 68.3144 70.9856 68.5076 71.084 68.6591H71.2204V67.2727H72.5159V76.25C72.5159 77 72.3454 77.6098 72.0045 78.0795C71.6674 78.553 71.2128 78.8996 70.6409 79.1193C70.0727 79.3428 69.4401 79.4545 68.7431 79.4545ZM68.6977 74.6591C69.2356 74.6591 69.6901 74.536 70.0613 74.2898C70.4325 74.0436 70.7147 73.6894 70.9079 73.2273C71.1011 72.7652 71.1977 72.2121 71.1977 71.5682C71.1977 70.9394 71.103 70.3845 70.9136 69.9034C70.7242 69.4223 70.4439 69.0455 70.0727 68.7727C69.7015 68.5 69.2431 68.3636 68.6977 68.3636C68.1295 68.3636 67.656 68.5076 67.2772 68.7955C66.9022 69.0833 66.62 69.4697 66.4306 69.9545C66.245 70.4394 66.1522 70.9773 66.1522 71.5682C66.1522 72.1742 66.2469 72.7102 66.4363 73.1761C66.6295 73.6383 66.9136 74.0019 67.2886 74.267C67.6674 74.5284 68.1371 74.6591 68.6977 74.6591ZM82.4459 76.1591C81.6807 76.1591 81.0216 76.0189 80.4686 75.7386C79.9156 75.4583 79.4894 75.0739 79.1902 74.5852C78.8909 74.0966 78.7413 73.5379 78.7413 72.9091C78.7413 72.4242 78.8436 71.9943 79.0481 71.6193C79.2565 71.2405 79.5424 70.8902 79.9061 70.5682C80.2735 70.2424 80.6959 69.9167 81.1731 69.5909L82.8549 68.3409C83.1845 68.125 83.4477 67.8939 83.6447 67.6477C83.8455 67.4015 83.9459 67.0795 83.9459 66.6818C83.9459 66.3864 83.8152 66.1004 83.5538 65.8239C83.2962 65.5473 82.9572 65.4091 82.5368 65.4091C82.2413 65.4091 81.9799 65.4848 81.7527 65.6364C81.5292 65.7841 81.3531 65.9735 81.2243 66.2045C81.0993 66.4318 81.0368 66.6667 81.0368 66.9091C81.0368 67.1818 81.1106 67.4583 81.2584 67.7386C81.4099 68.0152 81.6012 68.2992 81.8322 68.5909C82.0671 68.8788 82.3095 69.1742 82.5595 69.4773L87.9004 76H86.2868L81.8777 70.6818C81.4686 70.1894 81.0974 69.7424 80.764 69.3409C80.4307 68.9394 80.1656 68.5436 79.9686 68.1534C79.7716 67.7633 79.6731 67.3409 79.6731 66.8864C79.6731 66.3636 79.7887 65.9053 80.0197 65.5114C80.2546 65.1136 80.5822 64.8049 81.0027 64.5852C81.4269 64.3617 81.9231 64.25 82.4913 64.25C83.0746 64.25 83.5765 64.3636 83.997 64.5909C84.4174 64.8144 84.7413 65.1117 84.9686 65.483C85.1959 65.8504 85.3095 66.25 85.3095 66.6818C85.3095 67.2386 85.1712 67.7216 84.8947 68.1307C84.6182 68.5398 84.2413 68.9205 83.764 69.2727L81.4459 71C80.9231 71.3864 80.569 71.7614 80.3834 72.125C80.1977 72.4886 80.1049 72.75 80.1049 72.9091C80.1049 73.2727 80.1996 73.6117 80.389 73.9261C80.5784 74.2405 80.8455 74.4943 81.1902 74.6875C81.5349 74.8807 81.9383 74.9773 82.4004 74.9773C82.8398 74.9773 83.2678 74.8845 83.6845 74.6989C84.1012 74.5095 84.4781 74.2367 84.8152 73.8807C85.1561 73.5246 85.425 73.0966 85.622 72.5966C85.8227 72.0966 85.9231 71.5341 85.9231 70.9091H87.2186C87.2186 71.6818 87.1296 72.3125 86.9515 72.8011C86.7735 73.2898 86.5727 73.6723 86.3493 73.9489C86.1258 74.2254 85.9459 74.4318 85.8095 74.5682C85.764 74.625 85.7224 74.6818 85.6845 74.7386C85.6466 74.7955 85.6049 74.8523 85.5595 74.9091C85.1845 75.3295 84.711 75.6439 84.139 75.8523C83.5671 76.0568 83.0027 76.1591 82.4459 76.1591ZM99.0648 72.4318V67.2727H100.406V76H99.0648V74.5227H98.9739C98.7693 74.9659 98.4511 75.3428 98.0193 75.6534C97.5875 75.9602 97.042 76.1136 96.383 76.1136C95.8375 76.1136 95.3527 75.9943 94.9284 75.7557C94.5042 75.5133 94.1708 75.1496 93.9284 74.6648C93.686 74.1761 93.5648 73.5606 93.5648 72.8182V67.2727H94.9057V72.7273C94.9057 73.3636 95.0837 73.8712 95.4398 74.25C95.7996 74.6288 96.258 74.8182 96.8148 74.8182C97.1481 74.8182 97.4871 74.733 97.8318 74.5625C98.1803 74.392 98.472 74.1307 98.7068 73.7784C98.9455 73.4261 99.0648 72.9773 99.0648 72.4318ZM108.883 69.2273L107.679 69.5682C107.603 69.3674 107.491 69.1723 107.344 68.983C107.2 68.7898 107.003 68.6307 106.753 68.5057C106.503 68.3807 106.183 68.3182 105.793 68.3182C105.258 68.3182 104.813 68.4413 104.457 68.6875C104.105 68.9299 103.929 69.2386 103.929 69.6136C103.929 69.947 104.05 70.2102 104.293 70.4034C104.535 70.5966 104.914 70.7576 105.429 70.8864L106.724 71.2045C107.505 71.3939 108.086 71.6837 108.469 72.0739C108.851 72.4602 109.043 72.9583 109.043 73.5682C109.043 74.0682 108.899 74.5152 108.611 74.9091C108.327 75.303 107.929 75.6136 107.418 75.8409C106.906 76.0682 106.311 76.1818 105.633 76.1818C104.743 76.1818 104.007 75.9886 103.423 75.6023C102.84 75.2159 102.471 74.6515 102.315 73.9091L103.588 73.5909C103.709 74.0606 103.938 74.4129 104.276 74.6477C104.616 74.8826 105.061 75 105.611 75C106.236 75 106.732 74.8674 107.099 74.6023C107.471 74.3333 107.656 74.0114 107.656 73.6364C107.656 73.3333 107.55 73.0795 107.338 72.875C107.126 72.6667 106.8 72.5114 106.361 72.4091L104.906 72.0682C104.107 71.8788 103.52 71.5852 103.145 71.1875C102.774 70.786 102.588 70.2841 102.588 69.6818C102.588 69.1894 102.726 68.7538 103.003 68.375C103.283 67.9962 103.664 67.6989 104.145 67.483C104.63 67.267 105.179 67.1591 105.793 67.1591C106.656 67.1591 107.334 67.3485 107.827 67.7273C108.323 68.1061 108.675 68.6061 108.883 69.2273ZM113.469 76.2045C112.916 76.2045 112.414 76.1004 111.964 75.892C111.513 75.6799 111.155 75.375 110.89 74.9773C110.625 74.5758 110.492 74.0909 110.492 73.5227C110.492 73.0227 110.59 72.6174 110.787 72.3068C110.984 71.9924 111.248 71.7462 111.577 71.5682C111.907 71.3902 112.27 71.2576 112.668 71.1705C113.07 71.0795 113.473 71.0076 113.878 70.9545C114.409 70.8864 114.839 70.8352 115.168 70.8011C115.501 70.7633 115.744 70.7008 115.895 70.6136C116.051 70.5265 116.128 70.375 116.128 70.1591V70.1136C116.128 69.553 115.975 69.1174 115.668 68.8068C115.365 68.4962 114.905 68.3409 114.287 68.3409C113.647 68.3409 113.145 68.4811 112.782 68.7614C112.418 69.0417 112.162 69.3409 112.015 69.6591L110.742 69.2045C110.969 68.6742 111.272 68.2614 111.651 67.9659C112.034 67.6667 112.45 67.4583 112.901 67.3409C113.356 67.2197 113.803 67.1591 114.242 67.1591C114.522 67.1591 114.844 67.1932 115.208 67.2614C115.575 67.3258 115.929 67.4602 116.27 67.6648C116.615 67.8693 116.901 68.178 117.128 68.5909C117.356 69.0038 117.469 69.5568 117.469 70.25V76H116.128V74.8182H116.06C115.969 75.0076 115.818 75.2102 115.606 75.4261C115.393 75.642 115.111 75.8258 114.759 75.9773C114.407 76.1288 113.977 76.2045 113.469 76.2045ZM113.674 75C114.204 75 114.651 74.8958 115.015 74.6875C115.382 74.4792 115.659 74.2102 115.844 73.8807C116.034 73.5511 116.128 73.2045 116.128 72.8409V71.6136C116.071 71.6818 115.946 71.7443 115.753 71.8011C115.564 71.8542 115.344 71.9015 115.094 71.9432C114.848 71.9811 114.607 72.0152 114.373 72.0455C114.142 72.072 113.954 72.0947 113.81 72.1136C113.462 72.1591 113.136 72.233 112.833 72.3352C112.534 72.4337 112.291 72.5833 112.106 72.7841C111.924 72.9811 111.833 73.25 111.833 73.5909C111.833 74.0568 112.005 74.4091 112.35 74.6477C112.698 74.8826 113.14 75 113.674 75ZM123.279 79.4545C122.632 79.4545 122.075 79.3712 121.609 79.2045C121.143 79.0417 120.755 78.8258 120.444 78.5568C120.137 78.2917 119.893 78.0076 119.711 77.7045L120.779 76.9545C120.901 77.1136 121.054 77.2955 121.24 77.5C121.425 77.7083 121.679 77.8883 122.001 78.0398C122.327 78.1951 122.753 78.2727 123.279 78.2727C123.984 78.2727 124.565 78.1023 125.024 77.7614C125.482 77.4205 125.711 76.8864 125.711 76.1591V74.3864H125.598C125.499 74.5455 125.359 74.7424 125.177 74.9773C124.999 75.2083 124.741 75.4148 124.404 75.5966C124.071 75.7746 123.62 75.8636 123.052 75.8636C122.348 75.8636 121.715 75.697 121.154 75.3636C120.598 75.0303 120.156 74.5455 119.831 73.9091C119.509 73.2727 119.348 72.5 119.348 71.5909C119.348 70.697 119.505 69.9186 119.819 69.2557C120.134 68.589 120.571 68.0739 121.132 67.7102C121.692 67.3428 122.34 67.1591 123.075 67.1591C123.643 67.1591 124.094 67.2538 124.427 67.4432C124.764 67.6288 125.022 67.8409 125.2 68.0795C125.382 68.3144 125.522 68.5076 125.62 68.6591H125.757V67.2727H127.052V76.25C127.052 77 126.882 77.6098 126.541 78.0795C126.204 78.553 125.749 78.8996 125.177 79.1193C124.609 79.3428 123.976 79.4545 123.279 79.4545ZM123.234 74.6591C123.772 74.6591 124.226 74.536 124.598 74.2898C124.969 74.0436 125.251 73.6894 125.444 73.2273C125.637 72.7652 125.734 72.2121 125.734 71.5682C125.734 70.9394 125.639 70.3845 125.45 69.9034C125.26 69.4223 124.98 69.0455 124.609 68.7727C124.238 68.5 123.779 68.3636 123.234 68.3636C122.666 68.3636 122.192 68.5076 121.813 68.7955C121.438 69.0833 121.156 69.4697 120.967 69.9545C120.781 70.4394 120.688 70.9773 120.688 71.5682C120.688 72.1742 120.783 72.7102 120.973 73.1761C121.166 73.6383 121.45 74.0019 121.825 74.267C122.204 74.5284 122.673 74.6591 123.234 74.6591ZM133.006 76.1818C132.165 76.1818 131.439 75.9962 130.83 75.625C130.224 75.25 129.756 74.7273 129.426 74.0568C129.1 73.3826 128.938 72.5985 128.938 71.7045C128.938 70.8106 129.1 70.0227 129.426 69.3409C129.756 68.6553 130.214 68.1212 130.801 67.7386C131.392 67.3523 132.081 67.1591 132.869 67.1591C133.324 67.1591 133.773 67.2348 134.216 67.3864C134.659 67.5379 135.063 67.7841 135.426 68.125C135.79 68.4621 136.08 68.9091 136.296 69.4659C136.511 70.0227 136.619 70.7083 136.619 71.5227V72.0909H129.892V70.9318H135.256C135.256 70.4394 135.157 70 134.96 69.6136C134.767 69.2273 134.491 68.9223 134.131 68.6989C133.775 68.4754 133.354 68.3636 132.869 68.3636C132.335 68.3636 131.873 68.4962 131.483 68.7614C131.097 69.0227 130.799 69.3636 130.591 69.7841C130.383 70.2045 130.278 70.6553 130.278 71.1364V71.9091C130.278 72.5682 130.392 73.1269 130.619 73.5852C130.85 74.0398 131.171 74.3864 131.58 74.625C131.989 74.8598 132.464 74.9773 133.006 74.9773C133.358 74.9773 133.676 74.928 133.96 74.8295C134.248 74.7273 134.496 74.5758 134.705 74.375C134.913 74.1705 135.074 73.9167 135.188 73.6136L136.483 73.9773C136.347 74.4167 136.117 74.803 135.796 75.1364C135.474 75.4659 135.076 75.7235 134.602 75.9091C134.129 76.0909 133.597 76.1818 133.006 76.1818Z" fill="#C8CBD0"/>
</svg>
