<svg width="296" height="58" viewBox="0 0 296 58" fill="none" xmlns="http://www.w3.org/2000/svg">
<path d="M38.6667 5.33331L32 13.3333H38L37.3333 18.6666L44 10.6666H38L38.6667 5.33331Z" stroke="white" stroke-width="1.33" stroke-linecap="round" stroke-linejoin="round"/>
<path d="M52.2614 18H50.3977L54.5852 6.36364H56.6136L60.8011 18H58.9375L55.6477 8.47727H55.5568L52.2614 18ZM52.5739 13.4432H58.6193V14.9205H52.5739V13.4432ZM67.7136 14.3807V9.27273H69.4181V18H67.7477V16.4886H67.6568C67.456 16.9545 67.134 17.3428 66.6909 17.6534C66.2515 17.9602 65.7041 18.1136 65.0488 18.1136C64.4882 18.1136 63.992 17.9905 63.5602 17.7443C63.1321 17.4943 62.795 17.125 62.5488 16.6364C62.3064 16.1477 62.1852 15.5436 62.1852 14.8239V9.27273H63.884V14.6193C63.884 15.214 64.0488 15.6875 64.3784 16.0398C64.7079 16.392 65.1359 16.5682 65.6624 16.5682C65.9806 16.5682 66.2969 16.4886 66.6113 16.3295C66.9295 16.1705 67.1927 15.9299 67.4011 15.608C67.6132 15.286 67.7174 14.8769 67.7136 14.3807ZM75.6147 9.27273V10.6364H70.8476V9.27273H75.6147ZM72.126 7.18182H73.8249V15.4375C73.8249 15.767 73.8741 16.0152 73.9726 16.1818C74.0711 16.3447 74.198 16.4564 74.3533 16.517C74.5124 16.5739 74.6847 16.6023 74.8703 16.6023C75.0067 16.6023 75.126 16.5928 75.2283 16.5739C75.3306 16.5549 75.4101 16.5398 75.4669 16.5284L75.7738 17.9318C75.6753 17.9697 75.5351 18.0076 75.3533 18.0455C75.1715 18.0871 74.9442 18.1098 74.6715 18.1136C74.2245 18.1212 73.8078 18.0417 73.4215 17.875C73.0351 17.7083 72.7226 17.4508 72.484 17.1023C72.2453 16.7538 72.126 16.3163 72.126 15.7898V7.18182ZM80.9163 18.1761C80.0981 18.1761 79.3841 17.9886 78.7743 17.6136C78.1644 17.2386 77.6909 16.714 77.3538 16.0398C77.0167 15.3655 76.8481 14.5777 76.8481 13.6761C76.8481 12.7708 77.0167 11.9792 77.3538 11.3011C77.6909 10.6231 78.1644 10.0966 78.7743 9.72159C79.3841 9.34659 80.0981 9.15909 80.9163 9.15909C81.7345 9.15909 82.4485 9.34659 83.0584 9.72159C83.6682 10.0966 84.1417 10.6231 84.4788 11.3011C84.8159 11.9792 84.9845 12.7708 84.9845 13.6761C84.9845 14.5777 84.8159 15.3655 84.4788 16.0398C84.1417 16.714 83.6682 17.2386 83.0584 17.6136C82.4485 17.9886 81.7345 18.1761 80.9163 18.1761ZM80.922 16.75C81.4523 16.75 81.8917 16.6098 82.2402 16.3295C82.5887 16.0492 82.8462 15.6761 83.0129 15.2102C83.1834 14.7443 83.2686 14.2311 83.2686 13.6705C83.2686 13.1136 83.1834 12.6023 83.0129 12.1364C82.8462 11.6667 82.5887 11.2898 82.2402 11.0057C81.8917 10.7216 81.4523 10.5795 80.922 10.5795C80.3879 10.5795 79.9447 10.7216 79.5924 11.0057C79.244 11.2898 78.9845 11.6667 78.814 12.1364C78.6474 12.6023 78.564 13.1136 78.564 13.6705C78.564 14.2311 78.6474 14.7443 78.814 15.2102C78.9845 15.6761 79.244 16.0492 79.5924 16.3295C79.9447 16.6098 80.3879 16.75 80.922 16.75ZM86.7208 18V9.27273H88.3515V10.6932H88.4594C88.6413 10.2121 88.9386 9.83712 89.3515 9.56818C89.7644 9.29545 90.2587 9.15909 90.8344 9.15909C91.4178 9.15909 91.9064 9.29545 92.3003 9.56818C92.6981 9.84091 92.9916 10.2159 93.181 10.6932H93.2719C93.4803 10.2273 93.8117 9.85606 94.2663 9.57955C94.7208 9.29924 95.2625 9.15909 95.8913 9.15909C96.6829 9.15909 97.3288 9.4072 97.8288 9.90341C98.3325 10.3996 98.5844 11.1477 98.5844 12.1477V18H96.8856V12.3068C96.8856 11.7159 96.7246 11.2879 96.4026 11.0227C96.0806 10.7576 95.6962 10.625 95.2492 10.625C94.6962 10.625 94.2663 10.7955 93.9594 11.1364C93.6526 11.4735 93.4992 11.9072 93.4992 12.4375V18H91.806V12.1989C91.806 11.7254 91.6583 11.3447 91.3628 11.0568C91.0674 10.7689 90.6829 10.625 90.2094 10.625C89.8875 10.625 89.5901 10.7102 89.3174 10.8807C89.0484 11.0473 88.8306 11.2803 88.664 11.5795C88.5011 11.8788 88.4197 12.2254 88.4197 12.6193V18H86.7208ZM103.241 18.1932C102.688 18.1932 102.188 18.0909 101.741 17.8864C101.294 17.678 100.94 17.3769 100.679 16.983C100.421 16.589 100.292 16.1061 100.292 15.5341C100.292 15.0417 100.387 14.6364 100.576 14.3182C100.766 14 101.021 13.7481 101.343 13.5625C101.665 13.3769 102.025 13.2367 102.423 13.142C102.821 13.0473 103.226 12.9754 103.639 12.9261C104.162 12.8655 104.586 12.8163 104.912 12.7784C105.237 12.7367 105.474 12.6705 105.622 12.5795C105.77 12.4886 105.843 12.3409 105.843 12.1364V12.0966C105.843 11.6004 105.703 11.2159 105.423 10.9432C105.146 10.6705 104.734 10.5341 104.184 10.5341C103.612 10.5341 103.162 10.661 102.832 10.9148C102.506 11.1648 102.281 11.4432 102.156 11.75L100.559 11.3864C100.749 10.8561 101.025 10.428 101.389 10.1023C101.756 9.77273 102.179 9.53409 102.656 9.38636C103.133 9.23485 103.635 9.15909 104.162 9.15909C104.51 9.15909 104.879 9.20076 105.27 9.28409C105.664 9.36364 106.031 9.51136 106.372 9.72727C106.717 9.94318 106.999 10.2519 107.218 10.6534C107.438 11.0511 107.548 11.5682 107.548 12.2045V18H105.889V16.8068H105.821C105.711 17.0265 105.546 17.2424 105.326 17.4545C105.107 17.6667 104.825 17.8428 104.48 17.983C104.135 18.1231 103.722 18.1932 103.241 18.1932ZM103.611 16.8295C104.08 16.8295 104.482 16.7367 104.815 16.5511C105.152 16.3655 105.408 16.1231 105.582 15.8239C105.76 15.5208 105.849 15.197 105.849 14.8523V13.7273C105.789 13.7879 105.671 13.8447 105.497 13.8977C105.326 13.947 105.131 13.9905 104.912 14.0284C104.692 14.0625 104.478 14.0947 104.27 14.125C104.061 14.1515 103.887 14.1742 103.747 14.1932C103.417 14.2348 103.116 14.3049 102.843 14.4034C102.575 14.5019 102.359 14.6439 102.196 14.8295C102.037 15.0114 101.957 15.2538 101.957 15.5568C101.957 15.9773 102.112 16.2955 102.423 16.5114C102.734 16.7235 103.129 16.8295 103.611 16.8295ZM113.725 9.27273V10.6364H108.958V9.27273H113.725ZM110.236 7.18182H111.935V15.4375C111.935 15.767 111.984 16.0152 112.083 16.1818C112.181 16.3447 112.308 16.4564 112.463 16.517C112.622 16.5739 112.795 16.6023 112.98 16.6023C113.117 16.6023 113.236 16.5928 113.338 16.5739C113.441 16.5549 113.52 16.5398 113.577 16.5284L113.884 17.9318C113.785 17.9697 113.645 18.0076 113.463 18.0455C113.281 18.0871 113.054 18.1098 112.781 18.1136C112.335 18.1212 111.918 18.0417 111.531 17.875C111.145 17.7083 110.833 17.4508 110.594 17.1023C110.355 16.7538 110.236 16.3163 110.236 15.7898V7.18182ZM115.444 18V9.27273H117.143V18H115.444ZM116.302 7.92614C116.006 7.92614 115.753 7.82765 115.541 7.63068C115.332 7.42992 115.228 7.19129 115.228 6.91477C115.228 6.63447 115.332 6.39583 115.541 6.19886C115.753 5.99811 116.006 5.89773 116.302 5.89773C116.597 5.89773 116.849 5.99811 117.058 6.19886C117.27 6.39583 117.376 6.63447 117.376 6.91477C117.376 7.19129 117.27 7.42992 117.058 7.63068C116.849 7.82765 116.597 7.92614 116.302 7.92614ZM122.944 18.1761C122.126 18.1761 121.412 17.9886 120.802 17.6136C120.193 17.2386 119.719 16.714 119.382 16.0398C119.045 15.3655 118.876 14.5777 118.876 13.6761C118.876 12.7708 119.045 11.9792 119.382 11.3011C119.719 10.6231 120.193 10.0966 120.802 9.72159C121.412 9.34659 122.126 9.15909 122.944 9.15909C123.763 9.15909 124.477 9.34659 125.086 9.72159C125.696 10.0966 126.17 10.6231 126.507 11.3011C126.844 11.9792 127.013 12.7708 127.013 13.6761C127.013 14.5777 126.844 15.3655 126.507 16.0398C126.17 16.714 125.696 17.2386 125.086 17.6136C124.477 17.9886 123.763 18.1761 122.944 18.1761ZM122.95 16.75C123.48 16.75 123.92 16.6098 124.268 16.3295C124.617 16.0492 124.874 15.6761 125.041 15.2102C125.211 14.7443 125.297 14.2311 125.297 13.6705C125.297 13.1136 125.211 12.6023 125.041 12.1364C124.874 11.6667 124.617 11.2898 124.268 11.0057C123.92 10.7216 123.48 10.5795 122.95 10.5795C122.416 10.5795 121.973 10.7216 121.621 11.0057C121.272 11.2898 121.013 11.6667 120.842 12.1364C120.675 12.6023 120.592 13.1136 120.592 13.6705C120.592 14.2311 120.675 14.7443 120.842 15.2102C121.013 15.6761 121.272 16.0492 121.621 16.3295C121.973 16.6098 122.416 16.75 122.95 16.75ZM130.448 12.8182V18H128.749V9.27273H130.38V10.6932H130.488C130.688 10.2311 131.003 9.85985 131.431 9.57955C131.863 9.29924 132.406 9.15909 133.061 9.15909C133.656 9.15909 134.177 9.28409 134.624 9.53409C135.071 9.7803 135.417 10.1477 135.664 10.6364C135.91 11.125 136.033 11.7292 136.033 12.4489V18H134.334V12.6534C134.334 12.0208 134.169 11.5265 133.84 11.1705C133.51 10.8106 133.058 10.6307 132.482 10.6307C132.088 10.6307 131.738 10.7159 131.431 10.8864C131.128 11.0568 130.887 11.3068 130.709 11.6364C130.535 11.9621 130.448 12.3561 130.448 12.8182ZM144.691 11.4034L143.151 11.6761C143.087 11.4792 142.985 11.2917 142.845 11.1136C142.708 10.9356 142.523 10.7898 142.288 10.6761C142.053 10.5625 141.759 10.5057 141.407 10.5057C140.926 10.5057 140.525 10.6136 140.203 10.8295C139.881 11.0417 139.72 11.3163 139.72 11.6534C139.72 11.9451 139.828 12.1799 140.043 12.358C140.259 12.536 140.608 12.6818 141.089 12.7955L142.475 13.1136C143.278 13.2992 143.877 13.5852 144.271 13.9716C144.665 14.358 144.862 14.8598 144.862 15.4773C144.862 16 144.71 16.4659 144.407 16.875C144.108 17.2803 143.689 17.5985 143.151 17.8295C142.617 18.0606 141.998 18.1761 141.293 18.1761C140.316 18.1761 139.519 17.9678 138.901 17.5511C138.284 17.1307 137.905 16.5341 137.765 15.7614L139.407 15.5114C139.509 15.9394 139.72 16.2633 140.038 16.483C140.356 16.6989 140.771 16.8068 141.282 16.8068C141.839 16.8068 142.284 16.6913 142.617 16.4602C142.951 16.2254 143.117 15.9394 143.117 15.6023C143.117 15.3295 143.015 15.1004 142.811 14.9148C142.61 14.7292 142.301 14.589 141.884 14.4943L140.407 14.1705C139.593 13.9848 138.99 13.6894 138.6 13.2841C138.214 12.8788 138.021 12.3655 138.021 11.7443C138.021 11.2292 138.165 10.7784 138.453 10.392C138.74 10.0057 139.138 9.70455 139.646 9.48864C140.153 9.26894 140.735 9.15909 141.39 9.15909C142.333 9.15909 143.076 9.36364 143.617 9.77273C144.159 10.178 144.517 10.7216 144.691 11.4034Z" fill="white"/>
<rect width="271" height="26" transform="translate(0 32)" fill="white" fill-opacity="0.19"/>
<path d="M37.7727 41.2727C37.7045 40.697 37.428 40.25 36.9432 39.9318C36.4583 39.6136 35.8636 39.4545 35.1591 39.4545C34.6439 39.4545 34.1932 39.5379 33.8068 39.7045C33.4242 39.8712 33.125 40.1004 32.9091 40.392C32.697 40.6837 32.5909 41.0152 32.5909 41.3864C32.5909 41.697 32.6648 41.964 32.8125 42.1875C32.964 42.4072 33.1572 42.5909 33.392 42.7386C33.6269 42.8826 33.8731 43.0019 34.1307 43.0966C34.3883 43.1875 34.625 43.2614 34.8409 43.3182L36.0227 43.6364C36.3258 43.7159 36.6629 43.8258 37.0341 43.9659C37.4091 44.1061 37.767 44.2973 38.108 44.5398C38.4527 44.7784 38.7367 45.0852 38.9602 45.4602C39.1837 45.8352 39.2955 46.2955 39.2955 46.8409C39.2955 47.4697 39.1307 48.0379 38.8011 48.5455C38.4754 49.053 37.9981 49.4564 37.3693 49.7557C36.7443 50.0549 35.9848 50.2045 35.0909 50.2045C34.2576 50.2045 33.536 50.0701 32.9261 49.8011C32.3201 49.5322 31.8428 49.1572 31.4943 48.6761C31.1496 48.1951 30.9545 47.6364 30.9091 47H32.3636C32.4015 47.4394 32.5492 47.803 32.8068 48.0909C33.0682 48.375 33.3977 48.5871 33.7955 48.7273C34.197 48.8636 34.6288 48.9318 35.0909 48.9318C35.6288 48.9318 36.1117 48.8447 36.5398 48.6705C36.9678 48.4924 37.3068 48.2462 37.5568 47.9318C37.8068 47.6136 37.9318 47.2424 37.9318 46.8182C37.9318 46.4318 37.8239 46.1174 37.608 45.875C37.392 45.6326 37.108 45.4356 36.7557 45.2841C36.4034 45.1326 36.0227 45 35.6136 44.8864L34.1818 44.4773C33.2727 44.2159 32.553 43.8428 32.0227 43.358C31.4924 42.8731 31.2273 42.2386 31.2273 41.4545C31.2273 40.803 31.4034 40.2348 31.7557 39.75C32.1117 39.2614 32.589 38.8826 33.1875 38.6136C33.7898 38.3409 34.4621 38.2045 35.2045 38.2045C35.9545 38.2045 36.6212 38.339 37.2045 38.608C37.7879 38.8731 38.25 39.2367 38.5909 39.6989C38.9356 40.161 39.1174 40.6856 39.1364 41.2727H37.7727ZM44.9295 50.1818C44.0886 50.1818 43.3632 49.9962 42.7534 49.625C42.1473 49.25 41.6795 48.7273 41.3499 48.0568C41.0242 47.3826 40.8613 46.5985 40.8613 45.7045C40.8613 44.8106 41.0242 44.0227 41.3499 43.3409C41.6795 42.6553 42.1378 42.1212 42.7249 41.7386C43.3159 41.3523 44.0052 41.1591 44.7931 41.1591C45.2477 41.1591 45.6965 41.2348 46.1397 41.3864C46.5829 41.5379 46.9863 41.7841 47.3499 42.125C47.7136 42.4621 48.0034 42.9091 48.2193 43.4659C48.4352 44.0227 48.5431 44.7083 48.5431 45.5227V46.0909H41.8159V44.9318H47.1795C47.1795 44.4394 47.081 44 46.884 43.6136C46.6909 43.2273 46.4143 42.9223 46.0545 42.6989C45.6984 42.4754 45.278 42.3636 44.7931 42.3636C44.259 42.3636 43.7969 42.4962 43.4068 42.7614C43.0204 43.0227 42.723 43.3636 42.5147 43.7841C42.3064 44.2045 42.2022 44.6553 42.2022 45.1364V45.9091C42.2022 46.5682 42.3159 47.1269 42.5431 47.5852C42.7742 48.0398 43.0943 48.3864 43.5034 48.625C43.9124 48.8598 44.3878 48.9773 44.9295 48.9773C45.2818 48.9773 45.5999 48.928 45.884 48.8295C46.1719 48.7273 46.42 48.5758 46.6284 48.375C46.8367 48.1705 46.9977 47.9167 47.1113 47.6136L48.4068 47.9773C48.2704 48.4167 48.0412 48.803 47.7193 49.1364C47.3973 49.4659 46.9996 49.7235 46.5261 49.9091C46.0526 50.0909 45.5204 50.1818 44.9295 50.1818ZM51.7638 38.3636V50H50.4229V38.3636H51.7638ZM57.9461 41.2727V42.4091H53.2416V41.2727H57.9461ZM54.6507 50V40.0682C54.6507 39.5682 54.7681 39.1515 55.003 38.8182C55.2378 38.4848 55.5427 38.2348 55.9177 38.0682C56.2927 37.9015 56.6886 37.8182 57.1052 37.8182C57.4348 37.8182 57.7037 37.8447 57.912 37.8977C58.1204 37.9508 58.2757 38 58.378 38.0455L57.9916 39.2045C57.9234 39.1818 57.8287 39.1534 57.7075 39.1193C57.5901 39.0852 57.4348 39.0682 57.2416 39.0682C56.7984 39.0682 56.4783 39.1799 56.2814 39.4034C56.0882 39.6269 55.9916 39.9545 55.9916 40.3864V50H54.6507ZM64.2123 44.3864V45.6364H59.1214V44.3864H64.2123ZM72.5935 43.2273L71.3889 43.5682C71.3132 43.3674 71.2014 43.1723 71.0537 42.983C70.9098 42.7898 70.7128 42.6307 70.4628 42.5057C70.2128 42.3807 69.8927 42.3182 69.5026 42.3182C68.9685 42.3182 68.5234 42.4413 68.1673 42.6875C67.8151 42.9299 67.6389 43.2386 67.6389 43.6136C67.6389 43.947 67.7601 44.2102 68.0026 44.4034C68.245 44.5966 68.6238 44.7576 69.1389 44.8864L70.4344 45.2045C71.2147 45.3939 71.7961 45.6837 72.1787 46.0739C72.5613 46.4602 72.7526 46.9583 72.7526 47.5682C72.7526 48.0682 72.6086 48.5152 72.3207 48.9091C72.0366 49.303 71.6389 49.6136 71.1276 49.8409C70.6162 50.0682 70.0215 50.1818 69.3435 50.1818C68.4533 50.1818 67.7166 49.9886 67.1332 49.6023C66.5499 49.2159 66.1806 48.6515 66.0253 47.9091L67.298 47.5909C67.4192 48.0606 67.6484 48.4129 67.9855 48.6477C68.3264 48.8826 68.7715 49 69.3207 49C69.9457 49 70.442 48.8674 70.8094 48.6023C71.1806 48.3333 71.3662 48.0114 71.3662 47.6364C71.3662 47.3333 71.2601 47.0795 71.048 46.875C70.8359 46.6667 70.5101 46.5114 70.0707 46.4091L68.6162 46.0682C67.817 45.8788 67.2298 45.5852 66.8548 45.1875C66.4836 44.786 66.298 44.2841 66.298 43.6818C66.298 43.1894 66.4363 42.7538 66.7128 42.375C66.9931 41.9962 67.3738 41.6989 67.8548 41.483C68.3397 41.267 68.8889 41.1591 69.5026 41.1591C70.3662 41.1591 71.0442 41.3485 71.5366 41.7273C72.0329 42.1061 72.3851 42.6061 72.5935 43.2273ZM78.2701 50.1818C77.4292 50.1818 76.7038 49.9962 76.094 49.625C75.4879 49.25 75.0201 48.7273 74.6906 48.0568C74.3648 47.3826 74.2019 46.5985 74.2019 45.7045C74.2019 44.8106 74.3648 44.0227 74.6906 43.3409C75.0201 42.6553 75.4784 42.1212 76.0656 41.7386C76.6565 41.3523 77.3459 41.1591 78.1338 41.1591C78.5883 41.1591 79.0372 41.2348 79.4803 41.3864C79.9235 41.5379 80.3269 41.7841 80.6906 42.125C81.0542 42.4621 81.344 42.9091 81.5599 43.4659C81.7758 44.0227 81.8838 44.7083 81.8838 45.5227V46.0909H75.1565V44.9318H80.5201C80.5201 44.4394 80.4216 44 80.2247 43.6136C80.0315 43.2273 79.755 42.9223 79.3951 42.6989C79.0391 42.4754 78.6186 42.3636 78.1338 42.3636C77.5997 42.3636 77.1375 42.4962 76.7474 42.7614C76.361 43.0227 76.0637 43.3636 75.8553 43.7841C75.647 44.2045 75.5428 44.6553 75.5428 45.1364V45.9091C75.5428 46.5682 75.6565 47.1269 75.8838 47.5852C76.1148 48.0398 76.4349 48.3864 76.844 48.625C77.2531 48.8598 77.7284 48.9773 78.2701 48.9773C78.6224 48.9773 78.9406 48.928 79.2247 48.8295C79.5125 48.7273 79.7606 48.5758 79.969 48.375C80.1773 48.1705 80.3383 47.9167 80.4519 47.6136L81.7474 47.9773C81.611 48.4167 81.3819 48.803 81.0599 49.1364C80.7379 49.4659 80.3402 49.7235 79.8667 49.9091C79.3932 50.0909 78.861 50.1818 78.2701 50.1818ZM83.7635 50V41.2727H85.059V42.5909H85.1499C85.309 42.1591 85.5969 41.8087 86.0135 41.5398C86.4302 41.2708 86.8999 41.1364 87.4226 41.1364C87.5211 41.1364 87.6442 41.1383 87.7919 41.142C87.9397 41.1458 88.0514 41.1515 88.1272 41.1591V42.5227C88.0817 42.5114 87.9775 42.4943 87.8147 42.4716C87.6556 42.4451 87.487 42.4318 87.309 42.4318C86.8847 42.4318 86.5059 42.5208 86.1726 42.6989C85.8431 42.8731 85.5817 43.1155 85.3885 43.4261C85.1991 43.733 85.1044 44.0833 85.1044 44.4773V50H83.7635ZM96.9586 41.2727L93.7314 50H92.3677L89.1405 41.2727H90.595L93.0041 48.2273H93.095L95.5041 41.2727H96.9586ZM98.5685 50V41.2727H99.9094V50H98.5685ZM99.2503 39.8182C98.989 39.8182 98.7636 39.7292 98.5742 39.5511C98.3886 39.3731 98.2958 39.1591 98.2958 38.9091C98.2958 38.6591 98.3886 38.4451 98.5742 38.267C98.7636 38.089 98.989 38 99.2503 38C99.5117 38 99.7352 38.089 99.9208 38.267C100.11 38.4451 100.205 38.6591 100.205 38.9091C100.205 39.1591 100.11 39.3731 99.9208 39.5511C99.7352 39.7292 99.5117 39.8182 99.2503 39.8182ZM105.751 50.1818C104.933 50.1818 104.228 49.9886 103.637 49.6023C103.046 49.2159 102.592 48.6837 102.274 48.0057C101.955 47.3277 101.796 46.553 101.796 45.6818C101.796 44.7955 101.959 44.0133 102.285 43.3352C102.614 42.6534 103.073 42.1212 103.66 41.7386C104.251 41.3523 104.94 41.1591 105.728 41.1591C106.342 41.1591 106.895 41.2727 107.387 41.5C107.88 41.7273 108.283 42.0455 108.597 42.4545C108.912 42.8636 109.107 43.3409 109.183 43.8864H107.842C107.739 43.4886 107.512 43.1364 107.16 42.8295C106.811 42.5189 106.342 42.3636 105.751 42.3636C105.228 42.3636 104.77 42.5 104.376 42.7727C103.986 43.0417 103.681 43.4223 103.461 43.9148C103.245 44.4034 103.137 44.9773 103.137 45.6364C103.137 46.3106 103.243 46.8977 103.455 47.3977C103.671 47.8977 103.974 48.286 104.364 48.5625C104.758 48.839 105.221 48.9773 105.751 48.9773C106.099 48.9773 106.416 48.9167 106.7 48.7955C106.984 48.6742 107.224 48.5 107.421 48.2727C107.618 48.0455 107.758 47.7727 107.842 47.4545H109.183C109.107 47.9697 108.919 48.4337 108.62 48.8466C108.325 49.2557 107.933 49.5814 107.444 49.8239C106.959 50.0625 106.395 50.1818 105.751 50.1818ZM114.642 50.1818C113.801 50.1818 113.076 49.9962 112.466 49.625C111.86 49.25 111.392 48.7273 111.062 48.0568C110.737 47.3826 110.574 46.5985 110.574 45.7045C110.574 44.8106 110.737 44.0227 111.062 43.3409C111.392 42.6553 111.85 42.1212 112.437 41.7386C113.028 41.3523 113.718 41.1591 114.506 41.1591C114.96 41.1591 115.409 41.2348 115.852 41.3864C116.295 41.5379 116.699 41.7841 117.062 42.125C117.426 42.4621 117.716 42.9091 117.932 43.4659C118.148 44.0227 118.256 44.7083 118.256 45.5227V46.0909H111.528V44.9318H116.892C116.892 44.4394 116.794 44 116.597 43.6136C116.403 43.2273 116.127 42.9223 115.767 42.6989C115.411 42.4754 114.99 42.3636 114.506 42.3636C113.972 42.3636 113.509 42.4962 113.119 42.7614C112.733 43.0227 112.436 43.3636 112.227 43.7841C112.019 44.2045 111.915 44.6553 111.915 45.1364V45.9091C111.915 46.5682 112.028 47.1269 112.256 47.5852C112.487 48.0398 112.807 48.3864 113.216 48.625C113.625 48.8598 114.1 48.9773 114.642 48.9773C114.994 48.9773 115.312 48.928 115.597 48.8295C115.884 48.7273 116.133 48.5758 116.341 48.375C116.549 48.1705 116.71 47.9167 116.824 47.6136L118.119 47.9773C117.983 48.4167 117.754 48.803 117.432 49.1364C117.11 49.4659 116.712 49.7235 116.239 49.9091C115.765 50.0909 115.233 50.1818 114.642 50.1818ZM124.475 53.2727V41.2727H125.771V42.6591H125.93C126.028 42.5076 126.165 42.3144 126.339 42.0795C126.517 41.8409 126.771 41.6288 127.1 41.4432C127.434 41.2538 127.884 41.1591 128.453 41.1591C129.188 41.1591 129.835 41.3428 130.396 41.7102C130.956 42.0777 131.394 42.5985 131.708 43.2727C132.023 43.947 132.18 44.7424 132.18 45.6591C132.18 46.5833 132.023 47.3845 131.708 48.0625C131.394 48.7367 130.958 49.2595 130.402 49.6307C129.845 49.9981 129.203 50.1818 128.475 50.1818C127.915 50.1818 127.466 50.089 127.129 49.9034C126.792 49.714 126.532 49.5 126.35 49.2614C126.169 49.0189 126.028 48.8182 125.93 48.6591H125.816V53.2727H124.475ZM125.794 45.6364C125.794 46.2955 125.89 46.8769 126.083 47.3807C126.277 47.8807 126.559 48.2727 126.93 48.5568C127.301 48.8371 127.756 48.9773 128.294 48.9773C128.854 48.9773 129.322 48.8295 129.697 48.5341C130.076 48.2348 130.36 47.8333 130.549 47.3295C130.742 46.822 130.839 46.2576 130.839 45.6364C130.839 45.0227 130.744 44.4697 130.555 43.9773C130.369 43.4811 130.087 43.089 129.708 42.8011C129.333 42.5095 128.862 42.3636 128.294 42.3636C127.748 42.3636 127.29 42.5019 126.919 42.7784C126.547 43.0511 126.267 43.4337 126.078 43.9261C125.888 44.4148 125.794 44.9848 125.794 45.6364ZM137.611 50.1818C136.823 50.1818 136.132 49.9943 135.537 49.6193C134.946 49.2443 134.484 48.7197 134.151 48.0455C133.821 47.3712 133.656 46.5833 133.656 45.6818C133.656 44.7727 133.821 43.9792 134.151 43.3011C134.484 42.6231 134.946 42.0966 135.537 41.7216C136.132 41.3466 136.823 41.1591 137.611 41.1591C138.399 41.1591 139.088 41.3466 139.679 41.7216C140.274 42.0966 140.736 42.6231 141.065 43.3011C141.399 43.9792 141.565 44.7727 141.565 45.6818C141.565 46.5833 141.399 47.3712 141.065 48.0455C140.736 48.7197 140.274 49.2443 139.679 49.6193C139.088 49.9943 138.399 50.1818 137.611 50.1818ZM137.611 48.9773C138.209 48.9773 138.702 48.8239 139.088 48.517C139.474 48.2102 139.76 47.8068 139.946 47.3068C140.132 46.8068 140.224 46.2652 140.224 45.6818C140.224 45.0985 140.132 44.5549 139.946 44.0511C139.76 43.5473 139.474 43.1402 139.088 42.8295C138.702 42.5189 138.209 42.3636 137.611 42.3636C137.012 42.3636 136.52 42.5189 136.134 42.8295C135.747 43.1402 135.461 43.5473 135.276 44.0511C135.09 44.5549 134.997 45.0985 134.997 45.6818C134.997 46.2652 135.09 46.8068 135.276 47.3068C135.461 47.8068 135.747 48.2102 136.134 48.517C136.52 48.8239 137.012 48.9773 137.611 48.9773ZM143.452 50V41.2727H144.748V42.5909H144.839C144.998 42.1591 145.286 41.8087 145.702 41.5398C146.119 41.2708 146.589 41.1364 147.111 41.1364C147.21 41.1364 147.333 41.1383 147.481 41.142C147.628 41.1458 147.74 41.1515 147.816 41.1591V42.5227C147.77 42.5114 147.666 42.4943 147.503 42.4716C147.344 42.4451 147.176 42.4318 146.998 42.4318C146.573 42.4318 146.195 42.5208 145.861 42.6989C145.532 42.8731 145.27 43.1155 145.077 43.4261C144.888 43.733 144.793 44.0833 144.793 44.4773V50H143.452ZM153.588 41.2727V42.4091H149.065V41.2727H153.588ZM150.383 39.1818H151.724V47.5C151.724 47.8788 151.779 48.1629 151.889 48.3523C152.003 48.5379 152.146 48.6629 152.321 48.7273C152.499 48.7879 152.686 48.8182 152.883 48.8182C153.031 48.8182 153.152 48.8106 153.247 48.7955C153.342 48.7765 153.417 48.7614 153.474 48.75L153.747 49.9545C153.656 49.9886 153.529 50.0227 153.366 50.0568C153.203 50.0947 152.997 50.1136 152.747 50.1136C152.368 50.1136 151.997 50.0322 151.633 49.8693C151.273 49.7064 150.974 49.4583 150.735 49.125C150.501 48.7917 150.383 48.3712 150.383 47.8636V39.1818ZM158.013 50.2045C157.46 50.2045 156.958 50.1004 156.507 49.892C156.057 49.6799 155.699 49.375 155.433 48.9773C155.168 48.5758 155.036 48.0909 155.036 47.5227C155.036 47.0227 155.134 46.6174 155.331 46.3068C155.528 45.9924 155.791 45.7462 156.121 45.5682C156.45 45.3902 156.814 45.2576 157.212 45.1705C157.613 45.0795 158.017 45.0076 158.422 44.9545C158.952 44.8864 159.382 44.8352 159.712 44.8011C160.045 44.7633 160.288 44.7008 160.439 44.6136C160.594 44.5265 160.672 44.375 160.672 44.1591V44.1136C160.672 43.553 160.519 43.1174 160.212 42.8068C159.909 42.4962 159.449 42.3409 158.831 42.3409C158.191 42.3409 157.689 42.4811 157.325 42.7614C156.962 43.0417 156.706 43.3409 156.558 43.6591L155.286 43.2045C155.513 42.6742 155.816 42.2614 156.195 41.9659C156.577 41.6667 156.994 41.4583 157.445 41.3409C157.899 41.2197 158.346 41.1591 158.786 41.1591C159.066 41.1591 159.388 41.1932 159.752 41.2614C160.119 41.3258 160.473 41.4602 160.814 41.6648C161.159 41.8693 161.445 42.178 161.672 42.5909C161.899 43.0038 162.013 43.5568 162.013 44.25V50H160.672V48.8182H160.604C160.513 49.0076 160.361 49.2102 160.149 49.4261C159.937 49.642 159.655 49.8258 159.303 49.9773C158.95 50.1288 158.521 50.2045 158.013 50.2045ZM158.217 49C158.748 49 159.195 48.8958 159.558 48.6875C159.926 48.4792 160.202 48.2102 160.388 47.8807C160.577 47.5511 160.672 47.2045 160.672 46.8409V45.6136C160.615 45.6818 160.49 45.7443 160.297 45.8011C160.108 45.8542 159.888 45.9015 159.638 45.9432C159.392 45.9811 159.151 46.0152 158.916 46.0455C158.685 46.072 158.498 46.0947 158.354 46.1136C158.005 46.1591 157.68 46.233 157.377 46.3352C157.077 46.4337 156.835 46.5833 156.649 46.7841C156.467 46.9811 156.377 47.25 156.377 47.5909C156.377 48.0568 156.549 48.4091 156.894 48.6477C157.242 48.8826 157.683 49 158.217 49ZM165.641 38.3636V50H164.3V38.3636H165.641Z" fill="white"/>
</svg>
