<svg width="122" height="18" viewBox="0 0 122 18" fill="none" xmlns="http://www.w3.org/2000/svg">
<path d="M7.38326 11.2966C6.84266 11.4477 6.43399 11.8287 6.23198 12.0841C6.14658 12.1936 6.10853 12.3734 6.04229 12.4963C6.013 12.55 5.61966 13.3101 5.26573 13.5373C4.87486 13.7855 4.52203 13.8395 4.33288 14.2295C4.25679 14.3853 4.22504 14.5566 4.24912 14.7206C4.28443 14.9713 4.44867 15.2075 4.78508 15.354C5.34457 15.5981 7.35014 15.3745 8.4683 13.9933C8.79212 13.658 8.93555 13.1809 8.99385 12.7435C9.11484 11.8306 8.27122 11.0491 7.38326 11.2966Z" fill="#32ABF2"/>
<path d="M6.05909 11.3144C6.07551 11.2898 6.09194 11.2662 6.10891 11.2361C6.13491 11.1907 6.16174 11.1392 6.19021 11.0842C5.78236 10.8247 5.19522 10.3624 5.16949 10.3421L5.12816 10.3101L5.1298 10.3079C5.09148 10.277 5.05316 10.2482 5.01456 10.2148C4.92861 10.2356 4.84595 10.26 4.76848 10.289C4.28262 10.4708 3.9558 10.7973 3.72395 11.0467C3.64649 11.1299 3.57997 11.2041 3.51921 11.2632C3.18636 11.5846 2.82121 11.7671 2.66382 11.8369C2.6318 11.8572 2.59922 11.8774 2.5661 11.8977C1.98553 12.2524 2.01619 12.8166 2.07997 13.0334C2.14375 13.2502 2.38791 13.8335 3.20744 13.819C3.8422 13.8077 4.53308 13.4702 4.81255 13.3186C4.81255 13.3186 5.99504 12.5598 6.43519 11.6497C6.43601 11.6494 6.28573 11.5191 6.05909 11.3144Z" fill="#32ABF2"/>
<path d="M4.27744 9.30466C4.12744 9.10183 3.99496 8.90392 3.89943 8.75365C3.86111 8.69288 3.82881 8.6406 3.80335 8.5979C3.69085 8.62746 3.55071 8.67509 3.39742 8.75338C3.02899 8.9417 2.65235 9.04462 2.42844 8.95812C2.20481 8.87135 1.71265 8.65073 1.36311 8.90064C1.01356 9.15055 0.900513 9.60822 1.09376 9.94654C1.25991 10.2375 1.69048 10.6963 2.17689 10.8829C2.17689 10.8829 3.29395 11.4175 4.57854 10.3035C5.68521 9.34407 4.76549 9.29398 4.27744 9.30466Z" fill="#32ABF2"/>
<path d="M9.00032 13.0221C11.975 13.0221 14.3864 10.6107 14.3864 7.63606C14.3864 4.66142 11.975 2.25 9.00032 2.25C6.02568 2.25 3.61426 4.66142 3.61426 7.63606C3.61426 10.6107 6.02568 13.0221 9.00032 13.0221Z" fill="#32ABF2"/>
<path d="M10.6163 11.2966C11.1569 11.4477 11.5656 11.8287 11.7676 12.0841C11.853 12.1936 11.891 12.3734 11.9573 12.4963C11.9866 12.55 12.3799 13.3101 12.7338 13.5373C13.1244 13.7855 13.4775 13.8395 13.6667 14.2295C13.7428 14.3853 13.7745 14.5566 13.7504 14.7206C13.7151 14.9713 13.5509 15.2075 13.2145 15.354C12.655 15.5981 10.6494 15.3745 9.53126 13.9933C9.20744 13.658 9.06401 13.1809 9.00571 12.7435C8.885 11.8306 9.72862 11.0491 10.6163 11.2966Z" fill="#32ABF2"/>
<path d="M11.9411 11.3144C11.9247 11.2898 11.9082 11.2662 11.8913 11.2361C11.8653 11.1907 11.8385 11.1392 11.81 11.0842C12.2178 10.8247 12.805 10.3624 12.8307 10.3421L12.872 10.3101L12.8704 10.3079C12.9087 10.277 12.947 10.2482 12.9854 10.2148C13.0713 10.2356 13.154 10.26 13.2314 10.289C13.7173 10.4708 14.0441 10.7973 14.276 11.0467C14.3534 11.1299 14.4199 11.2041 14.4807 11.2632C14.8136 11.5846 15.1787 11.7671 15.3361 11.8369C15.3681 11.8572 15.4007 11.8774 15.4338 11.8977C16.0144 12.2524 15.9837 12.8166 15.9199 13.0334C15.8562 13.2502 15.612 13.8335 14.7925 13.819C14.158 13.8077 13.4668 13.4702 13.1874 13.3186C13.1874 13.3186 12.0046 12.5598 11.5645 11.6497C11.5642 11.6494 11.7147 11.5191 11.9411 11.3144Z" fill="#32ABF2"/>
<path d="M13.7223 9.30466C13.8723 9.10183 14.0048 8.90392 14.1003 8.75365C14.1386 8.69288 14.1709 8.6406 14.1964 8.5979C14.3089 8.62746 14.449 8.67509 14.6023 8.75338C14.9708 8.9417 15.3474 9.04462 15.5713 8.95812C15.7949 8.87135 16.2871 8.65073 16.6366 8.90064C16.9862 9.15055 17.0992 9.60822 16.906 9.94654C16.7398 10.2375 16.3093 10.6963 15.8229 10.8829C15.8229 10.8829 14.7058 11.4175 13.4212 10.3035C12.3145 9.34407 13.2343 9.29398 13.7223 9.30466Z" fill="#32ABF2"/>
<path d="M7.14401 7.98636C7.40584 7.98636 7.6181 7.71626 7.6181 7.38307C7.6181 7.04989 7.40584 6.77979 7.14401 6.77979C6.88218 6.77979 6.66992 7.04989 6.66992 7.38307C6.66992 7.71626 6.88218 7.98636 7.14401 7.98636Z" fill="#34056F"/>
<path d="M7.3335 7.125C7.3335 7.24352 7.23742 7.3396 7.1189 7.3396C7.00037 7.3396 6.9043 7.24352 6.9043 7.125C6.9043 7.00648 7.00037 6.9104 7.1189 6.9104C7.23742 6.91013 7.3335 7.0062 7.3335 7.125Z" fill="#F9F9F9"/>
<path d="M10.8559 7.98636C11.1178 7.98636 11.33 7.71626 11.33 7.38307C11.33 7.04989 11.1178 6.77979 10.8559 6.77979C10.5941 6.77979 10.3818 7.04989 10.3818 7.38307C10.3818 7.71626 10.5941 7.98636 10.8559 7.98636Z" fill="#34056F"/>
<path d="M11.0464 7.125C11.0464 7.24352 10.9503 7.3396 10.8318 7.3396C10.7133 7.3396 10.6172 7.24352 10.6172 7.125C10.6172 7.00648 10.7133 6.9104 10.8318 6.9104C10.9503 6.91013 11.0464 7.0062 11.0464 7.125Z" fill="#F9F9F9"/>
<path d="M9.87171 9.23926C9.82655 9.78342 9.64343 10.4768 9.00018 10.4768C8.68266 10.4768 8.47736 10.3079 8.3457 10.0714C8.50556 9.72922 8.92873 9.11991 9.87171 9.23926Z" fill="#EB5A55"/>
<path d="M9.87175 9.23924C8.9285 9.11989 8.50559 9.7292 8.34574 10.0714C8.03643 9.51926 8.12785 8.5979 8.12785 8.5979C8.38816 8.70958 9.00021 8.68686 9.00021 8.68686C9.00021 8.68686 9.61144 8.70958 9.87257 8.5979C9.87257 8.5979 9.90131 8.88778 9.87175 9.23924Z" fill="#79292A"/>
<path d="M22.9588 13V4.27273H26.0696C26.7486 4.27273 27.3111 4.39631 27.7571 4.64347C28.2031 4.89062 28.5369 5.22869 28.7585 5.65767C28.9801 6.08381 29.0909 6.56392 29.0909 7.09801C29.0909 7.63494 28.9787 8.1179 28.7543 8.54688C28.5327 8.97301 28.1974 9.31108 27.7486 9.56108C27.3026 9.80824 26.7415 9.93182 26.0653 9.93182H23.9261V8.81534H25.946C26.375 8.81534 26.723 8.74148 26.9901 8.59375C27.2571 8.44318 27.4531 8.23864 27.5781 7.98011C27.7031 7.72159 27.7656 7.42756 27.7656 7.09801C27.7656 6.76847 27.7031 6.47585 27.5781 6.22017C27.4531 5.96449 27.2557 5.7642 26.9858 5.61932C26.7188 5.47443 26.3665 5.40199 25.929 5.40199H24.2756V13H22.9588ZM33.0874 13.1321C32.4738 13.1321 31.9382 12.9915 31.4809 12.7102C31.0235 12.429 30.6684 12.0355 30.4155 11.5298C30.1627 11.0241 30.0363 10.4332 30.0363 9.7571C30.0363 9.07812 30.1627 8.48437 30.4155 7.97585C30.6684 7.46733 31.0235 7.07244 31.4809 6.79119C31.9382 6.50994 32.4738 6.36932 33.0874 6.36932C33.701 6.36932 34.2365 6.50994 34.6939 6.79119C35.1513 7.07244 35.5064 7.46733 35.7593 7.97585C36.0121 8.48437 36.1385 9.07812 36.1385 9.7571C36.1385 10.4332 36.0121 11.0241 35.7593 11.5298C35.5064 12.0355 35.1513 12.429 34.6939 12.7102C34.2365 12.9915 33.701 13.1321 33.0874 13.1321ZM33.0916 12.0625C33.4894 12.0625 33.8189 11.9574 34.0803 11.7472C34.3416 11.5369 34.5348 11.2571 34.6598 10.9077C34.7877 10.5582 34.8516 10.1733 34.8516 9.75284C34.8516 9.33523 34.7877 8.9517 34.6598 8.60227C34.5348 8.25 34.3416 7.96733 34.0803 7.75426C33.8189 7.54119 33.4894 7.43466 33.0916 7.43466C32.6911 7.43466 32.3587 7.54119 32.0945 7.75426C31.8331 7.96733 31.6385 8.25 31.5107 8.60227C31.3857 8.9517 31.3232 9.33523 31.3232 9.75284C31.3232 10.1733 31.3857 10.5582 31.5107 10.9077C31.6385 11.2571 31.8331 11.5369 32.0945 11.7472C32.3587 11.9574 32.6911 12.0625 33.0916 12.0625ZM38.6606 13L36.7344 6.45455H38.0512L39.3339 11.2614H39.3978L40.6847 6.45455H42.0015L43.2799 11.2401H43.3438L44.618 6.45455H45.9347L44.0128 13H42.7131L41.3836 8.27415H41.2856L39.956 13H38.6606ZM49.6457 13.1321C49.0008 13.1321 48.4454 12.9943 47.9795 12.7188C47.5164 12.4403 47.1585 12.0497 46.9056 11.5469C46.6556 11.0412 46.5306 10.4489 46.5306 9.76989C46.5306 9.09943 46.6556 8.50852 46.9056 7.99716C47.1585 7.4858 47.5107 7.08665 47.9624 6.79972C48.417 6.51278 48.9482 6.36932 49.5562 6.36932C49.9255 6.36932 50.2835 6.4304 50.6301 6.55256C50.9766 6.67472 51.2877 6.86648 51.5633 7.12784C51.8389 7.3892 52.0562 7.72869 52.2153 8.14631C52.3744 8.56108 52.4539 9.06534 52.4539 9.65909V10.1108H47.2508V9.15625H51.2053C51.2053 8.82102 51.1372 8.52415 51.0008 8.26562C50.8644 8.00426 50.6727 7.7983 50.4255 7.64773C50.1812 7.49716 49.8943 7.42188 49.5647 7.42188C49.2068 7.42188 48.8943 7.50994 48.6272 7.68608C48.363 7.85937 48.1585 8.08665 48.0136 8.3679C47.8715 8.64631 47.8005 8.94886 47.8005 9.27557V10.0213C47.8005 10.4588 47.8772 10.831 48.0306 11.1378C48.1869 11.4446 48.4042 11.679 48.6826 11.8409C48.961 12 49.2863 12.0795 49.6585 12.0795C49.8999 12.0795 50.1201 12.0455 50.319 11.9773C50.5178 11.9062 50.6897 11.8011 50.8346 11.6619C50.9795 11.5227 51.0903 11.3509 51.167 11.1463L52.373 11.3636C52.2764 11.7187 52.1031 12.0298 51.8531 12.2969C51.6059 12.5611 51.2948 12.767 50.9198 12.9148C50.5477 13.0597 50.123 13.1321 49.6457 13.1321ZM53.7476 13V6.45455H54.9792V7.49432H55.0473C55.1667 7.14205 55.3769 6.86506 55.678 6.66335C55.982 6.45881 56.3258 6.35653 56.7093 6.35653C56.7888 6.35653 56.8826 6.35937 56.9905 6.36506C57.1013 6.37074 57.188 6.37784 57.2505 6.38636V7.60511C57.1993 7.59091 57.1084 7.57528 56.9777 7.55824C56.8471 7.53835 56.7164 7.52841 56.5857 7.52841C56.2846 7.52841 56.0161 7.59233 55.7803 7.72017C55.5473 7.84517 55.3627 8.01989 55.2263 8.24432C55.09 8.46591 55.0218 8.71875 55.0218 9.00284V13H53.7476ZM60.8197 13.1321C60.1749 13.1321 59.6195 12.9943 59.1536 12.7188C58.6905 12.4403 58.3325 12.0497 58.0797 11.5469C57.8297 11.0412 57.7047 10.4489 57.7047 9.76989C57.7047 9.09943 57.8297 8.50852 58.0797 7.99716C58.3325 7.4858 58.6848 7.08665 59.1365 6.79972C59.5911 6.51278 60.1223 6.36932 60.7303 6.36932C61.0996 6.36932 61.4575 6.4304 61.8041 6.55256C62.1507 6.67472 62.4618 6.86648 62.7374 7.12784C63.0129 7.3892 63.2303 7.72869 63.3893 8.14631C63.5484 8.56108 63.628 9.06534 63.628 9.65909V10.1108H58.4249V9.15625H62.3794C62.3794 8.82102 62.3112 8.52415 62.1749 8.26562C62.0385 8.00426 61.8467 7.7983 61.5996 7.64773C61.3553 7.49716 61.0683 7.42188 60.7388 7.42188C60.3808 7.42188 60.0683 7.50994 59.8013 7.68608C59.5371 7.85937 59.3325 8.08665 59.1876 8.3679C59.0456 8.64631 58.9746 8.94886 58.9746 9.27557V10.0213C58.9746 10.4588 59.0513 10.831 59.2047 11.1378C59.3609 11.4446 59.5783 11.679 59.8567 11.8409C60.1351 12 60.4604 12.0795 60.8325 12.0795C61.074 12.0795 61.2942 12.0455 61.493 11.9773C61.6919 11.9062 61.8638 11.8011 62.0087 11.6619C62.1536 11.5227 62.2643 11.3509 62.3411 11.1463L63.547 11.3636C63.4504 11.7187 63.2771 12.0298 63.0271 12.2969C62.78 12.5611 62.4689 12.767 62.0939 12.9148C61.7217 13.0597 61.297 13.1321 60.8197 13.1321ZM67.372 13.1278C66.8436 13.1278 66.372 12.9929 65.9572 12.723C65.5453 12.4503 65.2214 12.0625 64.9856 11.5597C64.7527 11.054 64.6362 10.4474 64.6362 9.74006C64.6362 9.03267 64.7541 8.42756 64.9899 7.92472C65.2285 7.42187 65.5552 7.03693 65.97 6.76989C66.3848 6.50284 66.8549 6.36932 67.3805 6.36932C67.7867 6.36932 68.1135 6.4375 68.3606 6.57386C68.6106 6.70739 68.8038 6.86364 68.9402 7.04261C69.0794 7.22159 69.1873 7.37926 69.264 7.51562H69.3407V4.27273H70.6149V13H69.3706V11.9815H69.264C69.1873 12.1207 69.0765 12.2798 68.9316 12.4588C68.7896 12.6378 68.5936 12.794 68.3436 12.9276C68.0936 13.0611 67.7697 13.1278 67.372 13.1278ZM67.6532 12.0412C68.0197 12.0412 68.3294 11.9446 68.5822 11.7514C68.8379 11.5554 69.0311 11.2841 69.1617 10.9375C69.2953 10.5909 69.362 10.1875 69.362 9.72727C69.362 9.27273 69.2967 8.875 69.166 8.53409C69.0353 8.19318 68.8436 7.92756 68.5907 7.73722C68.3379 7.54687 68.0254 7.4517 67.6532 7.4517C67.2697 7.4517 66.9501 7.55114 66.6944 7.75C66.4387 7.94886 66.2456 8.22017 66.1149 8.56392C65.987 8.90767 65.9231 9.29545 65.9231 9.72727C65.9231 10.1648 65.9885 10.5582 66.1191 10.9077C66.2498 11.2571 66.443 11.5341 66.6987 11.7386C66.9572 11.9403 67.2754 12.0412 67.6532 12.0412ZM75.4715 13V4.27273H76.7456V7.51562H76.8223C76.8962 7.37926 77.0027 7.22159 77.1419 7.04261C77.2811 6.86364 77.4743 6.70739 77.7215 6.57386C77.9686 6.4375 78.2953 6.36932 78.7016 6.36932C79.23 6.36932 79.7016 6.50284 80.1164 6.76989C80.5311 7.03693 80.8564 7.42187 81.0922 7.92472C81.3308 8.42756 81.4502 9.03267 81.4502 9.74006C81.4502 10.4474 81.3323 11.054 81.0965 11.5597C80.8607 12.0625 80.5368 12.4503 80.1249 12.723C79.7129 12.9929 79.2428 13.1278 78.7144 13.1278C78.3166 13.1278 77.9914 13.0611 77.7385 12.9276C77.4885 12.794 77.2925 12.6378 77.1504 12.4588C77.0084 12.2798 76.899 12.1207 76.8223 11.9815H76.7158V13H75.4715ZM76.72 9.72727C76.72 10.1875 76.7868 10.5909 76.9203 10.9375C77.0539 11.2841 77.247 11.5554 77.4999 11.7514C77.7527 11.9446 78.0624 12.0412 78.4289 12.0412C78.8095 12.0412 79.1277 11.9403 79.3834 11.7386C79.6391 11.5341 79.8323 11.2571 79.9629 10.9077C80.0965 10.5582 80.1632 10.1648 80.1632 9.72727C80.1632 9.29545 80.0979 8.90767 79.9672 8.56392C79.8394 8.22017 79.6462 7.94886 79.3877 7.75C79.132 7.55114 78.8124 7.4517 78.4289 7.4517C78.0595 7.4517 77.747 7.54687 77.4914 7.73722C77.2385 7.92756 77.0467 8.19318 76.9161 8.53409C76.7854 8.875 76.72 9.27273 76.72 9.72727ZM83.3436 15.4545C83.1533 15.4545 82.98 15.4389 82.8238 15.4077C82.6675 15.3793 82.551 15.348 82.4743 15.3139L82.7811 14.2699C83.0141 14.3324 83.2215 14.3594 83.4033 14.3509C83.5851 14.3423 83.7456 14.2741 83.8848 14.1463C84.0269 14.0185 84.1519 13.8097 84.2598 13.5199L84.4175 13.0852L82.0226 6.45455H83.3863L85.0439 11.5341H85.1121L86.7698 6.45455H88.1377L85.4402 13.8736C85.3152 14.2145 85.1561 14.5028 84.963 14.7386C84.7698 14.9773 84.5397 15.1563 84.2726 15.2756C84.0056 15.3949 83.6959 15.4545 83.3436 15.4545ZM99.6218 7.1108H98.2922C98.2411 6.8267 98.1459 6.5767 98.0067 6.3608C97.8675 6.14489 97.697 5.96165 97.4953 5.81108C97.2936 5.66051 97.0678 5.54687 96.8178 5.47017C96.5706 5.39347 96.3078 5.35511 96.0294 5.35511C95.5266 5.35511 95.0763 5.48153 94.6786 5.73438C94.2837 5.98722 93.9712 6.35795 93.7411 6.84659C93.5138 7.33523 93.4002 7.93182 93.4002 8.63636C93.4002 9.34659 93.5138 9.94602 93.7411 10.4347C93.9712 10.9233 94.2851 11.2926 94.6828 11.5426C95.0806 11.7926 95.528 11.9176 96.0252 11.9176C96.3007 11.9176 96.5621 11.8807 96.8093 11.8068C97.0593 11.7301 97.2851 11.6179 97.4868 11.4702C97.6885 11.3224 97.859 11.142 97.9982 10.929C98.1402 10.7131 98.2382 10.4659 98.2922 10.1875L99.6218 10.1918C99.5507 10.6207 99.413 11.0156 99.2084 11.3764C99.0067 11.7344 98.7468 12.044 98.4286 12.3054C98.1132 12.5639 97.7524 12.7642 97.3462 12.9062C96.9399 13.0483 96.4968 13.1193 96.0166 13.1193C95.261 13.1193 94.5877 12.9403 93.9968 12.5824C93.4059 12.2216 92.9399 11.706 92.599 11.0355C92.261 10.3651 92.0919 9.56534 92.0919 8.63636C92.0919 7.70455 92.2624 6.90483 92.6033 6.23722C92.9442 5.56676 93.4101 5.05256 94.001 4.6946C94.5919 4.33381 95.2638 4.15341 96.0166 4.15341C96.4797 4.15341 96.9115 4.22017 97.3121 4.35369C97.7155 4.48437 98.0777 4.67756 98.3988 4.93324C98.7198 5.18608 98.9854 5.49574 99.1956 5.86222C99.4059 6.22585 99.5479 6.64205 99.6218 7.1108ZM102.249 9.11364V13H100.975V4.27273H102.232V7.51989H102.313C102.467 7.16761 102.701 6.88778 103.016 6.6804C103.332 6.47301 103.744 6.36932 104.252 6.36932C104.701 6.36932 105.093 6.46165 105.428 6.64631C105.766 6.83097 106.028 7.10653 106.212 7.47301C106.4 7.83665 106.494 8.29119 106.494 8.83665V13H105.219V8.99006C105.219 8.50994 105.096 8.13778 104.849 7.87358C104.602 7.60653 104.258 7.47301 103.817 7.47301C103.516 7.47301 103.246 7.53693 103.008 7.66477C102.772 7.79261 102.586 7.98011 102.45 8.22727C102.316 8.47159 102.249 8.76705 102.249 9.11364ZM109.979 13.1449C109.564 13.1449 109.189 13.0682 108.854 12.9148C108.518 12.7585 108.253 12.5327 108.057 12.2372C107.864 11.9418 107.767 11.5795 107.767 11.1506C107.767 10.7812 107.838 10.4773 107.98 10.2386C108.122 10 108.314 9.81108 108.555 9.67188C108.797 9.53267 109.067 9.42756 109.365 9.35653C109.663 9.28551 109.967 9.23153 110.277 9.1946C110.669 9.14915 110.987 9.11222 111.232 9.08381C111.476 9.05256 111.653 9.00284 111.764 8.93466C111.875 8.86648 111.93 8.75568 111.93 8.60227V8.57244C111.93 8.20028 111.825 7.91193 111.615 7.70739C111.408 7.50284 111.098 7.40057 110.686 7.40057C110.257 7.40057 109.919 7.49574 109.672 7.68608C109.428 7.87358 109.259 8.08239 109.165 8.3125L107.967 8.03977C108.109 7.64205 108.317 7.32102 108.59 7.0767C108.865 6.82955 109.182 6.65057 109.54 6.53977C109.898 6.42614 110.274 6.36932 110.669 6.36932C110.93 6.36932 111.207 6.40057 111.5 6.46307C111.795 6.52273 112.071 6.63352 112.327 6.79545C112.585 6.95739 112.797 7.18892 112.962 7.49006C113.126 7.78835 113.209 8.17614 113.209 8.65341V13H111.965V12.1051H111.913C111.831 12.2699 111.707 12.4318 111.543 12.5909C111.378 12.75 111.166 12.8821 110.908 12.9872C110.649 13.0923 110.34 13.1449 109.979 13.1449ZM110.256 12.1222C110.608 12.1222 110.909 12.0526 111.159 11.9134C111.412 11.7741 111.604 11.5923 111.734 11.3679C111.868 11.1406 111.935 10.8977 111.935 10.6392V9.79545C111.889 9.84091 111.801 9.88352 111.67 9.9233C111.543 9.96023 111.396 9.9929 111.232 10.0213C111.067 10.0469 110.906 10.071 110.75 10.0938C110.594 10.1136 110.463 10.1307 110.358 10.1449C110.111 10.1761 109.885 10.2287 109.68 10.3026C109.479 10.3764 109.317 10.483 109.195 10.6222C109.075 10.7585 109.016 10.9403 109.016 11.1676C109.016 11.483 109.132 11.7216 109.365 11.8835C109.598 12.0426 109.895 12.1222 110.256 12.1222ZM117.236 13.1278C116.708 13.1278 116.236 12.9929 115.821 12.723C115.409 12.4503 115.086 12.0625 114.85 11.5597C114.617 11.054 114.5 10.4474 114.5 9.74006C114.5 9.03267 114.618 8.42756 114.854 7.92472C115.093 7.42187 115.419 7.03693 115.834 6.76989C116.249 6.50284 116.719 6.36932 117.245 6.36932C117.651 6.36932 117.978 6.4375 118.225 6.57386C118.475 6.70739 118.668 6.86364 118.804 7.04261C118.944 7.22159 119.052 7.37926 119.128 7.51562H119.205V4.27273H120.479V13H119.235V11.9815H119.128C119.052 12.1207 118.941 12.2798 118.796 12.4588C118.654 12.6378 118.458 12.794 118.208 12.9276C117.958 13.0611 117.634 13.1278 117.236 13.1278ZM117.517 12.0412C117.884 12.0412 118.194 11.9446 118.446 11.7514C118.702 11.5554 118.895 11.2841 119.026 10.9375C119.159 10.5909 119.226 10.1875 119.226 9.72727C119.226 9.27273 119.161 8.875 119.03 8.53409C118.9 8.19318 118.708 7.92756 118.455 7.73722C118.202 7.54687 117.89 7.4517 117.517 7.4517C117.134 7.4517 116.814 7.55114 116.559 7.75C116.303 7.94886 116.11 8.22017 115.979 8.56392C115.851 8.90767 115.787 9.29545 115.787 9.72727C115.787 10.1648 115.853 10.5582 115.983 10.9077C116.114 11.2571 116.307 11.5341 116.563 11.7386C116.821 11.9403 117.14 12.0412 117.517 12.0412Z" fill="white"/>
</svg>
