<svg width="626" height="143" viewBox="0 0 626 143" fill="none" xmlns="http://www.w3.org/2000/svg">
<path d="M7.54403 21H5.44744L10.1584 7.90909H12.4403L17.1513 21H15.0547L11.3537 10.2869H11.2514L7.54403 21ZM7.8956 15.8736H14.6967V17.5355H7.8956V15.8736ZM18.8883 24.6818V11.1818H20.7548V12.7734H20.9146C21.0254 12.5689 21.1852 12.3324 21.394 12.0639C21.6028 11.7955 21.8926 11.5611 22.2633 11.3608C22.6341 11.1562 23.1241 11.054 23.7335 11.054C24.5261 11.054 25.2335 11.2543 25.8556 11.6548C26.4778 12.0554 26.9657 12.6328 27.3194 13.3871C27.6774 14.1413 27.8564 15.049 27.8564 16.1101C27.8564 17.1712 27.6795 18.081 27.3258 18.8395C26.9721 19.5937 26.4863 20.1754 25.8684 20.5845C25.2505 20.9893 24.5453 21.1918 23.7527 21.1918C23.1561 21.1918 22.6681 21.0916 22.2889 20.8913C21.9139 20.6911 21.6199 20.4567 21.4068 20.1882C21.1937 19.9197 21.0297 19.6811 20.9146 19.4723H20.7995V24.6818H18.8883ZM20.7612 16.0909C20.7612 16.7812 20.8613 17.3864 21.0616 17.9062C21.2619 18.4261 21.5517 18.8331 21.9309 19.1271C22.3102 19.4169 22.7747 19.5618 23.3244 19.5618C23.8954 19.5618 24.3727 19.4105 24.7562 19.108C25.1397 18.8011 25.4295 18.3857 25.6255 17.8615C25.8258 17.3374 25.926 16.7472 25.926 16.0909C25.926 15.4432 25.8279 14.8615 25.6319 14.3459C25.4402 13.8303 25.1504 13.4233 24.7626 13.125C24.3791 12.8267 23.8997 12.6776 23.3244 12.6776C22.7704 12.6776 22.3017 12.8203 21.9181 13.1058C21.5389 13.3913 21.2512 13.7898 21.0552 14.3011C20.8592 14.8125 20.7612 15.4091 20.7612 16.0909ZM29.9977 24.6818V11.1818H31.8642V12.7734H32.024C32.1348 12.5689 32.2946 12.3324 32.5034 12.0639C32.7122 11.7955 33.002 11.5611 33.3727 11.3608C33.7434 11.1562 34.2335 11.054 34.8429 11.054C35.6355 11.054 36.3429 11.2543 36.965 11.6548C37.5872 12.0554 38.0751 12.6328 38.4288 13.3871C38.7868 14.1413 38.9657 15.049 38.9657 16.1101C38.9657 17.1712 38.7889 18.081 38.4352 18.8395C38.0815 19.5937 37.5957 20.1754 36.9778 20.5845C36.3599 20.9893 35.6547 21.1918 34.862 21.1918C34.2654 21.1918 33.7775 21.0916 33.3983 20.8913C33.0233 20.6911 32.7292 20.4567 32.5162 20.1882C32.3031 19.9197 32.139 19.6811 32.024 19.4723H31.9089V24.6818H29.9977ZM31.8706 16.0909C31.8706 16.7812 31.9707 17.3864 32.171 17.9062C32.3713 18.4261 32.661 18.8331 33.0403 19.1271C33.4196 19.4169 33.8841 19.5618 34.4338 19.5618C35.0048 19.5618 35.4821 19.4105 35.8656 19.108C36.2491 18.8011 36.5389 18.3857 36.7349 17.8615C36.9352 17.3374 37.0353 16.7472 37.0353 16.0909C37.0353 15.4432 36.9373 14.8615 36.7413 14.3459C36.5495 13.8303 36.2598 13.4233 35.872 13.125C35.4885 12.8267 35.0091 12.6776 34.4338 12.6776C33.8798 12.6776 33.411 12.8203 33.0275 13.1058C32.6483 13.3913 32.3606 13.7898 32.1646 14.3011C31.9686 14.8125 31.8706 15.4091 31.8706 16.0909ZM45.3386 21.1982C44.3713 21.1982 43.5382 20.9915 42.8393 20.5781C42.1447 20.1605 41.6078 19.5746 41.2285 18.8203C40.8535 18.0618 40.666 17.1733 40.666 16.1548C40.666 15.1491 40.8535 14.2628 41.2285 13.4957C41.6078 12.7287 42.1362 12.13 42.8137 11.6996C43.4956 11.2692 44.2924 11.054 45.2044 11.054C45.7583 11.054 46.2953 11.1456 46.8152 11.3288C47.335 11.5121 47.8017 11.7997 48.215 12.1918C48.6284 12.5838 48.9544 13.093 49.193 13.7195C49.4316 14.3416 49.551 15.098 49.551 15.9886V16.6662H41.7463V15.2344H47.6781C47.6781 14.7315 47.5758 14.2862 47.3713 13.8984C47.1667 13.5064 46.8791 13.1974 46.5083 12.9716C46.1419 12.7457 45.7115 12.6328 45.2172 12.6328C44.6802 12.6328 44.2115 12.7649 43.8109 13.0291C43.4146 13.2891 43.1078 13.63 42.8904 14.0518C42.6774 14.4695 42.5708 14.9233 42.5708 15.4134V16.532C42.5708 17.1882 42.6859 17.7464 42.916 18.2067C43.1504 18.6669 43.4764 19.0185 43.894 19.2614C44.3116 19.5 44.7995 19.6193 45.3578 19.6193C45.72 19.6193 46.0502 19.5682 46.3485 19.4659C46.6468 19.3594 46.9047 19.2017 47.122 18.9929C47.3393 18.7841 47.5055 18.5263 47.6206 18.2195L49.4295 18.5455C49.2846 19.0781 49.0247 19.5447 48.6497 19.9453C48.2789 20.3416 47.8123 20.6506 47.2498 20.8722C46.6916 21.0895 46.0545 21.1982 45.3386 21.1982ZM54.5288 21.2173C53.9066 21.2173 53.3441 21.1023 52.8413 20.8722C52.3384 20.6378 51.94 20.299 51.646 19.8558C51.3562 19.4126 51.2113 18.8693 51.2113 18.2259C51.2113 17.6719 51.3178 17.2159 51.5309 16.858C51.744 16.5 52.0316 16.2166 52.3938 16.0078C52.756 15.799 53.1609 15.6413 53.6083 15.5348C54.0558 15.4283 54.5117 15.3473 54.9762 15.2919C55.5643 15.2237 56.0415 15.1683 56.408 15.1257C56.7745 15.0788 57.0408 15.0043 57.207 14.902C57.3732 14.7997 57.4563 14.6335 57.4563 14.4034V14.3587C57.4563 13.8004 57.2987 13.3679 56.9833 13.0611C56.6722 12.7543 56.2077 12.6009 55.5898 12.6009C54.9464 12.6009 54.4393 12.7436 54.0685 13.0291C53.7021 13.3104 53.4485 13.6236 53.3079 13.9688L51.5117 13.5597C51.7248 12.9631 52.0359 12.4815 52.445 12.1151C52.8583 11.7443 53.3335 11.4759 53.8704 11.3097C54.4073 11.1392 54.9719 11.054 55.5643 11.054C55.9563 11.054 56.3718 11.1009 56.8107 11.1946C57.2539 11.2841 57.6673 11.4503 58.0508 11.6932C58.4386 11.9361 58.756 12.2834 59.0032 12.7351C59.2504 13.1825 59.3739 13.7642 59.3739 14.4801V21H57.5075V19.6577H57.4308C57.3072 19.9048 57.1218 20.1477 56.8746 20.3864C56.6275 20.625 56.31 20.8232 55.9222 20.9808C55.5344 21.1385 55.07 21.2173 54.5288 21.2173ZM54.9442 19.6832C55.4727 19.6832 55.9244 19.5788 56.2994 19.37C56.6786 19.1612 56.9663 18.8885 57.1623 18.5518C57.3626 18.2109 57.4627 17.8466 57.4627 17.4588V16.1932C57.3945 16.2614 57.2624 16.3253 57.0664 16.3849C56.8746 16.4403 56.6552 16.4893 56.408 16.532C56.1609 16.5703 55.9201 16.6065 55.6857 16.6406C55.4513 16.6705 55.2553 16.696 55.0977 16.7173C54.7269 16.7642 54.3881 16.843 54.0813 16.9538C53.7788 17.0646 53.5359 17.2244 53.3526 17.4332C53.1737 17.6378 53.0842 17.9105 53.0842 18.2514C53.0842 18.7244 53.2589 19.0824 53.6083 19.3253C53.9577 19.5639 54.4031 19.6832 54.9442 19.6832ZM61.9196 21V11.1818H63.7669V12.7415H63.8691C64.0481 12.2131 64.3635 11.7976 64.8152 11.495C65.2711 11.1882 65.7868 11.0348 66.362 11.0348C66.4814 11.0348 66.622 11.0391 66.7839 11.0476C66.9501 11.0561 67.0801 11.0668 67.1738 11.0795V12.9077C67.0971 12.8864 66.9608 12.8629 66.7647 12.8374C66.5687 12.8075 66.3727 12.7926 66.1767 12.7926C65.725 12.7926 65.3223 12.8885 64.9686 13.0803C64.6191 13.2678 64.3422 13.5298 64.1376 13.8665C63.9331 14.1989 63.8308 14.5781 63.8308 15.0043V21H61.9196ZM71.5971 21.2173C70.975 21.2173 70.4125 21.1023 69.9096 20.8722C69.4068 20.6378 69.0083 20.299 68.7143 19.8558C68.4245 19.4126 68.2797 18.8693 68.2797 18.2259C68.2797 17.6719 68.3862 17.2159 68.5993 16.858C68.8123 16.5 69.1 16.2166 69.4622 16.0078C69.8244 15.799 70.2292 15.6413 70.6767 15.5348C71.1241 15.4283 71.5801 15.3473 72.0446 15.2919C72.6326 15.2237 73.1099 15.1683 73.4764 15.1257C73.8429 15.0788 74.1092 15.0043 74.2754 14.902C74.4416 14.7997 74.5247 14.6335 74.5247 14.4034V14.3587C74.5247 13.8004 74.367 13.3679 74.0517 13.0611C73.7406 12.7543 73.2761 12.6009 72.6582 12.6009C72.0147 12.6009 71.5076 12.7436 71.1369 13.0291C70.7704 13.3104 70.5169 13.6236 70.3762 13.9688L68.5801 13.5597C68.7931 12.9631 69.1042 12.4815 69.5133 12.1151C69.9267 11.7443 70.4018 11.4759 70.9387 11.3097C71.4757 11.1392 72.0403 11.054 72.6326 11.054C73.0247 11.054 73.4402 11.1009 73.8791 11.1946C74.3223 11.2841 74.7356 11.4503 75.1191 11.6932C75.5069 11.9361 75.8244 12.2834 76.0716 12.7351C76.3187 13.1825 76.4423 13.7642 76.4423 14.4801V21H74.5758V19.6577H74.4991C74.3755 19.9048 74.1902 20.1477 73.943 20.3864C73.6958 20.625 73.3784 20.8232 72.9906 20.9808C72.6028 21.1385 72.1383 21.2173 71.5971 21.2173ZM72.0126 19.6832C72.541 19.6832 72.9927 19.5788 73.3677 19.37C73.747 19.1612 74.0346 18.8885 74.2306 18.5518C74.4309 18.2109 74.5311 17.8466 74.5311 17.4588V16.1932C74.4629 16.2614 74.3308 16.3253 74.1348 16.3849C73.943 16.4403 73.7235 16.4893 73.4764 16.532C73.2292 16.5703 72.9885 16.6065 72.7541 16.6406C72.5197 16.6705 72.3237 16.696 72.166 16.7173C71.7953 16.7642 71.4565 16.843 71.1497 16.9538C70.8471 17.0646 70.6042 17.2244 70.421 17.4332C70.242 17.6378 70.1525 17.9105 70.1525 18.2514C70.1525 18.7244 70.3272 19.0824 70.6767 19.3253C71.0261 19.5639 71.4714 19.6832 72.0126 19.6832ZM80.8991 15.1705V21H78.9879V11.1818H80.8224V12.7798H80.9439C81.1697 12.2599 81.5234 11.8423 82.005 11.527C82.4908 11.2116 83.1023 11.054 83.8395 11.054C84.5085 11.054 85.0945 11.1946 85.5973 11.4759C86.1001 11.7528 86.4901 12.1662 86.767 12.7159C87.044 13.2656 87.1825 13.9453 87.1825 14.755V21H85.2713V14.9851C85.2713 14.2734 85.0859 13.7173 84.7152 13.3168C84.3445 12.9119 83.8352 12.7095 83.1875 12.7095C82.7443 12.7095 82.3501 12.8054 82.005 12.9972C81.6641 13.1889 81.3935 13.4702 81.1932 13.8409C80.9972 14.2074 80.8991 14.6506 80.8991 15.1705ZM93.8814 21.1982C92.9311 21.1982 92.1129 20.983 91.4268 20.5526C90.745 20.1179 90.2209 19.5192 89.8544 18.7564C89.4879 17.9936 89.3047 17.12 89.3047 16.1357C89.3047 15.1385 89.4922 14.2585 89.8672 13.4957C90.2422 12.7287 90.7706 12.13 91.4524 11.6996C92.1342 11.2692 92.9375 11.054 93.8622 11.054C94.608 11.054 95.2727 11.1925 95.8565 11.4695C96.4403 11.7422 96.9112 12.1257 97.2692 12.62C97.6314 13.1143 97.8466 13.6918 97.9148 14.3523H96.0547C95.9524 13.892 95.718 13.4957 95.3516 13.1634C94.9893 12.831 94.5036 12.6648 93.8942 12.6648C93.3615 12.6648 92.8949 12.8054 92.4943 13.0866C92.098 13.3636 91.7891 13.7599 91.5675 14.2756C91.3459 14.7869 91.2351 15.392 91.2351 16.0909C91.2351 16.8068 91.3438 17.4247 91.5611 17.9446C91.7784 18.4645 92.0852 18.8672 92.4815 19.1527C92.8821 19.4382 93.353 19.581 93.8942 19.581C94.2564 19.581 94.5845 19.5149 94.8786 19.3828C95.1768 19.2464 95.4261 19.0526 95.6264 18.8011C95.831 18.5497 95.9737 18.2472 96.0547 17.8935H97.9148C97.8466 18.5284 97.6399 19.0952 97.2947 19.5938C96.9496 20.0923 96.4872 20.4844 95.9077 20.7699C95.3324 21.0554 94.657 21.1982 93.8814 21.1982ZM104.19 21.1982C103.223 21.1982 102.39 20.9915 101.691 20.5781C100.996 20.1605 100.459 19.5746 100.08 18.8203C99.7051 18.0618 99.5176 17.1733 99.5176 16.1548C99.5176 15.1491 99.7051 14.2628 100.08 13.4957C100.459 12.7287 100.988 12.13 101.665 11.6996C102.347 11.2692 103.144 11.054 104.056 11.054C104.61 11.054 105.147 11.1456 105.667 11.3288C106.187 11.5121 106.653 11.7997 107.067 12.1918C107.48 12.5838 107.806 13.093 108.045 13.7195C108.283 14.3416 108.403 15.098 108.403 15.9886V16.6662H100.598V15.2344H106.53C106.53 14.7315 106.427 14.2862 106.223 13.8984C106.018 13.5064 105.731 13.1974 105.36 12.9716C104.993 12.7457 104.563 12.6328 104.069 12.6328C103.532 12.6328 103.063 12.7649 102.662 13.0291C102.266 13.2891 101.959 13.63 101.742 14.0518C101.529 14.4695 101.422 14.9233 101.422 15.4134V16.532C101.422 17.1882 101.537 17.7464 101.768 18.2067C102.002 18.6669 102.328 19.0185 102.746 19.2614C103.163 19.5 103.651 19.6193 104.209 19.6193C104.572 19.6193 104.902 19.5682 105.2 19.4659C105.498 19.3594 105.756 19.2017 105.974 18.9929C106.191 18.7841 106.357 18.5263 106.472 18.2195L108.281 18.5455C108.136 19.0781 107.876 19.5447 107.501 19.9453C107.131 20.3416 106.664 20.6506 106.101 20.8722C105.543 21.0895 104.906 21.1982 104.19 21.1982Z" fill="#6B7B93"/>
<g filter="url(#filter0_d_1702_49442)">
<rect x="5" y="44" width="616" height="93" rx="8" fill="white" shape-rendering="crispEdges"/>
<path d="M41 90C46.5228 90 51 85.5228 51 80C51 74.4772 46.5228 70 41 70C35.4772 70 31 74.4772 31 80C31 85.5228 35.4772 90 41 90Z" stroke="#17191C" stroke-width="2" stroke-linecap="round" stroke-linejoin="round"/>
<path d="M37 82C37 82 38.5 84 41 84C43.5 84 45 82 45 82" stroke="#17191C" stroke-width="2" stroke-linecap="round" stroke-linejoin="round"/>
<path d="M44 77H44.01" stroke="#17191C" stroke-width="2" stroke-linecap="round" stroke-linejoin="round"/>
<path d="M38 77H38.01" stroke="#17191C" stroke-width="2" stroke-linecap="round" stroke-linejoin="round"/>
<path d="M65.7045 75.875V74.3636H74.7102V75.875H71.0795V86H69.3295V75.875H65.7045ZM78.1028 80.8182V86H76.4039V74.3636H78.0801V78.6932H78.188C78.3926 78.2235 78.7051 77.8504 79.1255 77.5739C79.546 77.2973 80.0952 77.1591 80.7732 77.1591C81.3717 77.1591 81.8945 77.2822 82.3414 77.5284C82.7922 77.7746 83.1407 78.142 83.3869 78.6307C83.6369 79.1155 83.7619 79.7216 83.7619 80.4489V86H82.063V80.6534C82.063 80.0133 81.8982 79.517 81.5687 79.1648C81.2391 78.8087 80.7808 78.6307 80.1937 78.6307C79.7922 78.6307 79.4323 78.7159 79.1141 78.8864C78.7998 79.0568 78.5516 79.3068 78.3698 79.6364C78.1918 79.9621 78.1028 80.3561 78.1028 80.8182ZM89.6303 86.1761C88.7704 86.1761 88.0299 85.9924 87.4087 85.625C86.7913 85.2538 86.314 84.733 85.9769 84.0625C85.6435 83.3883 85.4769 82.5985 85.4769 81.6932C85.4769 80.7992 85.6435 80.0114 85.9769 79.3295C86.314 78.6477 86.7837 78.1155 87.386 77.733C87.992 77.3504 88.7004 77.1591 89.511 77.1591C90.0034 77.1591 90.4807 77.2405 90.9428 77.4034C91.4049 77.5663 91.8197 77.822 92.1871 78.1705C92.5545 78.5189 92.8443 78.9716 93.0564 79.5284C93.2685 80.0814 93.3746 80.7538 93.3746 81.5455V82.1477H86.4371V80.875H91.7098C91.7098 80.428 91.6189 80.0322 91.4371 79.6875C91.2553 79.339 90.9996 79.0644 90.6701 78.8636C90.3443 78.6629 89.9617 78.5625 89.5223 78.5625C89.0451 78.5625 88.6284 78.6799 88.2723 78.9148C87.9201 79.1458 87.6473 79.4489 87.4541 79.8239C87.2648 80.1951 87.1701 80.5985 87.1701 81.0341V82.0284C87.1701 82.6117 87.2723 83.108 87.4769 83.517C87.6852 83.9261 87.975 84.2386 88.3462 84.4545C88.7174 84.6667 89.1511 84.7727 89.6473 84.7727C89.9693 84.7727 90.2629 84.7273 90.528 84.6364C90.7932 84.5417 91.0223 84.4015 91.2155 84.2159C91.4087 84.0303 91.5564 83.8011 91.6587 83.5284L93.2666 83.8182C93.1379 84.2917 92.9068 84.7064 92.5735 85.0625C92.2439 85.4148 91.8291 85.6894 91.3291 85.8864C90.8329 86.0795 90.2666 86.1761 89.6303 86.1761ZM95.0995 86V77.2727H96.7302V78.6932H96.8382C97.02 78.2121 97.3173 77.8371 97.7302 77.5682C98.1431 77.2955 98.6374 77.1591 99.2132 77.1591C99.7965 77.1591 100.285 77.2955 100.679 77.5682C101.077 77.8409 101.37 78.2159 101.56 78.6932H101.651C101.859 78.2273 102.19 77.8561 102.645 77.5795C103.1 77.2992 103.641 77.1591 104.27 77.1591C105.062 77.1591 105.708 77.4072 106.208 77.9034C106.711 78.3996 106.963 79.1477 106.963 80.1477V86H105.264V80.3068C105.264 79.7159 105.103 79.2879 104.781 79.0227C104.459 78.7576 104.075 78.625 103.628 78.625C103.075 78.625 102.645 78.7955 102.338 79.1364C102.031 79.4735 101.878 79.9072 101.878 80.4375V86H100.185V80.1989C100.185 79.7254 100.037 79.3447 99.7416 79.0568C99.4461 78.7689 99.0617 78.625 98.5882 78.625C98.2662 78.625 97.9689 78.7102 97.6961 78.8807C97.4272 79.0473 97.2094 79.2803 97.0427 79.5795C96.8798 79.8788 96.7984 80.2254 96.7984 80.6193V86H95.0995ZM112.842 86.1761C111.982 86.1761 111.241 85.9924 110.62 85.625C110.003 85.2538 109.525 84.733 109.188 84.0625C108.855 83.3883 108.688 82.5985 108.688 81.6932C108.688 80.7992 108.855 80.0114 109.188 79.3295C109.525 78.6477 109.995 78.1155 110.597 77.733C111.203 77.3504 111.912 77.1591 112.722 77.1591C113.215 77.1591 113.692 77.2405 114.154 77.4034C114.616 77.5663 115.031 77.822 115.398 78.1705C115.766 78.5189 116.056 78.9716 116.268 79.5284C116.48 80.0814 116.586 80.7538 116.586 81.5455V82.1477H109.648V80.875H114.921C114.921 80.428 114.83 80.0322 114.648 79.6875C114.467 79.339 114.211 79.0644 113.881 78.8636C113.556 78.6629 113.173 78.5625 112.734 78.5625C112.256 78.5625 111.84 78.6799 111.484 78.9148C111.131 79.1458 110.859 79.4489 110.665 79.8239C110.476 80.1951 110.381 80.5985 110.381 81.0341V82.0284C110.381 82.6117 110.484 83.108 110.688 83.517C110.896 83.9261 111.186 84.2386 111.557 84.4545C111.929 84.6667 112.362 84.7727 112.859 84.7727C113.181 84.7727 113.474 84.7273 113.739 84.6364C114.004 84.5417 114.234 84.4015 114.427 84.2159C114.62 84.0303 114.768 83.8011 114.87 83.5284L116.478 83.8182C116.349 84.2917 116.118 84.7064 115.785 85.0625C115.455 85.4148 115.04 85.6894 114.54 85.8864C114.044 86.0795 113.478 86.1761 112.842 86.1761ZM124.851 79.4034L123.311 79.6761C123.246 79.4792 123.144 79.2917 123.004 79.1136C122.868 78.9356 122.682 78.7898 122.447 78.6761C122.212 78.5625 121.919 78.5057 121.566 78.5057C121.085 78.5057 120.684 78.6136 120.362 78.8295C120.04 79.0417 119.879 79.3163 119.879 79.6534C119.879 79.9451 119.987 80.1799 120.203 80.358C120.419 80.536 120.767 80.6818 121.248 80.7955L122.635 81.1136C123.438 81.2992 124.036 81.5852 124.43 81.9716C124.824 82.358 125.021 82.8598 125.021 83.4773C125.021 84 124.87 84.4659 124.566 84.875C124.267 85.2803 123.849 85.5985 123.311 85.8295C122.777 86.0606 122.157 86.1761 121.453 86.1761C120.476 86.1761 119.678 85.9678 119.061 85.5511C118.443 85.1307 118.065 84.5341 117.924 83.7614L119.566 83.5114C119.669 83.9394 119.879 84.2633 120.197 84.483C120.515 84.6989 120.93 84.8068 121.441 84.8068C121.998 84.8068 122.443 84.6913 122.777 84.4602C123.11 84.2254 123.277 83.9394 123.277 83.6023C123.277 83.3295 123.174 83.1004 122.97 82.9148C122.769 82.7292 122.46 82.589 122.044 82.4943L120.566 82.1705C119.752 81.9848 119.15 81.6894 118.76 81.2841C118.373 80.8788 118.18 80.3655 118.18 79.7443C118.18 79.2292 118.324 78.7784 118.612 78.392C118.9 78.0057 119.298 77.7045 119.805 77.4886C120.313 77.2689 120.894 77.1591 121.549 77.1591C122.493 77.1591 123.235 77.3636 123.777 77.7727C124.318 78.178 124.676 78.7216 124.851 79.4034ZM133.343 86.1932C132.79 86.1932 132.29 86.0909 131.843 85.8864C131.396 85.678 131.042 85.3769 130.781 84.983C130.523 84.589 130.394 84.1061 130.394 83.5341C130.394 83.0417 130.489 82.6364 130.678 82.3182C130.868 82 131.123 81.7481 131.445 81.5625C131.767 81.3769 132.127 81.2367 132.525 81.142C132.923 81.0473 133.328 80.9754 133.741 80.9261C134.264 80.8655 134.688 80.8163 135.014 80.7784C135.339 80.7367 135.576 80.6705 135.724 80.5795C135.871 80.4886 135.945 80.3409 135.945 80.1364V80.0966C135.945 79.6004 135.805 79.2159 135.525 78.9432C135.248 78.6705 134.835 78.5341 134.286 78.5341C133.714 78.5341 133.264 78.661 132.934 78.9148C132.608 79.1648 132.383 79.4432 132.258 79.75L130.661 79.3864C130.851 78.8561 131.127 78.428 131.491 78.1023C131.858 77.7727 132.281 77.5341 132.758 77.3864C133.235 77.2348 133.737 77.1591 134.264 77.1591C134.612 77.1591 134.981 77.2008 135.371 77.2841C135.765 77.3636 136.133 77.5114 136.474 77.7273C136.818 77.9432 137.101 78.2519 137.32 78.6534C137.54 79.0511 137.65 79.5682 137.65 80.2045V86H135.991V84.8068H135.923C135.813 85.0265 135.648 85.2424 135.428 85.4545C135.209 85.6667 134.926 85.8428 134.582 85.983C134.237 86.1231 133.824 86.1932 133.343 86.1932ZM133.712 84.8295C134.182 84.8295 134.584 84.7367 134.917 84.5511C135.254 84.3655 135.51 84.1231 135.684 83.8239C135.862 83.5208 135.951 83.197 135.951 82.8523V81.7273C135.89 81.7879 135.773 81.8447 135.599 81.8977C135.428 81.947 135.233 81.9905 135.014 82.0284C134.794 82.0625 134.58 82.0947 134.371 82.125C134.163 82.1515 133.989 82.1742 133.849 82.1932C133.519 82.2348 133.218 82.3049 132.945 82.4034C132.676 82.5019 132.46 82.6439 132.298 82.8295C132.139 83.0114 132.059 83.2538 132.059 83.5568C132.059 83.9773 132.214 84.2955 132.525 84.5114C132.835 84.7235 133.231 84.8295 133.712 84.8295ZM141.452 80.8182V86H139.753V77.2727H141.383V78.6932H141.491C141.692 78.2311 142.006 77.8598 142.434 77.5795C142.866 77.2992 143.41 77.1591 144.065 77.1591C144.66 77.1591 145.181 77.2841 145.628 77.5341C146.075 77.7803 146.421 78.1477 146.667 78.6364C146.914 79.125 147.037 79.7292 147.037 80.4489V86H145.338V80.6534C145.338 80.0208 145.173 79.5265 144.844 79.1705C144.514 78.8106 144.061 78.6307 143.486 78.6307C143.092 78.6307 142.741 78.7159 142.434 78.8864C142.131 79.0568 141.891 79.3068 141.713 79.6364C141.539 79.9621 141.452 80.3561 141.452 80.8182ZM152.422 86.1705C151.718 86.1705 151.089 85.9905 150.536 85.6307C149.987 85.267 149.555 84.75 149.24 84.0795C148.93 83.4053 148.774 82.5966 148.774 81.6534C148.774 80.7102 148.932 79.9034 149.246 79.233C149.564 78.5625 150 78.0492 150.553 77.6932C151.106 77.3371 151.733 77.1591 152.434 77.1591C152.975 77.1591 153.411 77.25 153.74 77.4318C154.074 77.6098 154.331 77.8182 154.513 78.0568C154.699 78.2955 154.843 78.5057 154.945 78.6875H155.047V74.3636H156.746V86H155.087V84.642H154.945C154.843 84.8277 154.695 85.0398 154.502 85.2784C154.312 85.517 154.051 85.7254 153.718 85.9034C153.384 86.0814 152.953 86.1705 152.422 86.1705ZM152.797 84.7216C153.286 84.7216 153.699 84.5928 154.036 84.3352C154.377 84.0739 154.634 83.7121 154.809 83.25C154.987 82.7879 155.076 82.25 155.076 81.6364C155.076 81.0303 154.989 80.5 154.814 80.0455C154.64 79.5909 154.384 79.2367 154.047 78.983C153.71 78.7292 153.293 78.6023 152.797 78.6023C152.286 78.6023 151.86 78.7348 151.519 79C151.178 79.2652 150.92 79.6269 150.746 80.0852C150.576 80.5436 150.49 81.0606 150.49 81.6364C150.49 82.2197 150.578 82.7443 150.752 83.2102C150.926 83.6761 151.184 84.0455 151.524 84.3182C151.869 84.5871 152.293 84.7216 152.797 84.7216ZM163.222 86V74.3636H164.92V78.6875H165.023C165.121 78.5057 165.263 78.2955 165.449 78.0568C165.634 77.8182 165.892 77.6098 166.222 77.4318C166.551 77.25 166.987 77.1591 167.528 77.1591C168.233 77.1591 168.862 77.3371 169.415 77.6932C169.968 78.0492 170.401 78.5625 170.716 79.233C171.034 79.9034 171.193 80.7102 171.193 81.6534C171.193 82.5966 171.036 83.4053 170.722 84.0795C170.407 84.75 169.975 85.267 169.426 85.6307C168.877 85.9905 168.25 86.1705 167.545 86.1705C167.015 86.1705 166.581 86.0814 166.244 85.9034C165.911 85.7254 165.65 85.517 165.46 85.2784C165.271 85.0398 165.125 84.8277 165.023 84.642H164.881V86H163.222ZM164.886 81.6364C164.886 82.25 164.975 82.7879 165.153 83.25C165.331 83.7121 165.589 84.0739 165.926 84.3352C166.263 84.5928 166.676 84.7216 167.165 84.7216C167.672 84.7216 168.097 84.5871 168.437 84.3182C168.778 84.0455 169.036 83.6761 169.21 83.2102C169.388 82.7443 169.477 82.2197 169.477 81.6364C169.477 81.0606 169.39 80.5436 169.216 80.0852C169.045 79.6269 168.788 79.2652 168.443 79C168.102 78.7348 167.676 78.6023 167.165 78.6023C166.672 78.6023 166.256 78.7292 165.915 78.983C165.578 79.2367 165.322 79.5909 165.148 80.0455C164.973 80.5 164.886 81.0303 164.886 81.6364ZM172.941 86V77.2727H174.583V78.6591H174.674C174.833 78.1894 175.113 77.8201 175.515 77.5511C175.92 77.2784 176.378 77.142 176.89 77.142C176.996 77.142 177.121 77.1458 177.265 77.1534C177.412 77.161 177.528 77.1705 177.611 77.1818V78.8068C177.543 78.7879 177.422 78.767 177.248 78.7443C177.073 78.7178 176.899 78.7045 176.725 78.7045C176.323 78.7045 175.965 78.7898 175.651 78.9602C175.34 79.1269 175.094 79.3598 174.912 79.6591C174.731 79.9545 174.64 80.2917 174.64 80.6705V86H172.941ZM181.383 86.1932C180.83 86.1932 180.33 86.0909 179.883 85.8864C179.436 85.678 179.082 85.3769 178.821 84.983C178.563 84.589 178.434 84.1061 178.434 83.5341C178.434 83.0417 178.529 82.6364 178.718 82.3182C178.908 82 179.163 81.7481 179.485 81.5625C179.807 81.3769 180.167 81.2367 180.565 81.142C180.963 81.0473 181.368 80.9754 181.781 80.9261C182.304 80.8655 182.728 80.8163 183.054 80.7784C183.379 80.7367 183.616 80.6705 183.764 80.5795C183.911 80.4886 183.985 80.3409 183.985 80.1364V80.0966C183.985 79.6004 183.845 79.2159 183.565 78.9432C183.288 78.6705 182.875 78.5341 182.326 78.5341C181.754 78.5341 181.304 78.661 180.974 78.9148C180.648 79.1648 180.423 79.4432 180.298 79.75L178.701 79.3864C178.891 78.8561 179.167 78.428 179.531 78.1023C179.898 77.7727 180.321 77.5341 180.798 77.3864C181.275 77.2348 181.777 77.1591 182.304 77.1591C182.652 77.1591 183.021 77.2008 183.411 77.2841C183.805 77.3636 184.173 77.5114 184.514 77.7273C184.858 77.9432 185.141 78.2519 185.36 78.6534C185.58 79.0511 185.69 79.5682 185.69 80.2045V86H184.031V84.8068H183.963C183.853 85.0265 183.688 85.2424 183.468 85.4545C183.249 85.6667 182.966 85.8428 182.622 85.983C182.277 86.1231 181.864 86.1932 181.383 86.1932ZM181.752 84.8295C182.222 84.8295 182.624 84.7367 182.957 84.5511C183.294 84.3655 183.55 84.1231 183.724 83.8239C183.902 83.5208 183.991 83.197 183.991 82.8523V81.7273C183.93 81.7879 183.813 81.8447 183.639 81.8977C183.468 81.947 183.273 81.9905 183.054 82.0284C182.834 82.0625 182.62 82.0947 182.411 82.125C182.203 82.1515 182.029 82.1742 181.889 82.1932C181.559 82.2348 181.258 82.3049 180.985 82.4034C180.716 82.5019 180.5 82.6439 180.338 82.8295C180.179 83.0114 180.099 83.2538 180.099 83.5568C180.099 83.9773 180.254 84.2955 180.565 84.5114C180.875 84.7235 181.271 84.8295 181.752 84.8295ZM189.492 80.8182V86H187.793V77.2727H189.423V78.6932H189.531C189.732 78.2311 190.046 77.8598 190.474 77.5795C190.906 77.2992 191.45 77.1591 192.105 77.1591C192.7 77.1591 193.221 77.2841 193.668 77.5341C194.115 77.7803 194.461 78.1477 194.707 78.6364C194.954 79.125 195.077 79.7292 195.077 80.4489V86H193.378V80.6534C193.378 80.0208 193.213 79.5265 192.884 79.1705C192.554 78.8106 192.101 78.6307 191.526 78.6307C191.132 78.6307 190.781 78.7159 190.474 78.8864C190.171 79.0568 189.931 79.3068 189.753 79.6364C189.579 79.9621 189.492 80.3561 189.492 80.8182ZM200.462 86.1705C199.758 86.1705 199.129 85.9905 198.576 85.6307C198.027 85.267 197.595 84.75 197.28 84.0795C196.97 83.4053 196.814 82.5966 196.814 81.6534C196.814 80.7102 196.972 79.9034 197.286 79.233C197.604 78.5625 198.04 78.0492 198.593 77.6932C199.146 77.3371 199.773 77.1591 200.474 77.1591C201.015 77.1591 201.451 77.25 201.78 77.4318C202.114 77.6098 202.371 77.8182 202.553 78.0568C202.739 78.2955 202.883 78.5057 202.985 78.6875H203.087V74.3636H204.786V86H203.127V84.642H202.985C202.883 84.8277 202.735 85.0398 202.542 85.2784C202.352 85.517 202.091 85.7254 201.758 85.9034C201.424 86.0814 200.993 86.1705 200.462 86.1705ZM200.837 84.7216C201.326 84.7216 201.739 84.5928 202.076 84.3352C202.417 84.0739 202.674 83.7121 202.849 83.25C203.027 82.7879 203.116 82.25 203.116 81.6364C203.116 81.0303 203.029 80.5 202.854 80.0455C202.68 79.5909 202.424 79.2367 202.087 78.983C201.75 78.7292 201.333 78.6023 200.837 78.6023C200.326 78.6023 199.9 78.7348 199.559 79C199.218 79.2652 198.96 79.6269 198.786 80.0852C198.616 80.5436 198.53 81.0606 198.53 81.6364C198.53 82.2197 198.618 82.7443 198.792 83.2102C198.966 83.6761 199.224 84.0455 199.564 84.3182C199.909 84.5871 200.333 84.7216 200.837 84.7216ZM207.051 86V77.2727H208.75V86H207.051ZM207.909 75.9261C207.613 75.9261 207.36 75.8277 207.147 75.6307C206.939 75.4299 206.835 75.1913 206.835 74.9148C206.835 74.6345 206.939 74.3958 207.147 74.1989C207.36 73.9981 207.613 73.8977 207.909 73.8977C208.204 73.8977 208.456 73.9981 208.664 74.1989C208.877 74.3958 208.983 74.6345 208.983 74.9148C208.983 75.1913 208.877 75.4299 208.664 75.6307C208.456 75.8277 208.204 75.9261 207.909 75.9261ZM212.574 80.8182V86H210.875V77.2727H212.506V78.6932H212.614C212.815 78.2311 213.129 77.8598 213.557 77.5795C213.989 77.2992 214.532 77.1591 215.188 77.1591C215.782 77.1591 216.303 77.2841 216.75 77.5341C217.197 77.7803 217.544 78.1477 217.79 78.6364C218.036 79.125 218.159 79.7292 218.159 80.4489V86H216.46V80.6534C216.46 80.0208 216.296 79.5265 215.966 79.1705C215.637 78.8106 215.184 78.6307 214.608 78.6307C214.214 78.6307 213.864 78.7159 213.557 78.8864C213.254 79.0568 213.013 79.3068 212.835 79.6364C212.661 79.9621 212.574 80.3561 212.574 80.8182ZM223.937 89.4545C223.244 89.4545 222.647 89.3636 222.147 89.1818C221.651 89 221.245 88.7595 220.931 88.4602C220.617 88.161 220.382 87.8333 220.227 87.4773L221.687 86.875C221.789 87.0417 221.925 87.2178 222.096 87.4034C222.27 87.5928 222.505 87.7538 222.8 87.8864C223.1 88.0189 223.484 88.0852 223.954 88.0852C224.598 88.0852 225.13 87.928 225.55 87.6136C225.971 87.303 226.181 86.8068 226.181 86.125V84.4091H226.073C225.971 84.5947 225.823 84.8011 225.63 85.0284C225.441 85.2557 225.179 85.4527 224.846 85.6193C224.513 85.786 224.079 85.8693 223.545 85.8693C222.855 85.8693 222.234 85.7083 221.681 85.3864C221.132 85.0606 220.696 84.5814 220.374 83.9489C220.056 83.3125 219.897 82.5303 219.897 81.6023C219.897 80.6742 220.054 79.8788 220.369 79.2159C220.687 78.553 221.122 78.0455 221.675 77.6932C222.228 77.3371 222.855 77.1591 223.556 77.1591C224.098 77.1591 224.535 77.25 224.869 77.4318C225.202 77.6098 225.461 77.8182 225.647 78.0568C225.836 78.2955 225.982 78.5057 226.084 78.6875H226.209V77.2727H227.874V86.1932C227.874 86.9432 227.7 87.5587 227.352 88.0398C227.003 88.5208 226.531 88.8769 225.937 89.108C225.346 89.339 224.679 89.4545 223.937 89.4545ZM223.92 84.4602C224.408 84.4602 224.821 84.3466 225.158 84.1193C225.499 83.8883 225.757 83.5587 225.931 83.1307C226.109 82.6989 226.198 82.1818 226.198 81.5795C226.198 80.9924 226.111 80.4754 225.937 80.0284C225.763 79.5814 225.507 79.233 225.17 78.983C224.833 78.7292 224.416 78.6023 223.92 78.6023C223.408 78.6023 222.982 78.7348 222.641 79C222.3 79.2614 222.043 79.6174 221.869 80.0682C221.698 80.5189 221.613 81.0227 221.613 81.5795C221.613 82.1515 221.7 82.6534 221.874 83.0852C222.048 83.517 222.306 83.8542 222.647 84.0966C222.992 84.339 223.416 84.4602 223.92 84.4602Z" fill="#132534"/>
<path d="M66.233 108V97.8182H67.4659V102.352H72.8949V97.8182H74.1278V108H72.8949V103.446H67.4659V108H66.233ZM79.3994 108.159C78.71 108.159 78.1051 107.995 77.5848 107.667C77.0677 107.339 76.6634 106.88 76.3717 106.29C76.0834 105.7 75.9392 105.01 75.9392 104.222C75.9392 103.426 76.0834 102.732 76.3717 102.138C76.6634 101.545 77.0677 101.085 77.5848 100.756C78.1051 100.428 78.71 100.264 79.3994 100.264C80.0888 100.264 80.692 100.428 81.2091 100.756C81.7294 101.085 82.1338 101.545 82.4221 102.138C82.7138 102.732 82.8596 103.426 82.8596 104.222C82.8596 105.01 82.7138 105.7 82.4221 106.29C82.1338 106.88 81.7294 107.339 81.2091 107.667C80.692 107.995 80.0888 108.159 79.3994 108.159ZM79.3994 107.105C79.9231 107.105 80.354 106.971 80.692 106.702C81.0301 106.434 81.2803 106.081 81.4427 105.643C81.6051 105.206 81.6863 104.732 81.6863 104.222C81.6863 103.711 81.6051 103.236 81.4427 102.795C81.2803 102.354 81.0301 101.998 80.692 101.726C80.354 101.454 79.9231 101.318 79.3994 101.318C78.8757 101.318 78.4449 101.454 78.1068 101.726C77.7687 101.998 77.5185 102.354 77.3561 102.795C77.1937 103.236 77.1125 103.711 77.1125 104.222C77.1125 104.732 77.1937 105.206 77.3561 105.643C77.5185 106.081 77.7687 106.434 78.1068 106.702C78.4449 106.971 78.8757 107.105 79.3994 107.105ZM84.5107 108V100.364H85.6442V101.557H85.7436C85.9027 101.149 86.1596 100.833 86.5142 100.607C86.8689 100.379 87.2948 100.264 87.7919 100.264C88.2957 100.264 88.715 100.379 89.0497 100.607C89.3878 100.833 89.6513 101.149 89.8402 101.557H89.9198C90.1153 101.162 90.4086 100.849 90.7997 100.617C91.1908 100.382 91.6598 100.264 92.2067 100.264C92.8894 100.264 93.4479 100.478 93.8821 100.906C94.3163 101.33 94.5334 101.991 94.5334 102.889V108H93.3601V102.889C93.3601 102.326 93.206 101.923 92.8977 101.681C92.5895 101.439 92.2266 101.318 91.809 101.318C91.272 101.318 90.8561 101.481 90.5611 101.805C90.2661 102.127 90.1186 102.535 90.1186 103.028V108H88.9254V102.77C88.9254 102.336 88.7846 101.986 88.5028 101.721C88.2211 101.452 87.8582 101.318 87.4141 101.318C87.1091 101.318 86.8241 101.399 86.559 101.562C86.2971 101.724 86.085 101.95 85.9226 102.238C85.7635 102.523 85.684 102.853 85.684 103.227V108H84.5107ZM99.7403 108.159C99.0045 108.159 98.3698 107.997 97.8362 107.672C97.3059 107.344 96.8966 106.886 96.6082 106.3C96.3232 105.71 96.1807 105.024 96.1807 104.241C96.1807 103.459 96.3232 102.77 96.6082 102.173C96.8966 101.573 97.2976 101.106 97.8114 100.771C98.3284 100.433 98.9316 100.264 99.621 100.264C100.019 100.264 100.411 100.33 100.799 100.463C101.187 100.596 101.54 100.811 101.858 101.109C102.176 101.404 102.43 101.795 102.619 102.283C102.808 102.77 102.902 103.37 102.902 104.082V104.58H97.0159V103.565H101.709C101.709 103.134 101.623 102.75 101.451 102.412C101.282 102.074 101.04 101.807 100.725 101.612C100.413 101.416 100.045 101.318 99.621 101.318C99.1537 101.318 98.7493 101.434 98.4079 101.666C98.0699 101.895 97.8097 102.193 97.6274 102.561C97.4451 102.929 97.354 103.323 97.354 103.744V104.42C97.354 104.997 97.4534 105.486 97.6523 105.887C97.8544 106.285 98.1345 106.588 98.4925 106.797C98.8504 107.002 99.2664 107.105 99.7403 107.105C100.049 107.105 100.327 107.062 100.576 106.976C100.827 106.886 101.045 106.754 101.227 106.578C101.409 106.399 101.55 106.177 101.649 105.912L102.783 106.23C102.664 106.615 102.463 106.953 102.181 107.244C101.9 107.533 101.552 107.758 101.137 107.92C100.723 108.08 100.257 108.159 99.7403 108.159ZM113.754 102.074L112.7 102.372C112.633 102.196 112.536 102.026 112.406 101.86C112.28 101.691 112.108 101.552 111.889 101.442C111.671 101.333 111.39 101.278 111.049 101.278C110.582 101.278 110.192 101.386 109.881 101.602C109.573 101.814 109.418 102.084 109.418 102.412C109.418 102.704 109.524 102.934 109.737 103.103C109.949 103.272 110.28 103.413 110.731 103.526L111.864 103.804C112.547 103.97 113.056 104.223 113.391 104.565C113.725 104.903 113.893 105.339 113.893 105.872C113.893 106.31 113.767 106.701 113.515 107.045C113.266 107.39 112.918 107.662 112.471 107.861C112.024 108.06 111.503 108.159 110.91 108.159C110.131 108.159 109.486 107.99 108.976 107.652C108.466 107.314 108.142 106.82 108.006 106.17L109.12 105.892C109.226 106.303 109.427 106.611 109.722 106.817C110.02 107.022 110.409 107.125 110.89 107.125C111.437 107.125 111.871 107.009 112.193 106.777C112.517 106.542 112.68 106.26 112.68 105.932C112.68 105.667 112.587 105.445 112.401 105.266C112.216 105.083 111.931 104.947 111.546 104.858L110.274 104.56C109.574 104.394 109.06 104.137 108.732 103.789C108.408 103.438 108.245 102.999 108.245 102.472C108.245 102.041 108.366 101.66 108.608 101.328C108.853 100.997 109.186 100.737 109.607 100.548C110.032 100.359 110.512 100.264 111.049 100.264C111.805 100.264 112.398 100.43 112.829 100.761C113.263 101.093 113.571 101.53 113.754 102.074ZM118.621 108.159C117.905 108.159 117.289 107.99 116.772 107.652C116.255 107.314 115.857 106.848 115.579 106.255C115.3 105.662 115.161 104.984 115.161 104.222C115.161 103.446 115.304 102.762 115.589 102.168C115.877 101.572 116.278 101.106 116.792 100.771C117.309 100.433 117.912 100.264 118.601 100.264C119.138 100.264 119.622 100.364 120.053 100.562C120.484 100.761 120.837 101.04 121.112 101.398C121.387 101.756 121.558 102.173 121.624 102.651H120.451C120.361 102.303 120.162 101.994 119.854 101.726C119.549 101.454 119.138 101.318 118.621 101.318C118.164 101.318 117.763 101.437 117.418 101.676C117.077 101.911 116.81 102.245 116.618 102.675C116.429 103.103 116.334 103.605 116.334 104.182C116.334 104.772 116.427 105.286 116.613 105.723C116.802 106.161 117.067 106.5 117.408 106.742C117.753 106.984 118.157 107.105 118.621 107.105C118.926 107.105 119.203 107.052 119.452 106.946C119.7 106.84 119.911 106.688 120.083 106.489C120.255 106.29 120.378 106.051 120.451 105.773H121.624C121.558 106.223 121.394 106.629 121.132 106.991C120.873 107.349 120.53 107.634 120.103 107.846C119.679 108.055 119.185 108.159 118.621 108.159ZM123.199 108V100.364H124.333V101.517H124.412C124.552 101.139 124.803 100.833 125.168 100.597C125.533 100.362 125.944 100.244 126.401 100.244C126.487 100.244 126.595 100.246 126.724 100.249C126.853 100.253 126.951 100.258 127.018 100.264V101.457C126.978 101.447 126.887 101.433 126.744 101.413C126.605 101.389 126.457 101.378 126.302 101.378C125.93 101.378 125.599 101.456 125.307 101.612C125.019 101.764 124.79 101.976 124.621 102.248C124.455 102.516 124.373 102.823 124.373 103.168V108H123.199ZM131.238 108.159C130.502 108.159 129.867 107.997 129.333 107.672C128.803 107.344 128.394 106.886 128.105 106.3C127.82 105.71 127.678 105.024 127.678 104.241C127.678 103.459 127.82 102.77 128.105 102.173C128.394 101.573 128.795 101.106 129.309 100.771C129.826 100.433 130.429 100.264 131.118 100.264C131.516 100.264 131.909 100.33 132.297 100.463C132.684 100.596 133.037 100.811 133.355 101.109C133.674 101.404 133.927 101.795 134.116 102.283C134.305 102.77 134.4 103.37 134.4 104.082V104.58H128.513V103.565H133.206C133.206 103.134 133.12 102.75 132.948 102.412C132.779 102.074 132.537 101.807 132.222 101.612C131.91 101.416 131.543 101.318 131.118 101.318C130.651 101.318 130.247 101.434 129.905 101.666C129.567 101.895 129.307 102.193 129.125 102.561C128.942 102.929 128.851 103.323 128.851 103.744V104.42C128.851 104.997 128.951 105.486 129.15 105.887C129.352 106.285 129.632 106.588 129.99 106.797C130.348 107.002 130.764 107.105 131.238 107.105C131.546 107.105 131.824 107.062 132.073 106.976C132.325 106.886 132.542 106.754 132.724 106.578C132.906 106.399 133.047 106.177 133.147 105.912L134.28 106.23C134.161 106.615 133.96 106.953 133.679 107.244C133.397 107.533 133.049 107.758 132.635 107.92C132.22 108.08 131.755 108.159 131.238 108.159ZM139.246 108.159C138.51 108.159 137.876 107.997 137.342 107.672C136.812 107.344 136.402 106.886 136.114 106.3C135.829 105.71 135.686 105.024 135.686 104.241C135.686 103.459 135.829 102.77 136.114 102.173C136.402 101.573 136.803 101.106 137.317 100.771C137.834 100.433 138.437 100.264 139.127 100.264C139.524 100.264 139.917 100.33 140.305 100.463C140.693 100.596 141.046 100.811 141.364 101.109C141.682 101.404 141.936 101.795 142.125 102.283C142.314 102.77 142.408 103.37 142.408 104.082V104.58H136.522V103.565H141.215C141.215 103.134 141.129 102.75 140.956 102.412C140.787 102.074 140.545 101.807 140.23 101.612C139.919 101.416 139.551 101.318 139.127 101.318C138.659 101.318 138.255 101.434 137.914 101.666C137.576 101.895 137.315 102.193 137.133 102.561C136.951 102.929 136.86 103.323 136.86 103.744V104.42C136.86 104.997 136.959 105.486 137.158 105.887C137.36 106.285 137.64 106.588 137.998 106.797C138.356 107.002 138.772 107.105 139.246 107.105C139.554 107.105 139.833 107.062 140.081 106.976C140.333 106.886 140.55 106.754 140.733 106.578C140.915 106.399 141.056 106.177 141.155 105.912L142.289 106.23C142.169 106.615 141.969 106.953 141.687 107.244C141.405 107.533 141.057 107.758 140.643 107.92C140.229 108.08 139.763 108.159 139.246 108.159ZM145.226 103.406V108H144.053V100.364H145.186V101.557H145.286C145.465 101.169 145.736 100.857 146.101 100.622C146.466 100.384 146.936 100.264 147.513 100.264C148.03 100.264 148.482 100.37 148.87 100.582C149.258 100.791 149.56 101.109 149.775 101.537C149.991 101.961 150.098 102.498 150.098 103.148V108H148.925V103.227C148.925 102.627 148.769 102.16 148.458 101.825C148.146 101.487 147.718 101.318 147.175 101.318C146.8 101.318 146.466 101.399 146.171 101.562C145.879 101.724 145.649 101.961 145.48 102.273C145.311 102.584 145.226 102.962 145.226 103.406Z" fill="#8694A8"/>
<path d="M582 96.5L588 90.5L582 84.5" stroke="#6B7B93" stroke-width="2" stroke-linecap="round" stroke-linejoin="round"/>
</g>
<defs>
<filter id="filter0_d_1702_49442" x="0" y="40" width="626" height="103" filterUnits="userSpaceOnUse" color-interpolation-filters="sRGB">
<feFlood flood-opacity="0" result="BackgroundImageFix"/>
<feColorMatrix in="SourceAlpha" type="matrix" values="0 0 0 0 0 0 0 0 0 0 0 0 0 0 0 0 0 0 127 0" result="hardAlpha"/>
<feOffset dy="1"/>
<feGaussianBlur stdDeviation="2.5"/>
<feComposite in2="hardAlpha" operator="out"/>
<feColorMatrix type="matrix" values="0 0 0 0 0.423529 0 0 0 0 0.458824 0 0 0 0 0.545098 0 0 0 0.4 0"/>
<feBlend mode="normal" in2="BackgroundImageFix" result="effect1_dropShadow_1702_49442"/>
<feBlend mode="normal" in="SourceGraphic" in2="effect1_dropShadow_1702_49442" result="shape"/>
</filter>
</defs>
</svg>
