<svg width="616" height="137" viewBox="0 0 616 137" fill="none" xmlns="http://www.w3.org/2000/svg">
<path d="M12.3111 12.1662H10.3168C10.2401 11.7401 10.0973 11.3651 9.88849 11.0412C9.67969 10.7173 9.42401 10.4425 9.12145 10.2166C8.81889 9.99077 8.48011 9.82031 8.10511 9.70526C7.73438 9.5902 7.3402 9.53267 6.92259 9.53267C6.16832 9.53267 5.4929 9.7223 4.89631 10.1016C4.30398 10.4808 3.83523 11.0369 3.49006 11.7699C3.14915 12.5028 2.97869 13.3977 2.97869 14.4545C2.97869 15.5199 3.14915 16.419 3.49006 17.152C3.83523 17.8849 4.30611 18.4389 4.9027 18.8139C5.49929 19.1889 6.17045 19.3764 6.91619 19.3764C7.32955 19.3764 7.72159 19.321 8.09233 19.2102C8.46733 19.0952 8.80611 18.9268 9.10866 18.7053C9.41122 18.4837 9.6669 18.2131 9.87571 17.8935C10.0888 17.5696 10.2358 17.1989 10.3168 16.7812L12.3111 16.7876C12.2045 17.4311 11.9979 18.0234 11.6911 18.5646C11.3885 19.1016 10.9986 19.5661 10.5213 19.9581C10.0483 20.3459 9.5071 20.6463 8.89773 20.8594C8.28835 21.0724 7.62358 21.179 6.90341 21.179C5.76989 21.179 4.75994 20.9105 3.87358 20.3736C2.98722 19.8324 2.28835 19.0589 1.77699 18.0533C1.26989 17.0476 1.01634 15.848 1.01634 14.4545C1.01634 13.0568 1.27202 11.8572 1.78338 10.8558C2.29474 9.85014 2.99361 9.07883 3.87997 8.5419C4.76634 8.00071 5.77415 7.73011 6.90341 7.73011C7.59801 7.73011 8.24574 7.83026 8.84659 8.03054C9.4517 8.22656 9.99503 8.51633 10.4766 8.89986C10.9581 9.27912 11.3565 9.74361 11.6719 10.2933C11.9872 10.8388 12.2003 11.4631 12.3111 12.1662ZM18.6568 21.1982C17.7363 21.1982 16.9331 20.9872 16.247 20.5653C15.5609 20.1435 15.0282 19.5533 14.649 18.7947C14.2697 18.0362 14.0801 17.1499 14.0801 16.1357C14.0801 15.1172 14.2697 14.2266 14.649 13.4638C15.0282 12.701 15.5609 12.1087 16.247 11.6868C16.9331 11.2649 17.7363 11.054 18.6568 11.054C19.5772 11.054 20.3805 11.2649 21.0666 11.6868C21.7527 12.1087 22.2853 12.701 22.6646 13.4638C23.0439 14.2266 23.2335 15.1172 23.2335 16.1357C23.2335 17.1499 23.0439 18.0362 22.6646 18.7947C22.2853 19.5533 21.7527 20.1435 21.0666 20.5653C20.3805 20.9872 19.5772 21.1982 18.6568 21.1982ZM18.6632 19.5938C19.2598 19.5938 19.7541 19.4361 20.1461 19.1207C20.5382 18.8054 20.8279 18.3857 21.0154 17.8615C21.2072 17.3374 21.3031 16.7599 21.3031 16.1293C21.3031 15.5028 21.2072 14.9276 21.0154 14.4034C20.8279 13.875 20.5382 13.451 20.1461 13.1314C19.7541 12.8118 19.2598 12.652 18.6632 12.652C18.0623 12.652 17.5637 12.8118 17.1674 13.1314C16.7754 13.451 16.4835 13.875 16.2917 14.4034C16.1042 14.9276 16.0105 15.5028 16.0105 16.1293C16.0105 16.7599 16.1042 17.3374 16.2917 17.8615C16.4835 18.3857 16.7754 18.8054 17.1674 19.1207C17.5637 19.4361 18.0623 19.5938 18.6632 19.5938ZM27.2781 15.1705V21H25.3668V11.1818H27.2013V12.7798H27.3228C27.5487 12.2599 27.9023 11.8423 28.3839 11.527C28.8697 11.2116 29.4812 11.054 30.2184 11.054C30.8874 11.054 31.4734 11.1946 31.9762 11.4759C32.479 11.7528 32.869 12.1662 33.146 12.7159C33.4229 13.2656 33.5614 13.9453 33.5614 14.755V21H31.6502V14.9851C31.6502 14.2734 31.4648 13.7173 31.0941 13.3168C30.7234 12.9119 30.2141 12.7095 29.5664 12.7095C29.1232 12.7095 28.729 12.8054 28.3839 12.9972C28.043 13.1889 27.7724 13.4702 27.5721 13.8409C27.3761 14.2074 27.2781 14.6506 27.2781 15.1705ZM40.7077 11.1818V12.7159H35.3448V11.1818H40.7077ZM36.783 8.82955H38.6942V18.1172C38.6942 18.4879 38.7496 18.767 38.8604 18.9545C38.9712 19.1378 39.114 19.2635 39.2887 19.3317C39.4677 19.3956 39.6616 19.4276 39.8704 19.4276C40.0238 19.4276 40.158 19.4169 40.2731 19.3956C40.3881 19.3743 40.4776 19.3572 40.5415 19.3445L40.8867 20.9233C40.7759 20.9659 40.6183 21.0085 40.4137 21.0511C40.2092 21.098 39.9535 21.1236 39.6467 21.1278C39.1438 21.1364 38.6751 21.0469 38.2404 20.8594C37.8058 20.6719 37.4542 20.3821 37.1857 19.9901C36.9173 19.598 36.783 19.1058 36.783 18.5135V8.82955ZM46.948 21.1982C45.9806 21.1982 45.1475 20.9915 44.4487 20.5781C43.7541 20.1605 43.2172 19.5746 42.8379 18.8203C42.4629 18.0618 42.2754 17.1733 42.2754 16.1548C42.2754 15.1491 42.4629 14.2628 42.8379 13.4957C43.2172 12.7287 43.7456 12.13 44.4231 11.6996C45.1049 11.2692 45.9018 11.054 46.8137 11.054C47.3677 11.054 47.9047 11.1456 48.4245 11.3288C48.9444 11.5121 49.411 11.7997 49.8244 12.1918C50.2377 12.5838 50.5637 13.093 50.8024 13.7195C51.041 14.3416 51.1603 15.098 51.1603 15.9886V16.6662H43.3556V15.2344H49.2875C49.2875 14.7315 49.1852 14.2862 48.9806 13.8984C48.7761 13.5064 48.4885 13.1974 48.1177 12.9716C47.7512 12.7457 47.3208 12.6328 46.8265 12.6328C46.2896 12.6328 45.8208 12.7649 45.4203 13.0291C45.024 13.2891 44.7172 13.63 44.4998 14.0518C44.2868 14.4695 44.1802 14.9233 44.1802 15.4134V16.532C44.1802 17.1882 44.2953 17.7464 44.5254 18.2067C44.7598 18.6669 45.0858 19.0185 45.5034 19.2614C45.921 19.5 46.4089 19.6193 46.9672 19.6193C47.3294 19.6193 47.6596 19.5682 47.9579 19.4659C48.2562 19.3594 48.514 19.2017 48.7314 18.9929C48.9487 18.7841 49.1149 18.5263 49.2299 18.2195L51.0389 18.5455C50.894 19.0781 50.6341 19.5447 50.2591 19.9453C49.8883 20.3416 49.4217 20.6506 48.8592 20.8722C48.301 21.0895 47.6639 21.1982 46.948 21.1982ZM55.1921 15.1705V21H53.2809V11.1818H55.1154V12.7798H55.2369C55.4627 12.2599 55.8164 11.8423 56.2979 11.527C56.7837 11.2116 57.3952 11.054 58.1325 11.054C58.8015 11.054 59.3874 11.1946 59.8903 11.4759C60.3931 11.7528 60.783 12.1662 61.06 12.7159C61.337 13.2656 61.4755 13.9453 61.4755 14.755V21H59.5643V14.9851C59.5643 14.2734 59.3789 13.7173 59.0082 13.3168C58.6374 12.9119 58.1282 12.7095 57.4805 12.7095C57.0373 12.7095 56.6431 12.8054 56.2979 12.9972C55.957 13.1889 55.6864 13.4702 55.4862 13.8409C55.2901 14.2074 55.1921 14.6506 55.1921 15.1705ZM68.6218 11.1818V12.7159H63.2589V11.1818H68.6218ZM64.6971 8.82955H66.6083V18.1172C66.6083 18.4879 66.6637 18.767 66.7745 18.9545C66.8853 19.1378 67.0281 19.2635 67.2028 19.3317C67.3817 19.3956 67.5756 19.4276 67.7844 19.4276C67.9379 19.4276 68.0721 19.4169 68.1871 19.3956C68.3022 19.3743 68.3917 19.3572 68.4556 19.3445L68.8008 20.9233C68.69 20.9659 68.5323 21.0085 68.3278 21.0511C68.1232 21.098 67.8675 21.1236 67.5607 21.1278C67.0579 21.1364 66.5891 21.0469 66.1545 20.8594C65.7198 20.6719 65.3683 20.3821 65.0998 19.9901C64.8313 19.598 64.6971 19.1058 64.6971 18.5135V8.82955Z" fill="#757C8A"/>
<path d="M0 52C0 47.5817 3.58172 44 8 44H608C612.418 44 616 47.5817 616 52V137H0V52Z" fill="#132534"/>
<path d="M27 77L36 70L45 77V88C45 88.5304 44.7893 89.0391 44.4142 89.4142C44.0391 89.7893 43.5304 90 43 90H29C28.4696 90 27.9609 89.7893 27.5858 89.4142C27.2107 89.0391 27 88.5304 27 88V77Z" stroke="white" stroke-width="2" stroke-linecap="round" stroke-linejoin="round"/>
<path d="M33 90V80H39V90" stroke="white" stroke-width="2" stroke-linecap="round" stroke-linejoin="round"/>
<path d="M61.2784 86V74.3636H63.0341V79.4205H68.8352V74.3636H70.5966V86H68.8352V80.9261H63.0341V86H61.2784ZM76.5332 86.1761C75.715 86.1761 75.001 85.9886 74.3911 85.6136C73.7813 85.2386 73.3078 84.714 72.9707 84.0398C72.6336 83.3655 72.465 82.5777 72.465 81.6761C72.465 80.7708 72.6336 79.9792 72.9707 79.3011C73.3078 78.6231 73.7813 78.0966 74.3911 77.7216C75.001 77.3466 75.715 77.1591 76.5332 77.1591C77.3514 77.1591 78.0654 77.3466 78.6752 77.7216C79.2851 78.0966 79.7586 78.6231 80.0957 79.3011C80.4328 79.9792 80.6014 80.7708 80.6014 81.6761C80.6014 82.5777 80.4328 83.3655 80.0957 84.0398C79.7586 84.714 79.2851 85.2386 78.6752 85.6136C78.0654 85.9886 77.3514 86.1761 76.5332 86.1761ZM76.5389 84.75C77.0692 84.75 77.5086 84.6098 77.857 84.3295C78.2055 84.0492 78.4631 83.6761 78.6298 83.2102C78.8002 82.7443 78.8855 82.2311 78.8855 81.6705C78.8855 81.1136 78.8002 80.6023 78.6298 80.1364C78.4631 79.6667 78.2055 79.2898 77.857 79.0057C77.5086 78.7216 77.0692 78.5795 76.5389 78.5795C76.0048 78.5795 75.5616 78.7216 75.2093 79.0057C74.8608 79.2898 74.6014 79.6667 74.4309 80.1364C74.2642 80.6023 74.1809 81.1136 74.1809 81.6705C74.1809 82.2311 74.2642 82.7443 74.4309 83.2102C74.6014 83.6761 74.8608 84.0492 75.2093 84.3295C75.5616 84.6098 76.0048 84.75 76.5389 84.75ZM82.3377 86V77.2727H83.9684V78.6932H84.0763C84.2581 78.2121 84.5555 77.8371 84.9684 77.5682C85.3812 77.2955 85.8755 77.1591 86.4513 77.1591C87.0346 77.1591 87.5233 77.2955 87.9172 77.5682C88.3149 77.8409 88.6085 78.2159 88.7979 78.6932H88.8888C89.0971 78.2273 89.4286 77.8561 89.8831 77.5795C90.3377 77.2992 90.8793 77.1591 91.5081 77.1591C92.2998 77.1591 92.9456 77.4072 93.4456 77.9034C93.9494 78.3996 94.2013 79.1477 94.2013 80.1477V86H92.5024V80.3068C92.5024 79.7159 92.3415 79.2879 92.0195 79.0227C91.6975 78.7576 91.313 78.625 90.8661 78.625C90.313 78.625 89.8831 78.7955 89.5763 79.1364C89.2695 79.4735 89.1161 79.9072 89.1161 80.4375V86H87.4229V80.1989C87.4229 79.7254 87.2752 79.3447 86.9797 79.0568C86.6843 78.7689 86.2998 78.625 85.8263 78.625C85.5043 78.625 85.207 78.7102 84.9343 78.8807C84.6653 79.0473 84.4475 79.2803 84.2809 79.5795C84.118 79.8788 84.0365 80.2254 84.0365 80.6193V86H82.3377ZM100.08 86.1761C99.2198 86.1761 98.4793 85.9924 97.8581 85.625C97.2406 85.2538 96.7634 84.733 96.4263 84.0625C96.0929 83.3883 95.9263 82.5985 95.9263 81.6932C95.9263 80.7992 96.0929 80.0114 96.4263 79.3295C96.7634 78.6477 97.2331 78.1155 97.8353 77.733C98.4414 77.3504 99.1497 77.1591 99.9603 77.1591C100.453 77.1591 100.93 77.2405 101.392 77.4034C101.854 77.5663 102.269 77.822 102.636 78.1705C103.004 78.5189 103.294 78.9716 103.506 79.5284C103.718 80.0814 103.824 80.7538 103.824 81.5455V82.1477H96.8865V80.875H102.159C102.159 80.428 102.068 80.0322 101.886 79.6875C101.705 79.339 101.449 79.0644 101.119 78.8636C100.794 78.6629 100.411 78.5625 99.9717 78.5625C99.4944 78.5625 99.0778 78.6799 98.7217 78.9148C98.3694 79.1458 98.0967 79.4489 97.9035 79.8239C97.7141 80.1951 97.6194 80.5985 97.6194 81.0341V82.0284C97.6194 82.6117 97.7217 83.108 97.9263 83.517C98.1346 83.9261 98.4244 84.2386 98.7956 84.4545C99.1668 84.6667 99.6005 84.7727 100.097 84.7727C100.419 84.7727 100.712 84.7273 100.977 84.6364C101.243 84.5417 101.472 84.4015 101.665 84.2159C101.858 84.0303 102.006 83.8011 102.108 83.5284L103.716 83.8182C103.587 84.2917 103.356 84.7064 103.023 85.0625C102.693 85.4148 102.279 85.6894 101.779 85.8864C101.282 86.0795 100.716 86.1761 100.08 86.1761ZM116.163 79.4034L114.623 79.6761C114.559 79.4792 114.457 79.2917 114.316 79.1136C114.18 78.9356 113.995 78.7898 113.76 78.6761C113.525 78.5625 113.231 78.5057 112.879 78.5057C112.398 78.5057 111.996 78.6136 111.674 78.8295C111.352 79.0417 111.191 79.3163 111.191 79.6534C111.191 79.9451 111.299 80.1799 111.515 80.358C111.731 80.536 112.08 80.6818 112.561 80.7955L113.947 81.1136C114.75 81.2992 115.349 81.5852 115.743 81.9716C116.137 82.358 116.334 82.8598 116.334 83.4773C116.334 84 116.182 84.4659 115.879 84.875C115.58 85.2803 115.161 85.5985 114.623 85.8295C114.089 86.0606 113.47 86.1761 112.765 86.1761C111.788 86.1761 110.991 85.9678 110.373 85.5511C109.756 85.1307 109.377 84.5341 109.237 83.7614L110.879 83.5114C110.981 83.9394 111.191 84.2633 111.51 84.483C111.828 84.6989 112.243 84.8068 112.754 84.8068C113.311 84.8068 113.756 84.6913 114.089 84.4602C114.423 84.2254 114.589 83.9394 114.589 83.6023C114.589 83.3295 114.487 83.1004 114.282 82.9148C114.082 82.7292 113.773 82.589 113.356 82.4943L111.879 82.1705C111.065 81.9848 110.462 81.6894 110.072 81.2841C109.686 80.8788 109.493 80.3655 109.493 79.7443C109.493 79.2292 109.637 78.7784 109.924 78.392C110.212 78.0057 110.61 77.7045 111.118 77.4886C111.625 77.2689 112.207 77.1591 112.862 77.1591C113.805 77.1591 114.548 77.3636 115.089 77.7727C115.631 78.178 115.989 78.7216 116.163 79.4034ZM121.718 86.1761C120.873 86.1761 120.146 85.9848 119.536 85.6023C118.93 85.2159 118.464 84.6837 118.138 84.0057C117.812 83.3277 117.649 82.5511 117.649 81.6761C117.649 80.7898 117.816 80.0076 118.149 79.3295C118.483 78.6477 118.952 78.1155 119.558 77.733C120.165 77.3504 120.879 77.1591 121.701 77.1591C122.363 77.1591 122.954 77.2822 123.473 77.5284C123.992 77.7708 124.411 78.1117 124.729 78.5511C125.051 78.9905 125.242 79.5038 125.303 80.0909H123.649C123.558 79.6818 123.35 79.3295 123.024 79.0341C122.702 78.7386 122.271 78.5909 121.729 78.5909C121.255 78.5909 120.841 78.7159 120.485 78.9659C120.132 79.2121 119.858 79.5644 119.661 80.0227C119.464 80.4773 119.365 81.0152 119.365 81.6364C119.365 82.2727 119.462 82.822 119.655 83.2841C119.848 83.7462 120.121 84.1042 120.473 84.358C120.829 84.6117 121.248 84.7386 121.729 84.7386C122.051 84.7386 122.343 84.6799 122.604 84.5625C122.869 84.4413 123.091 84.2689 123.269 84.0455C123.451 83.822 123.577 83.553 123.649 83.2386H125.303C125.242 83.803 125.058 84.3068 124.752 84.75C124.445 85.1932 124.034 85.5417 123.519 85.7955C123.007 86.0492 122.407 86.1761 121.718 86.1761ZM126.96 86V77.2727H128.602V78.6591H128.692C128.852 78.1894 129.132 77.8201 129.533 77.5511C129.939 77.2784 130.397 77.142 130.908 77.142C131.014 77.142 131.139 77.1458 131.283 77.1534C131.431 77.161 131.547 77.1705 131.63 77.1818V78.8068C131.562 78.7879 131.441 78.767 131.266 78.7443C131.092 78.7178 130.918 78.7045 130.744 78.7045C130.342 78.7045 129.984 78.7898 129.67 78.9602C129.359 79.1269 129.113 79.3598 128.931 79.6591C128.749 79.9545 128.658 80.2917 128.658 80.6705V86H126.96ZM136.389 86.1761C135.529 86.1761 134.789 85.9924 134.167 85.625C133.55 85.2538 133.073 84.733 132.736 84.0625C132.402 83.3883 132.236 82.5985 132.236 81.6932C132.236 80.7992 132.402 80.0114 132.736 79.3295C133.073 78.6477 133.542 78.1155 134.145 77.733C134.751 77.3504 135.459 77.1591 136.27 77.1591C136.762 77.1591 137.239 77.2405 137.702 77.4034C138.164 77.5663 138.578 77.822 138.946 78.1705C139.313 78.5189 139.603 78.9716 139.815 79.5284C140.027 80.0814 140.133 80.7538 140.133 81.5455V82.1477H133.196V80.875H138.469C138.469 80.428 138.378 80.0322 138.196 79.6875C138.014 79.339 137.758 79.0644 137.429 78.8636C137.103 78.6629 136.72 78.5625 136.281 78.5625C135.804 78.5625 135.387 78.6799 135.031 78.9148C134.679 79.1458 134.406 79.4489 134.213 79.8239C134.024 80.1951 133.929 80.5985 133.929 81.0341V82.0284C133.929 82.6117 134.031 83.108 134.236 83.517C134.444 83.9261 134.734 84.2386 135.105 84.4545C135.476 84.6667 135.91 84.7727 136.406 84.7727C136.728 84.7727 137.022 84.7273 137.287 84.6364C137.552 84.5417 137.781 84.4015 137.974 84.2159C138.167 84.0303 138.315 83.8011 138.417 83.5284L140.025 83.8182C139.897 84.2917 139.666 84.7064 139.332 85.0625C139.003 85.4148 138.588 85.6894 138.088 85.8864C137.592 86.0795 137.025 86.1761 136.389 86.1761ZM145.62 86.1761C144.76 86.1761 144.019 85.9924 143.398 85.625C142.781 85.2538 142.303 84.733 141.966 84.0625C141.633 83.3883 141.466 82.5985 141.466 81.6932C141.466 80.7992 141.633 80.0114 141.966 79.3295C142.303 78.6477 142.773 78.1155 143.375 77.733C143.981 77.3504 144.69 77.1591 145.5 77.1591C145.993 77.1591 146.47 77.2405 146.932 77.4034C147.394 77.5663 147.809 77.822 148.176 78.1705C148.544 78.5189 148.834 78.9716 149.046 79.5284C149.258 80.0814 149.364 80.7538 149.364 81.5455V82.1477H142.426V80.875H147.699C147.699 80.428 147.608 80.0322 147.426 79.6875C147.245 79.339 146.989 79.0644 146.659 78.8636C146.334 78.6629 145.951 78.5625 145.512 78.5625C145.034 78.5625 144.618 78.6799 144.262 78.9148C143.909 79.1458 143.637 79.4489 143.444 79.8239C143.254 80.1951 143.159 80.5985 143.159 81.0341V82.0284C143.159 82.6117 143.262 83.108 143.466 83.517C143.675 83.9261 143.964 84.2386 144.336 84.4545C144.707 84.6667 145.14 84.7727 145.637 84.7727C145.959 84.7727 146.252 84.7273 146.517 84.6364C146.783 84.5417 147.012 84.4015 147.205 84.2159C147.398 84.0303 147.546 83.8011 147.648 83.5284L149.256 83.8182C149.127 84.2917 148.896 84.7064 148.563 85.0625C148.233 85.4148 147.819 85.6894 147.319 85.8864C146.822 86.0795 146.256 86.1761 145.62 86.1761ZM152.788 80.8182V86H151.089V77.2727H152.72V78.6932H152.828C153.028 78.2311 153.343 77.8598 153.771 77.5795C154.203 77.2992 154.746 77.1591 155.401 77.1591C155.996 77.1591 156.517 77.2841 156.964 77.5341C157.411 77.7803 157.757 78.1477 158.004 78.6364C158.25 79.125 158.373 79.7292 158.373 80.4489V86H156.674V80.6534C156.674 80.0208 156.509 79.5265 156.18 79.1705C155.85 78.8106 155.398 78.6307 154.822 78.6307C154.428 78.6307 154.078 78.7159 153.771 78.8864C153.468 79.0568 153.227 79.3068 153.049 79.6364C152.875 79.9621 152.788 80.3561 152.788 80.8182Z" fill="white"/>
<path d="M63.0824 108L60.2983 97.8182H61.5511L63.679 106.111H63.7784L65.946 97.8182H67.3381L69.5057 106.111H69.6051L71.733 97.8182H72.9858L70.2017 108H68.929L66.6818 99.8864H66.6023L64.3551 108H63.0824ZM75.3962 103.406V108H74.2229V97.8182H75.3962V101.557H75.4957C75.6746 101.162 75.9431 100.849 76.3011 100.617C76.6623 100.382 77.1429 100.264 77.7428 100.264C78.2632 100.264 78.7189 100.369 79.11 100.577C79.5011 100.783 79.8044 101.099 80.0198 101.527C80.2386 101.951 80.3479 102.491 80.3479 103.148V108H79.1746V103.227C79.1746 102.621 79.0172 102.152 78.7023 101.82C78.3908 101.486 77.9582 101.318 77.4047 101.318C77.0203 101.318 76.6756 101.399 76.3707 101.562C76.069 101.724 75.8304 101.961 75.6547 102.273C75.4824 102.584 75.3962 102.962 75.3962 103.406ZM84.6016 108.179C84.1177 108.179 83.6785 108.088 83.2841 107.906C82.8897 107.72 82.5765 107.453 82.3445 107.105C82.1125 106.754 81.9965 106.33 81.9965 105.832C81.9965 105.395 82.0826 105.04 82.255 104.768C82.4273 104.493 82.6577 104.278 82.946 104.122C83.2344 103.966 83.5526 103.85 83.9006 103.774C84.2519 103.695 84.6049 103.632 84.9595 103.585C85.4235 103.526 85.7997 103.481 86.0881 103.451C86.3797 103.418 86.5919 103.363 86.7244 103.287C86.8603 103.211 86.9283 103.078 86.9283 102.889V102.849C86.9283 102.359 86.794 101.978 86.5256 101.706C86.2604 101.434 85.8577 101.298 85.3175 101.298C84.7573 101.298 84.3182 101.421 84 101.666C83.6818 101.911 83.4581 102.173 83.3288 102.452L82.2152 102.054C82.4141 101.59 82.6792 101.229 83.0107 100.97C83.3454 100.708 83.71 100.526 84.1044 100.423C84.5021 100.317 84.8932 100.264 85.2777 100.264C85.523 100.264 85.8047 100.294 86.1229 100.354C86.4444 100.41 86.7543 100.528 87.0526 100.707C87.3542 100.886 87.6044 101.156 87.8033 101.517C88.0021 101.878 88.1016 102.362 88.1016 102.969V108H86.9283V106.966H86.8686C86.7891 107.132 86.6565 107.309 86.4709 107.498C86.2853 107.687 86.0384 107.848 85.7301 107.98C85.4219 108.113 85.0457 108.179 84.6016 108.179ZM84.7805 107.125C85.2446 107.125 85.6357 107.034 85.9538 106.852C86.2753 106.669 86.5173 106.434 86.6797 106.146C86.8454 105.857 86.9283 105.554 86.9283 105.236V104.162C86.8786 104.222 86.7692 104.276 86.6001 104.326C86.4344 104.372 86.2422 104.414 86.0234 104.45C85.808 104.483 85.5975 104.513 85.3921 104.54C85.1899 104.563 85.0258 104.583 84.8999 104.599C84.5949 104.639 84.3099 104.704 84.0448 104.793C83.7829 104.879 83.5708 105.01 83.4084 105.186C83.2493 105.358 83.1698 105.594 83.1698 105.892C83.1698 106.3 83.3206 106.608 83.6222 106.817C83.9271 107.022 84.3132 107.125 84.7805 107.125ZM93.4241 100.364V101.358H89.4667V100.364H93.4241ZM90.6201 98.5341H91.7934V105.812C91.7934 106.144 91.8415 106.393 91.9376 106.558C92.037 106.721 92.163 106.83 92.3154 106.886C92.4712 106.939 92.6353 106.966 92.8076 106.966C92.9369 106.966 93.0429 106.959 93.1258 106.946C93.2087 106.929 93.275 106.916 93.3247 106.906L93.5633 107.96C93.4838 107.99 93.3727 108.02 93.2302 108.05C93.0877 108.083 92.9071 108.099 92.6883 108.099C92.3569 108.099 92.0321 108.028 91.7139 107.886C91.399 107.743 91.1372 107.526 90.9284 107.234C90.7229 106.943 90.6201 106.575 90.6201 106.131V98.5341ZM103.659 104.878V100.364H104.832V108H103.659V106.707H103.579C103.4 107.095 103.122 107.425 102.744 107.697C102.366 107.965 101.889 108.099 101.312 108.099C100.835 108.099 100.411 107.995 100.04 107.786C99.6685 107.574 99.3768 107.256 99.1647 106.832C98.9526 106.404 98.8465 105.866 98.8465 105.216V100.364H100.02V105.136C100.02 105.693 100.176 106.137 100.487 106.469C100.802 106.8 101.203 106.966 101.69 106.966C101.982 106.966 102.279 106.891 102.58 106.742C102.885 106.593 103.14 106.364 103.346 106.056C103.555 105.748 103.659 105.355 103.659 104.878ZM112.25 102.074L111.196 102.372C111.13 102.196 111.032 102.026 110.903 101.86C110.777 101.691 110.605 101.552 110.386 101.442C110.167 101.333 109.887 101.278 109.546 101.278C109.079 101.278 108.689 101.386 108.378 101.602C108.069 101.814 107.915 102.084 107.915 102.412C107.915 102.704 108.021 102.934 108.233 103.103C108.445 103.272 108.777 103.413 109.228 103.526L110.361 103.804C111.044 103.97 111.553 104.223 111.887 104.565C112.222 104.903 112.39 105.339 112.39 105.872C112.39 106.31 112.264 106.701 112.012 107.045C111.763 107.39 111.415 107.662 110.968 107.861C110.52 108.06 110 108.159 109.407 108.159C108.628 108.159 107.983 107.99 107.473 107.652C106.962 107.314 106.639 106.82 106.503 106.17L107.617 105.892C107.723 106.303 107.923 106.611 108.218 106.817C108.517 107.022 108.906 107.125 109.387 107.125C109.934 107.125 110.368 107.009 110.689 106.777C111.014 106.542 111.177 106.26 111.177 105.932C111.177 105.667 111.084 105.445 110.898 105.266C110.712 105.083 110.427 104.947 110.043 104.858L108.77 104.56C108.071 104.394 107.557 104.137 107.229 103.789C106.904 103.438 106.742 102.999 106.742 102.472C106.742 102.041 106.863 101.66 107.105 101.328C107.35 100.997 107.683 100.737 108.104 100.548C108.528 100.359 109.009 100.264 109.546 100.264C110.302 100.264 110.895 100.43 111.326 100.761C111.76 101.093 112.068 101.53 112.25 102.074ZM117.217 108.159C116.482 108.159 115.847 107.997 115.313 107.672C114.783 107.344 114.374 106.886 114.085 106.3C113.8 105.71 113.658 105.024 113.658 104.241C113.658 103.459 113.8 102.77 114.085 102.173C114.374 101.573 114.775 101.106 115.288 100.771C115.806 100.433 116.409 100.264 117.098 100.264C117.496 100.264 117.889 100.33 118.276 100.463C118.664 100.596 119.017 100.811 119.335 101.109C119.654 101.404 119.907 101.795 120.096 102.283C120.285 102.77 120.379 103.37 120.379 104.082V104.58H114.493V103.565H119.186C119.186 103.134 119.1 102.75 118.928 102.412C118.759 102.074 118.517 101.807 118.202 101.612C117.89 101.416 117.522 101.318 117.098 101.318C116.631 101.318 116.226 101.434 115.885 101.666C115.547 101.895 115.287 102.193 115.105 102.561C114.922 102.929 114.831 103.323 114.831 103.744V104.42C114.831 104.997 114.931 105.486 115.129 105.887C115.332 106.285 115.612 106.588 115.97 106.797C116.328 107.002 116.743 107.105 117.217 107.105C117.526 107.105 117.804 107.062 118.053 106.976C118.305 106.886 118.522 106.754 118.704 106.578C118.886 106.399 119.027 106.177 119.127 105.912L120.26 106.23C120.141 106.615 119.94 106.953 119.658 107.244C119.377 107.533 119.029 107.758 118.614 107.92C118.2 108.08 117.734 108.159 117.217 108.159ZM122.024 108V100.364H123.158V101.517H123.237C123.376 101.139 123.628 100.833 123.993 100.597C124.358 100.362 124.768 100.244 125.226 100.244C125.312 100.244 125.42 100.246 125.549 100.249C125.678 100.253 125.776 100.258 125.842 100.264V101.457C125.803 101.447 125.711 101.433 125.569 101.413C125.43 101.389 125.282 101.378 125.126 101.378C124.755 101.378 124.424 101.456 124.132 101.612C123.844 101.764 123.615 101.976 123.446 102.248C123.28 102.516 123.197 102.823 123.197 103.168V108H122.024ZM132.502 102.074L131.448 102.372C131.382 102.196 131.284 102.026 131.155 101.86C131.029 101.691 130.857 101.552 130.638 101.442C130.419 101.333 130.139 101.278 129.798 101.278C129.33 101.278 128.941 101.386 128.629 101.602C128.321 101.814 128.167 102.084 128.167 102.412C128.167 102.704 128.273 102.934 128.485 103.103C128.697 103.272 129.029 103.413 129.48 103.526L130.613 103.804C131.296 103.97 131.805 104.223 132.139 104.565C132.474 104.903 132.641 105.339 132.641 105.872C132.641 106.31 132.516 106.701 132.264 107.045C132.015 107.39 131.667 107.662 131.22 107.861C130.772 108.06 130.252 108.159 129.658 108.159C128.88 108.159 128.235 107.99 127.725 107.652C127.214 107.314 126.891 106.82 126.755 106.17L127.869 105.892C127.975 106.303 128.175 106.611 128.47 106.817C128.769 107.022 129.158 107.125 129.639 107.125C130.185 107.125 130.62 107.009 130.941 106.777C131.266 106.542 131.428 106.26 131.428 105.932C131.428 105.667 131.336 105.445 131.15 105.266C130.964 105.083 130.679 104.947 130.295 104.858L129.022 104.56C128.323 104.394 127.809 104.137 127.481 103.789C127.156 103.438 126.994 102.999 126.994 102.472C126.994 102.041 127.115 101.66 127.357 101.328C127.602 100.997 127.935 100.737 128.356 100.548C128.78 100.359 129.261 100.264 129.798 100.264C130.553 100.264 131.147 100.43 131.578 100.761C132.012 101.093 132.32 101.53 132.502 102.074ZM143.474 102.074L142.42 102.372C142.354 102.196 142.256 102.026 142.127 101.86C142.001 101.691 141.829 101.552 141.61 101.442C141.391 101.333 141.111 101.278 140.77 101.278C140.302 101.278 139.913 101.386 139.601 101.602C139.293 101.814 139.139 102.084 139.139 102.412C139.139 102.704 139.245 102.934 139.457 103.103C139.669 103.272 140.001 103.413 140.451 103.526L141.585 103.804C142.268 103.97 142.777 104.223 143.111 104.565C143.446 104.903 143.613 105.339 143.613 105.872C143.613 106.31 143.487 106.701 143.236 107.045C142.987 107.39 142.639 107.662 142.192 107.861C141.744 108.06 141.224 108.159 140.63 108.159C139.852 108.159 139.207 107.99 138.697 107.652C138.186 107.314 137.863 106.82 137.727 106.17L138.841 105.892C138.947 106.303 139.147 106.611 139.442 106.817C139.741 107.022 140.13 107.125 140.611 107.125C141.157 107.125 141.592 107.009 141.913 106.777C142.238 106.542 142.4 106.26 142.4 105.932C142.4 105.667 142.308 105.445 142.122 105.266C141.936 105.083 141.651 104.947 141.267 104.858L139.994 104.56C139.295 104.394 138.781 104.137 138.453 103.789C138.128 103.438 137.966 102.999 137.966 102.472C137.966 102.041 138.087 101.66 138.329 101.328C138.574 100.997 138.907 100.737 139.328 100.548C139.752 100.359 140.233 100.264 140.77 100.264C141.525 100.264 142.119 100.43 142.549 100.761C142.984 101.093 143.292 101.53 143.474 102.074ZM148.441 108.159C147.705 108.159 147.071 107.997 146.537 107.672C146.007 107.344 145.598 106.886 145.309 106.3C145.024 105.71 144.882 105.024 144.882 104.241C144.882 103.459 145.024 102.77 145.309 102.173C145.598 101.573 145.999 101.106 146.512 100.771C147.029 100.433 147.633 100.264 148.322 100.264C148.72 100.264 149.112 100.33 149.5 100.463C149.888 100.596 150.241 100.811 150.559 101.109C150.877 101.404 151.131 101.795 151.32 102.283C151.509 102.77 151.603 103.37 151.603 104.082V104.58H145.717V103.565H150.41C150.41 103.134 150.324 102.75 150.151 102.412C149.982 102.074 149.741 101.807 149.426 101.612C149.114 101.416 148.746 101.318 148.322 101.318C147.855 101.318 147.45 101.434 147.109 101.666C146.771 101.895 146.511 102.193 146.328 102.561C146.146 102.929 146.055 103.323 146.055 103.744V104.42C146.055 104.997 146.154 105.486 146.353 105.887C146.555 106.285 146.835 106.588 147.193 106.797C147.551 107.002 147.967 107.105 148.441 107.105C148.75 107.105 149.028 107.062 149.276 106.976C149.528 106.886 149.745 106.754 149.928 106.578C150.11 106.399 150.251 106.177 150.35 105.912L151.484 106.23C151.365 106.615 151.164 106.953 150.882 107.244C150.601 107.533 150.253 107.758 149.838 107.92C149.424 108.08 148.958 108.159 148.441 108.159ZM156.45 108.159C155.714 108.159 155.079 107.997 154.546 107.672C154.015 107.344 153.606 106.886 153.318 106.3C153.033 105.71 152.89 105.024 152.89 104.241C152.89 103.459 153.033 102.77 153.318 102.173C153.606 101.573 154.007 101.106 154.521 100.771C155.038 100.433 155.641 100.264 156.33 100.264C156.728 100.264 157.121 100.33 157.509 100.463C157.896 100.596 158.249 100.811 158.568 101.109C158.886 101.404 159.139 101.795 159.328 102.283C159.517 102.77 159.612 103.37 159.612 104.082V104.58H153.725V103.565H158.418C158.418 103.134 158.332 102.75 158.16 102.412C157.991 102.074 157.749 101.807 157.434 101.612C157.123 101.416 156.755 101.318 156.33 101.318C155.863 101.318 155.459 101.434 155.117 101.666C154.779 101.895 154.519 102.193 154.337 102.561C154.154 102.929 154.063 103.323 154.063 103.744V104.42C154.063 104.997 154.163 105.486 154.362 105.887C154.564 106.285 154.844 106.588 155.202 106.797C155.56 107.002 155.976 107.105 156.45 107.105C156.758 107.105 157.036 107.062 157.285 106.976C157.537 106.886 157.754 106.754 157.936 106.578C158.119 106.399 158.259 106.177 158.359 105.912L159.492 106.23C159.373 106.615 159.172 106.953 158.891 107.244C158.609 107.533 158.261 107.758 157.847 107.92C157.432 108.08 156.967 108.159 156.45 108.159ZM166.784 108L164.457 100.364H165.69L167.341 106.21H167.42L169.051 100.364H170.304L171.915 106.19H171.994L173.645 100.364H174.878L172.551 108H171.398L169.727 102.134H169.608L167.937 108H166.784ZM177.462 103.406V108H176.289V97.8182H177.462V101.557H177.562C177.741 101.162 178.009 100.849 178.367 100.617C178.728 100.382 179.209 100.264 179.809 100.264C180.329 100.264 180.785 100.369 181.176 100.577C181.567 100.783 181.87 101.099 182.086 101.527C182.305 101.951 182.414 102.491 182.414 103.148V108H181.241V103.227C181.241 102.621 181.083 102.152 180.768 101.82C180.457 101.486 180.024 101.318 179.471 101.318C179.086 101.318 178.742 101.399 178.437 101.562C178.135 101.724 177.896 101.961 177.721 102.273C177.548 102.584 177.462 102.962 177.462 103.406ZM187.622 108.159C186.886 108.159 186.252 107.997 185.718 107.672C185.188 107.344 184.778 106.886 184.49 106.3C184.205 105.71 184.062 105.024 184.062 104.241C184.062 103.459 184.205 102.77 184.49 102.173C184.778 101.573 185.179 101.106 185.693 100.771C186.21 100.433 186.813 100.264 187.503 100.264C187.901 100.264 188.293 100.33 188.681 100.463C189.069 100.596 189.422 100.811 189.74 101.109C190.058 101.404 190.312 101.795 190.501 102.283C190.69 102.77 190.784 103.37 190.784 104.082V104.58H184.898V103.565H189.591C189.591 103.134 189.505 102.75 189.332 102.412C189.163 102.074 188.921 101.807 188.607 101.612C188.295 101.416 187.927 101.318 187.503 101.318C187.035 101.318 186.631 101.434 186.29 101.666C185.952 101.895 185.691 102.193 185.509 102.561C185.327 102.929 185.236 103.323 185.236 103.744V104.42C185.236 104.997 185.335 105.486 185.534 105.887C185.736 106.285 186.016 106.588 186.374 106.797C186.732 107.002 187.148 107.105 187.622 107.105C187.93 107.105 188.209 107.062 188.457 106.976C188.709 106.886 188.926 106.754 189.109 106.578C189.291 106.399 189.432 106.177 189.531 105.912L190.665 106.23C190.545 106.615 190.345 106.953 190.063 107.244C189.781 107.533 189.433 107.758 189.019 107.92C188.605 108.08 188.139 108.159 187.622 108.159ZM193.602 103.406V108H192.429V100.364H193.562V101.557H193.662C193.841 101.169 194.113 100.857 194.477 100.622C194.842 100.384 195.312 100.264 195.889 100.264C196.406 100.264 196.859 100.37 197.246 100.582C197.634 100.791 197.936 101.109 198.151 101.537C198.367 101.961 198.474 102.498 198.474 103.148V108H197.301V103.227C197.301 102.627 197.145 102.16 196.834 101.825C196.522 101.487 196.095 101.318 195.551 101.318C195.176 101.318 194.842 101.399 194.547 101.562C194.255 101.724 194.025 101.961 193.856 102.273C193.687 102.584 193.602 102.962 193.602 103.406ZM207.597 100.364V101.358H203.639V100.364H207.597ZM204.793 98.5341H205.966V105.812C205.966 106.144 206.014 106.393 206.11 106.558C206.21 106.721 206.336 106.83 206.488 106.886C206.644 106.939 206.808 106.966 206.98 106.966C207.11 106.966 207.216 106.959 207.299 106.946C207.381 106.929 207.448 106.916 207.497 106.906L207.736 107.96C207.656 107.99 207.545 108.02 207.403 108.05C207.26 108.083 207.08 108.099 206.861 108.099C206.53 108.099 206.205 108.028 205.887 107.886C205.572 107.743 205.31 107.526 205.101 107.234C204.896 106.943 204.793 106.575 204.793 106.131V98.5341ZM210.559 103.406V108H209.386V97.8182H210.559V101.557H210.659C210.838 101.162 211.106 100.849 211.464 100.617C211.825 100.382 212.306 100.264 212.906 100.264C213.426 100.264 213.882 100.369 214.273 100.577C214.664 100.783 214.967 101.099 215.183 101.527C215.401 101.951 215.511 102.491 215.511 103.148V108H214.338V103.227C214.338 102.621 214.18 102.152 213.865 101.82C213.554 101.486 213.121 101.318 212.568 101.318C212.183 101.318 211.838 101.399 211.534 101.562C211.232 101.724 210.993 101.961 210.818 102.273C210.645 102.584 210.559 102.962 210.559 103.406ZM220.719 108.159C219.983 108.159 219.349 107.997 218.815 107.672C218.285 107.344 217.875 106.886 217.587 106.3C217.302 105.71 217.159 105.024 217.159 104.241C217.159 103.459 217.302 102.77 217.587 102.173C217.875 101.573 218.276 101.106 218.79 100.771C219.307 100.433 219.91 100.264 220.6 100.264C220.997 100.264 221.39 100.33 221.778 100.463C222.166 100.596 222.519 100.811 222.837 101.109C223.155 101.404 223.409 101.795 223.598 102.283C223.786 102.77 223.881 103.37 223.881 104.082V104.58H217.995V103.565H222.688C222.688 103.134 222.602 102.75 222.429 102.412C222.26 102.074 222.018 101.807 221.703 101.612C221.392 101.416 221.024 101.318 220.6 101.318C220.132 101.318 219.728 101.434 219.387 101.666C219.049 101.895 218.788 102.193 218.606 102.561C218.424 102.929 218.333 103.323 218.333 103.744V104.42C218.333 104.997 218.432 105.486 218.631 105.887C218.833 106.285 219.113 106.588 219.471 106.797C219.829 107.002 220.245 107.105 220.719 107.105C221.027 107.105 221.306 107.062 221.554 106.976C221.806 106.886 222.023 106.754 222.206 106.578C222.388 106.399 222.529 106.177 222.628 105.912L223.762 106.23C223.642 106.615 223.442 106.953 223.16 107.244C222.878 107.533 222.53 107.758 222.116 107.92C221.702 108.08 221.236 108.159 220.719 108.159ZM226.049 110.864C225.85 110.864 225.673 110.847 225.517 110.814C225.361 110.784 225.254 110.754 225.194 110.724L225.492 109.69C225.777 109.763 226.029 109.79 226.248 109.77C226.467 109.75 226.661 109.652 226.83 109.477C227.002 109.304 227.159 109.024 227.302 108.636L227.521 108.04L224.697 100.364H225.969L228.077 106.449H228.157L230.265 100.364H231.538L228.296 109.114C228.15 109.508 227.97 109.835 227.754 110.093C227.539 110.355 227.289 110.549 227.004 110.675C226.722 110.801 226.404 110.864 226.049 110.864ZM240.144 100.364V101.358H236.028V100.364H240.144ZM237.261 108V99.3097C237.261 98.8722 237.364 98.5076 237.569 98.2159C237.775 97.9242 238.041 97.7055 238.369 97.5597C238.698 97.4138 239.044 97.3409 239.409 97.3409C239.697 97.3409 239.932 97.3641 240.115 97.4105C240.297 97.4569 240.433 97.5 240.522 97.5398L240.184 98.554C240.124 98.5341 240.042 98.5092 239.936 98.4794C239.833 98.4496 239.697 98.4347 239.528 98.4347C239.14 98.4347 238.86 98.5324 238.688 98.728C238.519 98.9235 238.434 99.2102 238.434 99.5881V108H237.261ZM241.649 108V100.364H242.822V108H241.649ZM242.245 99.0909C242.017 99.0909 241.819 99.013 241.654 98.8572C241.491 98.7015 241.41 98.5142 241.41 98.2955C241.41 98.0767 241.491 97.8894 241.654 97.7337C241.819 97.5779 242.017 97.5 242.245 97.5C242.474 97.5 242.67 97.5779 242.832 97.7337C242.998 97.8894 243.081 98.0767 243.081 98.2955C243.081 98.5142 242.998 98.7015 242.832 98.8572C242.67 99.013 242.474 99.0909 242.245 99.0909ZM244.831 108V100.364H245.964V101.517H246.044C246.183 101.139 246.435 100.833 246.8 100.597C247.164 100.362 247.575 100.244 248.033 100.244C248.119 100.244 248.227 100.246 248.356 100.249C248.485 100.253 248.583 100.258 248.649 100.264V101.457C248.609 101.447 248.518 101.433 248.376 101.413C248.237 101.389 248.089 101.378 247.933 101.378C247.562 101.378 247.231 101.456 246.939 101.612C246.651 101.764 246.422 101.976 246.253 102.248C246.087 102.516 246.004 102.823 246.004 103.168V108H244.831ZM255.309 102.074L254.255 102.372C254.189 102.196 254.091 102.026 253.962 101.86C253.836 101.691 253.663 101.552 253.445 101.442C253.226 101.333 252.946 101.278 252.605 101.278C252.137 101.278 251.748 101.386 251.436 101.602C251.128 101.814 250.974 102.084 250.974 102.412C250.974 102.704 251.08 102.934 251.292 103.103C251.504 103.272 251.836 103.413 252.286 103.526L253.42 103.804C254.103 103.97 254.611 104.223 254.946 104.565C255.281 104.903 255.448 105.339 255.448 105.872C255.448 106.31 255.322 106.701 255.07 107.045C254.822 107.39 254.474 107.662 254.026 107.861C253.579 108.06 253.059 108.159 252.465 108.159C251.686 108.159 251.042 107.99 250.531 107.652C250.021 107.314 249.698 106.82 249.562 106.17L250.676 105.892C250.782 106.303 250.982 106.611 251.277 106.817C251.575 107.022 251.965 107.125 252.445 107.125C252.992 107.125 253.426 107.009 253.748 106.777C254.073 106.542 254.235 106.26 254.235 105.932C254.235 105.667 254.142 105.445 253.957 105.266C253.771 105.083 253.486 104.947 253.102 104.858L251.829 104.56C251.13 104.394 250.616 104.137 250.288 103.789C249.963 103.438 249.801 102.999 249.801 102.472C249.801 102.041 249.922 101.66 250.163 101.328C250.409 100.997 250.742 100.737 251.163 100.548C251.587 100.359 252.068 100.264 252.605 100.264C253.36 100.264 253.953 100.43 254.384 100.761C254.819 101.093 255.127 101.53 255.309 102.074ZM260.395 100.364V101.358H256.438V100.364H260.395ZM257.591 98.5341H258.765V105.812C258.765 106.144 258.813 106.393 258.909 106.558C259.008 106.721 259.134 106.83 259.287 106.886C259.443 106.939 259.607 106.966 259.779 106.966C259.908 106.966 260.014 106.959 260.097 106.946C260.18 106.929 260.246 106.916 260.296 106.906L260.535 107.96C260.455 107.99 260.344 108.02 260.202 108.05C260.059 108.083 259.878 108.099 259.66 108.099C259.328 108.099 259.003 108.028 258.685 107.886C258.37 107.743 258.109 107.526 257.9 107.234C257.694 106.943 257.591 106.575 257.591 106.131V98.5341ZM268.065 108.179C267.581 108.179 267.142 108.088 266.748 107.906C266.353 107.72 266.04 107.453 265.808 107.105C265.576 106.754 265.46 106.33 265.46 105.832C265.46 105.395 265.546 105.04 265.718 104.768C265.891 104.493 266.121 104.278 266.409 104.122C266.698 103.966 267.016 103.85 267.364 103.774C267.715 103.695 268.068 103.632 268.423 103.585C268.887 103.526 269.263 103.481 269.552 103.451C269.843 103.418 270.055 103.363 270.188 103.287C270.324 103.211 270.392 103.078 270.392 102.889V102.849C270.392 102.359 270.257 101.978 269.989 101.706C269.724 101.434 269.321 101.298 268.781 101.298C268.221 101.298 267.782 101.421 267.463 101.666C267.145 101.911 266.922 102.173 266.792 102.452L265.679 102.054C265.878 101.59 266.143 101.229 266.474 100.97C266.809 100.708 267.173 100.526 267.568 100.423C267.966 100.317 268.357 100.264 268.741 100.264C268.986 100.264 269.268 100.294 269.586 100.354C269.908 100.41 270.218 100.528 270.516 100.707C270.818 100.886 271.068 101.156 271.267 101.517C271.466 101.878 271.565 102.362 271.565 102.969V108H270.392V106.966H270.332C270.253 107.132 270.12 107.309 269.934 107.498C269.749 107.687 269.502 107.848 269.194 107.98C268.885 108.113 268.509 108.179 268.065 108.179ZM268.244 107.125C268.708 107.125 269.099 107.034 269.417 106.852C269.739 106.669 269.981 106.434 270.143 106.146C270.309 105.857 270.392 105.554 270.392 105.236V104.162C270.342 104.222 270.233 104.276 270.064 104.326C269.898 104.372 269.706 104.414 269.487 104.45C269.271 104.483 269.061 104.513 268.855 104.54C268.653 104.563 268.489 104.583 268.363 104.599C268.058 104.639 267.773 104.704 267.508 104.793C267.246 104.879 267.034 105.01 266.872 105.186C266.713 105.358 266.633 105.594 266.633 105.892C266.633 106.3 266.784 106.608 267.086 106.817C267.391 107.022 267.777 107.125 268.244 107.125ZM273.567 108V100.364H274.7V101.517H274.78C274.919 101.139 275.171 100.833 275.535 100.597C275.9 100.362 276.311 100.244 276.768 100.244C276.854 100.244 276.962 100.246 277.091 100.249C277.221 100.253 277.318 100.258 277.385 100.264V101.457C277.345 101.447 277.254 101.433 277.111 101.413C276.972 101.389 276.825 101.378 276.669 101.378C276.298 101.378 275.966 101.456 275.674 101.612C275.386 101.764 275.157 101.976 274.988 102.248C274.823 102.516 274.74 102.823 274.74 103.168V108H273.567ZM278.636 108V100.364H279.769V101.517H279.849C279.988 101.139 280.24 100.833 280.604 100.597C280.969 100.362 281.38 100.244 281.837 100.244C281.923 100.244 282.031 100.246 282.16 100.249C282.29 100.253 282.387 100.258 282.454 100.264V101.457C282.414 101.447 282.323 101.433 282.18 101.413C282.041 101.389 281.894 101.378 281.738 101.378C281.367 101.378 281.035 101.456 280.743 101.612C280.455 101.764 280.226 101.976 280.057 102.248C279.892 102.516 279.809 102.823 279.809 103.168V108H278.636ZM283.704 108V100.364H284.878V108H283.704ZM284.301 99.0909C284.072 99.0909 283.875 99.013 283.709 98.8572C283.547 98.7015 283.466 98.5142 283.466 98.2955C283.466 98.0767 283.547 97.8894 283.709 97.7337C283.875 97.5779 284.072 97.5 284.301 97.5C284.53 97.5 284.725 97.5779 284.888 97.7337C285.053 97.8894 285.136 98.0767 285.136 98.2955C285.136 98.5142 285.053 98.7015 284.888 98.8572C284.725 99.013 284.53 99.0909 284.301 99.0909ZM293.131 100.364L290.307 108H289.114L286.29 100.364H287.563L289.671 106.449H289.75L291.858 100.364H293.131ZM297.468 108.159C296.732 108.159 296.097 107.997 295.564 107.672C295.034 107.344 294.624 106.886 294.336 106.3C294.051 105.71 293.908 105.024 293.908 104.241C293.908 103.459 294.051 102.77 294.336 102.173C294.624 101.573 295.025 101.106 295.539 100.771C296.056 100.433 296.659 100.264 297.349 100.264C297.746 100.264 298.139 100.33 298.527 100.463C298.915 100.596 299.268 100.811 299.586 101.109C299.904 101.404 300.158 101.795 300.347 102.283C300.535 102.77 300.63 103.37 300.63 104.082V104.58H294.744V103.565H299.437C299.437 103.134 299.351 102.75 299.178 102.412C299.009 102.074 298.767 101.807 298.452 101.612C298.141 101.416 297.773 101.318 297.349 101.318C296.881 101.318 296.477 101.434 296.136 101.666C295.798 101.895 295.537 102.193 295.355 102.561C295.173 102.929 295.082 103.323 295.082 103.744V104.42C295.082 104.997 295.181 105.486 295.38 105.887C295.582 106.285 295.862 106.588 296.22 106.797C296.578 107.002 296.994 107.105 297.468 107.105C297.776 107.105 298.055 107.062 298.303 106.976C298.555 106.886 298.772 106.754 298.955 106.578C299.137 106.399 299.278 106.177 299.377 105.912L300.511 106.23C300.391 106.615 300.191 106.953 299.909 107.244C299.627 107.533 299.279 107.758 298.865 107.92C298.451 108.08 297.985 108.159 297.468 108.159ZM308.319 108.179C307.835 108.179 307.396 108.088 307.002 107.906C306.607 107.72 306.294 107.453 306.062 107.105C305.83 106.754 305.714 106.33 305.714 105.832C305.714 105.395 305.8 105.04 305.973 104.768C306.145 104.493 306.375 104.278 306.664 104.122C306.952 103.966 307.27 103.85 307.618 103.774C307.97 103.695 308.323 103.632 308.677 103.585C309.141 103.526 309.518 103.481 309.806 103.451C310.098 103.418 310.31 103.363 310.442 103.287C310.578 103.211 310.646 103.078 310.646 102.889V102.849C310.646 102.359 310.512 101.978 310.243 101.706C309.978 101.434 309.576 101.298 309.035 101.298C308.475 101.298 308.036 101.421 307.718 101.666C307.4 101.911 307.176 102.173 307.047 102.452L305.933 102.054C306.132 101.59 306.397 101.229 306.728 100.97C307.063 100.708 307.428 100.526 307.822 100.423C308.22 100.317 308.611 100.264 308.996 100.264C309.241 100.264 309.522 100.294 309.841 100.354C310.162 100.41 310.472 100.528 310.77 100.707C311.072 100.886 311.322 101.156 311.521 101.517C311.72 101.878 311.819 102.362 311.819 102.969V108H310.646V106.966H310.586C310.507 107.132 310.374 107.309 310.189 107.498C310.003 107.687 309.756 107.848 309.448 107.98C309.14 108.113 308.764 108.179 308.319 108.179ZM308.498 107.125C308.962 107.125 309.353 107.034 309.672 106.852C309.993 106.669 310.235 106.434 310.397 106.146C310.563 105.857 310.646 105.554 310.646 105.236V104.162C310.596 104.222 310.487 104.276 310.318 104.326C310.152 104.372 309.96 104.414 309.741 104.45C309.526 104.483 309.315 104.513 309.11 104.54C308.908 104.563 308.744 104.583 308.618 104.599C308.313 104.639 308.028 104.704 307.763 104.793C307.501 104.879 307.289 105.01 307.126 105.186C306.967 105.358 306.888 105.594 306.888 105.892C306.888 106.3 307.038 106.608 307.34 106.817C307.645 107.022 308.031 107.125 308.498 107.125ZM317.142 100.364V101.358H313.185V100.364H317.142ZM314.338 98.5341H315.511V105.812C315.511 106.144 315.559 106.393 315.655 106.558C315.755 106.721 315.881 106.83 316.033 106.886C316.189 106.939 316.353 106.966 316.525 106.966C316.655 106.966 316.761 106.959 316.844 106.946C316.926 106.929 316.993 106.916 317.042 106.906L317.281 107.96C317.202 107.99 317.091 108.02 316.948 108.05C316.806 108.083 316.625 108.099 316.406 108.099C316.075 108.099 315.75 108.028 315.432 107.886C315.117 107.743 314.855 107.526 314.646 107.234C314.441 106.943 314.338 106.575 314.338 106.131V98.5341ZM325.885 100.364V101.358H321.928V100.364H325.885ZM323.081 98.5341H324.255V105.812C324.255 106.144 324.303 106.393 324.399 106.558C324.498 106.721 324.624 106.83 324.777 106.886C324.932 106.939 325.097 106.966 325.269 106.966C325.398 106.966 325.504 106.959 325.587 106.946C325.67 106.929 325.736 106.916 325.786 106.906L326.025 107.96C325.945 107.99 325.834 108.02 325.691 108.05C325.549 108.083 325.368 108.099 325.15 108.099C324.818 108.099 324.493 108.028 324.175 107.886C323.86 107.743 323.598 107.526 323.39 107.234C323.184 106.943 323.081 106.575 323.081 106.131V98.5341ZM328.848 103.406V108H327.674V97.8182H328.848V101.557H328.947C329.126 101.162 329.394 100.849 329.752 100.617C330.114 100.382 330.594 100.264 331.194 100.264C331.715 100.264 332.17 100.369 332.561 100.577C332.953 100.783 333.256 101.099 333.471 101.527C333.69 101.951 333.799 102.491 333.799 103.148V108H332.626V103.227C332.626 102.621 332.469 102.152 332.154 101.82C331.842 101.486 331.41 101.318 330.856 101.318C330.472 101.318 330.127 101.399 329.822 101.562C329.52 101.724 329.282 101.961 329.106 102.273C328.934 102.584 328.848 102.962 328.848 103.406ZM339.008 108.159C338.272 108.159 337.637 107.997 337.103 107.672C336.573 107.344 336.164 106.886 335.875 106.3C335.59 105.71 335.448 105.024 335.448 104.241C335.448 103.459 335.59 102.77 335.875 102.173C336.164 101.573 336.565 101.106 337.079 100.771C337.596 100.433 338.199 100.264 338.888 100.264C339.286 100.264 339.679 100.33 340.066 100.463C340.454 100.596 340.807 100.811 341.125 101.109C341.444 101.404 341.697 101.795 341.886 102.283C342.075 102.77 342.169 103.37 342.169 104.082V104.58H336.283V103.565H340.976C340.976 103.134 340.89 102.75 340.718 102.412C340.549 102.074 340.307 101.807 339.992 101.612C339.68 101.416 339.312 101.318 338.888 101.318C338.421 101.318 338.017 101.434 337.675 101.666C337.337 101.895 337.077 102.193 336.895 102.561C336.712 102.929 336.621 103.323 336.621 103.744V104.42C336.621 104.997 336.721 105.486 336.919 105.887C337.122 106.285 337.402 106.588 337.76 106.797C338.118 107.002 338.534 107.105 339.008 107.105C339.316 107.105 339.594 107.062 339.843 106.976C340.095 106.886 340.312 106.754 340.494 106.578C340.676 106.399 340.817 106.177 340.917 105.912L342.05 106.23C341.931 106.615 341.73 106.953 341.449 107.244C341.167 107.533 340.819 107.758 340.405 107.92C339.99 108.08 339.525 108.159 339.008 108.159ZM348.785 103.406V108H347.612V97.8182H348.785V101.557H348.884C349.063 101.162 349.332 100.849 349.69 100.617C350.051 100.382 350.532 100.264 351.132 100.264C351.652 100.264 352.108 100.369 352.499 100.577C352.89 100.783 353.193 101.099 353.409 101.527C353.627 101.951 353.737 102.491 353.737 103.148V108H352.563V103.227C352.563 102.621 352.406 102.152 352.091 101.82C351.78 101.486 351.347 101.318 350.794 101.318C350.409 101.318 350.064 101.399 349.759 101.562C349.458 101.724 349.219 101.961 349.044 102.273C348.871 102.584 348.785 102.962 348.785 103.406ZM358.945 108.159C358.209 108.159 357.574 107.997 357.041 107.672C356.511 107.344 356.101 106.886 355.813 106.3C355.528 105.71 355.385 105.024 355.385 104.241C355.385 103.459 355.528 102.77 355.813 102.173C356.101 101.573 356.502 101.106 357.016 100.771C357.533 100.433 358.136 100.264 358.826 100.264C359.223 100.264 359.616 100.33 360.004 100.463C360.392 100.596 360.745 100.811 361.063 101.109C361.381 101.404 361.635 101.795 361.823 102.283C362.012 102.77 362.107 103.37 362.107 104.082V104.58H356.221V103.565H360.914C360.914 103.134 360.828 102.75 360.655 102.412C360.486 102.074 360.244 101.807 359.929 101.612C359.618 101.416 359.25 101.318 358.826 101.318C358.358 101.318 357.954 101.434 357.613 101.666C357.274 101.895 357.014 102.193 356.832 102.561C356.65 102.929 356.559 103.323 356.559 103.744V104.42C356.559 104.997 356.658 105.486 356.857 105.887C357.059 106.285 357.339 106.588 357.697 106.797C358.055 107.002 358.471 107.105 358.945 107.105C359.253 107.105 359.532 107.062 359.78 106.976C360.032 106.886 360.249 106.754 360.431 106.578C360.614 106.399 360.755 106.177 360.854 105.912L361.988 106.23C361.868 106.615 361.668 106.953 361.386 107.244C361.104 107.533 360.756 107.758 360.342 107.92C359.928 108.08 359.462 108.159 358.945 108.159ZM364.925 97.8182V108H363.752V97.8182H364.925ZM366.934 110.864V100.364H368.067V101.577H368.207C368.293 101.444 368.412 101.275 368.565 101.07C368.72 100.861 368.942 100.675 369.231 100.513C369.522 100.347 369.917 100.264 370.414 100.264C371.057 100.264 371.624 100.425 372.114 100.746C372.605 101.068 372.988 101.524 373.263 102.114C373.538 102.704 373.675 103.4 373.675 104.202C373.675 105.01 373.538 105.711 373.263 106.305C372.988 106.895 372.607 107.352 372.119 107.677C371.632 107.998 371.07 108.159 370.434 108.159C369.943 108.159 369.551 108.078 369.256 107.915C368.961 107.75 368.734 107.562 368.575 107.354C368.415 107.142 368.293 106.966 368.207 106.827H368.107V110.864H366.934ZM368.087 104.182C368.087 104.759 368.172 105.267 368.341 105.708C368.51 106.146 368.757 106.489 369.082 106.737C369.406 106.982 369.804 107.105 370.275 107.105C370.765 107.105 371.175 106.976 371.503 106.717C371.834 106.455 372.083 106.104 372.249 105.663C372.418 105.219 372.502 104.725 372.502 104.182C372.502 103.645 372.419 103.161 372.254 102.73C372.091 102.296 371.844 101.953 371.513 101.701C371.185 101.446 370.772 101.318 370.275 101.318C369.798 101.318 369.397 101.439 369.072 101.681C368.747 101.92 368.502 102.254 368.336 102.685C368.17 103.113 368.087 103.612 368.087 104.182ZM378.209 108.159C377.572 108.159 377.011 107.998 376.523 107.677C376.036 107.352 375.655 106.895 375.38 106.305C375.105 105.711 374.967 105.01 374.967 104.202C374.967 103.4 375.105 102.704 375.38 102.114C375.655 101.524 376.038 101.068 376.528 100.746C377.019 100.425 377.586 100.264 378.229 100.264C378.726 100.264 379.119 100.347 379.407 100.513C379.699 100.675 379.921 100.861 380.073 101.07C380.229 101.275 380.35 101.444 380.436 101.577H380.535V97.8182H381.709V108H380.575V106.827H380.436C380.35 106.966 380.227 107.142 380.068 107.354C379.909 107.562 379.682 107.75 379.387 107.915C379.092 108.078 378.699 108.159 378.209 108.159ZM378.368 107.105C378.838 107.105 379.236 106.982 379.561 106.737C379.886 106.489 380.133 106.146 380.302 105.708C380.471 105.267 380.555 104.759 380.555 104.182C380.555 103.612 380.472 103.113 380.307 102.685C380.141 102.254 379.896 101.92 379.571 101.681C379.246 101.439 378.845 101.318 378.368 101.318C377.871 101.318 377.456 101.446 377.125 101.701C376.797 101.953 376.55 102.296 376.384 102.73C376.222 103.161 376.141 103.645 376.141 104.182C376.141 104.725 376.223 105.219 376.389 105.663C376.558 106.104 376.807 106.455 377.135 106.717C377.466 106.976 377.877 107.105 378.368 107.105ZM387.082 108.159C386.346 108.159 385.712 107.997 385.178 107.672C384.648 107.344 384.238 106.886 383.95 106.3C383.665 105.71 383.523 105.024 383.523 104.241C383.523 103.459 383.665 102.77 383.95 102.173C384.238 101.573 384.64 101.106 385.153 100.771C385.67 100.433 386.273 100.264 386.963 100.264C387.361 100.264 387.753 100.33 388.141 100.463C388.529 100.596 388.882 100.811 389.2 101.109C389.518 101.404 389.772 101.795 389.961 102.283C390.15 102.77 390.244 103.37 390.244 104.082V104.58H384.358V103.565H389.051C389.051 103.134 388.965 102.75 388.792 102.412C388.623 102.074 388.381 101.807 388.067 101.612C387.755 101.416 387.387 101.318 386.963 101.318C386.496 101.318 386.091 101.434 385.75 101.666C385.412 101.895 385.152 102.193 384.969 102.561C384.787 102.929 384.696 103.323 384.696 103.744V104.42C384.696 104.997 384.795 105.486 384.994 105.887C385.196 106.285 385.476 106.588 385.834 106.797C386.192 107.002 386.608 107.105 387.082 107.105C387.39 107.105 387.669 107.062 387.917 106.976C388.169 106.886 388.386 106.754 388.569 106.578C388.751 106.399 388.892 106.177 388.991 105.912L390.125 106.23C390.006 106.615 389.805 106.953 389.523 107.244C389.242 107.533 388.894 107.758 388.479 107.92C388.065 108.08 387.599 108.159 387.082 108.159ZM397.298 102.074L396.244 102.372C396.178 102.196 396.08 102.026 395.951 101.86C395.825 101.691 395.652 101.552 395.434 101.442C395.215 101.333 394.935 101.278 394.593 101.278C394.126 101.278 393.737 101.386 393.425 101.602C393.117 101.814 392.963 102.084 392.963 102.412C392.963 102.704 393.069 102.934 393.281 103.103C393.493 103.272 393.825 103.413 394.275 103.526L395.409 103.804C396.092 103.97 396.6 104.223 396.935 104.565C397.27 104.903 397.437 105.339 397.437 105.872C397.437 106.31 397.311 106.701 397.059 107.045C396.811 107.39 396.463 107.662 396.015 107.861C395.568 108.06 395.048 108.159 394.454 108.159C393.675 108.159 393.031 107.99 392.52 107.652C392.01 107.314 391.687 106.82 391.551 106.17L392.664 105.892C392.771 106.303 392.971 106.611 393.266 106.817C393.564 107.022 393.954 107.125 394.434 107.125C394.981 107.125 395.415 107.009 395.737 106.777C396.062 106.542 396.224 106.26 396.224 105.932C396.224 105.667 396.131 105.445 395.946 105.266C395.76 105.083 395.475 104.947 395.091 104.858L393.818 104.56C393.119 104.394 392.605 104.137 392.277 103.789C391.952 103.438 391.789 102.999 391.789 102.472C391.789 102.041 391.91 101.66 392.152 101.328C392.398 100.997 392.731 100.737 393.152 100.548C393.576 100.359 394.057 100.264 394.593 100.264C395.349 100.264 395.942 100.43 396.373 100.761C396.807 101.093 397.116 101.53 397.298 102.074ZM400.157 105.216L400.137 103.764H400.376L403.717 100.364H405.169L401.609 103.963H401.509L400.157 105.216ZM399.063 108V97.8182H400.237V108H399.063ZM403.916 108L400.933 104.222L401.768 103.406L405.407 108H403.916Z" fill="white"/>
<path d="M574 87.5L580 93.5L586 87.5" stroke="white" stroke-width="2" stroke-linecap="round" stroke-linejoin="round"/>
</svg>
