<svg width="271" height="900" viewBox="0 0 271 900" fill="none" xmlns="http://www.w3.org/2000/svg">
<rect width="271" height="900" fill="#123245"/>
<path d="M36.3833 871.297C35.8427 871.448 35.434 871.829 35.232 872.084C35.1466 872.194 35.1085 872.373 35.0423 872.496C35.013 872.55 34.6197 873.31 34.2657 873.537C33.8749 873.786 33.522 873.839 33.3329 874.23C33.2568 874.385 33.225 874.557 33.2491 874.721C33.2844 874.971 33.4487 875.208 33.7851 875.354C34.3446 875.598 36.3501 875.375 37.4683 873.993C37.7921 873.658 37.9355 873.181 37.9939 872.743C38.1148 871.831 37.2712 871.049 36.3833 871.297Z" fill="#32ABF2"/>
<path d="M35.0591 871.314C35.0755 871.29 35.0919 871.266 35.1089 871.236C35.1349 871.191 35.1617 871.139 35.1902 871.084C34.7824 870.825 34.1952 870.362 34.1695 870.342L34.1282 870.31L34.1298 870.308C34.0915 870.277 34.0532 870.248 34.0146 870.215C33.9286 870.236 33.8459 870.26 33.7685 870.289C33.2826 870.471 32.9558 870.797 32.724 871.047C32.6465 871.13 32.58 871.204 32.5192 871.263C32.1864 871.585 31.8212 871.767 31.6638 871.837C31.6318 871.857 31.5992 871.877 31.5661 871.898C30.9855 872.252 31.0162 872.817 31.08 873.033C31.1437 873.25 31.3879 873.833 32.2074 873.819C32.8422 873.808 33.5331 873.47 33.8126 873.319C33.8126 873.319 34.995 872.56 35.4352 871.65C35.436 871.649 35.2857 871.519 35.0591 871.314Z" fill="#32ABF2"/>
<path d="M33.2774 869.305C33.1274 869.102 32.995 868.904 32.8994 868.754C32.8611 868.693 32.8288 868.641 32.8034 868.598C32.6909 868.627 32.5507 868.675 32.3974 868.753C32.029 868.942 31.6523 869.045 31.4284 868.958C31.2048 868.871 30.7127 868.651 30.3631 868.901C30.0136 869.151 29.9005 869.608 30.0938 869.947C30.2599 870.238 30.6905 870.696 31.1769 870.883C31.1769 870.883 32.294 871.418 33.5785 870.303C34.6852 869.344 33.7655 869.294 33.2774 869.305Z" fill="#32ABF2"/>
<path d="M38.0003 873.022C40.975 873.022 43.3864 870.611 43.3864 867.636C43.3864 864.661 40.975 862.25 38.0003 862.25C35.0257 862.25 32.6143 864.661 32.6143 867.636C32.6143 870.611 35.0257 873.022 38.0003 873.022Z" fill="#32ABF2"/>
<path d="M39.6163 871.297C40.1569 871.448 40.5656 871.829 40.7676 872.084C40.853 872.194 40.891 872.373 40.9573 872.496C40.9866 872.55 41.3799 873.31 41.7338 873.537C42.1244 873.786 42.4775 873.839 42.6667 874.23C42.7428 874.385 42.7745 874.557 42.7504 874.721C42.7151 874.971 42.5509 875.208 42.2145 875.354C41.655 875.598 39.6494 875.375 38.5313 873.993C38.2074 873.658 38.064 873.181 38.0057 872.743C37.885 871.831 38.7286 871.049 39.6163 871.297Z" fill="#32ABF2"/>
<path d="M40.9411 871.314C40.9247 871.29 40.9082 871.266 40.8913 871.236C40.8653 871.191 40.8385 871.139 40.81 871.084C41.2178 870.825 41.805 870.362 41.8307 870.342L41.872 870.31L41.8704 870.308C41.9087 870.277 41.947 870.248 41.9854 870.215C42.0713 870.236 42.154 870.26 42.2314 870.289C42.7173 870.471 43.0441 870.797 43.276 871.047C43.3534 871.13 43.4199 871.204 43.4807 871.263C43.8136 871.585 44.1787 871.767 44.3361 871.837C44.3681 871.857 44.4007 871.877 44.4338 871.898C45.0144 872.252 44.9837 872.817 44.9199 873.033C44.8562 873.25 44.612 873.833 43.7925 873.819C43.158 873.808 42.4668 873.47 42.1874 873.319C42.1874 873.319 41.0046 872.56 40.5645 871.65C40.5642 871.649 40.7147 871.519 40.9411 871.314Z" fill="#32ABF2"/>
<path d="M42.7223 869.305C42.8723 869.102 43.0048 868.904 43.1003 868.754C43.1386 868.693 43.1709 868.641 43.1964 868.598C43.3089 868.627 43.449 868.675 43.6023 868.753C43.9708 868.942 44.3474 869.045 44.5713 868.958C44.7949 868.871 45.2871 868.651 45.6366 868.901C45.9862 869.151 46.0992 869.608 45.906 869.947C45.7398 870.238 45.3093 870.696 44.8229 870.883C44.8229 870.883 43.7058 871.418 42.4212 870.303C41.3145 869.344 42.2343 869.294 42.7223 869.305Z" fill="#32ABF2"/>
<path d="M36.144 867.986C36.4058 867.986 36.6181 867.716 36.6181 867.383C36.6181 867.05 36.4058 866.78 36.144 866.78C35.8822 866.78 35.6699 867.05 35.6699 867.383C35.6699 867.716 35.8822 867.986 36.144 867.986Z" fill="#34056F"/>
<path d="M36.3335 867.125C36.3335 867.244 36.2374 867.34 36.1189 867.34C36.0004 867.34 35.9043 867.244 35.9043 867.125C35.9043 867.006 36.0004 866.91 36.1189 866.91C36.2374 866.91 36.3335 867.006 36.3335 867.125Z" fill="#F9F9F9"/>
<path d="M39.8559 867.986C40.1178 867.986 40.33 867.716 40.33 867.383C40.33 867.05 40.1178 866.78 39.8559 866.78C39.5941 866.78 39.3818 867.05 39.3818 867.383C39.3818 867.716 39.5941 867.986 39.8559 867.986Z" fill="#34056F"/>
<path d="M40.0464 867.125C40.0464 867.244 39.9503 867.34 39.8318 867.34C39.7133 867.34 39.6172 867.244 39.6172 867.125C39.6172 867.006 39.7133 866.91 39.8318 866.91C39.9503 866.91 40.0464 867.006 40.0464 867.125Z" fill="#F9F9F9"/>
<path d="M38.8717 869.239C38.8265 869.783 38.6434 870.477 38.0002 870.477C37.6827 870.477 37.4774 870.308 37.3457 870.071C37.5056 869.729 37.9287 869.12 38.8717 869.239Z" fill="#EB5A55"/>
<path d="M38.8717 869.239C37.9285 869.12 37.5056 869.729 37.3457 870.071C37.0364 869.519 37.1279 868.598 37.1279 868.598C37.3882 868.71 38.0002 868.687 38.0002 868.687C38.0002 868.687 38.6114 868.71 38.8726 868.598C38.8726 868.598 38.9013 868.888 38.8717 869.239Z" fill="#79292A"/>
<path d="M51.9588 873V864.273H55.0696C55.7486 864.273 56.3111 864.396 56.7571 864.643C57.2031 864.891 57.5369 865.229 57.7585 865.658C57.9801 866.084 58.0909 866.564 58.0909 867.098C58.0909 867.635 57.9787 868.118 57.7543 868.547C57.5327 868.973 57.1974 869.311 56.7486 869.561C56.3026 869.808 55.7415 869.932 55.0653 869.932H52.9261V868.815H54.946C55.375 868.815 55.723 868.741 55.9901 868.594C56.2571 868.443 56.4531 868.239 56.5781 867.98C56.7031 867.722 56.7656 867.428 56.7656 867.098C56.7656 866.768 56.7031 866.476 56.5781 866.22C56.4531 865.964 56.2557 865.764 55.9858 865.619C55.7188 865.474 55.3665 865.402 54.929 865.402H53.2756V873H51.9588ZM62.0874 873.132C61.4738 873.132 60.9382 872.991 60.4809 872.71C60.0235 872.429 59.6684 872.036 59.4155 871.53C59.1627 871.024 59.0363 870.433 59.0363 869.757C59.0363 869.078 59.1627 868.484 59.4155 867.976C59.6684 867.467 60.0235 867.072 60.4809 866.791C60.9382 866.51 61.4738 866.369 62.0874 866.369C62.701 866.369 63.2365 866.51 63.6939 866.791C64.1513 867.072 64.5064 867.467 64.7593 867.976C65.0121 868.484 65.1385 869.078 65.1385 869.757C65.1385 870.433 65.0121 871.024 64.7593 871.53C64.5064 872.036 64.1513 872.429 63.6939 872.71C63.2365 872.991 62.701 873.132 62.0874 873.132ZM62.0916 872.062C62.4894 872.062 62.8189 871.957 63.0803 871.747C63.3416 871.537 63.5348 871.257 63.6598 870.908C63.7877 870.558 63.8516 870.173 63.8516 869.753C63.8516 869.335 63.7877 868.952 63.6598 868.602C63.5348 868.25 63.3416 867.967 63.0803 867.754C62.8189 867.541 62.4894 867.435 62.0916 867.435C61.6911 867.435 61.3587 867.541 61.0945 867.754C60.8331 867.967 60.6385 868.25 60.5107 868.602C60.3857 868.952 60.3232 869.335 60.3232 869.753C60.3232 870.173 60.3857 870.558 60.5107 870.908C60.6385 871.257 60.8331 871.537 61.0945 871.747C61.3587 871.957 61.6911 872.062 62.0916 872.062ZM67.6606 873L65.7344 866.455H67.0512L68.3339 871.261H68.3978L69.6847 866.455H71.0015L72.2799 871.24H72.3438L73.618 866.455H74.9347L73.0128 873H71.7131L70.3836 868.274H70.2856L68.956 873H67.6606ZM78.6457 873.132C78.0008 873.132 77.4454 872.994 76.9795 872.719C76.5164 872.44 76.1585 872.05 75.9056 871.547C75.6556 871.041 75.5306 870.449 75.5306 869.77C75.5306 869.099 75.6556 868.509 75.9056 867.997C76.1585 867.486 76.5107 867.087 76.9624 866.8C77.417 866.513 77.9482 866.369 78.5562 866.369C78.9255 866.369 79.2835 866.43 79.6301 866.553C79.9766 866.675 80.2877 866.866 80.5633 867.128C80.8389 867.389 81.0562 867.729 81.2153 868.146C81.3744 868.561 81.4539 869.065 81.4539 869.659V870.111H76.2508V869.156H80.2053C80.2053 868.821 80.1372 868.524 80.0008 868.266C79.8644 868.004 79.6727 867.798 79.4255 867.648C79.1812 867.497 78.8943 867.422 78.5647 867.422C78.2068 867.422 77.8943 867.51 77.6272 867.686C77.363 867.859 77.1585 868.087 77.0136 868.368C76.8715 868.646 76.8005 868.949 76.8005 869.276V870.021C76.8005 870.459 76.8772 870.831 77.0306 871.138C77.1869 871.445 77.4042 871.679 77.6826 871.841C77.961 872 78.2863 872.08 78.6585 872.08C78.8999 872.08 79.1201 872.045 79.319 871.977C79.5178 871.906 79.6897 871.801 79.8346 871.662C79.9795 871.523 80.0903 871.351 80.167 871.146L81.373 871.364C81.2764 871.719 81.1031 872.03 80.8531 872.297C80.6059 872.561 80.2948 872.767 79.9198 872.915C79.5477 873.06 79.123 873.132 78.6457 873.132ZM82.7476 873V866.455H83.9792V867.494H84.0473C84.1667 867.142 84.3769 866.865 84.678 866.663C84.982 866.459 85.3258 866.357 85.7093 866.357C85.7888 866.357 85.8826 866.359 85.9905 866.365C86.1013 866.371 86.188 866.378 86.2505 866.386V867.605C86.1993 867.591 86.1084 867.575 85.9777 867.558C85.8471 867.538 85.7164 867.528 85.5857 867.528C85.2846 867.528 85.0161 867.592 84.7803 867.72C84.5473 867.845 84.3627 868.02 84.2263 868.244C84.09 868.466 84.0218 868.719 84.0218 869.003V873H82.7476ZM89.8197 873.132C89.1749 873.132 88.6195 872.994 88.1536 872.719C87.6905 872.44 87.3325 872.05 87.0797 871.547C86.8297 871.041 86.7047 870.449 86.7047 869.77C86.7047 869.099 86.8297 868.509 87.0797 867.997C87.3325 867.486 87.6848 867.087 88.1365 866.8C88.5911 866.513 89.1223 866.369 89.7303 866.369C90.0996 866.369 90.4575 866.43 90.8041 866.553C91.1507 866.675 91.4618 866.866 91.7374 867.128C92.0129 867.389 92.2303 867.729 92.3893 868.146C92.5484 868.561 92.628 869.065 92.628 869.659V870.111H87.4249V869.156H91.3794C91.3794 868.821 91.3112 868.524 91.1749 868.266C91.0385 868.004 90.8467 867.798 90.5996 867.648C90.3553 867.497 90.0683 867.422 89.7388 867.422C89.3808 867.422 89.0683 867.51 88.8013 867.686C88.5371 867.859 88.3325 868.087 88.1876 868.368C88.0456 868.646 87.9746 868.949 87.9746 869.276V870.021C87.9746 870.459 88.0513 870.831 88.2047 871.138C88.3609 871.445 88.5783 871.679 88.8567 871.841C89.1351 872 89.4604 872.08 89.8325 872.08C90.074 872.08 90.2942 872.045 90.493 871.977C90.6919 871.906 90.8638 871.801 91.0087 871.662C91.1536 871.523 91.2643 871.351 91.3411 871.146L92.547 871.364C92.4504 871.719 92.2771 872.03 92.0271 872.297C91.78 872.561 91.4689 872.767 91.0939 872.915C90.7217 873.06 90.297 873.132 89.8197 873.132ZM96.372 873.128C95.8436 873.128 95.372 872.993 94.9572 872.723C94.5453 872.45 94.2214 872.062 93.9856 871.56C93.7527 871.054 93.6362 870.447 93.6362 869.74C93.6362 869.033 93.7541 868.428 93.9899 867.925C94.2285 867.422 94.5552 867.037 94.97 866.77C95.3848 866.503 95.8549 866.369 96.3805 866.369C96.7867 866.369 97.1135 866.438 97.3606 866.574C97.6106 866.707 97.8038 866.864 97.9402 867.043C98.0794 867.222 98.1873 867.379 98.264 867.516H98.3407V864.273H99.6149V873H98.3706V871.982H98.264C98.1873 872.121 98.0765 872.28 97.9316 872.459C97.7896 872.638 97.5936 872.794 97.3436 872.928C97.0936 873.061 96.7697 873.128 96.372 873.128ZM96.6532 872.041C97.0197 872.041 97.3294 871.945 97.5822 871.751C97.8379 871.555 98.0311 871.284 98.1617 870.938C98.2953 870.591 98.362 870.187 98.362 869.727C98.362 869.273 98.2967 868.875 98.166 868.534C98.0353 868.193 97.8436 867.928 97.5907 867.737C97.3379 867.547 97.0254 867.452 96.6532 867.452C96.2697 867.452 95.9501 867.551 95.6944 867.75C95.4387 867.949 95.2456 868.22 95.1149 868.564C94.987 868.908 94.9231 869.295 94.9231 869.727C94.9231 870.165 94.9885 870.558 95.1191 870.908C95.2498 871.257 95.443 871.534 95.6987 871.739C95.9572 871.94 96.2754 872.041 96.6532 872.041ZM104.471 873V864.273H105.746V867.516H105.822C105.896 867.379 106.003 867.222 106.142 867.043C106.281 866.864 106.474 866.707 106.721 866.574C106.969 866.438 107.295 866.369 107.702 866.369C108.23 866.369 108.702 866.503 109.116 866.77C109.531 867.037 109.856 867.422 110.092 867.925C110.331 868.428 110.45 869.033 110.45 869.74C110.45 870.447 110.332 871.054 110.096 871.56C109.861 872.062 109.537 872.45 109.125 872.723C108.713 872.993 108.243 873.128 107.714 873.128C107.317 873.128 106.991 873.061 106.739 872.928C106.489 872.794 106.292 872.638 106.15 872.459C106.008 872.28 105.899 872.121 105.822 871.982H105.716V873H104.471ZM105.72 869.727C105.72 870.187 105.787 870.591 105.92 870.938C106.054 871.284 106.247 871.555 106.5 871.751C106.753 871.945 107.062 872.041 107.429 872.041C107.81 872.041 108.128 871.94 108.383 871.739C108.639 871.534 108.832 871.257 108.963 870.908C109.096 870.558 109.163 870.165 109.163 869.727C109.163 869.295 109.098 868.908 108.967 868.564C108.839 868.22 108.646 867.949 108.388 867.75C108.132 867.551 107.812 867.452 107.429 867.452C107.06 867.452 106.747 867.547 106.491 867.737C106.239 867.928 106.047 868.193 105.916 868.534C105.785 868.875 105.72 869.273 105.72 869.727ZM112.344 875.455C112.153 875.455 111.98 875.439 111.824 875.408C111.668 875.379 111.551 875.348 111.474 875.314L111.781 874.27C112.014 874.332 112.221 874.359 112.403 874.351C112.585 874.342 112.746 874.274 112.885 874.146C113.027 874.018 113.152 873.81 113.26 873.52L113.418 873.085L111.023 866.455H112.386L114.044 871.534H114.112L115.77 866.455H117.138L114.44 873.874C114.315 874.214 114.156 874.503 113.963 874.739C113.77 874.977 113.54 875.156 113.273 875.276C113.006 875.395 112.696 875.455 112.344 875.455ZM128.622 867.111H127.292C127.241 866.827 127.146 866.577 127.007 866.361C126.868 866.145 126.697 865.962 126.495 865.811C126.294 865.661 126.068 865.547 125.818 865.47C125.571 865.393 125.308 865.355 125.029 865.355C124.527 865.355 124.076 865.482 123.679 865.734C123.284 865.987 122.971 866.358 122.741 866.847C122.514 867.335 122.4 867.932 122.4 868.636C122.4 869.347 122.514 869.946 122.741 870.435C122.971 870.923 123.285 871.293 123.683 871.543C124.081 871.793 124.528 871.918 125.025 871.918C125.301 871.918 125.562 871.881 125.809 871.807C126.059 871.73 126.285 871.618 126.487 871.47C126.689 871.322 126.859 871.142 126.998 870.929C127.14 870.713 127.238 870.466 127.292 870.188L128.622 870.192C128.551 870.621 128.413 871.016 128.208 871.376C128.007 871.734 127.747 872.044 127.429 872.305C127.113 872.564 126.752 872.764 126.346 872.906C125.94 873.048 125.497 873.119 125.017 873.119C124.261 873.119 123.588 872.94 122.997 872.582C122.406 872.222 121.94 871.706 121.599 871.036C121.261 870.365 121.092 869.565 121.092 868.636C121.092 867.705 121.262 866.905 121.603 866.237C121.944 865.567 122.41 865.053 123.001 864.695C123.592 864.334 124.264 864.153 125.017 864.153C125.48 864.153 125.912 864.22 126.312 864.354C126.716 864.484 127.078 864.678 127.399 864.933C127.72 865.186 127.985 865.496 128.196 865.862C128.406 866.226 128.548 866.642 128.622 867.111ZM131.249 869.114V873H129.975V864.273H131.232V867.52H131.313C131.467 867.168 131.701 866.888 132.016 866.68C132.332 866.473 132.744 866.369 133.252 866.369C133.701 866.369 134.093 866.462 134.428 866.646C134.766 866.831 135.028 867.107 135.212 867.473C135.4 867.837 135.494 868.291 135.494 868.837V873H134.219V868.99C134.219 868.51 134.096 868.138 133.849 867.874C133.602 867.607 133.258 867.473 132.817 867.473C132.516 867.473 132.246 867.537 132.008 867.665C131.772 867.793 131.586 867.98 131.45 868.227C131.316 868.472 131.249 868.767 131.249 869.114ZM138.979 873.145C138.564 873.145 138.189 873.068 137.854 872.915C137.518 872.759 137.253 872.533 137.057 872.237C136.864 871.942 136.767 871.58 136.767 871.151C136.767 870.781 136.838 870.477 136.98 870.239C137.122 870 137.314 869.811 137.555 869.672C137.797 869.533 138.067 869.428 138.365 869.357C138.663 869.286 138.967 869.232 139.277 869.195C139.669 869.149 139.987 869.112 140.232 869.084C140.476 869.053 140.653 869.003 140.764 868.935C140.875 868.866 140.93 868.756 140.93 868.602V868.572C140.93 868.2 140.825 867.912 140.615 867.707C140.408 867.503 140.098 867.401 139.686 867.401C139.257 867.401 138.919 867.496 138.672 867.686C138.428 867.874 138.259 868.082 138.165 868.312L136.967 868.04C137.109 867.642 137.317 867.321 137.59 867.077C137.865 866.83 138.182 866.651 138.54 866.54C138.898 866.426 139.274 866.369 139.669 866.369C139.93 866.369 140.207 866.401 140.5 866.463C140.795 866.523 141.071 866.634 141.327 866.795C141.585 866.957 141.797 867.189 141.962 867.49C142.126 867.788 142.209 868.176 142.209 868.653V873H140.965V872.105H140.913C140.831 872.27 140.707 872.432 140.543 872.591C140.378 872.75 140.166 872.882 139.908 872.987C139.649 873.092 139.34 873.145 138.979 873.145ZM139.256 872.122C139.608 872.122 139.909 872.053 140.159 871.913C140.412 871.774 140.604 871.592 140.734 871.368C140.868 871.141 140.935 870.898 140.935 870.639V869.795C140.889 869.841 140.801 869.884 140.67 869.923C140.543 869.96 140.396 869.993 140.232 870.021C140.067 870.047 139.906 870.071 139.75 870.094C139.594 870.114 139.463 870.131 139.358 870.145C139.111 870.176 138.885 870.229 138.68 870.303C138.479 870.376 138.317 870.483 138.195 870.622C138.075 870.759 138.016 870.94 138.016 871.168C138.016 871.483 138.132 871.722 138.365 871.884C138.598 872.043 138.895 872.122 139.256 872.122ZM146.236 873.128C145.708 873.128 145.236 872.993 144.821 872.723C144.409 872.45 144.086 872.062 143.85 871.56C143.617 871.054 143.5 870.447 143.5 869.74C143.5 869.033 143.618 868.428 143.854 867.925C144.093 867.422 144.419 867.037 144.834 866.77C145.249 866.503 145.719 866.369 146.245 866.369C146.651 866.369 146.978 866.438 147.225 866.574C147.475 866.707 147.668 866.864 147.804 867.043C147.944 867.222 148.052 867.379 148.128 867.516H148.205V864.273H149.479V873H148.235V871.982H148.128C148.052 872.121 147.941 872.28 147.796 872.459C147.654 872.638 147.458 872.794 147.208 872.928C146.958 873.061 146.634 873.128 146.236 873.128ZM146.517 872.041C146.884 872.041 147.194 871.945 147.446 871.751C147.702 871.555 147.895 871.284 148.026 870.938C148.159 870.591 148.226 870.187 148.226 869.727C148.226 869.273 148.161 868.875 148.03 868.534C147.9 868.193 147.708 867.928 147.455 867.737C147.202 867.547 146.89 867.452 146.517 867.452C146.134 867.452 145.814 867.551 145.559 867.75C145.303 867.949 145.11 868.22 144.979 868.564C144.851 868.908 144.787 869.295 144.787 869.727C144.787 870.165 144.853 870.558 144.983 870.908C145.114 871.257 145.307 871.534 145.563 871.739C145.821 871.94 146.14 872.041 146.517 872.041Z" fill="white"/>
<circle cx="79" cy="88" r="50" fill="#5E636E"/>
<path d="M32.476 155.59H34.114L39.136 162.736H38.308L43.294 155.59H44.914V169H43.132V157.822L43.762 158.02L38.776 165.04H38.632L33.7 158.02L34.258 157.822V169H32.476V155.59ZM52.1584 169.216C51.2464 169.216 50.4184 168.994 49.6744 168.55C48.9304 168.106 48.3424 167.5 47.9104 166.732C47.4904 165.952 47.2804 165.082 47.2804 164.122C47.2804 163.174 47.4844 162.316 47.8924 161.548C48.3124 160.78 48.8824 160.18 49.6024 159.748C50.3224 159.304 51.1264 159.082 52.0144 159.082C52.9264 159.082 53.7244 159.298 54.4084 159.73C55.1044 160.162 55.6384 160.738 56.0104 161.458C56.3824 162.166 56.5684 162.928 56.5684 163.744C56.5684 164.08 56.5384 164.386 56.4784 164.662H48.5224V163.204H55.5064L54.6964 163.852C54.8044 163.252 54.7504 162.7 54.5344 162.196C54.3184 161.692 53.9824 161.296 53.5264 161.008C53.0704 160.72 52.5664 160.576 52.0144 160.576C51.4504 160.576 50.9284 160.726 50.4484 161.026C49.9804 161.314 49.6204 161.728 49.3684 162.268C49.1164 162.808 49.0144 163.432 49.0624 164.14C49.0144 164.836 49.1224 165.454 49.3864 165.994C49.6624 166.522 50.0464 166.936 50.5384 167.236C51.0304 167.536 51.5764 167.686 52.1764 167.686C52.7884 167.686 53.3164 167.542 53.7604 167.254C54.2164 166.966 54.5944 166.576 54.8944 166.084L56.2984 166.804C55.9864 167.5 55.4584 168.076 54.7144 168.532C53.9704 168.988 53.1184 169.216 52.1584 169.216ZM58.7331 159.298H60.3891V161.08L60.2091 160.828C60.4251 160.276 60.7671 159.868 61.2351 159.604C61.7031 159.328 62.2791 159.19 62.9631 159.19H63.5571V160.792H62.7111C62.0151 160.792 61.4571 161.008 61.0371 161.44C60.6291 161.86 60.4251 162.454 60.4251 163.222V169H58.7331V159.298ZM69.544 169.216C68.596 169.216 67.744 168.994 66.988 168.55C66.232 168.106 65.644 167.5 65.224 166.732C64.804 165.964 64.594 165.1 64.594 164.14C64.594 163.18 64.804 162.316 65.224 161.548C65.644 160.78 66.232 160.18 66.988 159.748C67.744 159.304 68.596 159.082 69.544 159.082C70.492 159.082 71.35 159.328 72.118 159.82C72.898 160.3 73.444 160.924 73.756 161.692L72.244 162.43C72.016 161.902 71.656 161.488 71.164 161.188C70.684 160.876 70.144 160.72 69.544 160.72C68.968 160.72 68.434 160.87 67.942 161.17C67.462 161.458 67.078 161.866 66.79 162.394C66.514 162.922 66.376 163.51 66.376 164.158C66.376 164.794 66.514 165.376 66.79 165.904C67.078 166.432 67.462 166.846 67.942 167.146C68.434 167.446 68.968 167.596 69.544 167.596C70.156 167.596 70.702 167.44 71.182 167.128C71.662 166.816 72.016 166.39 72.244 165.85L73.756 166.606C73.444 167.362 72.898 167.986 72.118 168.478C71.338 168.97 70.48 169.216 69.544 169.216ZM75.8718 155.374H77.5638V161.188L77.2578 161.026C77.4978 160.414 77.8818 159.94 78.4098 159.604C78.9498 159.256 79.5798 159.082 80.2998 159.082C80.9838 159.082 81.6018 159.238 82.1538 159.55C82.7058 159.862 83.1378 160.3 83.4498 160.864C83.7738 161.416 83.9358 162.034 83.9358 162.718V169H82.2438V163.258C82.2438 162.742 82.1418 162.292 81.9378 161.908C81.7458 161.524 81.4698 161.23 81.1098 161.026C80.7618 160.822 80.3658 160.72 79.9218 160.72C79.2378 160.72 78.6738 160.954 78.2298 161.422C77.7858 161.878 77.5638 162.49 77.5638 163.258V169H75.8718V155.374ZM89.1576 169.216C88.5336 169.216 87.9696 169.102 87.4656 168.874C86.9736 168.634 86.5896 168.31 86.3136 167.902C86.0376 167.482 85.8996 167.002 85.8996 166.462C85.8996 165.67 86.1636 165.004 86.6916 164.464C87.2196 163.924 88.0176 163.57 89.0856 163.402L92.6676 162.808V164.212L89.4636 164.77C88.8516 164.866 88.4016 165.058 88.1136 165.346C87.8256 165.622 87.6816 165.976 87.6816 166.408C87.6816 166.804 87.8376 167.134 88.1496 167.398C88.4736 167.662 88.8756 167.794 89.3556 167.794C89.9436 167.794 90.4656 167.668 90.9216 167.416C91.3896 167.164 91.7496 166.816 92.0016 166.372C92.2536 165.916 92.3796 165.424 92.3796 164.896V162.412C92.3796 161.884 92.1816 161.458 91.7856 161.134C91.4016 160.798 90.8976 160.63 90.2736 160.63C89.7216 160.63 89.2356 160.774 88.8156 161.062C88.3956 161.338 88.0776 161.71 87.8616 162.178L86.4036 161.422C86.6796 160.75 87.1836 160.192 87.9156 159.748C88.6476 159.304 89.4456 159.082 90.3096 159.082C91.0416 159.082 91.6896 159.226 92.2536 159.514C92.8296 159.79 93.2736 160.186 93.5856 160.702C93.9096 161.206 94.0716 161.776 94.0716 162.412V169H92.4336V167.164L92.7396 167.29C92.4276 167.878 91.9536 168.346 91.3176 168.694C90.6816 169.042 89.9616 169.216 89.1576 169.216ZM96.6491 159.298H98.3051V161.188L98.0351 161.026C98.2751 160.414 98.6591 159.94 99.1871 159.604C99.7271 159.256 100.357 159.082 101.077 159.082C101.761 159.082 102.379 159.238 102.931 159.55C103.483 159.862 103.915 160.3 104.227 160.864C104.551 161.416 104.713 162.034 104.713 162.718V169H103.021V163.258C103.021 162.73 102.925 162.28 102.733 161.908C102.541 161.524 102.265 161.23 101.905 161.026C101.557 160.822 101.155 160.72 100.699 160.72C100.003 160.72 99.4331 160.948 98.9891 161.404C98.5571 161.86 98.3411 162.478 98.3411 163.258V169H96.6491V159.298ZM111.033 169.108C110.085 169.108 109.353 168.838 108.837 168.298C108.321 167.758 108.063 166.996 108.063 166.012V160.9H106.317V159.298H106.677C107.097 159.298 107.433 159.172 107.685 158.92C107.937 158.656 108.063 158.302 108.063 157.858V156.85H109.755V159.298H111.933V160.9H109.755V165.958C109.755 166.486 109.881 166.888 110.133 167.164C110.385 167.44 110.799 167.578 111.375 167.578C111.615 167.578 111.837 167.56 112.041 167.524V169.018C111.765 169.078 111.429 169.108 111.033 169.108ZM117.321 159.298H118.977V161.188L118.707 161.026C118.947 160.414 119.331 159.94 119.859 159.604C120.399 159.256 121.029 159.082 121.749 159.082C122.433 159.082 123.051 159.238 123.603 159.55C124.155 159.862 124.587 160.3 124.899 160.864C125.223 161.416 125.385 162.034 125.385 162.718V169H123.693V163.258C123.693 162.73 123.597 162.28 123.405 161.908C123.213 161.524 122.937 161.23 122.577 161.026C122.229 160.822 121.827 160.72 121.371 160.72C120.675 160.72 120.105 160.948 119.661 161.404C119.229 161.86 119.013 162.478 119.013 163.258V169H117.321V159.298ZM130.607 169.216C129.983 169.216 129.419 169.102 128.915 168.874C128.423 168.634 128.039 168.31 127.763 167.902C127.487 167.482 127.349 167.002 127.349 166.462C127.349 165.67 127.613 165.004 128.141 164.464C128.669 163.924 129.467 163.57 130.535 163.402L134.117 162.808V164.212L130.913 164.77C130.301 164.866 129.851 165.058 129.563 165.346C129.275 165.622 129.131 165.976 129.131 166.408C129.131 166.804 129.287 167.134 129.599 167.398C129.923 167.662 130.325 167.794 130.805 167.794C131.393 167.794 131.915 167.668 132.371 167.416C132.839 167.164 133.199 166.816 133.451 166.372C133.703 165.916 133.829 165.424 133.829 164.896V162.412C133.829 161.884 133.631 161.458 133.235 161.134C132.851 160.798 132.347 160.63 131.723 160.63C131.171 160.63 130.685 160.774 130.265 161.062C129.845 161.338 129.527 161.71 129.311 162.178L127.853 161.422C128.129 160.75 128.633 160.192 129.365 159.748C130.097 159.304 130.895 159.082 131.759 159.082C132.491 159.082 133.139 159.226 133.703 159.514C134.279 159.79 134.723 160.186 135.035 160.702C135.359 161.206 135.521 161.776 135.521 162.412V169H133.883V167.164L134.189 167.29C133.877 167.878 133.403 168.346 132.767 168.694C132.131 169.042 131.411 169.216 130.607 169.216ZM138.098 159.298H139.754V161.278L139.52 160.99C139.76 160.39 140.138 159.922 140.654 159.586C141.17 159.25 141.77 159.082 142.454 159.082C143.222 159.082 143.906 159.292 144.506 159.712C145.106 160.132 145.52 160.684 145.748 161.368L145.28 161.386C145.532 160.654 145.952 160.09 146.54 159.694C147.128 159.286 147.8 159.082 148.556 159.082C149.228 159.082 149.834 159.244 150.374 159.568C150.926 159.88 151.364 160.312 151.688 160.864C152.012 161.416 152.174 162.034 152.174 162.718V169H150.482V163.258C150.482 162.742 150.386 162.292 150.194 161.908C150.002 161.524 149.738 161.23 149.402 161.026C149.066 160.822 148.682 160.72 148.25 160.72C147.59 160.72 147.044 160.954 146.612 161.422C146.192 161.878 145.982 162.49 145.982 163.258V169H144.29V163.258C144.29 162.742 144.194 162.292 144.002 161.908C143.81 161.524 143.546 161.23 143.21 161.026C142.886 160.822 142.502 160.72 142.058 160.72C141.398 160.72 140.852 160.954 140.42 161.422C140 161.878 139.79 162.49 139.79 163.258V169H138.098V159.298ZM159.016 169.216C158.104 169.216 157.276 168.994 156.532 168.55C155.788 168.106 155.2 167.5 154.768 166.732C154.348 165.952 154.138 165.082 154.138 164.122C154.138 163.174 154.342 162.316 154.75 161.548C155.17 160.78 155.74 160.18 156.46 159.748C157.18 159.304 157.984 159.082 158.872 159.082C159.784 159.082 160.582 159.298 161.266 159.73C161.962 160.162 162.496 160.738 162.868 161.458C163.24 162.166 163.426 162.928 163.426 163.744C163.426 164.08 163.396 164.386 163.336 164.662H155.38V163.204H162.364L161.554 163.852C161.662 163.252 161.608 162.7 161.392 162.196C161.176 161.692 160.84 161.296 160.384 161.008C159.928 160.72 159.424 160.576 158.872 160.576C158.308 160.576 157.786 160.726 157.306 161.026C156.838 161.314 156.478 161.728 156.226 162.268C155.974 162.808 155.872 163.432 155.92 164.14C155.872 164.836 155.98 165.454 156.244 165.994C156.52 166.522 156.904 166.936 157.396 167.236C157.888 167.536 158.434 167.686 159.034 167.686C159.646 167.686 160.174 167.542 160.618 167.254C161.074 166.966 161.452 166.576 161.752 166.084L163.156 166.804C162.844 167.5 162.316 168.076 161.572 168.532C160.828 168.988 159.976 169.216 159.016 169.216Z" fill="white"/>
<path d="M101.666 113.5V107.833C101.666 104.828 100.472 101.945 98.3469 99.8195C96.2215 97.694 93.3388 96.5 90.333 96.5H67.6663C64.6606 96.5 61.7779 97.694 59.6525 99.8195C57.5271 101.945 56.333 104.828 56.333 107.833V113.5" stroke="#ACB0B9" stroke-width="5.66667" stroke-linecap="round" stroke-linejoin="round"/>
<path d="M79.0003 85.1667C85.2596 85.1667 90.3337 80.0926 90.3337 73.8333C90.3337 67.5741 85.2596 62.5 79.0003 62.5C72.7411 62.5 67.667 67.5741 67.667 73.8333C67.667 80.0926 72.7411 85.1667 79.0003 85.1667Z" stroke="#ACB0B9" stroke-width="5.66667" stroke-linecap="round" stroke-linejoin="round"/>
</svg>
