<svg width="320" height="48" viewBox="0 0 320 48" fill="none" xmlns="http://www.w3.org/2000/svg">
<rect y="1.11627" width="320" height="46.8837" fill="#F6F6F7"/>
<rect width="320" height="1.11628" fill="#E3E5E8"/>
<path d="M106.383 27.2966C105.843 27.4477 105.434 27.8287 105.232 28.0841C105.147 28.1936 105.109 28.3734 105.042 28.4963C105.013 28.55 104.62 29.3101 104.266 29.5373C103.875 29.7855 103.522 29.8395 103.333 30.2295C103.257 30.3853 103.225 30.5566 103.249 30.7206C103.284 30.9713 103.449 31.2075 103.785 31.354C104.345 31.5981 106.35 31.3745 107.468 29.9933C107.792 29.658 107.936 29.1809 107.994 28.7435C108.115 27.8306 107.271 27.0491 106.383 27.2966Z" fill="#32ABF2"/>
<path d="M105.059 27.3144C105.076 27.2898 105.092 27.2662 105.109 27.2361C105.135 27.1907 105.162 27.1392 105.19 27.0842C104.782 26.8247 104.195 26.3624 104.169 26.3421L104.128 26.3101L104.13 26.3079C104.091 26.277 104.053 26.2482 104.015 26.2148C103.929 26.2356 103.846 26.26 103.768 26.289C103.283 26.4708 102.956 26.7973 102.724 27.0467C102.646 27.1299 102.58 27.2041 102.519 27.2632C102.186 27.5846 101.821 27.7671 101.664 27.8369C101.632 27.8572 101.599 27.8774 101.566 27.8977C100.986 28.2524 101.016 28.8166 101.08 29.0334C101.144 29.2502 101.388 29.8335 102.207 29.819C102.842 29.8077 103.533 29.4702 103.813 29.3186C103.813 29.3186 104.995 28.5598 105.435 27.6497C105.436 27.6494 105.286 27.5191 105.059 27.3144Z" fill="#32ABF2"/>
<path d="M103.277 25.3047C103.127 25.1018 102.995 24.9039 102.899 24.7536C102.861 24.6929 102.829 24.6406 102.803 24.5979C102.691 24.6275 102.551 24.6751 102.397 24.7534C102.029 24.9417 101.652 25.0446 101.428 24.9581C101.205 24.8714 100.713 24.6507 100.363 24.9006C100.014 25.1505 99.9005 25.6082 100.094 25.9465C100.26 26.2375 100.69 26.6963 101.177 26.8829C101.177 26.8829 102.294 27.4175 103.579 26.3035C104.685 25.3441 103.765 25.294 103.277 25.3047Z" fill="#32ABF2"/>
<path d="M108 29.0221C110.975 29.0221 113.386 26.6107 113.386 23.6361C113.386 20.6614 110.975 18.25 108 18.25C105.026 18.25 102.614 20.6614 102.614 23.6361C102.614 26.6107 105.026 29.0221 108 29.0221Z" fill="#32ABF2"/>
<path d="M109.616 27.2966C110.157 27.4477 110.566 27.8287 110.768 28.0841C110.853 28.1936 110.891 28.3734 110.957 28.4963C110.987 28.55 111.38 29.3101 111.734 29.5373C112.124 29.7855 112.478 29.8395 112.667 30.2295C112.743 30.3853 112.775 30.5566 112.75 30.7206C112.715 30.9713 112.551 31.2075 112.214 31.354C111.655 31.5981 109.649 31.3745 108.531 29.9933C108.207 29.658 108.064 29.1809 108.006 28.7435C107.885 27.8306 108.729 27.0491 109.616 27.2966Z" fill="#32ABF2"/>
<path d="M110.941 27.3144C110.925 27.2898 110.908 27.2662 110.891 27.2361C110.865 27.1907 110.838 27.1392 110.81 27.0842C111.218 26.8247 111.805 26.3624 111.831 26.3421L111.872 26.3101L111.87 26.3079C111.909 26.277 111.947 26.2482 111.985 26.2148C112.071 26.2356 112.154 26.26 112.231 26.289C112.717 26.4708 113.044 26.7973 113.276 27.0467C113.353 27.1299 113.42 27.2041 113.481 27.2632C113.814 27.5846 114.179 27.7671 114.336 27.8369C114.368 27.8572 114.401 27.8774 114.434 27.8977C115.014 28.2524 114.984 28.8166 114.92 29.0334C114.856 29.2502 114.612 29.8335 113.792 29.819C113.158 29.8077 112.467 29.4702 112.187 29.3186C112.187 29.3186 111.005 28.5598 110.564 27.6497C110.564 27.6494 110.715 27.5191 110.941 27.3144Z" fill="#32ABF2"/>
<path d="M112.722 25.3047C112.872 25.1018 113.005 24.9039 113.1 24.7536C113.139 24.6929 113.171 24.6406 113.196 24.5979C113.309 24.6275 113.449 24.6751 113.602 24.7534C113.971 24.9417 114.347 25.0446 114.571 24.9581C114.795 24.8714 115.287 24.6507 115.637 24.9006C115.986 25.1505 116.099 25.6082 115.906 25.9465C115.74 26.2375 115.309 26.6963 114.823 26.8829C114.823 26.8829 113.706 27.4175 112.421 26.3035C111.315 25.3441 112.234 25.294 112.722 25.3047Z" fill="#32ABF2"/>
<path d="M106.144 23.9864C106.406 23.9864 106.618 23.7163 106.618 23.3831C106.618 23.0499 106.406 22.7798 106.144 22.7798C105.882 22.7798 105.67 23.0499 105.67 23.3831C105.67 23.7163 105.882 23.9864 106.144 23.9864Z" fill="#34056F"/>
<path d="M106.333 23.125C106.333 23.2435 106.237 23.3396 106.119 23.3396C106 23.3396 105.904 23.2435 105.904 23.125C105.904 23.0065 106 22.9104 106.119 22.9104C106.237 22.9101 106.333 23.0062 106.333 23.125Z" fill="#F9F9F9"/>
<path d="M109.856 23.9864C110.118 23.9864 110.33 23.7163 110.33 23.3831C110.33 23.0499 110.118 22.7798 109.856 22.7798C109.594 22.7798 109.382 23.0499 109.382 23.3831C109.382 23.7163 109.594 23.9864 109.856 23.9864Z" fill="#34056F"/>
<path d="M110.046 23.125C110.046 23.2435 109.95 23.3396 109.832 23.3396C109.713 23.3396 109.617 23.2435 109.617 23.125C109.617 23.0065 109.713 22.9104 109.832 22.9104C109.95 22.9101 110.046 23.0062 110.046 23.125Z" fill="#F9F9F9"/>
<path d="M108.872 25.2393C108.827 25.7834 108.643 26.4768 108 26.4768C107.683 26.4768 107.477 26.3079 107.346 26.0714C107.506 25.7292 107.929 25.1199 108.872 25.2393Z" fill="#EB5A55"/>
<path d="M108.872 25.2392C107.928 25.1199 107.506 25.7292 107.346 26.0714C107.036 25.5193 107.128 24.5979 107.128 24.5979C107.388 24.7096 108 24.6869 108 24.6869C108 24.6869 108.611 24.7096 108.873 24.5979C108.873 24.5979 108.901 24.8878 108.872 25.2392Z" fill="#79292A"/>
<path d="M121.959 29V20.2727H125.07C125.749 20.2727 126.311 20.3963 126.757 20.6435C127.203 20.8906 127.537 21.2287 127.759 21.6577C127.98 22.0838 128.091 22.5639 128.091 23.098C128.091 23.6349 127.979 24.1179 127.754 24.5469C127.533 24.973 127.197 25.3111 126.749 25.5611C126.303 25.8082 125.741 25.9318 125.065 25.9318H122.926V24.8153H124.946C125.375 24.8153 125.723 24.7415 125.99 24.5938C126.257 24.4432 126.453 24.2386 126.578 23.9801C126.703 23.7216 126.766 23.4276 126.766 23.098C126.766 22.7685 126.703 22.4759 126.578 22.2202C126.453 21.9645 126.256 21.7642 125.986 21.6193C125.719 21.4744 125.366 21.402 124.929 21.402H123.276V29H121.959ZM132.087 29.1321C131.474 29.1321 130.938 28.9915 130.481 28.7102C130.023 28.429 129.668 28.0355 129.416 27.5298C129.163 27.0241 129.036 26.4332 129.036 25.7571C129.036 25.0781 129.163 24.4844 129.416 23.9759C129.668 23.4673 130.023 23.0724 130.481 22.7912C130.938 22.5099 131.474 22.3693 132.087 22.3693C132.701 22.3693 133.237 22.5099 133.694 22.7912C134.151 23.0724 134.506 23.4673 134.759 23.9759C135.012 24.4844 135.139 25.0781 135.139 25.7571C135.139 26.4332 135.012 27.0241 134.759 27.5298C134.506 28.0355 134.151 28.429 133.694 28.7102C133.237 28.9915 132.701 29.1321 132.087 29.1321ZM132.092 28.0625C132.489 28.0625 132.819 27.9574 133.08 27.7472C133.342 27.5369 133.535 27.2571 133.66 26.9077C133.788 26.5582 133.852 26.1733 133.852 25.7528C133.852 25.3352 133.788 24.9517 133.66 24.6023C133.535 24.25 133.342 23.9673 133.08 23.7543C132.819 23.5412 132.489 23.4347 132.092 23.4347C131.691 23.4347 131.359 23.5412 131.094 23.7543C130.833 23.9673 130.639 24.25 130.511 24.6023C130.386 24.9517 130.323 25.3352 130.323 25.7528C130.323 26.1733 130.386 26.5582 130.511 26.9077C130.639 27.2571 130.833 27.5369 131.094 27.7472C131.359 27.9574 131.691 28.0625 132.092 28.0625ZM137.661 29L135.734 22.4545H137.051L138.334 27.2614H138.398L139.685 22.4545H141.001L142.28 27.2401H142.344L143.618 22.4545H144.935L143.013 29H141.713L140.384 24.2741H140.286L138.956 29H137.661ZM148.646 29.1321C148.001 29.1321 147.445 28.9943 146.979 28.7188C146.516 28.4403 146.158 28.0497 145.906 27.5469C145.656 27.0412 145.531 26.4489 145.531 25.7699C145.531 25.0994 145.656 24.5085 145.906 23.9972C146.158 23.4858 146.511 23.0866 146.962 22.7997C147.417 22.5128 147.948 22.3693 148.556 22.3693C148.926 22.3693 149.283 22.4304 149.63 22.5526C149.977 22.6747 150.288 22.8665 150.563 23.1278C150.839 23.3892 151.056 23.7287 151.215 24.1463C151.374 24.5611 151.454 25.0653 151.454 25.6591V26.1108H146.251V25.1562H150.205C150.205 24.821 150.137 24.5241 150.001 24.2656C149.864 24.0043 149.673 23.7983 149.426 23.6477C149.181 23.4972 148.894 23.4219 148.565 23.4219C148.207 23.4219 147.894 23.5099 147.627 23.6861C147.363 23.8594 147.158 24.0866 147.014 24.3679C146.872 24.6463 146.801 24.9489 146.801 25.2756V26.0213C146.801 26.4588 146.877 26.831 147.031 27.1378C147.187 27.4446 147.404 27.679 147.683 27.8409C147.961 28 148.286 28.0795 148.658 28.0795C148.9 28.0795 149.12 28.0455 149.319 27.9773C149.518 27.9062 149.69 27.8011 149.835 27.6619C149.979 27.5227 150.09 27.3509 150.167 27.1463L151.373 27.3636C151.276 27.7187 151.103 28.0298 150.853 28.2969C150.606 28.5611 150.295 28.767 149.92 28.9148C149.548 29.0597 149.123 29.1321 148.646 29.1321ZM152.748 29V22.4545H153.979V23.4943H154.047C154.167 23.142 154.377 22.8651 154.678 22.6634C154.982 22.4588 155.326 22.3565 155.709 22.3565C155.789 22.3565 155.883 22.3594 155.991 22.3651C156.101 22.3707 156.188 22.3778 156.25 22.3864V23.6051C156.199 23.5909 156.108 23.5753 155.978 23.5582C155.847 23.5384 155.716 23.5284 155.586 23.5284C155.285 23.5284 155.016 23.5923 154.78 23.7202C154.547 23.8452 154.363 24.0199 154.226 24.2443C154.09 24.4659 154.022 24.7187 154.022 25.0028V29H152.748ZM159.82 29.1321C159.175 29.1321 158.619 28.9943 158.154 28.7188C157.69 28.4403 157.333 28.0497 157.08 27.5469C156.83 27.0412 156.705 26.4489 156.705 25.7699C156.705 25.0994 156.83 24.5085 157.08 23.9972C157.333 23.4858 157.685 23.0866 158.137 22.7997C158.591 22.5128 159.122 22.3693 159.73 22.3693C160.1 22.3693 160.458 22.4304 160.804 22.5526C161.151 22.6747 161.462 22.8665 161.737 23.1278C162.013 23.3892 162.23 23.7287 162.389 24.1463C162.548 24.5611 162.628 25.0653 162.628 25.6591V26.1108H157.425V25.1562H161.379C161.379 24.821 161.311 24.5241 161.175 24.2656C161.038 24.0043 160.847 23.7983 160.6 23.6477C160.355 23.4972 160.068 23.4219 159.739 23.4219C159.381 23.4219 159.068 23.5099 158.801 23.6861C158.537 23.8594 158.333 24.0866 158.188 24.3679C158.046 24.6463 157.975 24.9489 157.975 25.2756V26.0213C157.975 26.4588 158.051 26.831 158.205 27.1378C158.361 27.4446 158.578 27.679 158.857 27.8409C159.135 28 159.46 28.0795 159.833 28.0795C160.074 28.0795 160.294 28.0455 160.493 27.9773C160.692 27.9062 160.864 27.8011 161.009 27.6619C161.154 27.5227 161.264 27.3509 161.341 27.1463L162.547 27.3636C162.45 27.7187 162.277 28.0298 162.027 28.2969C161.78 28.5611 161.469 28.767 161.094 28.9148C160.722 29.0597 160.297 29.1321 159.82 29.1321ZM166.372 29.1278C165.844 29.1278 165.372 28.9929 164.957 28.723C164.545 28.4503 164.221 28.0625 163.986 27.5597C163.753 27.054 163.636 26.4474 163.636 25.7401C163.636 25.0327 163.754 24.4276 163.99 23.9247C164.229 23.4219 164.555 23.0369 164.97 22.7699C165.385 22.5028 165.855 22.3693 166.38 22.3693C166.787 22.3693 167.113 22.4375 167.361 22.5739C167.611 22.7074 167.804 22.8636 167.94 23.0426C168.079 23.2216 168.187 23.3793 168.264 23.5156H168.341V20.2727H169.615V29H168.371V27.9815H168.264C168.187 28.1207 168.077 28.2798 167.932 28.4588C167.79 28.6378 167.594 28.794 167.344 28.9276C167.094 29.0611 166.77 29.1278 166.372 29.1278ZM166.653 28.0412C167.02 28.0412 167.329 27.9446 167.582 27.7514C167.838 27.5554 168.031 27.2841 168.162 26.9375C168.295 26.5909 168.362 26.1875 168.362 25.7273C168.362 25.2727 168.297 24.875 168.166 24.5341C168.035 24.1932 167.844 23.9276 167.591 23.7372C167.338 23.5469 167.025 23.4517 166.653 23.4517C166.27 23.4517 165.95 23.5511 165.694 23.75C165.439 23.9489 165.246 24.2202 165.115 24.5639C164.987 24.9077 164.923 25.2955 164.923 25.7273C164.923 26.1648 164.988 26.5582 165.119 26.9077C165.25 27.2571 165.443 27.5341 165.699 27.7386C165.957 27.9403 166.275 28.0412 166.653 28.0412ZM174.471 29V20.2727H175.746V23.5156H175.822C175.896 23.3793 176.003 23.2216 176.142 23.0426C176.281 22.8636 176.474 22.7074 176.721 22.5739C176.969 22.4375 177.295 22.3693 177.702 22.3693C178.23 22.3693 178.702 22.5028 179.116 22.7699C179.531 23.0369 179.856 23.4219 180.092 23.9247C180.331 24.4276 180.45 25.0327 180.45 25.7401C180.45 26.4474 180.332 27.054 180.096 27.5597C179.861 28.0625 179.537 28.4503 179.125 28.723C178.713 28.9929 178.243 29.1278 177.714 29.1278C177.317 29.1278 176.991 29.0611 176.739 28.9276C176.489 28.794 176.292 28.6378 176.15 28.4588C176.008 28.2798 175.899 28.1207 175.822 27.9815H175.716V29H174.471ZM175.72 25.7273C175.72 26.1875 175.787 26.5909 175.92 26.9375C176.054 27.2841 176.247 27.5554 176.5 27.7514C176.753 27.9446 177.062 28.0412 177.429 28.0412C177.81 28.0412 178.128 27.9403 178.383 27.7386C178.639 27.5341 178.832 27.2571 178.963 26.9077C179.096 26.5582 179.163 26.1648 179.163 25.7273C179.163 25.2955 179.098 24.9077 178.967 24.5639C178.839 24.2202 178.646 23.9489 178.388 23.75C178.132 23.5511 177.812 23.4517 177.429 23.4517C177.06 23.4517 176.747 23.5469 176.491 23.7372C176.239 23.9276 176.047 24.1932 175.916 24.5341C175.785 24.875 175.72 25.2727 175.72 25.7273ZM182.344 31.4545C182.153 31.4545 181.98 31.4389 181.824 31.4077C181.668 31.3793 181.551 31.348 181.474 31.3139L181.781 30.2699C182.014 30.3324 182.221 30.3594 182.403 30.3509C182.585 30.3423 182.746 30.2741 182.885 30.1463C183.027 30.0185 183.152 29.8097 183.26 29.5199L183.418 29.0852L181.023 22.4545H182.386L184.044 27.5341H184.112L185.77 22.4545H187.138L184.44 29.8736C184.315 30.2145 184.156 30.5028 183.963 30.7386C183.77 30.9773 183.54 31.1563 183.273 31.2756C183.006 31.3949 182.696 31.4545 182.344 31.4545ZM198.622 23.1108H197.292C197.241 22.8267 197.146 22.5767 197.007 22.3608C196.868 22.1449 196.697 21.9616 196.495 21.8111C196.294 21.6605 196.068 21.5469 195.818 21.4702C195.571 21.3935 195.308 21.3551 195.029 21.3551C194.527 21.3551 194.076 21.4815 193.679 21.7344C193.284 21.9872 192.971 22.358 192.741 22.8466C192.514 23.3352 192.4 23.9318 192.4 24.6364C192.4 25.3466 192.514 25.946 192.741 26.4347C192.971 26.9233 193.285 27.2926 193.683 27.5426C194.081 27.7926 194.528 27.9176 195.025 27.9176C195.301 27.9176 195.562 27.8807 195.809 27.8068C196.059 27.7301 196.285 27.6179 196.487 27.4702C196.689 27.3224 196.859 27.142 196.998 26.929C197.14 26.7131 197.238 26.4659 197.292 26.1875L198.622 26.1918C198.551 26.6207 198.413 27.0156 198.208 27.3764C198.007 27.7344 197.747 28.044 197.429 28.3054C197.113 28.5639 196.752 28.7642 196.346 28.9062C195.94 29.0483 195.497 29.1193 195.017 29.1193C194.261 29.1193 193.588 28.9403 192.997 28.5824C192.406 28.2216 191.94 27.706 191.599 27.0355C191.261 26.3651 191.092 25.5653 191.092 24.6364C191.092 23.7045 191.262 22.9048 191.603 22.2372C191.944 21.5668 192.41 21.0526 193.001 20.6946C193.592 20.3338 194.264 20.1534 195.017 20.1534C195.48 20.1534 195.912 20.2202 196.312 20.3537C196.716 20.4844 197.078 20.6776 197.399 20.9332C197.72 21.1861 197.985 21.4957 198.196 21.8622C198.406 22.2259 198.548 22.642 198.622 23.1108ZM201.249 25.1136V29H199.975V20.2727H201.232V23.5199H201.313C201.467 23.1676 201.701 22.8878 202.016 22.6804C202.332 22.473 202.744 22.3693 203.252 22.3693C203.701 22.3693 204.093 22.4616 204.428 22.6463C204.766 22.831 205.028 23.1065 205.212 23.473C205.4 23.8366 205.494 24.2912 205.494 24.8366V29H204.219V24.9901C204.219 24.5099 204.096 24.1378 203.849 23.8736C203.602 23.6065 203.258 23.473 202.817 23.473C202.516 23.473 202.246 23.5369 202.008 23.6648C201.772 23.7926 201.586 23.9801 201.45 24.2273C201.316 24.4716 201.249 24.767 201.249 25.1136ZM208.979 29.1449C208.564 29.1449 208.189 29.0682 207.854 28.9148C207.518 28.7585 207.253 28.5327 207.057 28.2372C206.864 27.9418 206.767 27.5795 206.767 27.1506C206.767 26.7812 206.838 26.4773 206.98 26.2386C207.122 26 207.314 25.8111 207.555 25.6719C207.797 25.5327 208.067 25.4276 208.365 25.3565C208.663 25.2855 208.967 25.2315 209.277 25.1946C209.669 25.1491 209.987 25.1122 210.232 25.0838C210.476 25.0526 210.653 25.0028 210.764 24.9347C210.875 24.8665 210.93 24.7557 210.93 24.6023V24.5724C210.93 24.2003 210.825 23.9119 210.615 23.7074C210.408 23.5028 210.098 23.4006 209.686 23.4006C209.257 23.4006 208.919 23.4957 208.672 23.6861C208.428 23.8736 208.259 24.0824 208.165 24.3125L206.967 24.0398C207.109 23.642 207.317 23.321 207.59 23.0767C207.865 22.8295 208.182 22.6506 208.54 22.5398C208.898 22.4261 209.274 22.3693 209.669 22.3693C209.93 22.3693 210.207 22.4006 210.5 22.4631C210.795 22.5227 211.071 22.6335 211.327 22.7955C211.585 22.9574 211.797 23.1889 211.962 23.4901C212.126 23.7884 212.209 24.1761 212.209 24.6534V29H210.965V28.1051H210.913C210.831 28.2699 210.707 28.4318 210.543 28.5909C210.378 28.75 210.166 28.8821 209.908 28.9872C209.649 29.0923 209.34 29.1449 208.979 29.1449ZM209.256 28.1222C209.608 28.1222 209.909 28.0526 210.159 27.9134C210.412 27.7741 210.604 27.5923 210.734 27.3679C210.868 27.1406 210.935 26.8977 210.935 26.6392V25.7955C210.889 25.8409 210.801 25.8835 210.67 25.9233C210.543 25.9602 210.396 25.9929 210.232 26.0213C210.067 26.0469 209.906 26.071 209.75 26.0938C209.594 26.1136 209.463 26.1307 209.358 26.1449C209.111 26.1761 208.885 26.2287 208.68 26.3026C208.479 26.3764 208.317 26.483 208.195 26.6222C208.075 26.7585 208.016 26.9403 208.016 27.1676C208.016 27.483 208.132 27.7216 208.365 27.8835C208.598 28.0426 208.895 28.1222 209.256 28.1222ZM216.236 29.1278C215.708 29.1278 215.236 28.9929 214.821 28.723C214.409 28.4503 214.086 28.0625 213.85 27.5597C213.617 27.054 213.5 26.4474 213.5 25.7401C213.5 25.0327 213.618 24.4276 213.854 23.9247C214.093 23.4219 214.419 23.0369 214.834 22.7699C215.249 22.5028 215.719 22.3693 216.245 22.3693C216.651 22.3693 216.978 22.4375 217.225 22.5739C217.475 22.7074 217.668 22.8636 217.804 23.0426C217.944 23.2216 218.052 23.3793 218.128 23.5156H218.205V20.2727H219.479V29H218.235V27.9815H218.128C218.052 28.1207 217.941 28.2798 217.796 28.4588C217.654 28.6378 217.458 28.794 217.208 28.9276C216.958 29.0611 216.634 29.1278 216.236 29.1278ZM216.517 28.0412C216.884 28.0412 217.194 27.9446 217.446 27.7514C217.702 27.5554 217.895 27.2841 218.026 26.9375C218.159 26.5909 218.226 26.1875 218.226 25.7273C218.226 25.2727 218.161 24.875 218.03 24.5341C217.9 24.1932 217.708 23.9276 217.455 23.7372C217.202 23.5469 216.89 23.4517 216.517 23.4517C216.134 23.4517 215.814 23.5511 215.559 23.75C215.303 23.9489 215.11 24.2202 214.979 24.5639C214.851 24.9077 214.787 25.2955 214.787 25.7273C214.787 26.1648 214.853 26.5582 214.983 26.9077C215.114 27.2571 215.307 27.5341 215.563 27.7386C215.821 27.9403 216.14 28.0412 216.517 28.0412Z" fill="#27282B"/>
</svg>
