<svg width="140" height="142" viewBox="0 0 140 142" fill="none" xmlns="http://www.w3.org/2000/svg">
<path d="M139.219 93.8254C134.955 106.384 127.259 117.497 117.003 125.906C106.747 134.314 94.3406 139.682 81.19 141.401C68.0394 143.12 54.6703 141.121 42.5975 135.631C30.5246 130.141 20.2308 121.38 12.8825 110.339C5.53413 99.2984 1.42503 86.4204 1.02079 73.1641C0.616552 59.9078 3.93334 46.8032 10.5953 35.3354C17.2573 23.8676 26.9981 14.4949 38.714 8.27955C50.4299 2.06416 63.6524 -0.745499 76.8833 0.168964L75.6264 18.355C65.7925 17.6753 55.9649 19.7636 47.2571 24.3832C38.5493 29.0028 31.3095 35.9689 26.358 44.4924C21.4065 53.0158 18.9413 62.7557 19.2418 72.6084C19.5422 82.4611 22.5963 92.0327 28.0579 100.239C33.5196 108.445 41.1704 114.957 50.1435 119.037C59.1166 123.117 69.0532 124.603 78.8273 123.325C88.6015 122.048 97.8224 118.058 105.445 111.808C113.068 105.559 118.788 97.2989 121.957 87.9649L139.219 93.8254Z" fill="#4285F4"/>
</svg>
