<svg width="30" height="25" viewBox="0 0 30 25" fill="none" xmlns="http://www.w3.org/2000/svg">
<path d="M12.1144 17.0642C11.1542 17.3326 10.4283 18.0093 10.0695 18.4629C9.91786 18.6574 9.85029 18.9768 9.73263 19.1951C9.68061 19.2904 8.98199 20.6405 8.35337 21.044C7.65913 21.4849 7.03245 21.5807 6.69651 22.2735C6.56136 22.5501 6.50496 22.8545 6.54774 23.1457C6.61046 23.591 6.90216 24.0106 7.49966 24.2707C8.49339 24.7044 12.0555 24.3072 14.0415 21.8539C14.6167 21.2584 14.8714 20.411 14.975 19.6341C15.1899 18.0127 13.6915 16.6247 12.1144 17.0642Z" fill="#32ABF2"/>
<path d="M9.76097 17.0958C9.79014 17.052 9.81931 17.0102 9.84945 16.9567C9.89564 16.876 9.94328 16.7846 9.99385 16.6869C9.26946 16.226 8.22662 15.4049 8.18092 15.3689L8.10751 15.312L8.11043 15.3081C8.04237 15.2532 7.9743 15.2021 7.90575 15.1428C7.7531 15.1798 7.60627 15.223 7.46869 15.2746C6.60574 15.5974 6.02525 16.1774 5.61347 16.6203C5.47588 16.7681 5.35775 16.8998 5.24982 17.0048C4.65864 17.5756 4.01009 17.8999 3.73054 18.0239C3.67366 18.0598 3.6158 18.0958 3.55698 18.1318C2.52581 18.7619 2.58027 19.7639 2.69354 20.1489C2.80682 20.5339 3.24048 21.57 4.69607 21.5442C5.82349 21.5243 7.05058 20.9248 7.54696 20.6555C7.54696 20.6555 9.64721 19.3078 10.429 17.6913C10.4304 17.6908 10.1635 17.4594 9.76097 17.0958Z" fill="#32ABF2"/>
<path d="M6.59752 13.5263C6.3311 13.166 6.0958 12.8145 5.92613 12.5476C5.85806 12.4397 5.80069 12.3468 5.75548 12.271C5.55566 12.3235 5.30675 12.4081 5.03449 12.5471C4.38011 12.8816 3.71114 13.0644 3.31346 12.9108C2.91626 12.7567 2.04213 12.3648 1.42129 12.8087C0.800452 13.2526 0.599666 14.0654 0.942901 14.6663C1.23801 15.1831 2.00275 15.998 2.86667 16.3295C2.86667 16.3295 4.85072 17.279 7.13231 15.3003C9.09789 13.5963 7.46436 13.5073 6.59752 13.5263Z" fill="#32ABF2"/>
<path d="M14.9848 20.129C20.2681 20.129 24.5511 15.846 24.5511 10.5627C24.5511 5.27933 20.2681 0.996338 14.9848 0.996338C9.70145 0.996338 5.41846 5.27933 5.41846 10.5627C5.41846 15.846 9.70145 20.129 14.9848 20.129Z" fill="#32ABF2"/>
<path d="M17.8558 17.0642C18.816 17.3326 19.5418 18.0093 19.9006 18.4629C20.0523 18.6574 20.1199 18.9768 20.2375 19.1951C20.2895 19.2904 20.9882 20.6405 21.6168 21.044C22.3105 21.4849 22.9377 21.5807 23.2736 22.2735C23.4088 22.5501 23.4652 22.8545 23.4224 23.1457C23.3597 23.591 23.068 24.0106 22.4705 24.2707C21.4767 24.7044 17.9146 24.3072 15.9286 21.8539C15.3535 21.2584 15.0987 20.411 14.9952 19.6341C14.7808 18.0127 16.2791 16.6247 17.8558 17.0642Z" fill="#32ABF2"/>
<path d="M20.209 17.0958C20.1798 17.052 20.1507 17.0102 20.1205 16.9567C20.0743 16.876 20.0267 16.7846 19.9761 16.6869C20.7005 16.226 21.7434 15.4049 21.7891 15.3689L21.8625 15.312L21.8595 15.3081C21.9276 15.2532 21.9957 15.2021 22.0637 15.1428C22.2164 15.1798 22.3632 15.223 22.5008 15.2746C23.3637 15.5974 23.9442 16.1774 24.356 16.6203C24.4936 16.7681 24.6117 16.8998 24.7197 17.0048C25.3109 17.5756 25.9594 17.8999 26.2389 18.0239C26.2958 18.0598 26.3537 18.0958 26.4125 18.1318C27.4437 18.7619 27.3892 19.7639 27.2759 20.1489C27.1627 20.5339 26.729 21.57 25.2734 21.5442C24.1465 21.5243 22.9189 20.9248 22.4225 20.6555C22.4225 20.6555 20.3218 19.3078 19.54 17.6913C19.5396 17.6908 19.8069 17.4594 20.209 17.0958Z" fill="#32ABF2"/>
<path d="M23.3734 13.5263C23.6399 13.166 23.8752 12.8145 24.0448 12.5476C24.1129 12.4397 24.1703 12.3468 24.2155 12.271C24.4153 12.3235 24.6642 12.4081 24.9365 12.5471C25.5909 12.8816 26.2598 13.0644 26.6575 12.9108C27.0547 12.7567 27.9288 12.3648 28.5497 12.8087C29.1705 13.2526 29.3713 14.0654 29.0281 14.6663C28.733 15.1831 27.9682 15.998 27.1043 16.3295C27.1043 16.3295 25.1202 17.279 22.8387 15.3003C20.8731 13.5963 22.5066 13.5073 23.3734 13.5263Z" fill="#32ABF2"/>
<path d="M11.6877 11.1849C12.1528 11.1849 12.5298 10.7052 12.5298 10.1134C12.5298 9.5216 12.1528 9.04187 11.6877 9.04187C11.2227 9.04187 10.8457 9.5216 10.8457 10.1134C10.8457 10.7052 11.2227 11.1849 11.6877 11.1849Z" fill="#34056F"/>
<path d="M12.0245 9.65496C12.0245 9.86547 11.8539 10.0361 11.6434 10.0361C11.4329 10.0361 11.2622 9.86547 11.2622 9.65496C11.2622 9.44445 11.4329 9.2738 11.6434 9.2738C11.8539 9.27332 12.0245 9.44396 12.0245 9.65496Z" fill="#F9F9F9"/>
<path d="M18.2825 11.1849C18.7475 11.1849 19.1245 10.7052 19.1245 10.1134C19.1245 9.5216 18.7475 9.04187 18.2825 9.04187C17.8174 9.04187 17.4404 9.5216 17.4404 10.1134C17.4404 10.7052 17.8174 11.1849 18.2825 11.1849Z" fill="#34056F"/>
<path d="M18.6188 9.65496C18.6188 9.86547 18.4481 10.0361 18.2376 10.0361C18.0271 10.0361 17.8564 9.86547 17.8564 9.65496C17.8564 9.44445 18.0271 9.2738 18.2376 9.2738C18.4481 9.27332 18.6188 9.44396 18.6188 9.65496Z" fill="#F9F9F9"/>
<path d="M16.5336 13.4102C16.4534 14.3767 16.1282 15.6081 14.9857 15.6081C14.4217 15.6081 14.0571 15.3082 13.8232 14.8881C14.1072 14.2804 14.8588 13.1982 16.5336 13.4102Z" fill="#EB5A55"/>
<path d="M16.5334 13.4101C14.858 13.1981 14.1069 14.2803 13.823 14.888C13.2736 13.9074 13.436 12.271 13.436 12.271C13.8983 12.4694 14.9854 12.429 14.9854 12.429C14.9854 12.429 16.071 12.4694 16.5348 12.271C16.5348 12.271 16.5859 12.7859 16.5334 13.4101Z" fill="#79292A"/>
</svg>
